; NON-PLATED HOLES START AT T1
; THROUGH (PLATED) HOLES START AT T100
M48
INCH
T1C0.125984
T100C0.039370
T101C0.038000
T102C0.035000
T103C0.031497
T104C0.030000
%
T1
X021444Y001350
X001444Y029349
X021444Y029349
X001444Y001350
T100
X018964Y019349
X021444Y019349
X018964Y009349
X021444Y009349
X020145Y021318
X020145Y011318
X020145Y026318
X020145Y016318
X020145Y006318
X018964Y024349
X021444Y024349
X018964Y014349
X021444Y014349
X018964Y004349
X021444Y004349
T101
X001444Y009350
X001444Y015349
X011444Y017349
X001444Y013350
X011444Y021349
X011444Y014349
X011444Y008350
X001444Y010350
X011444Y012350
X001444Y017349
X011444Y019349
X001444Y021349
X001444Y008350
X001444Y014349
X011444Y016349
X001444Y012350
X011444Y020349
X011444Y007350
X011444Y011350
X001444Y019349
X001444Y016349
X011444Y018349
X001444Y020349
X001444Y007350
X011444Y015349
X011444Y009350
X001444Y011350
X011444Y013350
X011444Y010350
X001444Y018349
T102
X013444Y008349
X013444Y018349
X013444Y022349
X013444Y013349
X013444Y004349
X017444Y008349
X017444Y018349
X017444Y022349
X017444Y013349
X017444Y004349
T103
X014444Y024349
X015428Y024349
T104
X014444Y020349
X015444Y010349
X015444Y020349
X016444Y015349
X016444Y006349
X016444Y010349
X016444Y020349
X014444Y015349
X015444Y015349
X014444Y006349
X015444Y006349
X014444Y010349
T00
M30
