G04 MADE WITH FRITZING*
G04 WWW.FRITZING.ORG*
G04 DOUBLE SIDED*
G04 HOLES PLATED*
G04 CONTOUR ON CENTER OF CONTOUR VECTOR*
%ASAXBY*%
%FSLAX23Y23*%
%MOIN*%
%OFA0B0*%
%SFA1.0B1.0*%
%ADD10C,0.070000*%
%ADD11C,0.052000*%
%ADD12C,0.075000*%
%ADD13C,0.078740*%
%ADD14C,0.062992*%
%ADD15R,0.062992X0.062992*%
%ADD16C,0.048000*%
%ADD17C,0.024000*%
%ADD18R,0.001000X0.001000*%
%LNCOPPER0*%
G90*
G70*
G54D10*
X1644Y1035D03*
X1544Y1035D03*
X1444Y1035D03*
X1644Y635D03*
X1544Y635D03*
X1444Y635D03*
X1644Y2035D03*
X1544Y2035D03*
X1444Y2035D03*
X1644Y1535D03*
X1544Y1535D03*
X1444Y1535D03*
G54D11*
X1144Y735D03*
X1144Y835D03*
X1144Y935D03*
X1144Y1035D03*
X1144Y1135D03*
X1144Y1235D03*
X1144Y1335D03*
X1144Y1435D03*
X1144Y1535D03*
X1144Y1635D03*
X1144Y1735D03*
X1144Y1835D03*
X1144Y1935D03*
X1144Y2035D03*
X1144Y2135D03*
X144Y2135D03*
X144Y2035D03*
X144Y1935D03*
X144Y1835D03*
X144Y1735D03*
X144Y1635D03*
X144Y1535D03*
X144Y1435D03*
X144Y1335D03*
X144Y1235D03*
X144Y1135D03*
X144Y1035D03*
X144Y935D03*
X144Y835D03*
X144Y735D03*
G54D12*
X1344Y435D03*
X1744Y435D03*
X1344Y835D03*
X1744Y835D03*
X1344Y1335D03*
X1744Y1335D03*
X1344Y1835D03*
X1744Y1835D03*
G54D13*
X1896Y1935D03*
X2144Y1935D03*
X2015Y2132D03*
X1896Y435D03*
X2144Y435D03*
X2015Y632D03*
X1896Y935D03*
X2144Y935D03*
X2015Y1132D03*
X1896Y2435D03*
X2144Y2435D03*
X2015Y2632D03*
X1896Y1435D03*
X2144Y1435D03*
X2015Y1632D03*
G54D12*
X1344Y2235D03*
X1744Y2235D03*
G54D14*
X1543Y2435D03*
X1444Y2435D03*
G54D15*
X1543Y2435D03*
G54D16*
X1445Y2635D02*
X1445Y2462D01*
D02*
X1984Y2632D02*
X1445Y2635D01*
D02*
X1445Y2335D02*
X1445Y2061D01*
D02*
X1445Y2408D02*
X1445Y2335D01*
D02*
X1445Y1836D02*
X1445Y1561D01*
D02*
X1445Y2009D02*
X1445Y1836D01*
D02*
X1445Y1435D02*
X1445Y1061D01*
D02*
X1445Y1509D02*
X1445Y1435D01*
D02*
X1445Y734D02*
X1345Y734D01*
D02*
X1345Y734D02*
X1181Y817D01*
D02*
X1445Y1009D02*
X1445Y834D01*
D02*
X1445Y834D02*
X1445Y734D01*
D02*
X1445Y734D02*
X1445Y672D01*
D02*
X1181Y817D02*
X1345Y734D01*
D02*
X1345Y734D02*
X1445Y734D01*
G54D17*
D02*
X1744Y1035D02*
X1671Y1035D01*
D02*
X1744Y864D02*
X1744Y1035D01*
D02*
X1544Y1135D02*
X1544Y1061D01*
D02*
X1984Y1132D02*
X1544Y1135D01*
D02*
X1744Y1535D02*
X1671Y1535D01*
D02*
X1744Y1364D02*
X1744Y1535D01*
D02*
X1544Y734D02*
X1544Y661D01*
D02*
X1997Y657D02*
X1944Y734D01*
D02*
X1944Y734D02*
X1544Y734D01*
D02*
X344Y935D02*
X175Y935D01*
D02*
X344Y634D02*
X344Y935D01*
D02*
X1345Y634D02*
X344Y634D01*
D02*
X1345Y464D02*
X1345Y634D01*
D02*
X1245Y1135D02*
X1175Y1135D01*
D02*
X1335Y862D02*
X1245Y1135D01*
D02*
X945Y1035D02*
X1114Y1035D01*
D02*
X1345Y2435D02*
X945Y2435D01*
D02*
X945Y2435D02*
X945Y1035D01*
D02*
X1345Y2264D02*
X1345Y2435D01*
D02*
X1345Y1936D02*
X1345Y1864D01*
D02*
X1175Y1935D02*
X1345Y1936D01*
D02*
X1245Y1836D02*
X1175Y1835D01*
D02*
X1339Y1363D02*
X1245Y1836D01*
D02*
X1544Y1635D02*
X1544Y1561D01*
D02*
X1984Y1632D02*
X1544Y1635D01*
D02*
X1744Y2034D02*
X1671Y2035D01*
D02*
X1744Y1864D02*
X1744Y2034D01*
D02*
X1544Y2134D02*
X1544Y2061D01*
D02*
X1984Y2132D02*
X1544Y2134D01*
D02*
X1644Y2435D02*
X1732Y2261D01*
D02*
X1570Y2435D02*
X1644Y2435D01*
D02*
X1744Y634D02*
X1671Y635D01*
D02*
X1744Y464D02*
X1744Y634D01*
G54D16*
D02*
X144Y536D02*
X144Y705D01*
D02*
X2245Y734D02*
X2243Y274D01*
D02*
X2243Y274D02*
X342Y274D01*
D02*
X344Y536D02*
X144Y536D01*
D02*
X342Y274D02*
X344Y536D01*
D02*
X1923Y920D02*
X2245Y734D01*
D02*
X2245Y734D02*
X1923Y920D01*
D02*
X2245Y1235D02*
X2245Y734D01*
D02*
X1923Y1420D02*
X2245Y1235D01*
D02*
X2245Y1235D02*
X1923Y1420D01*
D02*
X2245Y1736D02*
X2245Y1235D01*
D02*
X1923Y1920D02*
X2245Y1736D01*
D02*
X2245Y1736D02*
X1923Y1920D01*
D02*
X2245Y2234D02*
X2245Y1736D01*
D02*
X1923Y2420D02*
X2245Y2234D01*
D02*
X2245Y734D02*
X1923Y920D01*
D02*
X1944Y336D02*
X2245Y235D01*
D02*
X2245Y235D02*
X2245Y734D01*
D02*
X1910Y407D02*
X1944Y336D01*
G54D18*
X1968Y2671D02*
X2060Y2671D01*
X1964Y2670D02*
X2064Y2670D01*
X1961Y2669D02*
X2067Y2669D01*
X1959Y2668D02*
X2069Y2668D01*
X1956Y2667D02*
X2072Y2667D01*
X1955Y2666D02*
X2073Y2666D01*
X1953Y2665D02*
X2075Y2665D01*
X1952Y2664D02*
X2076Y2664D01*
X1950Y2663D02*
X2078Y2663D01*
X1949Y2662D02*
X2079Y2662D01*
X1948Y2661D02*
X2080Y2661D01*
X1947Y2660D02*
X2081Y2660D01*
X1946Y2659D02*
X2082Y2659D01*
X1945Y2658D02*
X2083Y2658D01*
X1944Y2657D02*
X2084Y2657D01*
X1944Y2656D02*
X2084Y2656D01*
X1943Y2655D02*
X2085Y2655D01*
X1942Y2654D02*
X2086Y2654D01*
X1942Y2653D02*
X2086Y2653D01*
X1941Y2652D02*
X2087Y2652D01*
X1940Y2651D02*
X2008Y2651D01*
X2020Y2651D02*
X2088Y2651D01*
X1940Y2650D02*
X2005Y2650D01*
X2023Y2650D02*
X2088Y2650D01*
X1939Y2649D02*
X2003Y2649D01*
X2025Y2649D02*
X2088Y2649D01*
X1939Y2648D02*
X2002Y2648D01*
X2026Y2648D02*
X2089Y2648D01*
X1939Y2647D02*
X2000Y2647D01*
X2027Y2647D02*
X2089Y2647D01*
X1938Y2646D02*
X1999Y2646D01*
X2029Y2646D02*
X2090Y2646D01*
X1938Y2645D02*
X1999Y2645D01*
X2029Y2645D02*
X2090Y2645D01*
X1938Y2644D02*
X1998Y2644D01*
X2030Y2644D02*
X2090Y2644D01*
X1937Y2643D02*
X1997Y2643D01*
X2031Y2643D02*
X2091Y2643D01*
X1937Y2642D02*
X1996Y2642D01*
X2032Y2642D02*
X2091Y2642D01*
X1937Y2641D02*
X1996Y2641D01*
X2032Y2641D02*
X2091Y2641D01*
X1936Y2640D02*
X1995Y2640D01*
X2033Y2640D02*
X2091Y2640D01*
X1936Y2639D02*
X1995Y2639D01*
X2033Y2639D02*
X2092Y2639D01*
X1936Y2638D02*
X1995Y2638D01*
X2033Y2638D02*
X2092Y2638D01*
X1936Y2637D02*
X1994Y2637D01*
X2034Y2637D02*
X2092Y2637D01*
X1936Y2636D02*
X1994Y2636D01*
X2034Y2636D02*
X2092Y2636D01*
X1936Y2635D02*
X1994Y2635D01*
X2034Y2635D02*
X2092Y2635D01*
X1936Y2634D02*
X1994Y2634D01*
X2034Y2634D02*
X2092Y2634D01*
X1936Y2633D02*
X1994Y2633D01*
X2034Y2633D02*
X2092Y2633D01*
X1936Y2632D02*
X1994Y2632D01*
X2034Y2632D02*
X2092Y2632D01*
X1936Y2631D02*
X1994Y2631D01*
X2034Y2631D02*
X2092Y2631D01*
X1936Y2630D02*
X1994Y2630D01*
X2034Y2630D02*
X2092Y2630D01*
X1936Y2629D02*
X1994Y2629D01*
X2034Y2629D02*
X2092Y2629D01*
X1936Y2628D02*
X1994Y2628D01*
X2034Y2628D02*
X2092Y2628D01*
X1936Y2627D02*
X1995Y2627D01*
X2033Y2627D02*
X2092Y2627D01*
X1936Y2626D02*
X1995Y2626D01*
X2033Y2626D02*
X2092Y2626D01*
X1936Y2625D02*
X1995Y2625D01*
X2033Y2625D02*
X2092Y2625D01*
X1937Y2624D02*
X1996Y2624D01*
X2032Y2624D02*
X2091Y2624D01*
X1937Y2623D02*
X1996Y2623D01*
X2032Y2623D02*
X2091Y2623D01*
X1937Y2622D02*
X1997Y2622D01*
X2031Y2622D02*
X2091Y2622D01*
X1937Y2621D02*
X1997Y2621D01*
X2031Y2621D02*
X2091Y2621D01*
X1938Y2620D02*
X1998Y2620D01*
X2030Y2620D02*
X2090Y2620D01*
X1938Y2619D02*
X1999Y2619D01*
X2029Y2619D02*
X2090Y2619D01*
X1938Y2618D02*
X2000Y2618D01*
X2028Y2618D02*
X2089Y2618D01*
X1939Y2617D02*
X2001Y2617D01*
X2027Y2617D02*
X2089Y2617D01*
X1939Y2616D02*
X2003Y2616D01*
X2025Y2616D02*
X2089Y2616D01*
X1940Y2615D02*
X2004Y2615D01*
X2024Y2615D02*
X2088Y2615D01*
X1940Y2614D02*
X2006Y2614D01*
X2021Y2614D02*
X2088Y2614D01*
X1941Y2613D02*
X2010Y2613D01*
X2018Y2613D02*
X2087Y2613D01*
X1941Y2612D02*
X2087Y2612D01*
X1942Y2611D02*
X2086Y2611D01*
X1943Y2610D02*
X2085Y2610D01*
X1943Y2609D02*
X2084Y2609D01*
X1944Y2608D02*
X2084Y2608D01*
X1945Y2607D02*
X2083Y2607D01*
X1946Y2606D02*
X2082Y2606D01*
X1947Y2605D02*
X2081Y2605D01*
X1948Y2604D02*
X2080Y2604D01*
X1949Y2603D02*
X2079Y2603D01*
X1950Y2602D02*
X2078Y2602D01*
X1951Y2601D02*
X2077Y2601D01*
X1953Y2600D02*
X2075Y2600D01*
X1954Y2599D02*
X2074Y2599D01*
X1956Y2598D02*
X2072Y2598D01*
X1958Y2597D02*
X2070Y2597D01*
X1960Y2596D02*
X2068Y2596D01*
X1963Y2595D02*
X2065Y2595D01*
X1966Y2594D02*
X2062Y2594D01*
X1974Y2593D02*
X2053Y2593D01*
X1892Y2514D02*
X1899Y2514D01*
X2140Y2514D02*
X2147Y2514D01*
X1887Y2513D02*
X1905Y2513D01*
X2135Y2513D02*
X2153Y2513D01*
X1883Y2512D02*
X1908Y2512D01*
X2131Y2512D02*
X2156Y2512D01*
X1881Y2511D02*
X1911Y2511D01*
X2129Y2511D02*
X2159Y2511D01*
X1879Y2510D02*
X1913Y2510D01*
X2127Y2510D02*
X2161Y2510D01*
X1877Y2509D02*
X1915Y2509D01*
X2125Y2509D02*
X2163Y2509D01*
X1875Y2508D02*
X1917Y2508D01*
X2123Y2508D02*
X2165Y2508D01*
X1874Y2507D02*
X1918Y2507D01*
X2122Y2507D02*
X2166Y2507D01*
X1872Y2506D02*
X1919Y2506D01*
X2120Y2506D02*
X2167Y2506D01*
X1871Y2505D02*
X1921Y2505D01*
X2119Y2505D02*
X2169Y2505D01*
X1870Y2504D02*
X1922Y2504D01*
X2118Y2504D02*
X2170Y2504D01*
X1869Y2503D02*
X1923Y2503D01*
X2117Y2503D02*
X2171Y2503D01*
X1868Y2502D02*
X1924Y2502D01*
X2116Y2502D02*
X2172Y2502D01*
X1867Y2501D02*
X1925Y2501D01*
X2115Y2501D02*
X2173Y2501D01*
X1866Y2500D02*
X1926Y2500D01*
X2114Y2500D02*
X2174Y2500D01*
X1865Y2499D02*
X1926Y2499D01*
X2113Y2499D02*
X2174Y2499D01*
X1865Y2498D02*
X1927Y2498D01*
X2113Y2498D02*
X2175Y2498D01*
X1864Y2497D02*
X1928Y2497D01*
X2112Y2497D02*
X2176Y2497D01*
X1863Y2496D02*
X1929Y2496D01*
X2111Y2496D02*
X2177Y2496D01*
X1863Y2495D02*
X1929Y2495D01*
X2111Y2495D02*
X2177Y2495D01*
X1862Y2494D02*
X1930Y2494D01*
X2110Y2494D02*
X2178Y2494D01*
X1861Y2493D02*
X1930Y2493D01*
X2109Y2493D02*
X2178Y2493D01*
X1861Y2492D02*
X1931Y2492D01*
X2109Y2492D02*
X2179Y2492D01*
X1860Y2491D02*
X1931Y2491D01*
X2109Y2491D02*
X2179Y2491D01*
X1860Y2490D02*
X1932Y2490D01*
X2108Y2490D02*
X2180Y2490D01*
X1860Y2489D02*
X1932Y2489D01*
X2108Y2489D02*
X2180Y2489D01*
X1859Y2488D02*
X1932Y2488D01*
X2107Y2488D02*
X2180Y2488D01*
X1859Y2487D02*
X1933Y2487D01*
X2107Y2487D02*
X2181Y2487D01*
X1859Y2486D02*
X1933Y2486D01*
X2107Y2486D02*
X2181Y2486D01*
X1858Y2485D02*
X1933Y2485D01*
X2106Y2485D02*
X2181Y2485D01*
X1858Y2484D02*
X1934Y2484D01*
X2106Y2484D02*
X2182Y2484D01*
X1858Y2483D02*
X1934Y2483D01*
X2106Y2483D02*
X2182Y2483D01*
X1858Y2482D02*
X1934Y2482D01*
X2106Y2482D02*
X2182Y2482D01*
X1858Y2481D02*
X1934Y2481D01*
X2106Y2481D02*
X2182Y2481D01*
X1857Y2480D02*
X1934Y2480D01*
X2105Y2480D02*
X2182Y2480D01*
X1857Y2479D02*
X1935Y2479D01*
X2105Y2479D02*
X2183Y2479D01*
X1857Y2478D02*
X1935Y2478D01*
X2105Y2478D02*
X2183Y2478D01*
X1857Y2477D02*
X1935Y2477D01*
X2105Y2477D02*
X2183Y2477D01*
X1857Y2476D02*
X1935Y2476D01*
X2105Y2476D02*
X2183Y2476D01*
X1857Y2475D02*
X1935Y2475D01*
X2105Y2475D02*
X2183Y2475D01*
X1857Y2474D02*
X1935Y2474D01*
X2105Y2474D02*
X2183Y2474D01*
X1857Y2473D02*
X1935Y2473D01*
X2105Y2473D02*
X2183Y2473D01*
X1857Y2472D02*
X1935Y2472D01*
X2105Y2472D02*
X2183Y2472D01*
X1857Y2471D02*
X1935Y2471D01*
X2105Y2471D02*
X2183Y2471D01*
X1857Y2470D02*
X1935Y2470D01*
X2105Y2470D02*
X2183Y2470D01*
X1857Y2469D02*
X1935Y2469D01*
X2105Y2469D02*
X2183Y2469D01*
X1857Y2468D02*
X1935Y2468D01*
X2105Y2468D02*
X2183Y2468D01*
X1857Y2467D02*
X1935Y2467D01*
X2105Y2467D02*
X2183Y2467D01*
X1857Y2466D02*
X1935Y2466D01*
X2105Y2466D02*
X2183Y2466D01*
X1857Y2465D02*
X1935Y2465D01*
X2105Y2465D02*
X2183Y2465D01*
X1857Y2464D02*
X1935Y2464D01*
X2105Y2464D02*
X2183Y2464D01*
X1857Y2463D02*
X1935Y2463D01*
X2105Y2463D02*
X2183Y2463D01*
X1857Y2462D02*
X1935Y2462D01*
X2105Y2462D02*
X2183Y2462D01*
X1857Y2461D02*
X1935Y2461D01*
X2105Y2461D02*
X2183Y2461D01*
X1857Y2460D02*
X1935Y2460D01*
X2105Y2460D02*
X2183Y2460D01*
X1857Y2459D02*
X1935Y2459D01*
X2105Y2459D02*
X2183Y2459D01*
X1857Y2458D02*
X1935Y2458D01*
X2105Y2458D02*
X2183Y2458D01*
X1857Y2457D02*
X1935Y2457D01*
X2105Y2457D02*
X2183Y2457D01*
X1857Y2456D02*
X1935Y2456D01*
X2105Y2456D02*
X2183Y2456D01*
X1857Y2455D02*
X1894Y2455D01*
X1898Y2455D02*
X1935Y2455D01*
X2105Y2455D02*
X2142Y2455D01*
X2146Y2455D02*
X2183Y2455D01*
X1857Y2454D02*
X1889Y2454D01*
X1903Y2454D02*
X1935Y2454D01*
X2105Y2454D02*
X2137Y2454D01*
X2151Y2454D02*
X2183Y2454D01*
X1857Y2453D02*
X1887Y2453D01*
X1905Y2453D02*
X1935Y2453D01*
X2105Y2453D02*
X2135Y2453D01*
X2153Y2453D02*
X2183Y2453D01*
X1857Y2452D02*
X1885Y2452D01*
X1907Y2452D02*
X1935Y2452D01*
X2105Y2452D02*
X2133Y2452D01*
X2155Y2452D02*
X2183Y2452D01*
X1857Y2451D02*
X1883Y2451D01*
X1908Y2451D02*
X1935Y2451D01*
X2105Y2451D02*
X2131Y2451D01*
X2156Y2451D02*
X2183Y2451D01*
X1857Y2450D02*
X1882Y2450D01*
X1910Y2450D02*
X1935Y2450D01*
X2105Y2450D02*
X2130Y2450D01*
X2158Y2450D02*
X2183Y2450D01*
X1857Y2449D02*
X1881Y2449D01*
X1911Y2449D02*
X1935Y2449D01*
X2105Y2449D02*
X2129Y2449D01*
X2159Y2449D02*
X2183Y2449D01*
X1857Y2448D02*
X1880Y2448D01*
X1911Y2448D02*
X1935Y2448D01*
X2105Y2448D02*
X2128Y2448D01*
X2159Y2448D02*
X2183Y2448D01*
X1857Y2447D02*
X1879Y2447D01*
X1912Y2447D02*
X1935Y2447D01*
X2105Y2447D02*
X2128Y2447D01*
X2160Y2447D02*
X2183Y2447D01*
X1857Y2446D02*
X1879Y2446D01*
X1913Y2446D02*
X1935Y2446D01*
X2105Y2446D02*
X2127Y2446D01*
X2161Y2446D02*
X2183Y2446D01*
X1857Y2445D02*
X1878Y2445D01*
X1913Y2445D02*
X1935Y2445D01*
X2105Y2445D02*
X2126Y2445D01*
X2162Y2445D02*
X2183Y2445D01*
X1857Y2444D02*
X1878Y2444D01*
X1914Y2444D02*
X1935Y2444D01*
X2105Y2444D02*
X2126Y2444D01*
X2162Y2444D02*
X2183Y2444D01*
X1857Y2443D02*
X1877Y2443D01*
X1915Y2443D02*
X1935Y2443D01*
X2105Y2443D02*
X2125Y2443D01*
X2163Y2443D02*
X2183Y2443D01*
X1857Y2442D02*
X1877Y2442D01*
X1915Y2442D02*
X1935Y2442D01*
X2105Y2442D02*
X2125Y2442D01*
X2163Y2442D02*
X2183Y2442D01*
X1857Y2441D02*
X1877Y2441D01*
X1915Y2441D02*
X1935Y2441D01*
X2105Y2441D02*
X2125Y2441D01*
X2163Y2441D02*
X2183Y2441D01*
X1857Y2440D02*
X1876Y2440D01*
X1915Y2440D02*
X1935Y2440D01*
X2105Y2440D02*
X2124Y2440D01*
X2164Y2440D02*
X2183Y2440D01*
X1857Y2439D02*
X1876Y2439D01*
X1916Y2439D02*
X1935Y2439D01*
X2105Y2439D02*
X2124Y2439D01*
X2164Y2439D02*
X2183Y2439D01*
X1857Y2438D02*
X1876Y2438D01*
X1916Y2438D02*
X1935Y2438D01*
X2105Y2438D02*
X2124Y2438D01*
X2164Y2438D02*
X2183Y2438D01*
X1857Y2437D02*
X1876Y2437D01*
X1916Y2437D02*
X1935Y2437D01*
X2105Y2437D02*
X2124Y2437D01*
X2164Y2437D02*
X2183Y2437D01*
X1857Y2436D02*
X1876Y2436D01*
X1916Y2436D02*
X1935Y2436D01*
X2105Y2436D02*
X2124Y2436D01*
X2164Y2436D02*
X2183Y2436D01*
X1857Y2435D02*
X1876Y2435D01*
X1916Y2435D02*
X1935Y2435D01*
X2105Y2435D02*
X2124Y2435D01*
X2164Y2435D02*
X2183Y2435D01*
X1857Y2434D02*
X1876Y2434D01*
X1916Y2434D02*
X1935Y2434D01*
X2105Y2434D02*
X2124Y2434D01*
X2164Y2434D02*
X2183Y2434D01*
X1857Y2433D02*
X1876Y2433D01*
X1916Y2433D02*
X1935Y2433D01*
X2105Y2433D02*
X2124Y2433D01*
X2164Y2433D02*
X2183Y2433D01*
X1857Y2432D02*
X1876Y2432D01*
X1916Y2432D02*
X1935Y2432D01*
X2105Y2432D02*
X2124Y2432D01*
X2164Y2432D02*
X2183Y2432D01*
X1857Y2431D02*
X1876Y2431D01*
X1915Y2431D02*
X1935Y2431D01*
X2105Y2431D02*
X2124Y2431D01*
X2164Y2431D02*
X2183Y2431D01*
X1857Y2430D02*
X1877Y2430D01*
X1915Y2430D02*
X1935Y2430D01*
X2105Y2430D02*
X2125Y2430D01*
X2163Y2430D02*
X2183Y2430D01*
X1857Y2429D02*
X1877Y2429D01*
X1915Y2429D02*
X1935Y2429D01*
X2105Y2429D02*
X2125Y2429D01*
X2163Y2429D02*
X2183Y2429D01*
X1857Y2428D02*
X1877Y2428D01*
X1915Y2428D02*
X1935Y2428D01*
X2105Y2428D02*
X2125Y2428D01*
X2163Y2428D02*
X2183Y2428D01*
X1857Y2427D02*
X1878Y2427D01*
X1914Y2427D02*
X1935Y2427D01*
X2105Y2427D02*
X2126Y2427D01*
X2162Y2427D02*
X2183Y2427D01*
X1857Y2426D02*
X1878Y2426D01*
X1914Y2426D02*
X1935Y2426D01*
X2105Y2426D02*
X2126Y2426D01*
X2162Y2426D02*
X2183Y2426D01*
X1857Y2425D02*
X1879Y2425D01*
X1913Y2425D02*
X1935Y2425D01*
X2105Y2425D02*
X2127Y2425D01*
X2161Y2425D02*
X2183Y2425D01*
X1857Y2424D02*
X1879Y2424D01*
X1912Y2424D02*
X1935Y2424D01*
X2105Y2424D02*
X2127Y2424D01*
X2160Y2424D02*
X2183Y2424D01*
X1857Y2423D02*
X1880Y2423D01*
X1911Y2423D02*
X1935Y2423D01*
X2105Y2423D02*
X2128Y2423D01*
X2159Y2423D02*
X2183Y2423D01*
X1857Y2422D02*
X1881Y2422D01*
X1911Y2422D02*
X1935Y2422D01*
X2105Y2422D02*
X2129Y2422D01*
X2159Y2422D02*
X2183Y2422D01*
X1857Y2421D02*
X1882Y2421D01*
X1910Y2421D02*
X1935Y2421D01*
X2105Y2421D02*
X2130Y2421D01*
X2158Y2421D02*
X2183Y2421D01*
X1857Y2420D02*
X1883Y2420D01*
X1908Y2420D02*
X1935Y2420D01*
X2105Y2420D02*
X2131Y2420D01*
X2156Y2420D02*
X2183Y2420D01*
X1857Y2419D02*
X1885Y2419D01*
X1907Y2419D02*
X1935Y2419D01*
X2105Y2419D02*
X2133Y2419D01*
X2155Y2419D02*
X2183Y2419D01*
X1857Y2418D02*
X1886Y2418D01*
X1905Y2418D02*
X1935Y2418D01*
X2105Y2418D02*
X2135Y2418D01*
X2153Y2418D02*
X2183Y2418D01*
X1857Y2417D02*
X1889Y2417D01*
X1903Y2417D02*
X1935Y2417D01*
X2105Y2417D02*
X2137Y2417D01*
X2151Y2417D02*
X2183Y2417D01*
X1857Y2416D02*
X1893Y2416D01*
X1898Y2416D02*
X1935Y2416D01*
X2105Y2416D02*
X2141Y2416D01*
X2146Y2416D02*
X2183Y2416D01*
X1857Y2415D02*
X1935Y2415D01*
X2105Y2415D02*
X2183Y2415D01*
X1857Y2414D02*
X1935Y2414D01*
X2105Y2414D02*
X2183Y2414D01*
X1857Y2413D02*
X1935Y2413D01*
X2105Y2413D02*
X2183Y2413D01*
X1857Y2412D02*
X1935Y2412D01*
X2105Y2412D02*
X2183Y2412D01*
X1857Y2411D02*
X1935Y2411D01*
X2105Y2411D02*
X2183Y2411D01*
X1857Y2410D02*
X1935Y2410D01*
X2105Y2410D02*
X2183Y2410D01*
X1857Y2409D02*
X1935Y2409D01*
X2105Y2409D02*
X2183Y2409D01*
X1857Y2408D02*
X1935Y2408D01*
X2105Y2408D02*
X2183Y2408D01*
X1857Y2407D02*
X1935Y2407D01*
X2105Y2407D02*
X2183Y2407D01*
X1857Y2406D02*
X1935Y2406D01*
X2105Y2406D02*
X2183Y2406D01*
X1857Y2405D02*
X1935Y2405D01*
X2105Y2405D02*
X2183Y2405D01*
X1857Y2404D02*
X1935Y2404D01*
X2105Y2404D02*
X2183Y2404D01*
X1857Y2403D02*
X1935Y2403D01*
X2105Y2403D02*
X2183Y2403D01*
X1857Y2402D02*
X1935Y2402D01*
X2105Y2402D02*
X2183Y2402D01*
X1857Y2401D02*
X1935Y2401D01*
X2105Y2401D02*
X2183Y2401D01*
X1857Y2400D02*
X1935Y2400D01*
X2105Y2400D02*
X2183Y2400D01*
X1857Y2399D02*
X1935Y2399D01*
X2105Y2399D02*
X2183Y2399D01*
X1857Y2398D02*
X1935Y2398D01*
X2105Y2398D02*
X2183Y2398D01*
X1857Y2397D02*
X1935Y2397D01*
X2105Y2397D02*
X2183Y2397D01*
X1857Y2396D02*
X1935Y2396D01*
X2105Y2396D02*
X2183Y2396D01*
X1857Y2395D02*
X1935Y2395D01*
X2105Y2395D02*
X2183Y2395D01*
X1857Y2394D02*
X1935Y2394D01*
X2105Y2394D02*
X2183Y2394D01*
X1857Y2393D02*
X1935Y2393D01*
X2105Y2393D02*
X2183Y2393D01*
X1857Y2392D02*
X1935Y2392D01*
X2105Y2392D02*
X2183Y2392D01*
X1857Y2391D02*
X1934Y2391D01*
X2105Y2391D02*
X2182Y2391D01*
X1858Y2390D02*
X1934Y2390D01*
X2106Y2390D02*
X2182Y2390D01*
X1858Y2389D02*
X1934Y2389D01*
X2106Y2389D02*
X2182Y2389D01*
X1858Y2388D02*
X1934Y2388D01*
X2106Y2388D02*
X2182Y2388D01*
X1858Y2387D02*
X1934Y2387D01*
X2106Y2387D02*
X2182Y2387D01*
X1858Y2386D02*
X1933Y2386D01*
X2106Y2386D02*
X2181Y2386D01*
X1859Y2385D02*
X1933Y2385D01*
X2107Y2385D02*
X2181Y2385D01*
X1859Y2384D02*
X1933Y2384D01*
X2107Y2384D02*
X2181Y2384D01*
X1859Y2383D02*
X1932Y2383D01*
X2107Y2383D02*
X2180Y2383D01*
X1860Y2382D02*
X1932Y2382D01*
X2108Y2382D02*
X2180Y2382D01*
X1860Y2381D02*
X1932Y2381D01*
X2108Y2381D02*
X2180Y2381D01*
X1860Y2380D02*
X1931Y2380D01*
X2109Y2380D02*
X2179Y2380D01*
X1861Y2379D02*
X1931Y2379D01*
X2109Y2379D02*
X2179Y2379D01*
X1861Y2378D02*
X1930Y2378D01*
X2109Y2378D02*
X2178Y2378D01*
X1862Y2377D02*
X1930Y2377D01*
X2110Y2377D02*
X2178Y2377D01*
X1863Y2376D02*
X1929Y2376D01*
X2111Y2376D02*
X2177Y2376D01*
X1863Y2375D02*
X1929Y2375D01*
X2111Y2375D02*
X2177Y2375D01*
X1864Y2374D02*
X1928Y2374D01*
X2112Y2374D02*
X2176Y2374D01*
X1865Y2373D02*
X1927Y2373D01*
X2113Y2373D02*
X2175Y2373D01*
X1865Y2372D02*
X1926Y2372D01*
X2113Y2372D02*
X2174Y2372D01*
X1866Y2371D02*
X1926Y2371D01*
X2114Y2371D02*
X2174Y2371D01*
X1867Y2370D02*
X1925Y2370D01*
X2115Y2370D02*
X2173Y2370D01*
X1868Y2369D02*
X1924Y2369D01*
X2116Y2369D02*
X2172Y2369D01*
X1869Y2368D02*
X1923Y2368D01*
X2117Y2368D02*
X2171Y2368D01*
X1870Y2367D02*
X1922Y2367D01*
X2118Y2367D02*
X2170Y2367D01*
X1871Y2366D02*
X1921Y2366D01*
X2119Y2366D02*
X2169Y2366D01*
X1872Y2365D02*
X1919Y2365D01*
X2120Y2365D02*
X2167Y2365D01*
X1874Y2364D02*
X1918Y2364D01*
X2122Y2364D02*
X2166Y2364D01*
X1875Y2363D02*
X1917Y2363D01*
X2123Y2363D02*
X2165Y2363D01*
X1877Y2362D02*
X1915Y2362D01*
X2125Y2362D02*
X2163Y2362D01*
X1879Y2361D02*
X1913Y2361D01*
X2127Y2361D02*
X2161Y2361D01*
X1881Y2360D02*
X1911Y2360D01*
X2129Y2360D02*
X2159Y2360D01*
X1883Y2359D02*
X1908Y2359D01*
X2131Y2359D02*
X2156Y2359D01*
X1887Y2358D02*
X1905Y2358D01*
X2135Y2358D02*
X2153Y2358D01*
X1892Y2357D02*
X1900Y2357D01*
X2140Y2357D02*
X2148Y2357D01*
X1968Y2171D02*
X2060Y2171D01*
X1964Y2170D02*
X2064Y2170D01*
X1961Y2169D02*
X2067Y2169D01*
X1959Y2168D02*
X2069Y2168D01*
X1956Y2167D02*
X2072Y2167D01*
X1955Y2166D02*
X2073Y2166D01*
X1953Y2165D02*
X2075Y2165D01*
X1952Y2164D02*
X2076Y2164D01*
X1950Y2163D02*
X2078Y2163D01*
X1949Y2162D02*
X2079Y2162D01*
X115Y2161D02*
X176Y2161D01*
X1113Y2161D02*
X1173Y2161D01*
X1948Y2161D02*
X2080Y2161D01*
X111Y2160D02*
X179Y2160D01*
X1109Y2160D02*
X1177Y2160D01*
X1947Y2160D02*
X2081Y2160D01*
X109Y2159D02*
X182Y2159D01*
X1107Y2159D02*
X1179Y2159D01*
X1946Y2159D02*
X2082Y2159D01*
X107Y2158D02*
X184Y2158D01*
X1105Y2158D02*
X1181Y2158D01*
X1945Y2158D02*
X2083Y2158D01*
X105Y2157D02*
X185Y2157D01*
X1103Y2157D02*
X1183Y2157D01*
X1944Y2157D02*
X2084Y2157D01*
X104Y2156D02*
X187Y2156D01*
X1102Y2156D02*
X1184Y2156D01*
X1944Y2156D02*
X2084Y2156D01*
X103Y2155D02*
X188Y2155D01*
X1100Y2155D02*
X1185Y2155D01*
X1943Y2155D02*
X2085Y2155D01*
X102Y2154D02*
X189Y2154D01*
X1099Y2154D02*
X1187Y2154D01*
X1942Y2154D02*
X2086Y2154D01*
X101Y2153D02*
X190Y2153D01*
X1098Y2153D02*
X1187Y2153D01*
X1942Y2153D02*
X2086Y2153D01*
X100Y2152D02*
X191Y2152D01*
X1098Y2152D02*
X1188Y2152D01*
X1941Y2152D02*
X2087Y2152D01*
X99Y2151D02*
X141Y2151D01*
X150Y2151D02*
X192Y2151D01*
X1097Y2151D02*
X1138Y2151D01*
X1146Y2151D02*
X1189Y2151D01*
X1940Y2151D02*
X2008Y2151D01*
X2020Y2151D02*
X2088Y2151D01*
X98Y2150D02*
X138Y2150D01*
X153Y2150D02*
X192Y2150D01*
X1096Y2150D02*
X1135Y2150D01*
X1149Y2150D02*
X1190Y2150D01*
X1940Y2150D02*
X2005Y2150D01*
X2023Y2150D02*
X2088Y2150D01*
X98Y2149D02*
X136Y2149D01*
X154Y2149D02*
X193Y2149D01*
X1095Y2149D02*
X1133Y2149D01*
X1151Y2149D02*
X1190Y2149D01*
X1939Y2149D02*
X2003Y2149D01*
X2025Y2149D02*
X2088Y2149D01*
X97Y2148D02*
X135Y2148D01*
X156Y2148D02*
X193Y2148D01*
X1095Y2148D02*
X1132Y2148D01*
X1153Y2148D02*
X1191Y2148D01*
X1939Y2148D02*
X2002Y2148D01*
X2026Y2148D02*
X2089Y2148D01*
X97Y2147D02*
X134Y2147D01*
X157Y2147D02*
X194Y2147D01*
X1094Y2147D02*
X1130Y2147D01*
X1154Y2147D02*
X1192Y2147D01*
X1939Y2147D02*
X2000Y2147D01*
X2027Y2147D02*
X2089Y2147D01*
X96Y2146D02*
X133Y2146D01*
X158Y2146D02*
X195Y2146D01*
X1094Y2146D02*
X1130Y2146D01*
X1155Y2146D02*
X1192Y2146D01*
X1938Y2146D02*
X1999Y2146D01*
X2029Y2146D02*
X2090Y2146D01*
X96Y2145D02*
X132Y2145D01*
X159Y2145D02*
X195Y2145D01*
X1093Y2145D02*
X1129Y2145D01*
X1156Y2145D02*
X1193Y2145D01*
X1938Y2145D02*
X1999Y2145D01*
X2029Y2145D02*
X2090Y2145D01*
X95Y2144D02*
X131Y2144D01*
X160Y2144D02*
X195Y2144D01*
X1093Y2144D02*
X1128Y2144D01*
X1156Y2144D02*
X1193Y2144D01*
X1938Y2144D02*
X1998Y2144D01*
X2030Y2144D02*
X2090Y2144D01*
X95Y2143D02*
X131Y2143D01*
X160Y2143D02*
X196Y2143D01*
X1093Y2143D02*
X1127Y2143D01*
X1157Y2143D02*
X1193Y2143D01*
X1937Y2143D02*
X1997Y2143D01*
X2031Y2143D02*
X2091Y2143D01*
X95Y2142D02*
X130Y2142D01*
X161Y2142D02*
X196Y2142D01*
X1092Y2142D02*
X1127Y2142D01*
X1157Y2142D02*
X1194Y2142D01*
X1937Y2142D02*
X1996Y2142D01*
X2032Y2142D02*
X2091Y2142D01*
X95Y2141D02*
X130Y2141D01*
X161Y2141D02*
X196Y2141D01*
X1092Y2141D02*
X1127Y2141D01*
X1158Y2141D02*
X1194Y2141D01*
X1937Y2141D02*
X1996Y2141D01*
X2032Y2141D02*
X2091Y2141D01*
X94Y2140D02*
X129Y2140D01*
X161Y2140D02*
X196Y2140D01*
X1092Y2140D02*
X1126Y2140D01*
X1158Y2140D02*
X1194Y2140D01*
X1936Y2140D02*
X1995Y2140D01*
X2033Y2140D02*
X2091Y2140D01*
X94Y2139D02*
X129Y2139D01*
X162Y2139D02*
X197Y2139D01*
X1092Y2139D02*
X1126Y2139D01*
X1158Y2139D02*
X1194Y2139D01*
X1936Y2139D02*
X1995Y2139D01*
X2033Y2139D02*
X2092Y2139D01*
X94Y2138D02*
X129Y2138D01*
X162Y2138D02*
X197Y2138D01*
X1092Y2138D02*
X1126Y2138D01*
X1159Y2138D02*
X1194Y2138D01*
X1936Y2138D02*
X1995Y2138D01*
X2033Y2138D02*
X2092Y2138D01*
X94Y2137D02*
X129Y2137D01*
X162Y2137D02*
X197Y2137D01*
X1092Y2137D02*
X1126Y2137D01*
X1159Y2137D02*
X1194Y2137D01*
X1936Y2137D02*
X1994Y2137D01*
X2034Y2137D02*
X2092Y2137D01*
X94Y2136D02*
X129Y2136D01*
X162Y2136D02*
X197Y2136D01*
X1091Y2136D02*
X1126Y2136D01*
X1159Y2136D02*
X1194Y2136D01*
X1936Y2136D02*
X1994Y2136D01*
X2034Y2136D02*
X2092Y2136D01*
X94Y2135D02*
X129Y2135D01*
X162Y2135D02*
X197Y2135D01*
X1091Y2135D02*
X1125Y2135D01*
X1159Y2135D02*
X1194Y2135D01*
X1936Y2135D02*
X1994Y2135D01*
X2034Y2135D02*
X2092Y2135D01*
X94Y2134D02*
X129Y2134D01*
X162Y2134D02*
X197Y2134D01*
X1092Y2134D02*
X1126Y2134D01*
X1159Y2134D02*
X1194Y2134D01*
X1936Y2134D02*
X1994Y2134D01*
X2034Y2134D02*
X2092Y2134D01*
X94Y2133D02*
X129Y2133D01*
X162Y2133D02*
X197Y2133D01*
X1092Y2133D02*
X1126Y2133D01*
X1159Y2133D02*
X1194Y2133D01*
X1936Y2133D02*
X1994Y2133D01*
X2034Y2133D02*
X2092Y2133D01*
X94Y2132D02*
X129Y2132D01*
X162Y2132D02*
X197Y2132D01*
X1092Y2132D02*
X1126Y2132D01*
X1158Y2132D02*
X1194Y2132D01*
X1936Y2132D02*
X1994Y2132D01*
X2034Y2132D02*
X2092Y2132D01*
X94Y2131D02*
X129Y2131D01*
X161Y2131D02*
X196Y2131D01*
X1092Y2131D02*
X1126Y2131D01*
X1158Y2131D02*
X1194Y2131D01*
X1936Y2131D02*
X1994Y2131D01*
X2034Y2131D02*
X2092Y2131D01*
X94Y2130D02*
X130Y2130D01*
X161Y2130D02*
X196Y2130D01*
X1092Y2130D02*
X1126Y2130D01*
X1158Y2130D02*
X1194Y2130D01*
X1936Y2130D02*
X1994Y2130D01*
X2034Y2130D02*
X2092Y2130D01*
X95Y2129D02*
X130Y2129D01*
X161Y2129D02*
X196Y2129D01*
X1092Y2129D02*
X1127Y2129D01*
X1157Y2129D02*
X1194Y2129D01*
X1936Y2129D02*
X1994Y2129D01*
X2034Y2129D02*
X2092Y2129D01*
X95Y2128D02*
X131Y2128D01*
X160Y2128D02*
X196Y2128D01*
X1093Y2128D02*
X1127Y2128D01*
X1157Y2128D02*
X1193Y2128D01*
X1936Y2128D02*
X1994Y2128D01*
X2034Y2128D02*
X2092Y2128D01*
X95Y2127D02*
X131Y2127D01*
X160Y2127D02*
X195Y2127D01*
X1093Y2127D02*
X1128Y2127D01*
X1156Y2127D02*
X1193Y2127D01*
X1936Y2127D02*
X1995Y2127D01*
X2033Y2127D02*
X2092Y2127D01*
X96Y2126D02*
X132Y2126D01*
X159Y2126D02*
X195Y2126D01*
X1093Y2126D02*
X1129Y2126D01*
X1156Y2126D02*
X1193Y2126D01*
X1936Y2126D02*
X1995Y2126D01*
X2033Y2126D02*
X2092Y2126D01*
X96Y2125D02*
X133Y2125D01*
X158Y2125D02*
X195Y2125D01*
X1094Y2125D02*
X1129Y2125D01*
X1155Y2125D02*
X1192Y2125D01*
X1936Y2125D02*
X1995Y2125D01*
X2033Y2125D02*
X2092Y2125D01*
X97Y2124D02*
X134Y2124D01*
X157Y2124D02*
X194Y2124D01*
X1094Y2124D02*
X1130Y2124D01*
X1154Y2124D02*
X1192Y2124D01*
X1937Y2124D02*
X1996Y2124D01*
X2032Y2124D02*
X2091Y2124D01*
X97Y2123D02*
X135Y2123D01*
X156Y2123D02*
X194Y2123D01*
X1095Y2123D02*
X1131Y2123D01*
X1153Y2123D02*
X1191Y2123D01*
X1937Y2123D02*
X1996Y2123D01*
X2032Y2123D02*
X2091Y2123D01*
X98Y2122D02*
X136Y2122D01*
X155Y2122D02*
X193Y2122D01*
X1095Y2122D02*
X1133Y2122D01*
X1151Y2122D02*
X1191Y2122D01*
X1937Y2122D02*
X1997Y2122D01*
X2031Y2122D02*
X2091Y2122D01*
X98Y2121D02*
X138Y2121D01*
X153Y2121D02*
X192Y2121D01*
X1096Y2121D02*
X1135Y2121D01*
X1150Y2121D02*
X1190Y2121D01*
X1937Y2121D02*
X1997Y2121D01*
X2031Y2121D02*
X2091Y2121D01*
X99Y2120D02*
X141Y2120D01*
X150Y2120D02*
X192Y2120D01*
X1097Y2120D02*
X1137Y2120D01*
X1147Y2120D02*
X1189Y2120D01*
X1938Y2120D02*
X1998Y2120D01*
X2030Y2120D02*
X2090Y2120D01*
X100Y2119D02*
X191Y2119D01*
X1097Y2119D02*
X1188Y2119D01*
X1938Y2119D02*
X1999Y2119D01*
X2029Y2119D02*
X2090Y2119D01*
X101Y2118D02*
X190Y2118D01*
X1098Y2118D02*
X1188Y2118D01*
X1938Y2118D02*
X2000Y2118D01*
X2028Y2118D02*
X2089Y2118D01*
X102Y2117D02*
X189Y2117D01*
X1099Y2117D02*
X1187Y2117D01*
X1939Y2117D02*
X2001Y2117D01*
X2027Y2117D02*
X2089Y2117D01*
X103Y2116D02*
X188Y2116D01*
X1100Y2116D02*
X1185Y2116D01*
X1939Y2116D02*
X2003Y2116D01*
X2025Y2116D02*
X2089Y2116D01*
X104Y2115D02*
X187Y2115D01*
X1102Y2115D02*
X1184Y2115D01*
X1940Y2115D02*
X2004Y2115D01*
X2024Y2115D02*
X2088Y2115D01*
X105Y2114D02*
X185Y2114D01*
X1103Y2114D02*
X1183Y2114D01*
X1940Y2114D02*
X2006Y2114D01*
X2022Y2114D02*
X2088Y2114D01*
X107Y2113D02*
X184Y2113D01*
X1105Y2113D02*
X1181Y2113D01*
X1941Y2113D02*
X2010Y2113D01*
X2018Y2113D02*
X2087Y2113D01*
X109Y2112D02*
X182Y2112D01*
X1106Y2112D02*
X1179Y2112D01*
X1941Y2112D02*
X2087Y2112D01*
X111Y2111D02*
X180Y2111D01*
X1109Y2111D02*
X1177Y2111D01*
X1942Y2111D02*
X2086Y2111D01*
X115Y2110D02*
X176Y2110D01*
X1112Y2110D02*
X1173Y2110D01*
X1943Y2110D02*
X2085Y2110D01*
X1943Y2109D02*
X2084Y2109D01*
X1944Y2108D02*
X2084Y2108D01*
X1945Y2107D02*
X2083Y2107D01*
X1946Y2106D02*
X2082Y2106D01*
X1947Y2105D02*
X2081Y2105D01*
X1948Y2104D02*
X2080Y2104D01*
X1949Y2103D02*
X2079Y2103D01*
X1950Y2102D02*
X2078Y2102D01*
X1951Y2101D02*
X2077Y2101D01*
X1953Y2100D02*
X2075Y2100D01*
X1954Y2099D02*
X2074Y2099D01*
X1956Y2098D02*
X2072Y2098D01*
X1958Y2097D02*
X2070Y2097D01*
X1960Y2096D02*
X2068Y2096D01*
X1963Y2095D02*
X2065Y2095D01*
X1966Y2094D02*
X2062Y2094D01*
X1974Y2093D02*
X2053Y2093D01*
X1439Y2070D02*
X1449Y2070D01*
X1539Y2070D02*
X1549Y2070D01*
X1639Y2070D02*
X1649Y2070D01*
X1435Y2069D02*
X1453Y2069D01*
X1535Y2069D02*
X1553Y2069D01*
X1635Y2069D02*
X1653Y2069D01*
X1432Y2068D02*
X1456Y2068D01*
X1532Y2068D02*
X1556Y2068D01*
X1632Y2068D02*
X1656Y2068D01*
X1430Y2067D02*
X1458Y2067D01*
X1530Y2067D02*
X1558Y2067D01*
X1630Y2067D02*
X1658Y2067D01*
X1428Y2066D02*
X1460Y2066D01*
X1528Y2066D02*
X1560Y2066D01*
X1628Y2066D02*
X1660Y2066D01*
X1426Y2065D02*
X1462Y2065D01*
X1526Y2065D02*
X1562Y2065D01*
X1626Y2065D02*
X1662Y2065D01*
X1424Y2064D02*
X1464Y2064D01*
X1524Y2064D02*
X1564Y2064D01*
X1624Y2064D02*
X1664Y2064D01*
X1423Y2063D02*
X1465Y2063D01*
X1523Y2063D02*
X1565Y2063D01*
X1623Y2063D02*
X1665Y2063D01*
X1422Y2062D02*
X1466Y2062D01*
X1522Y2062D02*
X1566Y2062D01*
X1622Y2062D02*
X1666Y2062D01*
X115Y2061D02*
X176Y2061D01*
X1113Y2061D02*
X1173Y2061D01*
X1421Y2061D02*
X1467Y2061D01*
X1521Y2061D02*
X1567Y2061D01*
X1621Y2061D02*
X1667Y2061D01*
X111Y2060D02*
X179Y2060D01*
X1109Y2060D02*
X1177Y2060D01*
X1419Y2060D02*
X1468Y2060D01*
X1519Y2060D02*
X1568Y2060D01*
X1619Y2060D02*
X1668Y2060D01*
X109Y2059D02*
X182Y2059D01*
X1107Y2059D02*
X1179Y2059D01*
X1419Y2059D02*
X1469Y2059D01*
X1519Y2059D02*
X1569Y2059D01*
X1619Y2059D02*
X1669Y2059D01*
X107Y2058D02*
X184Y2058D01*
X1105Y2058D02*
X1181Y2058D01*
X1418Y2058D02*
X1470Y2058D01*
X1518Y2058D02*
X1570Y2058D01*
X1618Y2058D02*
X1670Y2058D01*
X105Y2057D02*
X185Y2057D01*
X1103Y2057D02*
X1183Y2057D01*
X1417Y2057D02*
X1471Y2057D01*
X1517Y2057D02*
X1571Y2057D01*
X1617Y2057D02*
X1671Y2057D01*
X104Y2056D02*
X187Y2056D01*
X1102Y2056D02*
X1184Y2056D01*
X1416Y2056D02*
X1472Y2056D01*
X1516Y2056D02*
X1572Y2056D01*
X1616Y2056D02*
X1672Y2056D01*
X103Y2055D02*
X188Y2055D01*
X1100Y2055D02*
X1185Y2055D01*
X1415Y2055D02*
X1472Y2055D01*
X1515Y2055D02*
X1572Y2055D01*
X1615Y2055D02*
X1672Y2055D01*
X102Y2054D02*
X189Y2054D01*
X1099Y2054D02*
X1187Y2054D01*
X1415Y2054D02*
X1473Y2054D01*
X1515Y2054D02*
X1573Y2054D01*
X1615Y2054D02*
X1673Y2054D01*
X101Y2053D02*
X190Y2053D01*
X1098Y2053D02*
X1188Y2053D01*
X1414Y2053D02*
X1474Y2053D01*
X1514Y2053D02*
X1573Y2053D01*
X1614Y2053D02*
X1673Y2053D01*
X100Y2052D02*
X191Y2052D01*
X1098Y2052D02*
X1188Y2052D01*
X1414Y2052D02*
X1474Y2052D01*
X1514Y2052D02*
X1574Y2052D01*
X1614Y2052D02*
X1674Y2052D01*
X99Y2051D02*
X141Y2051D01*
X150Y2051D02*
X192Y2051D01*
X1097Y2051D02*
X1138Y2051D01*
X1146Y2051D02*
X1189Y2051D01*
X1413Y2051D02*
X1475Y2051D01*
X1513Y2051D02*
X1575Y2051D01*
X1613Y2051D02*
X1675Y2051D01*
X98Y2050D02*
X138Y2050D01*
X153Y2050D02*
X192Y2050D01*
X1096Y2050D02*
X1135Y2050D01*
X1149Y2050D02*
X1190Y2050D01*
X1413Y2050D02*
X1439Y2050D01*
X1449Y2050D02*
X1475Y2050D01*
X1513Y2050D02*
X1539Y2050D01*
X1549Y2050D02*
X1575Y2050D01*
X1613Y2050D02*
X1639Y2050D01*
X1649Y2050D02*
X1675Y2050D01*
X98Y2049D02*
X136Y2049D01*
X154Y2049D02*
X193Y2049D01*
X1095Y2049D02*
X1133Y2049D01*
X1151Y2049D02*
X1191Y2049D01*
X1412Y2049D02*
X1437Y2049D01*
X1451Y2049D02*
X1475Y2049D01*
X1512Y2049D02*
X1537Y2049D01*
X1551Y2049D02*
X1575Y2049D01*
X1612Y2049D02*
X1637Y2049D01*
X1651Y2049D02*
X1675Y2049D01*
X97Y2048D02*
X135Y2048D01*
X156Y2048D02*
X193Y2048D01*
X1095Y2048D02*
X1132Y2048D01*
X1153Y2048D02*
X1191Y2048D01*
X1412Y2048D02*
X1435Y2048D01*
X1453Y2048D02*
X1476Y2048D01*
X1512Y2048D02*
X1535Y2048D01*
X1553Y2048D02*
X1576Y2048D01*
X1612Y2048D02*
X1635Y2048D01*
X1653Y2048D02*
X1676Y2048D01*
X97Y2047D02*
X134Y2047D01*
X157Y2047D02*
X194Y2047D01*
X1094Y2047D02*
X1130Y2047D01*
X1154Y2047D02*
X1192Y2047D01*
X1412Y2047D02*
X1434Y2047D01*
X1454Y2047D02*
X1476Y2047D01*
X1512Y2047D02*
X1534Y2047D01*
X1554Y2047D02*
X1576Y2047D01*
X1612Y2047D02*
X1634Y2047D01*
X1654Y2047D02*
X1676Y2047D01*
X96Y2046D02*
X133Y2046D01*
X158Y2046D02*
X195Y2046D01*
X1094Y2046D02*
X1130Y2046D01*
X1155Y2046D02*
X1192Y2046D01*
X1411Y2046D02*
X1433Y2046D01*
X1455Y2046D02*
X1477Y2046D01*
X1511Y2046D02*
X1533Y2046D01*
X1555Y2046D02*
X1577Y2046D01*
X1611Y2046D02*
X1633Y2046D01*
X1655Y2046D02*
X1677Y2046D01*
X96Y2045D02*
X132Y2045D01*
X159Y2045D02*
X195Y2045D01*
X1093Y2045D02*
X1129Y2045D01*
X1156Y2045D02*
X1193Y2045D01*
X1411Y2045D02*
X1432Y2045D01*
X1456Y2045D02*
X1477Y2045D01*
X1511Y2045D02*
X1532Y2045D01*
X1556Y2045D02*
X1577Y2045D01*
X1611Y2045D02*
X1632Y2045D01*
X1656Y2045D02*
X1677Y2045D01*
X95Y2044D02*
X131Y2044D01*
X160Y2044D02*
X195Y2044D01*
X1093Y2044D02*
X1128Y2044D01*
X1156Y2044D02*
X1193Y2044D01*
X1411Y2044D02*
X1431Y2044D01*
X1457Y2044D02*
X1477Y2044D01*
X1511Y2044D02*
X1531Y2044D01*
X1557Y2044D02*
X1577Y2044D01*
X1611Y2044D02*
X1631Y2044D01*
X1657Y2044D02*
X1677Y2044D01*
X95Y2043D02*
X131Y2043D01*
X160Y2043D02*
X196Y2043D01*
X1093Y2043D02*
X1127Y2043D01*
X1157Y2043D02*
X1193Y2043D01*
X1410Y2043D02*
X1430Y2043D01*
X1457Y2043D02*
X1477Y2043D01*
X1510Y2043D02*
X1530Y2043D01*
X1557Y2043D02*
X1577Y2043D01*
X1610Y2043D02*
X1630Y2043D01*
X1657Y2043D02*
X1677Y2043D01*
X95Y2042D02*
X130Y2042D01*
X161Y2042D02*
X196Y2042D01*
X1092Y2042D02*
X1127Y2042D01*
X1157Y2042D02*
X1194Y2042D01*
X1410Y2042D02*
X1430Y2042D01*
X1458Y2042D02*
X1478Y2042D01*
X1510Y2042D02*
X1530Y2042D01*
X1558Y2042D02*
X1578Y2042D01*
X1610Y2042D02*
X1630Y2042D01*
X1658Y2042D02*
X1678Y2042D01*
X95Y2041D02*
X130Y2041D01*
X161Y2041D02*
X196Y2041D01*
X1092Y2041D02*
X1127Y2041D01*
X1158Y2041D02*
X1194Y2041D01*
X1410Y2041D02*
X1429Y2041D01*
X1459Y2041D02*
X1478Y2041D01*
X1510Y2041D02*
X1529Y2041D01*
X1559Y2041D02*
X1578Y2041D01*
X1610Y2041D02*
X1629Y2041D01*
X1659Y2041D02*
X1678Y2041D01*
X94Y2040D02*
X129Y2040D01*
X161Y2040D02*
X196Y2040D01*
X1092Y2040D02*
X1126Y2040D01*
X1158Y2040D02*
X1194Y2040D01*
X1410Y2040D02*
X1429Y2040D01*
X1459Y2040D02*
X1478Y2040D01*
X1510Y2040D02*
X1529Y2040D01*
X1559Y2040D02*
X1578Y2040D01*
X1610Y2040D02*
X1629Y2040D01*
X1659Y2040D02*
X1678Y2040D01*
X94Y2039D02*
X129Y2039D01*
X162Y2039D02*
X197Y2039D01*
X1092Y2039D02*
X1126Y2039D01*
X1158Y2039D02*
X1194Y2039D01*
X1410Y2039D02*
X1429Y2039D01*
X1459Y2039D02*
X1478Y2039D01*
X1510Y2039D02*
X1529Y2039D01*
X1559Y2039D02*
X1578Y2039D01*
X1610Y2039D02*
X1629Y2039D01*
X1659Y2039D02*
X1678Y2039D01*
X94Y2038D02*
X129Y2038D01*
X162Y2038D02*
X197Y2038D01*
X1092Y2038D02*
X1126Y2038D01*
X1159Y2038D02*
X1194Y2038D01*
X1410Y2038D02*
X1429Y2038D01*
X1459Y2038D02*
X1478Y2038D01*
X1510Y2038D02*
X1529Y2038D01*
X1559Y2038D02*
X1578Y2038D01*
X1610Y2038D02*
X1629Y2038D01*
X1659Y2038D02*
X1678Y2038D01*
X94Y2037D02*
X129Y2037D01*
X162Y2037D02*
X197Y2037D01*
X1092Y2037D02*
X1126Y2037D01*
X1159Y2037D02*
X1194Y2037D01*
X1409Y2037D02*
X1429Y2037D01*
X1459Y2037D02*
X1478Y2037D01*
X1509Y2037D02*
X1529Y2037D01*
X1559Y2037D02*
X1578Y2037D01*
X1609Y2037D02*
X1629Y2037D01*
X1659Y2037D02*
X1678Y2037D01*
X94Y2036D02*
X129Y2036D01*
X162Y2036D02*
X197Y2036D01*
X1091Y2036D02*
X1126Y2036D01*
X1159Y2036D02*
X1194Y2036D01*
X1409Y2036D02*
X1428Y2036D01*
X1459Y2036D02*
X1478Y2036D01*
X1509Y2036D02*
X1528Y2036D01*
X1559Y2036D02*
X1578Y2036D01*
X1609Y2036D02*
X1628Y2036D01*
X1659Y2036D02*
X1678Y2036D01*
X94Y2035D02*
X129Y2035D01*
X162Y2035D02*
X197Y2035D01*
X1091Y2035D02*
X1126Y2035D01*
X1159Y2035D02*
X1194Y2035D01*
X1409Y2035D02*
X1428Y2035D01*
X1459Y2035D02*
X1478Y2035D01*
X1509Y2035D02*
X1528Y2035D01*
X1559Y2035D02*
X1578Y2035D01*
X1609Y2035D02*
X1628Y2035D01*
X1659Y2035D02*
X1678Y2035D01*
X94Y2034D02*
X129Y2034D01*
X162Y2034D02*
X197Y2034D01*
X1092Y2034D02*
X1126Y2034D01*
X1159Y2034D02*
X1194Y2034D01*
X1409Y2034D02*
X1429Y2034D01*
X1459Y2034D02*
X1478Y2034D01*
X1509Y2034D02*
X1529Y2034D01*
X1559Y2034D02*
X1578Y2034D01*
X1609Y2034D02*
X1629Y2034D01*
X1659Y2034D02*
X1678Y2034D01*
X94Y2033D02*
X129Y2033D01*
X162Y2033D02*
X197Y2033D01*
X1092Y2033D02*
X1126Y2033D01*
X1159Y2033D02*
X1194Y2033D01*
X1410Y2033D02*
X1429Y2033D01*
X1459Y2033D02*
X1478Y2033D01*
X1510Y2033D02*
X1529Y2033D01*
X1559Y2033D02*
X1578Y2033D01*
X1610Y2033D02*
X1629Y2033D01*
X1659Y2033D02*
X1678Y2033D01*
X94Y2032D02*
X129Y2032D01*
X162Y2032D02*
X197Y2032D01*
X1092Y2032D02*
X1126Y2032D01*
X1158Y2032D02*
X1194Y2032D01*
X1410Y2032D02*
X1429Y2032D01*
X1459Y2032D02*
X1478Y2032D01*
X1510Y2032D02*
X1529Y2032D01*
X1559Y2032D02*
X1578Y2032D01*
X1610Y2032D02*
X1629Y2032D01*
X1659Y2032D02*
X1678Y2032D01*
X94Y2031D02*
X129Y2031D01*
X161Y2031D02*
X196Y2031D01*
X1092Y2031D02*
X1126Y2031D01*
X1158Y2031D02*
X1194Y2031D01*
X1410Y2031D02*
X1429Y2031D01*
X1459Y2031D02*
X1478Y2031D01*
X1510Y2031D02*
X1529Y2031D01*
X1559Y2031D02*
X1578Y2031D01*
X1610Y2031D02*
X1629Y2031D01*
X1659Y2031D02*
X1678Y2031D01*
X94Y2030D02*
X130Y2030D01*
X161Y2030D02*
X196Y2030D01*
X1092Y2030D02*
X1126Y2030D01*
X1158Y2030D02*
X1194Y2030D01*
X1410Y2030D02*
X1429Y2030D01*
X1459Y2030D02*
X1478Y2030D01*
X1510Y2030D02*
X1529Y2030D01*
X1559Y2030D02*
X1578Y2030D01*
X1610Y2030D02*
X1629Y2030D01*
X1659Y2030D02*
X1678Y2030D01*
X95Y2029D02*
X130Y2029D01*
X161Y2029D02*
X196Y2029D01*
X1092Y2029D02*
X1127Y2029D01*
X1158Y2029D02*
X1194Y2029D01*
X1410Y2029D02*
X1430Y2029D01*
X1458Y2029D02*
X1478Y2029D01*
X1510Y2029D02*
X1530Y2029D01*
X1558Y2029D02*
X1578Y2029D01*
X1610Y2029D02*
X1630Y2029D01*
X1658Y2029D02*
X1678Y2029D01*
X95Y2028D02*
X131Y2028D01*
X160Y2028D02*
X196Y2028D01*
X1093Y2028D02*
X1127Y2028D01*
X1157Y2028D02*
X1193Y2028D01*
X1410Y2028D02*
X1430Y2028D01*
X1458Y2028D02*
X1477Y2028D01*
X1510Y2028D02*
X1530Y2028D01*
X1558Y2028D02*
X1577Y2028D01*
X1610Y2028D02*
X1630Y2028D01*
X1658Y2028D02*
X1677Y2028D01*
X95Y2027D02*
X131Y2027D01*
X160Y2027D02*
X195Y2027D01*
X1093Y2027D02*
X1128Y2027D01*
X1156Y2027D02*
X1193Y2027D01*
X1411Y2027D02*
X1431Y2027D01*
X1457Y2027D02*
X1477Y2027D01*
X1511Y2027D02*
X1531Y2027D01*
X1557Y2027D02*
X1577Y2027D01*
X1611Y2027D02*
X1631Y2027D01*
X1657Y2027D02*
X1677Y2027D01*
X96Y2026D02*
X132Y2026D01*
X159Y2026D02*
X195Y2026D01*
X1093Y2026D02*
X1129Y2026D01*
X1156Y2026D02*
X1193Y2026D01*
X1411Y2026D02*
X1432Y2026D01*
X1456Y2026D02*
X1477Y2026D01*
X1511Y2026D02*
X1532Y2026D01*
X1556Y2026D02*
X1577Y2026D01*
X1611Y2026D02*
X1632Y2026D01*
X1656Y2026D02*
X1677Y2026D01*
X96Y2025D02*
X133Y2025D01*
X158Y2025D02*
X195Y2025D01*
X1094Y2025D02*
X1129Y2025D01*
X1155Y2025D02*
X1192Y2025D01*
X1411Y2025D02*
X1433Y2025D01*
X1455Y2025D02*
X1477Y2025D01*
X1511Y2025D02*
X1533Y2025D01*
X1555Y2025D02*
X1577Y2025D01*
X1611Y2025D02*
X1633Y2025D01*
X1655Y2025D02*
X1677Y2025D01*
X97Y2024D02*
X134Y2024D01*
X157Y2024D02*
X194Y2024D01*
X1094Y2024D02*
X1130Y2024D01*
X1154Y2024D02*
X1192Y2024D01*
X1412Y2024D02*
X1434Y2024D01*
X1454Y2024D02*
X1476Y2024D01*
X1512Y2024D02*
X1534Y2024D01*
X1554Y2024D02*
X1576Y2024D01*
X1612Y2024D02*
X1634Y2024D01*
X1654Y2024D02*
X1676Y2024D01*
X97Y2023D02*
X135Y2023D01*
X156Y2023D02*
X194Y2023D01*
X1095Y2023D02*
X1131Y2023D01*
X1153Y2023D02*
X1191Y2023D01*
X1412Y2023D02*
X1435Y2023D01*
X1453Y2023D02*
X1476Y2023D01*
X1512Y2023D02*
X1535Y2023D01*
X1553Y2023D02*
X1576Y2023D01*
X1612Y2023D02*
X1635Y2023D01*
X1653Y2023D02*
X1676Y2023D01*
X98Y2022D02*
X136Y2022D01*
X155Y2022D02*
X193Y2022D01*
X1095Y2022D02*
X1133Y2022D01*
X1152Y2022D02*
X1191Y2022D01*
X1412Y2022D02*
X1437Y2022D01*
X1451Y2022D02*
X1475Y2022D01*
X1512Y2022D02*
X1537Y2022D01*
X1551Y2022D02*
X1575Y2022D01*
X1612Y2022D02*
X1637Y2022D01*
X1651Y2022D02*
X1675Y2022D01*
X98Y2021D02*
X138Y2021D01*
X153Y2021D02*
X192Y2021D01*
X1096Y2021D02*
X1135Y2021D01*
X1150Y2021D02*
X1190Y2021D01*
X1413Y2021D02*
X1439Y2021D01*
X1449Y2021D02*
X1475Y2021D01*
X1513Y2021D02*
X1539Y2021D01*
X1549Y2021D02*
X1575Y2021D01*
X1613Y2021D02*
X1639Y2021D01*
X1649Y2021D02*
X1675Y2021D01*
X99Y2020D02*
X141Y2020D01*
X150Y2020D02*
X192Y2020D01*
X1097Y2020D02*
X1137Y2020D01*
X1147Y2020D02*
X1189Y2020D01*
X1413Y2020D02*
X1475Y2020D01*
X1513Y2020D02*
X1575Y2020D01*
X1613Y2020D02*
X1675Y2020D01*
X100Y2019D02*
X191Y2019D01*
X1097Y2019D02*
X1188Y2019D01*
X1414Y2019D02*
X1474Y2019D01*
X1514Y2019D02*
X1574Y2019D01*
X1614Y2019D02*
X1674Y2019D01*
X101Y2018D02*
X190Y2018D01*
X1098Y2018D02*
X1188Y2018D01*
X1414Y2018D02*
X1474Y2018D01*
X1514Y2018D02*
X1574Y2018D01*
X1614Y2018D02*
X1674Y2018D01*
X102Y2017D02*
X189Y2017D01*
X1099Y2017D02*
X1187Y2017D01*
X1415Y2017D02*
X1473Y2017D01*
X1515Y2017D02*
X1573Y2017D01*
X1615Y2017D02*
X1673Y2017D01*
X103Y2016D02*
X188Y2016D01*
X1100Y2016D02*
X1185Y2016D01*
X1415Y2016D02*
X1472Y2016D01*
X1515Y2016D02*
X1572Y2016D01*
X1615Y2016D02*
X1672Y2016D01*
X104Y2015D02*
X187Y2015D01*
X1102Y2015D02*
X1184Y2015D01*
X1416Y2015D02*
X1472Y2015D01*
X1516Y2015D02*
X1572Y2015D01*
X1616Y2015D02*
X1672Y2015D01*
X105Y2014D02*
X185Y2014D01*
X1103Y2014D02*
X1183Y2014D01*
X1417Y2014D02*
X1471Y2014D01*
X1517Y2014D02*
X1571Y2014D01*
X1617Y2014D02*
X1671Y2014D01*
X1892Y2014D02*
X1899Y2014D01*
X2140Y2014D02*
X2147Y2014D01*
X107Y2013D02*
X184Y2013D01*
X1105Y2013D02*
X1181Y2013D01*
X1418Y2013D02*
X1470Y2013D01*
X1518Y2013D02*
X1570Y2013D01*
X1618Y2013D02*
X1670Y2013D01*
X1887Y2013D02*
X1905Y2013D01*
X2135Y2013D02*
X2153Y2013D01*
X109Y2012D02*
X182Y2012D01*
X1106Y2012D02*
X1179Y2012D01*
X1419Y2012D02*
X1469Y2012D01*
X1519Y2012D02*
X1569Y2012D01*
X1619Y2012D02*
X1669Y2012D01*
X1883Y2012D02*
X1908Y2012D01*
X2131Y2012D02*
X2156Y2012D01*
X111Y2011D02*
X180Y2011D01*
X1109Y2011D02*
X1177Y2011D01*
X1419Y2011D02*
X1468Y2011D01*
X1519Y2011D02*
X1568Y2011D01*
X1619Y2011D02*
X1668Y2011D01*
X1881Y2011D02*
X1911Y2011D01*
X2129Y2011D02*
X2159Y2011D01*
X115Y2010D02*
X176Y2010D01*
X1112Y2010D02*
X1174Y2010D01*
X1420Y2010D02*
X1467Y2010D01*
X1520Y2010D02*
X1567Y2010D01*
X1620Y2010D02*
X1667Y2010D01*
X1879Y2010D02*
X1913Y2010D01*
X2127Y2010D02*
X2161Y2010D01*
X1422Y2009D02*
X1466Y2009D01*
X1522Y2009D02*
X1566Y2009D01*
X1622Y2009D02*
X1666Y2009D01*
X1877Y2009D02*
X1915Y2009D01*
X2125Y2009D02*
X2163Y2009D01*
X1423Y2008D02*
X1465Y2008D01*
X1523Y2008D02*
X1565Y2008D01*
X1623Y2008D02*
X1665Y2008D01*
X1875Y2008D02*
X1917Y2008D01*
X2123Y2008D02*
X2165Y2008D01*
X1424Y2007D02*
X1464Y2007D01*
X1524Y2007D02*
X1564Y2007D01*
X1624Y2007D02*
X1664Y2007D01*
X1874Y2007D02*
X1918Y2007D01*
X2122Y2007D02*
X2166Y2007D01*
X1426Y2006D02*
X1462Y2006D01*
X1526Y2006D02*
X1562Y2006D01*
X1626Y2006D02*
X1662Y2006D01*
X1872Y2006D02*
X1919Y2006D01*
X2120Y2006D02*
X2167Y2006D01*
X1428Y2005D02*
X1460Y2005D01*
X1528Y2005D02*
X1560Y2005D01*
X1628Y2005D02*
X1660Y2005D01*
X1871Y2005D02*
X1921Y2005D01*
X2119Y2005D02*
X2169Y2005D01*
X1430Y2004D02*
X1458Y2004D01*
X1530Y2004D02*
X1558Y2004D01*
X1630Y2004D02*
X1658Y2004D01*
X1870Y2004D02*
X1922Y2004D01*
X2118Y2004D02*
X2170Y2004D01*
X1432Y2003D02*
X1456Y2003D01*
X1532Y2003D02*
X1556Y2003D01*
X1632Y2003D02*
X1656Y2003D01*
X1869Y2003D02*
X1923Y2003D01*
X2117Y2003D02*
X2171Y2003D01*
X1435Y2002D02*
X1453Y2002D01*
X1535Y2002D02*
X1553Y2002D01*
X1635Y2002D02*
X1653Y2002D01*
X1868Y2002D02*
X1924Y2002D01*
X2116Y2002D02*
X2172Y2002D01*
X1439Y2001D02*
X1449Y2001D01*
X1539Y2001D02*
X1549Y2001D01*
X1639Y2001D02*
X1649Y2001D01*
X1867Y2001D02*
X1925Y2001D01*
X2115Y2001D02*
X2173Y2001D01*
X1866Y2000D02*
X1926Y2000D01*
X2114Y2000D02*
X2174Y2000D01*
X1865Y1999D02*
X1926Y1999D01*
X2113Y1999D02*
X2174Y1999D01*
X1865Y1998D02*
X1927Y1998D01*
X2113Y1998D02*
X2175Y1998D01*
X1864Y1997D02*
X1928Y1997D01*
X2112Y1997D02*
X2176Y1997D01*
X1863Y1996D02*
X1929Y1996D01*
X2111Y1996D02*
X2177Y1996D01*
X1863Y1995D02*
X1929Y1995D01*
X2111Y1995D02*
X2177Y1995D01*
X1862Y1994D02*
X1930Y1994D01*
X2110Y1994D02*
X2178Y1994D01*
X1861Y1993D02*
X1930Y1993D01*
X2109Y1993D02*
X2178Y1993D01*
X1861Y1992D02*
X1931Y1992D01*
X2109Y1992D02*
X2179Y1992D01*
X1860Y1991D02*
X1931Y1991D01*
X2109Y1991D02*
X2179Y1991D01*
X1860Y1990D02*
X1932Y1990D01*
X2108Y1990D02*
X2180Y1990D01*
X1860Y1989D02*
X1932Y1989D01*
X2108Y1989D02*
X2180Y1989D01*
X1859Y1988D02*
X1932Y1988D01*
X2107Y1988D02*
X2180Y1988D01*
X1859Y1987D02*
X1933Y1987D01*
X2107Y1987D02*
X2181Y1987D01*
X1859Y1986D02*
X1933Y1986D01*
X2107Y1986D02*
X2181Y1986D01*
X1858Y1985D02*
X1933Y1985D01*
X2106Y1985D02*
X2181Y1985D01*
X1858Y1984D02*
X1934Y1984D01*
X2106Y1984D02*
X2182Y1984D01*
X1858Y1983D02*
X1934Y1983D01*
X2106Y1983D02*
X2182Y1983D01*
X1858Y1982D02*
X1934Y1982D01*
X2106Y1982D02*
X2182Y1982D01*
X1858Y1981D02*
X1934Y1981D01*
X2106Y1981D02*
X2182Y1981D01*
X1857Y1980D02*
X1934Y1980D01*
X2105Y1980D02*
X2182Y1980D01*
X1857Y1979D02*
X1935Y1979D01*
X2105Y1979D02*
X2183Y1979D01*
X1857Y1978D02*
X1935Y1978D01*
X2105Y1978D02*
X2183Y1978D01*
X1857Y1977D02*
X1935Y1977D01*
X2105Y1977D02*
X2183Y1977D01*
X1857Y1976D02*
X1935Y1976D01*
X2105Y1976D02*
X2183Y1976D01*
X1857Y1975D02*
X1935Y1975D01*
X2105Y1975D02*
X2183Y1975D01*
X1857Y1974D02*
X1935Y1974D01*
X2105Y1974D02*
X2183Y1974D01*
X1857Y1973D02*
X1935Y1973D01*
X2105Y1973D02*
X2183Y1973D01*
X1857Y1972D02*
X1935Y1972D01*
X2105Y1972D02*
X2183Y1972D01*
X1857Y1971D02*
X1935Y1971D01*
X2105Y1971D02*
X2183Y1971D01*
X1857Y1970D02*
X1935Y1970D01*
X2105Y1970D02*
X2183Y1970D01*
X1857Y1969D02*
X1935Y1969D01*
X2105Y1969D02*
X2183Y1969D01*
X1857Y1968D02*
X1935Y1968D01*
X2105Y1968D02*
X2183Y1968D01*
X1857Y1967D02*
X1935Y1967D01*
X2105Y1967D02*
X2183Y1967D01*
X1857Y1966D02*
X1935Y1966D01*
X2105Y1966D02*
X2183Y1966D01*
X1857Y1965D02*
X1935Y1965D01*
X2105Y1965D02*
X2183Y1965D01*
X1857Y1964D02*
X1935Y1964D01*
X2105Y1964D02*
X2183Y1964D01*
X1857Y1963D02*
X1935Y1963D01*
X2105Y1963D02*
X2183Y1963D01*
X1857Y1962D02*
X1935Y1962D01*
X2105Y1962D02*
X2183Y1962D01*
X115Y1961D02*
X176Y1961D01*
X1113Y1961D02*
X1173Y1961D01*
X1857Y1961D02*
X1935Y1961D01*
X2105Y1961D02*
X2183Y1961D01*
X111Y1960D02*
X179Y1960D01*
X1109Y1960D02*
X1177Y1960D01*
X1857Y1960D02*
X1935Y1960D01*
X2105Y1960D02*
X2183Y1960D01*
X109Y1959D02*
X182Y1959D01*
X1107Y1959D02*
X1179Y1959D01*
X1857Y1959D02*
X1935Y1959D01*
X2105Y1959D02*
X2183Y1959D01*
X107Y1958D02*
X184Y1958D01*
X1105Y1958D02*
X1181Y1958D01*
X1857Y1958D02*
X1935Y1958D01*
X2105Y1958D02*
X2183Y1958D01*
X105Y1957D02*
X185Y1957D01*
X1103Y1957D02*
X1183Y1957D01*
X1857Y1957D02*
X1935Y1957D01*
X2105Y1957D02*
X2183Y1957D01*
X104Y1956D02*
X187Y1956D01*
X1102Y1956D02*
X1184Y1956D01*
X1857Y1956D02*
X1935Y1956D01*
X2105Y1956D02*
X2183Y1956D01*
X103Y1955D02*
X188Y1955D01*
X1100Y1955D02*
X1185Y1955D01*
X1857Y1955D02*
X1894Y1955D01*
X1898Y1955D02*
X1935Y1955D01*
X2105Y1955D02*
X2142Y1955D01*
X2146Y1955D02*
X2183Y1955D01*
X102Y1954D02*
X189Y1954D01*
X1099Y1954D02*
X1187Y1954D01*
X1857Y1954D02*
X1889Y1954D01*
X1903Y1954D02*
X1935Y1954D01*
X2105Y1954D02*
X2137Y1954D01*
X2151Y1954D02*
X2183Y1954D01*
X101Y1953D02*
X190Y1953D01*
X1098Y1953D02*
X1187Y1953D01*
X1857Y1953D02*
X1887Y1953D01*
X1905Y1953D02*
X1935Y1953D01*
X2105Y1953D02*
X2135Y1953D01*
X2153Y1953D02*
X2183Y1953D01*
X100Y1952D02*
X191Y1952D01*
X1098Y1952D02*
X1188Y1952D01*
X1857Y1952D02*
X1885Y1952D01*
X1907Y1952D02*
X1935Y1952D01*
X2105Y1952D02*
X2133Y1952D01*
X2155Y1952D02*
X2183Y1952D01*
X99Y1951D02*
X141Y1951D01*
X150Y1951D02*
X192Y1951D01*
X1097Y1951D02*
X1138Y1951D01*
X1146Y1951D02*
X1189Y1951D01*
X1857Y1951D02*
X1883Y1951D01*
X1908Y1951D02*
X1935Y1951D01*
X2105Y1951D02*
X2131Y1951D01*
X2156Y1951D02*
X2183Y1951D01*
X98Y1950D02*
X138Y1950D01*
X153Y1950D02*
X192Y1950D01*
X1096Y1950D02*
X1135Y1950D01*
X1149Y1950D02*
X1190Y1950D01*
X1857Y1950D02*
X1882Y1950D01*
X1910Y1950D02*
X1935Y1950D01*
X2105Y1950D02*
X2130Y1950D01*
X2158Y1950D02*
X2183Y1950D01*
X98Y1949D02*
X136Y1949D01*
X154Y1949D02*
X193Y1949D01*
X1095Y1949D02*
X1133Y1949D01*
X1151Y1949D02*
X1190Y1949D01*
X1857Y1949D02*
X1881Y1949D01*
X1911Y1949D02*
X1935Y1949D01*
X2105Y1949D02*
X2129Y1949D01*
X2159Y1949D02*
X2183Y1949D01*
X97Y1948D02*
X135Y1948D01*
X156Y1948D02*
X193Y1948D01*
X1095Y1948D02*
X1132Y1948D01*
X1153Y1948D02*
X1191Y1948D01*
X1857Y1948D02*
X1880Y1948D01*
X1911Y1948D02*
X1935Y1948D01*
X2105Y1948D02*
X2128Y1948D01*
X2159Y1948D02*
X2183Y1948D01*
X97Y1947D02*
X134Y1947D01*
X157Y1947D02*
X194Y1947D01*
X1094Y1947D02*
X1130Y1947D01*
X1154Y1947D02*
X1192Y1947D01*
X1857Y1947D02*
X1879Y1947D01*
X1912Y1947D02*
X1935Y1947D01*
X2105Y1947D02*
X2128Y1947D01*
X2160Y1947D02*
X2183Y1947D01*
X96Y1946D02*
X133Y1946D01*
X158Y1946D02*
X195Y1946D01*
X1094Y1946D02*
X1130Y1946D01*
X1155Y1946D02*
X1192Y1946D01*
X1857Y1946D02*
X1879Y1946D01*
X1913Y1946D02*
X1935Y1946D01*
X2105Y1946D02*
X2127Y1946D01*
X2161Y1946D02*
X2183Y1946D01*
X96Y1945D02*
X132Y1945D01*
X159Y1945D02*
X195Y1945D01*
X1093Y1945D02*
X1129Y1945D01*
X1156Y1945D02*
X1193Y1945D01*
X1857Y1945D02*
X1878Y1945D01*
X1913Y1945D02*
X1935Y1945D01*
X2105Y1945D02*
X2126Y1945D01*
X2162Y1945D02*
X2183Y1945D01*
X95Y1944D02*
X131Y1944D01*
X160Y1944D02*
X195Y1944D01*
X1093Y1944D02*
X1128Y1944D01*
X1156Y1944D02*
X1193Y1944D01*
X1857Y1944D02*
X1878Y1944D01*
X1914Y1944D02*
X1935Y1944D01*
X2105Y1944D02*
X2126Y1944D01*
X2162Y1944D02*
X2183Y1944D01*
X95Y1943D02*
X131Y1943D01*
X160Y1943D02*
X196Y1943D01*
X1093Y1943D02*
X1127Y1943D01*
X1157Y1943D02*
X1193Y1943D01*
X1857Y1943D02*
X1877Y1943D01*
X1915Y1943D02*
X1935Y1943D01*
X2105Y1943D02*
X2125Y1943D01*
X2163Y1943D02*
X2183Y1943D01*
X95Y1942D02*
X130Y1942D01*
X161Y1942D02*
X196Y1942D01*
X1092Y1942D02*
X1127Y1942D01*
X1157Y1942D02*
X1194Y1942D01*
X1857Y1942D02*
X1877Y1942D01*
X1915Y1942D02*
X1935Y1942D01*
X2105Y1942D02*
X2125Y1942D01*
X2163Y1942D02*
X2183Y1942D01*
X95Y1941D02*
X130Y1941D01*
X161Y1941D02*
X196Y1941D01*
X1092Y1941D02*
X1127Y1941D01*
X1158Y1941D02*
X1194Y1941D01*
X1857Y1941D02*
X1877Y1941D01*
X1915Y1941D02*
X1935Y1941D01*
X2105Y1941D02*
X2125Y1941D01*
X2163Y1941D02*
X2183Y1941D01*
X94Y1940D02*
X129Y1940D01*
X161Y1940D02*
X196Y1940D01*
X1092Y1940D02*
X1126Y1940D01*
X1158Y1940D02*
X1194Y1940D01*
X1857Y1940D02*
X1876Y1940D01*
X1915Y1940D02*
X1935Y1940D01*
X2105Y1940D02*
X2124Y1940D01*
X2164Y1940D02*
X2183Y1940D01*
X94Y1939D02*
X129Y1939D01*
X162Y1939D02*
X197Y1939D01*
X1092Y1939D02*
X1126Y1939D01*
X1158Y1939D02*
X1194Y1939D01*
X1857Y1939D02*
X1876Y1939D01*
X1916Y1939D02*
X1935Y1939D01*
X2105Y1939D02*
X2124Y1939D01*
X2164Y1939D02*
X2183Y1939D01*
X94Y1938D02*
X129Y1938D01*
X162Y1938D02*
X197Y1938D01*
X1092Y1938D02*
X1126Y1938D01*
X1159Y1938D02*
X1194Y1938D01*
X1857Y1938D02*
X1876Y1938D01*
X1916Y1938D02*
X1935Y1938D01*
X2105Y1938D02*
X2124Y1938D01*
X2164Y1938D02*
X2183Y1938D01*
X94Y1937D02*
X129Y1937D01*
X162Y1937D02*
X197Y1937D01*
X1092Y1937D02*
X1126Y1937D01*
X1159Y1937D02*
X1194Y1937D01*
X1857Y1937D02*
X1876Y1937D01*
X1916Y1937D02*
X1935Y1937D01*
X2105Y1937D02*
X2124Y1937D01*
X2164Y1937D02*
X2183Y1937D01*
X94Y1936D02*
X129Y1936D01*
X162Y1936D02*
X197Y1936D01*
X1091Y1936D02*
X1126Y1936D01*
X1159Y1936D02*
X1194Y1936D01*
X1857Y1936D02*
X1876Y1936D01*
X1916Y1936D02*
X1935Y1936D01*
X2105Y1936D02*
X2124Y1936D01*
X2164Y1936D02*
X2183Y1936D01*
X94Y1935D02*
X129Y1935D01*
X162Y1935D02*
X197Y1935D01*
X1091Y1935D02*
X1125Y1935D01*
X1159Y1935D02*
X1194Y1935D01*
X1857Y1935D02*
X1876Y1935D01*
X1916Y1935D02*
X1935Y1935D01*
X2105Y1935D02*
X2124Y1935D01*
X2164Y1935D02*
X2183Y1935D01*
X94Y1934D02*
X129Y1934D01*
X162Y1934D02*
X197Y1934D01*
X1092Y1934D02*
X1126Y1934D01*
X1159Y1934D02*
X1194Y1934D01*
X1857Y1934D02*
X1876Y1934D01*
X1916Y1934D02*
X1935Y1934D01*
X2105Y1934D02*
X2124Y1934D01*
X2164Y1934D02*
X2183Y1934D01*
X94Y1933D02*
X129Y1933D01*
X162Y1933D02*
X197Y1933D01*
X1092Y1933D02*
X1126Y1933D01*
X1159Y1933D02*
X1194Y1933D01*
X1857Y1933D02*
X1876Y1933D01*
X1916Y1933D02*
X1935Y1933D01*
X2105Y1933D02*
X2124Y1933D01*
X2164Y1933D02*
X2183Y1933D01*
X94Y1932D02*
X129Y1932D01*
X162Y1932D02*
X197Y1932D01*
X1092Y1932D02*
X1126Y1932D01*
X1158Y1932D02*
X1194Y1932D01*
X1857Y1932D02*
X1876Y1932D01*
X1916Y1932D02*
X1935Y1932D01*
X2105Y1932D02*
X2124Y1932D01*
X2164Y1932D02*
X2183Y1932D01*
X94Y1931D02*
X129Y1931D01*
X161Y1931D02*
X196Y1931D01*
X1092Y1931D02*
X1126Y1931D01*
X1158Y1931D02*
X1194Y1931D01*
X1857Y1931D02*
X1876Y1931D01*
X1915Y1931D02*
X1935Y1931D01*
X2105Y1931D02*
X2124Y1931D01*
X2164Y1931D02*
X2183Y1931D01*
X94Y1930D02*
X130Y1930D01*
X161Y1930D02*
X196Y1930D01*
X1092Y1930D02*
X1126Y1930D01*
X1158Y1930D02*
X1194Y1930D01*
X1857Y1930D02*
X1877Y1930D01*
X1915Y1930D02*
X1935Y1930D01*
X2105Y1930D02*
X2125Y1930D01*
X2163Y1930D02*
X2183Y1930D01*
X95Y1929D02*
X130Y1929D01*
X161Y1929D02*
X196Y1929D01*
X1092Y1929D02*
X1127Y1929D01*
X1157Y1929D02*
X1194Y1929D01*
X1857Y1929D02*
X1877Y1929D01*
X1915Y1929D02*
X1935Y1929D01*
X2105Y1929D02*
X2125Y1929D01*
X2163Y1929D02*
X2183Y1929D01*
X95Y1928D02*
X131Y1928D01*
X160Y1928D02*
X196Y1928D01*
X1093Y1928D02*
X1127Y1928D01*
X1157Y1928D02*
X1193Y1928D01*
X1857Y1928D02*
X1877Y1928D01*
X1915Y1928D02*
X1935Y1928D01*
X2105Y1928D02*
X2125Y1928D01*
X2163Y1928D02*
X2183Y1928D01*
X95Y1927D02*
X131Y1927D01*
X160Y1927D02*
X195Y1927D01*
X1093Y1927D02*
X1128Y1927D01*
X1156Y1927D02*
X1193Y1927D01*
X1857Y1927D02*
X1878Y1927D01*
X1914Y1927D02*
X1935Y1927D01*
X2105Y1927D02*
X2126Y1927D01*
X2162Y1927D02*
X2183Y1927D01*
X96Y1926D02*
X132Y1926D01*
X159Y1926D02*
X195Y1926D01*
X1093Y1926D02*
X1129Y1926D01*
X1156Y1926D02*
X1193Y1926D01*
X1857Y1926D02*
X1878Y1926D01*
X1914Y1926D02*
X1935Y1926D01*
X2105Y1926D02*
X2126Y1926D01*
X2162Y1926D02*
X2183Y1926D01*
X96Y1925D02*
X133Y1925D01*
X158Y1925D02*
X195Y1925D01*
X1094Y1925D02*
X1129Y1925D01*
X1155Y1925D02*
X1192Y1925D01*
X1857Y1925D02*
X1879Y1925D01*
X1913Y1925D02*
X1935Y1925D01*
X2105Y1925D02*
X2127Y1925D01*
X2161Y1925D02*
X2183Y1925D01*
X97Y1924D02*
X134Y1924D01*
X157Y1924D02*
X194Y1924D01*
X1094Y1924D02*
X1130Y1924D01*
X1154Y1924D02*
X1192Y1924D01*
X1857Y1924D02*
X1879Y1924D01*
X1912Y1924D02*
X1935Y1924D01*
X2105Y1924D02*
X2127Y1924D01*
X2160Y1924D02*
X2183Y1924D01*
X97Y1923D02*
X135Y1923D01*
X156Y1923D02*
X194Y1923D01*
X1095Y1923D02*
X1131Y1923D01*
X1153Y1923D02*
X1191Y1923D01*
X1857Y1923D02*
X1880Y1923D01*
X1911Y1923D02*
X1935Y1923D01*
X2105Y1923D02*
X2128Y1923D01*
X2159Y1923D02*
X2183Y1923D01*
X98Y1922D02*
X136Y1922D01*
X155Y1922D02*
X193Y1922D01*
X1095Y1922D02*
X1133Y1922D01*
X1151Y1922D02*
X1191Y1922D01*
X1857Y1922D02*
X1881Y1922D01*
X1911Y1922D02*
X1935Y1922D01*
X2105Y1922D02*
X2129Y1922D01*
X2159Y1922D02*
X2183Y1922D01*
X98Y1921D02*
X138Y1921D01*
X153Y1921D02*
X192Y1921D01*
X1096Y1921D02*
X1135Y1921D01*
X1150Y1921D02*
X1190Y1921D01*
X1857Y1921D02*
X1882Y1921D01*
X1910Y1921D02*
X1935Y1921D01*
X2105Y1921D02*
X2130Y1921D01*
X2158Y1921D02*
X2183Y1921D01*
X99Y1920D02*
X141Y1920D01*
X150Y1920D02*
X192Y1920D01*
X1097Y1920D02*
X1137Y1920D01*
X1147Y1920D02*
X1189Y1920D01*
X1857Y1920D02*
X1883Y1920D01*
X1908Y1920D02*
X1935Y1920D01*
X2105Y1920D02*
X2131Y1920D01*
X2156Y1920D02*
X2183Y1920D01*
X100Y1919D02*
X191Y1919D01*
X1097Y1919D02*
X1188Y1919D01*
X1857Y1919D02*
X1885Y1919D01*
X1907Y1919D02*
X1935Y1919D01*
X2105Y1919D02*
X2133Y1919D01*
X2155Y1919D02*
X2183Y1919D01*
X101Y1918D02*
X190Y1918D01*
X1098Y1918D02*
X1188Y1918D01*
X1857Y1918D02*
X1886Y1918D01*
X1905Y1918D02*
X1935Y1918D01*
X2105Y1918D02*
X2135Y1918D01*
X2153Y1918D02*
X2183Y1918D01*
X102Y1917D02*
X189Y1917D01*
X1099Y1917D02*
X1187Y1917D01*
X1857Y1917D02*
X1889Y1917D01*
X1903Y1917D02*
X1935Y1917D01*
X2105Y1917D02*
X2137Y1917D01*
X2151Y1917D02*
X2183Y1917D01*
X103Y1916D02*
X188Y1916D01*
X1100Y1916D02*
X1185Y1916D01*
X1857Y1916D02*
X1893Y1916D01*
X1898Y1916D02*
X1935Y1916D01*
X2105Y1916D02*
X2141Y1916D01*
X2146Y1916D02*
X2183Y1916D01*
X104Y1915D02*
X187Y1915D01*
X1102Y1915D02*
X1184Y1915D01*
X1857Y1915D02*
X1935Y1915D01*
X2105Y1915D02*
X2183Y1915D01*
X105Y1914D02*
X185Y1914D01*
X1103Y1914D02*
X1183Y1914D01*
X1857Y1914D02*
X1935Y1914D01*
X2105Y1914D02*
X2183Y1914D01*
X107Y1913D02*
X184Y1913D01*
X1105Y1913D02*
X1181Y1913D01*
X1857Y1913D02*
X1935Y1913D01*
X2105Y1913D02*
X2183Y1913D01*
X109Y1912D02*
X182Y1912D01*
X1106Y1912D02*
X1179Y1912D01*
X1857Y1912D02*
X1935Y1912D01*
X2105Y1912D02*
X2183Y1912D01*
X111Y1911D02*
X180Y1911D01*
X1109Y1911D02*
X1177Y1911D01*
X1857Y1911D02*
X1935Y1911D01*
X2105Y1911D02*
X2183Y1911D01*
X115Y1910D02*
X176Y1910D01*
X1112Y1910D02*
X1173Y1910D01*
X1857Y1910D02*
X1935Y1910D01*
X2105Y1910D02*
X2183Y1910D01*
X1857Y1909D02*
X1935Y1909D01*
X2105Y1909D02*
X2183Y1909D01*
X1857Y1908D02*
X1935Y1908D01*
X2105Y1908D02*
X2183Y1908D01*
X1857Y1907D02*
X1935Y1907D01*
X2105Y1907D02*
X2183Y1907D01*
X1857Y1906D02*
X1935Y1906D01*
X2105Y1906D02*
X2183Y1906D01*
X1857Y1905D02*
X1935Y1905D01*
X2105Y1905D02*
X2183Y1905D01*
X1857Y1904D02*
X1935Y1904D01*
X2105Y1904D02*
X2183Y1904D01*
X1857Y1903D02*
X1935Y1903D01*
X2105Y1903D02*
X2183Y1903D01*
X1857Y1902D02*
X1935Y1902D01*
X2105Y1902D02*
X2183Y1902D01*
X1857Y1901D02*
X1935Y1901D01*
X2105Y1901D02*
X2183Y1901D01*
X1857Y1900D02*
X1935Y1900D01*
X2105Y1900D02*
X2183Y1900D01*
X1857Y1899D02*
X1935Y1899D01*
X2105Y1899D02*
X2183Y1899D01*
X1857Y1898D02*
X1935Y1898D01*
X2105Y1898D02*
X2183Y1898D01*
X1857Y1897D02*
X1935Y1897D01*
X2105Y1897D02*
X2183Y1897D01*
X1857Y1896D02*
X1935Y1896D01*
X2105Y1896D02*
X2183Y1896D01*
X1857Y1895D02*
X1935Y1895D01*
X2105Y1895D02*
X2183Y1895D01*
X1857Y1894D02*
X1935Y1894D01*
X2105Y1894D02*
X2183Y1894D01*
X1857Y1893D02*
X1935Y1893D01*
X2105Y1893D02*
X2183Y1893D01*
X1857Y1892D02*
X1935Y1892D01*
X2105Y1892D02*
X2183Y1892D01*
X1857Y1891D02*
X1934Y1891D01*
X2105Y1891D02*
X2182Y1891D01*
X1858Y1890D02*
X1934Y1890D01*
X2106Y1890D02*
X2182Y1890D01*
X1858Y1889D02*
X1934Y1889D01*
X2106Y1889D02*
X2182Y1889D01*
X1858Y1888D02*
X1934Y1888D01*
X2106Y1888D02*
X2182Y1888D01*
X1858Y1887D02*
X1934Y1887D01*
X2106Y1887D02*
X2182Y1887D01*
X1858Y1886D02*
X1933Y1886D01*
X2106Y1886D02*
X2181Y1886D01*
X1859Y1885D02*
X1933Y1885D01*
X2107Y1885D02*
X2181Y1885D01*
X1859Y1884D02*
X1933Y1884D01*
X2107Y1884D02*
X2181Y1884D01*
X1859Y1883D02*
X1932Y1883D01*
X2107Y1883D02*
X2180Y1883D01*
X1860Y1882D02*
X1932Y1882D01*
X2108Y1882D02*
X2180Y1882D01*
X1860Y1881D02*
X1932Y1881D01*
X2108Y1881D02*
X2180Y1881D01*
X1860Y1880D02*
X1931Y1880D01*
X2109Y1880D02*
X2179Y1880D01*
X1861Y1879D02*
X1931Y1879D01*
X2109Y1879D02*
X2179Y1879D01*
X1861Y1878D02*
X1930Y1878D01*
X2109Y1878D02*
X2178Y1878D01*
X1862Y1877D02*
X1930Y1877D01*
X2110Y1877D02*
X2178Y1877D01*
X1863Y1876D02*
X1929Y1876D01*
X2111Y1876D02*
X2177Y1876D01*
X1863Y1875D02*
X1929Y1875D01*
X2111Y1875D02*
X2177Y1875D01*
X1864Y1874D02*
X1928Y1874D01*
X2112Y1874D02*
X2176Y1874D01*
X1865Y1873D02*
X1927Y1873D01*
X2113Y1873D02*
X2175Y1873D01*
X1865Y1872D02*
X1926Y1872D01*
X2113Y1872D02*
X2174Y1872D01*
X1866Y1871D02*
X1926Y1871D01*
X2114Y1871D02*
X2174Y1871D01*
X1867Y1870D02*
X1925Y1870D01*
X2115Y1870D02*
X2173Y1870D01*
X1868Y1869D02*
X1924Y1869D01*
X2116Y1869D02*
X2172Y1869D01*
X1869Y1868D02*
X1923Y1868D01*
X2117Y1868D02*
X2171Y1868D01*
X1870Y1867D02*
X1922Y1867D01*
X2118Y1867D02*
X2170Y1867D01*
X1871Y1866D02*
X1921Y1866D01*
X2119Y1866D02*
X2169Y1866D01*
X1872Y1865D02*
X1919Y1865D01*
X2120Y1865D02*
X2167Y1865D01*
X1874Y1864D02*
X1918Y1864D01*
X2122Y1864D02*
X2166Y1864D01*
X1875Y1863D02*
X1917Y1863D01*
X2123Y1863D02*
X2165Y1863D01*
X1877Y1862D02*
X1915Y1862D01*
X2125Y1862D02*
X2163Y1862D01*
X115Y1861D02*
X176Y1861D01*
X1113Y1861D02*
X1173Y1861D01*
X1879Y1861D02*
X1913Y1861D01*
X2127Y1861D02*
X2161Y1861D01*
X111Y1860D02*
X179Y1860D01*
X1109Y1860D02*
X1177Y1860D01*
X1881Y1860D02*
X1911Y1860D01*
X2129Y1860D02*
X2159Y1860D01*
X109Y1859D02*
X182Y1859D01*
X1107Y1859D02*
X1179Y1859D01*
X1883Y1859D02*
X1908Y1859D01*
X2131Y1859D02*
X2156Y1859D01*
X107Y1858D02*
X184Y1858D01*
X1105Y1858D02*
X1181Y1858D01*
X1887Y1858D02*
X1905Y1858D01*
X2135Y1858D02*
X2153Y1858D01*
X105Y1857D02*
X185Y1857D01*
X1103Y1857D02*
X1183Y1857D01*
X1892Y1857D02*
X1900Y1857D01*
X2140Y1857D02*
X2148Y1857D01*
X104Y1856D02*
X187Y1856D01*
X1102Y1856D02*
X1184Y1856D01*
X103Y1855D02*
X188Y1855D01*
X1100Y1855D02*
X1185Y1855D01*
X102Y1854D02*
X189Y1854D01*
X1099Y1854D02*
X1187Y1854D01*
X101Y1853D02*
X190Y1853D01*
X1098Y1853D02*
X1188Y1853D01*
X100Y1852D02*
X191Y1852D01*
X1098Y1852D02*
X1188Y1852D01*
X99Y1851D02*
X141Y1851D01*
X150Y1851D02*
X192Y1851D01*
X1097Y1851D02*
X1138Y1851D01*
X1146Y1851D02*
X1189Y1851D01*
X98Y1850D02*
X138Y1850D01*
X153Y1850D02*
X192Y1850D01*
X1096Y1850D02*
X1135Y1850D01*
X1150Y1850D02*
X1190Y1850D01*
X98Y1849D02*
X136Y1849D01*
X155Y1849D02*
X193Y1849D01*
X1095Y1849D02*
X1133Y1849D01*
X1151Y1849D02*
X1191Y1849D01*
X97Y1848D02*
X135Y1848D01*
X156Y1848D02*
X193Y1848D01*
X1095Y1848D02*
X1132Y1848D01*
X1153Y1848D02*
X1191Y1848D01*
X97Y1847D02*
X134Y1847D01*
X157Y1847D02*
X194Y1847D01*
X1094Y1847D02*
X1130Y1847D01*
X1154Y1847D02*
X1192Y1847D01*
X96Y1846D02*
X133Y1846D01*
X158Y1846D02*
X195Y1846D01*
X1094Y1846D02*
X1129Y1846D01*
X1155Y1846D02*
X1192Y1846D01*
X96Y1845D02*
X132Y1845D01*
X159Y1845D02*
X195Y1845D01*
X1093Y1845D02*
X1129Y1845D01*
X1156Y1845D02*
X1193Y1845D01*
X95Y1844D02*
X131Y1844D01*
X160Y1844D02*
X195Y1844D01*
X1093Y1844D02*
X1128Y1844D01*
X1156Y1844D02*
X1193Y1844D01*
X95Y1843D02*
X131Y1843D01*
X160Y1843D02*
X196Y1843D01*
X1093Y1843D02*
X1127Y1843D01*
X1157Y1843D02*
X1193Y1843D01*
X95Y1842D02*
X130Y1842D01*
X161Y1842D02*
X196Y1842D01*
X1092Y1842D02*
X1127Y1842D01*
X1158Y1842D02*
X1194Y1842D01*
X95Y1841D02*
X130Y1841D01*
X161Y1841D02*
X196Y1841D01*
X1092Y1841D02*
X1126Y1841D01*
X1158Y1841D02*
X1194Y1841D01*
X94Y1840D02*
X129Y1840D01*
X162Y1840D02*
X196Y1840D01*
X1092Y1840D02*
X1126Y1840D01*
X1158Y1840D02*
X1194Y1840D01*
X94Y1839D02*
X129Y1839D01*
X162Y1839D02*
X197Y1839D01*
X1092Y1839D02*
X1126Y1839D01*
X1159Y1839D02*
X1194Y1839D01*
X94Y1838D02*
X129Y1838D01*
X162Y1838D02*
X197Y1838D01*
X1092Y1838D02*
X1126Y1838D01*
X1159Y1838D02*
X1194Y1838D01*
X94Y1837D02*
X129Y1837D01*
X162Y1837D02*
X197Y1837D01*
X1092Y1837D02*
X1125Y1837D01*
X1159Y1837D02*
X1194Y1837D01*
X94Y1836D02*
X129Y1836D01*
X162Y1836D02*
X197Y1836D01*
X1091Y1836D02*
X1125Y1836D01*
X1159Y1836D02*
X1194Y1836D01*
X94Y1835D02*
X129Y1835D01*
X162Y1835D02*
X197Y1835D01*
X1091Y1835D02*
X1125Y1835D01*
X1159Y1835D02*
X1194Y1835D01*
X94Y1834D02*
X129Y1834D01*
X162Y1834D02*
X197Y1834D01*
X1092Y1834D02*
X1125Y1834D01*
X1159Y1834D02*
X1194Y1834D01*
X94Y1833D02*
X129Y1833D01*
X162Y1833D02*
X197Y1833D01*
X1092Y1833D02*
X1126Y1833D01*
X1159Y1833D02*
X1194Y1833D01*
X94Y1832D02*
X129Y1832D01*
X162Y1832D02*
X197Y1832D01*
X1092Y1832D02*
X1126Y1832D01*
X1159Y1832D02*
X1194Y1832D01*
X94Y1831D02*
X129Y1831D01*
X162Y1831D02*
X196Y1831D01*
X1092Y1831D02*
X1126Y1831D01*
X1158Y1831D02*
X1194Y1831D01*
X94Y1830D02*
X130Y1830D01*
X161Y1830D02*
X196Y1830D01*
X1092Y1830D02*
X1126Y1830D01*
X1158Y1830D02*
X1194Y1830D01*
X95Y1829D02*
X130Y1829D01*
X161Y1829D02*
X196Y1829D01*
X1092Y1829D02*
X1127Y1829D01*
X1158Y1829D02*
X1194Y1829D01*
X95Y1828D02*
X130Y1828D01*
X160Y1828D02*
X196Y1828D01*
X1093Y1828D02*
X1127Y1828D01*
X1157Y1828D02*
X1193Y1828D01*
X95Y1827D02*
X131Y1827D01*
X160Y1827D02*
X195Y1827D01*
X1093Y1827D02*
X1128Y1827D01*
X1157Y1827D02*
X1193Y1827D01*
X96Y1826D02*
X132Y1826D01*
X159Y1826D02*
X195Y1826D01*
X1093Y1826D02*
X1128Y1826D01*
X1156Y1826D02*
X1193Y1826D01*
X96Y1825D02*
X132Y1825D01*
X158Y1825D02*
X195Y1825D01*
X1094Y1825D02*
X1129Y1825D01*
X1155Y1825D02*
X1192Y1825D01*
X97Y1824D02*
X133Y1824D01*
X157Y1824D02*
X194Y1824D01*
X1094Y1824D02*
X1130Y1824D01*
X1154Y1824D02*
X1192Y1824D01*
X97Y1823D02*
X135Y1823D01*
X156Y1823D02*
X194Y1823D01*
X1095Y1823D02*
X1131Y1823D01*
X1153Y1823D02*
X1191Y1823D01*
X98Y1822D02*
X136Y1822D01*
X155Y1822D02*
X193Y1822D01*
X1095Y1822D02*
X1133Y1822D01*
X1152Y1822D02*
X1191Y1822D01*
X98Y1821D02*
X138Y1821D01*
X153Y1821D02*
X192Y1821D01*
X1096Y1821D02*
X1135Y1821D01*
X1150Y1821D02*
X1190Y1821D01*
X99Y1820D02*
X140Y1820D01*
X150Y1820D02*
X192Y1820D01*
X1097Y1820D02*
X1137Y1820D01*
X1147Y1820D02*
X1189Y1820D01*
X100Y1819D02*
X191Y1819D01*
X1097Y1819D02*
X1188Y1819D01*
X101Y1818D02*
X190Y1818D01*
X1098Y1818D02*
X1188Y1818D01*
X102Y1817D02*
X189Y1817D01*
X1099Y1817D02*
X1187Y1817D01*
X103Y1816D02*
X188Y1816D01*
X1100Y1816D02*
X1185Y1816D01*
X104Y1815D02*
X187Y1815D01*
X1102Y1815D02*
X1184Y1815D01*
X105Y1814D02*
X185Y1814D01*
X1103Y1814D02*
X1183Y1814D01*
X107Y1813D02*
X184Y1813D01*
X1105Y1813D02*
X1181Y1813D01*
X109Y1812D02*
X182Y1812D01*
X1106Y1812D02*
X1179Y1812D01*
X111Y1811D02*
X180Y1811D01*
X1109Y1811D02*
X1177Y1811D01*
X115Y1810D02*
X176Y1810D01*
X1112Y1810D02*
X1174Y1810D01*
X114Y1761D02*
X175Y1761D01*
X1113Y1761D02*
X1173Y1761D01*
X110Y1760D02*
X178Y1760D01*
X1109Y1760D02*
X1177Y1760D01*
X108Y1759D02*
X181Y1759D01*
X1107Y1759D02*
X1179Y1759D01*
X106Y1758D02*
X183Y1758D01*
X1105Y1758D02*
X1181Y1758D01*
X104Y1757D02*
X184Y1757D01*
X1103Y1757D02*
X1183Y1757D01*
X103Y1756D02*
X186Y1756D01*
X1102Y1756D02*
X1184Y1756D01*
X102Y1755D02*
X187Y1755D01*
X1100Y1755D02*
X1185Y1755D01*
X101Y1754D02*
X188Y1754D01*
X1099Y1754D02*
X1187Y1754D01*
X100Y1753D02*
X189Y1753D01*
X1098Y1753D02*
X1187Y1753D01*
X99Y1752D02*
X190Y1752D01*
X1098Y1752D02*
X1188Y1752D01*
X98Y1751D02*
X140Y1751D01*
X148Y1751D02*
X191Y1751D01*
X1097Y1751D02*
X1138Y1751D01*
X1146Y1751D02*
X1189Y1751D01*
X97Y1750D02*
X137Y1750D01*
X151Y1750D02*
X191Y1750D01*
X1096Y1750D02*
X1135Y1750D01*
X1149Y1750D02*
X1190Y1750D01*
X97Y1749D02*
X136Y1749D01*
X153Y1749D02*
X192Y1749D01*
X1095Y1749D02*
X1133Y1749D01*
X1151Y1749D02*
X1190Y1749D01*
X96Y1748D02*
X134Y1748D01*
X155Y1748D02*
X192Y1748D01*
X1095Y1748D02*
X1132Y1748D01*
X1152Y1748D02*
X1191Y1748D01*
X96Y1747D02*
X133Y1747D01*
X156Y1747D02*
X193Y1747D01*
X1094Y1747D02*
X1131Y1747D01*
X1154Y1747D02*
X1192Y1747D01*
X95Y1746D02*
X132Y1746D01*
X157Y1746D02*
X194Y1746D01*
X1094Y1746D02*
X1130Y1746D01*
X1155Y1746D02*
X1192Y1746D01*
X95Y1745D02*
X131Y1745D01*
X158Y1745D02*
X194Y1745D01*
X1093Y1745D02*
X1129Y1745D01*
X1155Y1745D02*
X1193Y1745D01*
X94Y1744D02*
X130Y1744D01*
X158Y1744D02*
X194Y1744D01*
X1093Y1744D02*
X1128Y1744D01*
X1156Y1744D02*
X1193Y1744D01*
X94Y1743D02*
X130Y1743D01*
X159Y1743D02*
X195Y1743D01*
X1093Y1743D02*
X1128Y1743D01*
X1157Y1743D02*
X1193Y1743D01*
X94Y1742D02*
X129Y1742D01*
X159Y1742D02*
X195Y1742D01*
X1092Y1742D02*
X1127Y1742D01*
X1157Y1742D02*
X1194Y1742D01*
X93Y1741D02*
X129Y1741D01*
X160Y1741D02*
X195Y1741D01*
X1092Y1741D02*
X1127Y1741D01*
X1158Y1741D02*
X1194Y1741D01*
X93Y1740D02*
X129Y1740D01*
X160Y1740D02*
X195Y1740D01*
X1092Y1740D02*
X1126Y1740D01*
X1158Y1740D02*
X1194Y1740D01*
X93Y1739D02*
X128Y1739D01*
X160Y1739D02*
X196Y1739D01*
X1092Y1739D02*
X1126Y1739D01*
X1158Y1739D02*
X1194Y1739D01*
X93Y1738D02*
X128Y1738D01*
X161Y1738D02*
X196Y1738D01*
X1092Y1738D02*
X1126Y1738D01*
X1158Y1738D02*
X1194Y1738D01*
X93Y1737D02*
X128Y1737D01*
X161Y1737D02*
X196Y1737D01*
X1092Y1737D02*
X1126Y1737D01*
X1158Y1737D02*
X1194Y1737D01*
X93Y1736D02*
X128Y1736D01*
X161Y1736D02*
X196Y1736D01*
X1091Y1736D02*
X1126Y1736D01*
X1159Y1736D02*
X1194Y1736D01*
X93Y1735D02*
X128Y1735D01*
X161Y1735D02*
X196Y1735D01*
X1091Y1735D02*
X1126Y1735D01*
X1159Y1735D02*
X1194Y1735D01*
X93Y1734D02*
X128Y1734D01*
X161Y1734D02*
X196Y1734D01*
X1092Y1734D02*
X1126Y1734D01*
X1158Y1734D02*
X1194Y1734D01*
X93Y1733D02*
X128Y1733D01*
X161Y1733D02*
X196Y1733D01*
X1092Y1733D02*
X1126Y1733D01*
X1158Y1733D02*
X1194Y1733D01*
X93Y1732D02*
X128Y1732D01*
X160Y1732D02*
X196Y1732D01*
X1092Y1732D02*
X1126Y1732D01*
X1158Y1732D02*
X1194Y1732D01*
X93Y1731D02*
X129Y1731D01*
X160Y1731D02*
X195Y1731D01*
X1092Y1731D02*
X1126Y1731D01*
X1158Y1731D02*
X1194Y1731D01*
X93Y1730D02*
X129Y1730D01*
X160Y1730D02*
X195Y1730D01*
X1092Y1730D02*
X1127Y1730D01*
X1158Y1730D02*
X1194Y1730D01*
X94Y1729D02*
X129Y1729D01*
X160Y1729D02*
X195Y1729D01*
X1092Y1729D02*
X1127Y1729D01*
X1157Y1729D02*
X1194Y1729D01*
X94Y1728D02*
X130Y1728D01*
X159Y1728D02*
X195Y1728D01*
X1093Y1728D02*
X1128Y1728D01*
X1157Y1728D02*
X1193Y1728D01*
X94Y1727D02*
X130Y1727D01*
X158Y1727D02*
X194Y1727D01*
X1093Y1727D02*
X1128Y1727D01*
X1156Y1727D02*
X1193Y1727D01*
X95Y1726D02*
X131Y1726D01*
X158Y1726D02*
X194Y1726D01*
X1093Y1726D02*
X1129Y1726D01*
X1156Y1726D02*
X1193Y1726D01*
X95Y1725D02*
X132Y1725D01*
X157Y1725D02*
X194Y1725D01*
X1094Y1725D02*
X1130Y1725D01*
X1155Y1725D02*
X1192Y1725D01*
X96Y1724D02*
X133Y1724D01*
X156Y1724D02*
X193Y1724D01*
X1094Y1724D02*
X1131Y1724D01*
X1154Y1724D02*
X1192Y1724D01*
X96Y1723D02*
X134Y1723D01*
X155Y1723D02*
X193Y1723D01*
X1095Y1723D02*
X1132Y1723D01*
X1153Y1723D02*
X1191Y1723D01*
X97Y1722D02*
X135Y1722D01*
X154Y1722D02*
X192Y1722D01*
X1095Y1722D02*
X1133Y1722D01*
X1151Y1722D02*
X1191Y1722D01*
X97Y1721D02*
X137Y1721D01*
X152Y1721D02*
X191Y1721D01*
X1096Y1721D02*
X1135Y1721D01*
X1149Y1721D02*
X1190Y1721D01*
X98Y1720D02*
X140Y1720D01*
X149Y1720D02*
X191Y1720D01*
X1097Y1720D02*
X1138Y1720D01*
X1147Y1720D02*
X1189Y1720D01*
X99Y1719D02*
X190Y1719D01*
X1097Y1719D02*
X1188Y1719D01*
X100Y1718D02*
X189Y1718D01*
X1098Y1718D02*
X1188Y1718D01*
X101Y1717D02*
X188Y1717D01*
X1099Y1717D02*
X1187Y1717D01*
X102Y1716D02*
X187Y1716D01*
X1100Y1716D02*
X1185Y1716D01*
X103Y1715D02*
X186Y1715D01*
X1102Y1715D02*
X1184Y1715D01*
X104Y1714D02*
X184Y1714D01*
X1103Y1714D02*
X1183Y1714D01*
X106Y1713D02*
X183Y1713D01*
X1105Y1713D02*
X1181Y1713D01*
X108Y1712D02*
X181Y1712D01*
X1106Y1712D02*
X1179Y1712D01*
X110Y1711D02*
X179Y1711D01*
X1109Y1711D02*
X1177Y1711D01*
X114Y1710D02*
X175Y1710D01*
X1112Y1710D02*
X1173Y1710D01*
X1968Y1671D02*
X2060Y1671D01*
X1964Y1670D02*
X2064Y1670D01*
X1961Y1669D02*
X2067Y1669D01*
X1959Y1668D02*
X2069Y1668D01*
X1956Y1667D02*
X2072Y1667D01*
X1955Y1666D02*
X2073Y1666D01*
X1953Y1665D02*
X2075Y1665D01*
X1952Y1664D02*
X2076Y1664D01*
X1950Y1663D02*
X2078Y1663D01*
X1949Y1662D02*
X2079Y1662D01*
X115Y1661D02*
X176Y1661D01*
X1113Y1661D02*
X1173Y1661D01*
X1948Y1661D02*
X2080Y1661D01*
X111Y1660D02*
X179Y1660D01*
X1109Y1660D02*
X1177Y1660D01*
X1947Y1660D02*
X2081Y1660D01*
X109Y1659D02*
X182Y1659D01*
X1107Y1659D02*
X1179Y1659D01*
X1946Y1659D02*
X2082Y1659D01*
X107Y1658D02*
X184Y1658D01*
X1105Y1658D02*
X1181Y1658D01*
X1945Y1658D02*
X2083Y1658D01*
X105Y1657D02*
X185Y1657D01*
X1103Y1657D02*
X1183Y1657D01*
X1944Y1657D02*
X2084Y1657D01*
X104Y1656D02*
X187Y1656D01*
X1102Y1656D02*
X1184Y1656D01*
X1944Y1656D02*
X2084Y1656D01*
X103Y1655D02*
X188Y1655D01*
X1100Y1655D02*
X1185Y1655D01*
X1943Y1655D02*
X2085Y1655D01*
X102Y1654D02*
X189Y1654D01*
X1099Y1654D02*
X1187Y1654D01*
X1942Y1654D02*
X2086Y1654D01*
X101Y1653D02*
X190Y1653D01*
X1098Y1653D02*
X1187Y1653D01*
X1942Y1653D02*
X2086Y1653D01*
X100Y1652D02*
X191Y1652D01*
X1098Y1652D02*
X1188Y1652D01*
X1941Y1652D02*
X2087Y1652D01*
X99Y1651D02*
X141Y1651D01*
X149Y1651D02*
X192Y1651D01*
X1097Y1651D02*
X1138Y1651D01*
X1146Y1651D02*
X1189Y1651D01*
X1940Y1651D02*
X2008Y1651D01*
X2020Y1651D02*
X2088Y1651D01*
X98Y1650D02*
X138Y1650D01*
X152Y1650D02*
X192Y1650D01*
X1096Y1650D02*
X1135Y1650D01*
X1149Y1650D02*
X1190Y1650D01*
X1940Y1650D02*
X2005Y1650D01*
X2023Y1650D02*
X2088Y1650D01*
X98Y1649D02*
X137Y1649D01*
X154Y1649D02*
X193Y1649D01*
X1095Y1649D02*
X1133Y1649D01*
X1151Y1649D02*
X1190Y1649D01*
X1939Y1649D02*
X2003Y1649D01*
X2025Y1649D02*
X2088Y1649D01*
X97Y1648D02*
X135Y1648D01*
X156Y1648D02*
X193Y1648D01*
X1095Y1648D02*
X1132Y1648D01*
X1152Y1648D02*
X1191Y1648D01*
X1939Y1648D02*
X2002Y1648D01*
X2026Y1648D02*
X2089Y1648D01*
X97Y1647D02*
X134Y1647D01*
X157Y1647D02*
X194Y1647D01*
X1094Y1647D02*
X1131Y1647D01*
X1154Y1647D02*
X1192Y1647D01*
X1939Y1647D02*
X2000Y1647D01*
X2027Y1647D02*
X2089Y1647D01*
X96Y1646D02*
X133Y1646D01*
X158Y1646D02*
X195Y1646D01*
X1094Y1646D02*
X1130Y1646D01*
X1155Y1646D02*
X1192Y1646D01*
X1938Y1646D02*
X1999Y1646D01*
X2029Y1646D02*
X2090Y1646D01*
X96Y1645D02*
X132Y1645D01*
X159Y1645D02*
X195Y1645D01*
X1093Y1645D02*
X1129Y1645D01*
X1155Y1645D02*
X1193Y1645D01*
X1938Y1645D02*
X1999Y1645D01*
X2029Y1645D02*
X2090Y1645D01*
X95Y1644D02*
X131Y1644D01*
X159Y1644D02*
X195Y1644D01*
X1093Y1644D02*
X1128Y1644D01*
X1156Y1644D02*
X1193Y1644D01*
X1938Y1644D02*
X1998Y1644D01*
X2030Y1644D02*
X2090Y1644D01*
X95Y1643D02*
X131Y1643D01*
X160Y1643D02*
X196Y1643D01*
X1093Y1643D02*
X1128Y1643D01*
X1157Y1643D02*
X1193Y1643D01*
X1937Y1643D02*
X1997Y1643D01*
X2031Y1643D02*
X2091Y1643D01*
X95Y1642D02*
X130Y1642D01*
X160Y1642D02*
X196Y1642D01*
X1092Y1642D02*
X1127Y1642D01*
X1157Y1642D02*
X1194Y1642D01*
X1937Y1642D02*
X1996Y1642D01*
X2032Y1642D02*
X2091Y1642D01*
X95Y1641D02*
X130Y1641D01*
X161Y1641D02*
X196Y1641D01*
X1092Y1641D02*
X1127Y1641D01*
X1158Y1641D02*
X1194Y1641D01*
X1937Y1641D02*
X1996Y1641D01*
X2032Y1641D02*
X2091Y1641D01*
X94Y1640D02*
X130Y1640D01*
X161Y1640D02*
X196Y1640D01*
X1092Y1640D02*
X1126Y1640D01*
X1158Y1640D02*
X1194Y1640D01*
X1936Y1640D02*
X1995Y1640D01*
X2033Y1640D02*
X2091Y1640D01*
X94Y1639D02*
X129Y1639D01*
X161Y1639D02*
X197Y1639D01*
X1092Y1639D02*
X1126Y1639D01*
X1158Y1639D02*
X1194Y1639D01*
X1936Y1639D02*
X1995Y1639D01*
X2033Y1639D02*
X2092Y1639D01*
X94Y1638D02*
X129Y1638D01*
X162Y1638D02*
X197Y1638D01*
X1092Y1638D02*
X1126Y1638D01*
X1158Y1638D02*
X1194Y1638D01*
X1936Y1638D02*
X1995Y1638D01*
X2033Y1638D02*
X2092Y1638D01*
X94Y1637D02*
X129Y1637D01*
X162Y1637D02*
X197Y1637D01*
X1092Y1637D02*
X1126Y1637D01*
X1158Y1637D02*
X1194Y1637D01*
X1936Y1637D02*
X1994Y1637D01*
X2034Y1637D02*
X2092Y1637D01*
X94Y1636D02*
X129Y1636D01*
X162Y1636D02*
X197Y1636D01*
X1091Y1636D02*
X1126Y1636D01*
X1159Y1636D02*
X1194Y1636D01*
X1936Y1636D02*
X1994Y1636D01*
X2034Y1636D02*
X2092Y1636D01*
X94Y1635D02*
X129Y1635D01*
X162Y1635D02*
X197Y1635D01*
X1091Y1635D02*
X1126Y1635D01*
X1159Y1635D02*
X1194Y1635D01*
X1936Y1635D02*
X1994Y1635D01*
X2034Y1635D02*
X2092Y1635D01*
X94Y1634D02*
X129Y1634D01*
X162Y1634D02*
X197Y1634D01*
X1092Y1634D02*
X1126Y1634D01*
X1158Y1634D02*
X1194Y1634D01*
X1936Y1634D02*
X1994Y1634D01*
X2034Y1634D02*
X2092Y1634D01*
X94Y1633D02*
X129Y1633D01*
X162Y1633D02*
X197Y1633D01*
X1092Y1633D02*
X1126Y1633D01*
X1158Y1633D02*
X1194Y1633D01*
X1936Y1633D02*
X1994Y1633D01*
X2034Y1633D02*
X2092Y1633D01*
X94Y1632D02*
X129Y1632D01*
X162Y1632D02*
X197Y1632D01*
X1092Y1632D02*
X1126Y1632D01*
X1158Y1632D02*
X1194Y1632D01*
X1936Y1632D02*
X1994Y1632D01*
X2034Y1632D02*
X2092Y1632D01*
X94Y1631D02*
X130Y1631D01*
X161Y1631D02*
X196Y1631D01*
X1092Y1631D02*
X1126Y1631D01*
X1158Y1631D02*
X1194Y1631D01*
X1936Y1631D02*
X1994Y1631D01*
X2034Y1631D02*
X2092Y1631D01*
X94Y1630D02*
X130Y1630D01*
X161Y1630D02*
X196Y1630D01*
X1092Y1630D02*
X1127Y1630D01*
X1158Y1630D02*
X1194Y1630D01*
X1936Y1630D02*
X1994Y1630D01*
X2034Y1630D02*
X2092Y1630D01*
X95Y1629D02*
X130Y1629D01*
X161Y1629D02*
X196Y1629D01*
X1092Y1629D02*
X1127Y1629D01*
X1157Y1629D02*
X1194Y1629D01*
X1936Y1629D02*
X1994Y1629D01*
X2034Y1629D02*
X2092Y1629D01*
X95Y1628D02*
X131Y1628D01*
X160Y1628D02*
X196Y1628D01*
X1093Y1628D02*
X1128Y1628D01*
X1157Y1628D02*
X1193Y1628D01*
X1936Y1628D02*
X1994Y1628D01*
X2034Y1628D02*
X2092Y1628D01*
X95Y1627D02*
X131Y1627D01*
X159Y1627D02*
X195Y1627D01*
X1093Y1627D02*
X1128Y1627D01*
X1156Y1627D02*
X1193Y1627D01*
X1936Y1627D02*
X1995Y1627D01*
X2033Y1627D02*
X2092Y1627D01*
X96Y1626D02*
X132Y1626D01*
X159Y1626D02*
X195Y1626D01*
X1093Y1626D02*
X1129Y1626D01*
X1156Y1626D02*
X1193Y1626D01*
X1936Y1626D02*
X1995Y1626D01*
X2033Y1626D02*
X2092Y1626D01*
X96Y1625D02*
X133Y1625D01*
X158Y1625D02*
X195Y1625D01*
X1094Y1625D02*
X1130Y1625D01*
X1155Y1625D02*
X1192Y1625D01*
X1936Y1625D02*
X1995Y1625D01*
X2033Y1625D02*
X2092Y1625D01*
X97Y1624D02*
X134Y1624D01*
X157Y1624D02*
X194Y1624D01*
X1094Y1624D02*
X1131Y1624D01*
X1154Y1624D02*
X1192Y1624D01*
X1937Y1624D02*
X1996Y1624D01*
X2032Y1624D02*
X2091Y1624D01*
X97Y1623D02*
X135Y1623D01*
X156Y1623D02*
X194Y1623D01*
X1095Y1623D02*
X1132Y1623D01*
X1153Y1623D02*
X1191Y1623D01*
X1937Y1623D02*
X1996Y1623D01*
X2032Y1623D02*
X2091Y1623D01*
X98Y1622D02*
X136Y1622D01*
X155Y1622D02*
X193Y1622D01*
X1095Y1622D02*
X1133Y1622D01*
X1151Y1622D02*
X1191Y1622D01*
X1937Y1622D02*
X1997Y1622D01*
X2031Y1622D02*
X2091Y1622D01*
X98Y1621D02*
X138Y1621D01*
X153Y1621D02*
X192Y1621D01*
X1096Y1621D02*
X1135Y1621D01*
X1149Y1621D02*
X1190Y1621D01*
X1937Y1621D02*
X1997Y1621D01*
X2031Y1621D02*
X2091Y1621D01*
X99Y1620D02*
X141Y1620D01*
X150Y1620D02*
X192Y1620D01*
X1097Y1620D02*
X1138Y1620D01*
X1147Y1620D02*
X1189Y1620D01*
X1938Y1620D02*
X1998Y1620D01*
X2030Y1620D02*
X2090Y1620D01*
X100Y1619D02*
X191Y1619D01*
X1097Y1619D02*
X1188Y1619D01*
X1938Y1619D02*
X1999Y1619D01*
X2029Y1619D02*
X2090Y1619D01*
X101Y1618D02*
X190Y1618D01*
X1098Y1618D02*
X1188Y1618D01*
X1938Y1618D02*
X2000Y1618D01*
X2028Y1618D02*
X2089Y1618D01*
X102Y1617D02*
X189Y1617D01*
X1099Y1617D02*
X1187Y1617D01*
X1939Y1617D02*
X2001Y1617D01*
X2027Y1617D02*
X2089Y1617D01*
X103Y1616D02*
X188Y1616D01*
X1100Y1616D02*
X1185Y1616D01*
X1939Y1616D02*
X2003Y1616D01*
X2025Y1616D02*
X2089Y1616D01*
X104Y1615D02*
X187Y1615D01*
X1102Y1615D02*
X1184Y1615D01*
X1940Y1615D02*
X2004Y1615D01*
X2024Y1615D02*
X2088Y1615D01*
X105Y1614D02*
X185Y1614D01*
X1103Y1614D02*
X1183Y1614D01*
X1940Y1614D02*
X2006Y1614D01*
X2021Y1614D02*
X2088Y1614D01*
X107Y1613D02*
X184Y1613D01*
X1105Y1613D02*
X1181Y1613D01*
X1941Y1613D02*
X2010Y1613D01*
X2018Y1613D02*
X2087Y1613D01*
X109Y1612D02*
X182Y1612D01*
X1106Y1612D02*
X1179Y1612D01*
X1941Y1612D02*
X2087Y1612D01*
X111Y1611D02*
X180Y1611D01*
X1109Y1611D02*
X1177Y1611D01*
X1942Y1611D02*
X2086Y1611D01*
X115Y1610D02*
X176Y1610D01*
X1112Y1610D02*
X1173Y1610D01*
X1943Y1610D02*
X2085Y1610D01*
X1943Y1609D02*
X2084Y1609D01*
X1944Y1608D02*
X2084Y1608D01*
X1945Y1607D02*
X2083Y1607D01*
X1946Y1606D02*
X2082Y1606D01*
X1947Y1605D02*
X2081Y1605D01*
X1948Y1604D02*
X2080Y1604D01*
X1949Y1603D02*
X2079Y1603D01*
X1950Y1602D02*
X2078Y1602D01*
X1951Y1601D02*
X2077Y1601D01*
X1953Y1600D02*
X2075Y1600D01*
X1954Y1599D02*
X2074Y1599D01*
X1956Y1598D02*
X2072Y1598D01*
X1958Y1597D02*
X2070Y1597D01*
X1960Y1596D02*
X2068Y1596D01*
X1963Y1595D02*
X2065Y1595D01*
X1966Y1594D02*
X2062Y1594D01*
X1974Y1593D02*
X2053Y1593D01*
X1439Y1570D02*
X1449Y1570D01*
X1539Y1570D02*
X1549Y1570D01*
X1639Y1570D02*
X1649Y1570D01*
X1435Y1569D02*
X1453Y1569D01*
X1535Y1569D02*
X1553Y1569D01*
X1635Y1569D02*
X1653Y1569D01*
X1432Y1568D02*
X1456Y1568D01*
X1532Y1568D02*
X1556Y1568D01*
X1632Y1568D02*
X1656Y1568D01*
X1430Y1567D02*
X1458Y1567D01*
X1530Y1567D02*
X1558Y1567D01*
X1630Y1567D02*
X1658Y1567D01*
X1428Y1566D02*
X1460Y1566D01*
X1528Y1566D02*
X1560Y1566D01*
X1628Y1566D02*
X1660Y1566D01*
X1426Y1565D02*
X1462Y1565D01*
X1526Y1565D02*
X1562Y1565D01*
X1626Y1565D02*
X1662Y1565D01*
X1424Y1564D02*
X1464Y1564D01*
X1524Y1564D02*
X1564Y1564D01*
X1624Y1564D02*
X1664Y1564D01*
X1423Y1563D02*
X1465Y1563D01*
X1523Y1563D02*
X1565Y1563D01*
X1623Y1563D02*
X1665Y1563D01*
X1422Y1562D02*
X1466Y1562D01*
X1522Y1562D02*
X1566Y1562D01*
X1622Y1562D02*
X1666Y1562D01*
X115Y1561D02*
X176Y1561D01*
X1113Y1561D02*
X1173Y1561D01*
X1421Y1561D02*
X1467Y1561D01*
X1521Y1561D02*
X1567Y1561D01*
X1621Y1561D02*
X1667Y1561D01*
X111Y1560D02*
X179Y1560D01*
X1109Y1560D02*
X1177Y1560D01*
X1419Y1560D02*
X1468Y1560D01*
X1519Y1560D02*
X1568Y1560D01*
X1619Y1560D02*
X1668Y1560D01*
X109Y1559D02*
X182Y1559D01*
X1107Y1559D02*
X1179Y1559D01*
X1419Y1559D02*
X1469Y1559D01*
X1519Y1559D02*
X1569Y1559D01*
X1619Y1559D02*
X1669Y1559D01*
X107Y1558D02*
X184Y1558D01*
X1105Y1558D02*
X1181Y1558D01*
X1418Y1558D02*
X1470Y1558D01*
X1518Y1558D02*
X1570Y1558D01*
X1618Y1558D02*
X1670Y1558D01*
X105Y1557D02*
X185Y1557D01*
X1103Y1557D02*
X1183Y1557D01*
X1417Y1557D02*
X1471Y1557D01*
X1517Y1557D02*
X1571Y1557D01*
X1617Y1557D02*
X1671Y1557D01*
X104Y1556D02*
X187Y1556D01*
X1102Y1556D02*
X1184Y1556D01*
X1416Y1556D02*
X1472Y1556D01*
X1516Y1556D02*
X1572Y1556D01*
X1616Y1556D02*
X1672Y1556D01*
X103Y1555D02*
X188Y1555D01*
X1100Y1555D02*
X1185Y1555D01*
X1415Y1555D02*
X1472Y1555D01*
X1515Y1555D02*
X1572Y1555D01*
X1615Y1555D02*
X1672Y1555D01*
X102Y1554D02*
X189Y1554D01*
X1099Y1554D02*
X1187Y1554D01*
X1415Y1554D02*
X1473Y1554D01*
X1515Y1554D02*
X1573Y1554D01*
X1615Y1554D02*
X1673Y1554D01*
X101Y1553D02*
X190Y1553D01*
X1098Y1553D02*
X1187Y1553D01*
X1414Y1553D02*
X1474Y1553D01*
X1514Y1553D02*
X1573Y1553D01*
X1614Y1553D02*
X1673Y1553D01*
X100Y1552D02*
X191Y1552D01*
X1098Y1552D02*
X1188Y1552D01*
X1414Y1552D02*
X1474Y1552D01*
X1514Y1552D02*
X1574Y1552D01*
X1614Y1552D02*
X1674Y1552D01*
X99Y1551D02*
X141Y1551D01*
X149Y1551D02*
X192Y1551D01*
X1097Y1551D02*
X1138Y1551D01*
X1146Y1551D02*
X1189Y1551D01*
X1413Y1551D02*
X1475Y1551D01*
X1513Y1551D02*
X1575Y1551D01*
X1613Y1551D02*
X1675Y1551D01*
X98Y1550D02*
X138Y1550D01*
X152Y1550D02*
X192Y1550D01*
X1096Y1550D02*
X1135Y1550D01*
X1149Y1550D02*
X1190Y1550D01*
X1413Y1550D02*
X1439Y1550D01*
X1449Y1550D02*
X1475Y1550D01*
X1513Y1550D02*
X1539Y1550D01*
X1549Y1550D02*
X1575Y1550D01*
X1613Y1550D02*
X1639Y1550D01*
X1649Y1550D02*
X1675Y1550D01*
X98Y1549D02*
X137Y1549D01*
X154Y1549D02*
X193Y1549D01*
X1095Y1549D02*
X1133Y1549D01*
X1151Y1549D02*
X1190Y1549D01*
X1412Y1549D02*
X1437Y1549D01*
X1451Y1549D02*
X1475Y1549D01*
X1512Y1549D02*
X1537Y1549D01*
X1551Y1549D02*
X1575Y1549D01*
X1612Y1549D02*
X1637Y1549D01*
X1651Y1549D02*
X1675Y1549D01*
X97Y1548D02*
X135Y1548D01*
X156Y1548D02*
X193Y1548D01*
X1095Y1548D02*
X1132Y1548D01*
X1152Y1548D02*
X1191Y1548D01*
X1412Y1548D02*
X1435Y1548D01*
X1453Y1548D02*
X1476Y1548D01*
X1512Y1548D02*
X1535Y1548D01*
X1553Y1548D02*
X1576Y1548D01*
X1612Y1548D02*
X1635Y1548D01*
X1653Y1548D02*
X1676Y1548D01*
X97Y1547D02*
X134Y1547D01*
X157Y1547D02*
X194Y1547D01*
X1094Y1547D02*
X1131Y1547D01*
X1154Y1547D02*
X1192Y1547D01*
X1412Y1547D02*
X1434Y1547D01*
X1454Y1547D02*
X1476Y1547D01*
X1512Y1547D02*
X1534Y1547D01*
X1554Y1547D02*
X1576Y1547D01*
X1612Y1547D02*
X1634Y1547D01*
X1654Y1547D02*
X1676Y1547D01*
X96Y1546D02*
X133Y1546D01*
X158Y1546D02*
X195Y1546D01*
X1094Y1546D02*
X1130Y1546D01*
X1155Y1546D02*
X1192Y1546D01*
X1411Y1546D02*
X1433Y1546D01*
X1455Y1546D02*
X1477Y1546D01*
X1511Y1546D02*
X1533Y1546D01*
X1555Y1546D02*
X1577Y1546D01*
X1611Y1546D02*
X1633Y1546D01*
X1655Y1546D02*
X1677Y1546D01*
X96Y1545D02*
X132Y1545D01*
X159Y1545D02*
X195Y1545D01*
X1093Y1545D02*
X1129Y1545D01*
X1155Y1545D02*
X1193Y1545D01*
X1411Y1545D02*
X1432Y1545D01*
X1456Y1545D02*
X1477Y1545D01*
X1511Y1545D02*
X1532Y1545D01*
X1556Y1545D02*
X1577Y1545D01*
X1611Y1545D02*
X1632Y1545D01*
X1656Y1545D02*
X1677Y1545D01*
X95Y1544D02*
X131Y1544D01*
X159Y1544D02*
X195Y1544D01*
X1093Y1544D02*
X1128Y1544D01*
X1156Y1544D02*
X1193Y1544D01*
X1411Y1544D02*
X1431Y1544D01*
X1457Y1544D02*
X1477Y1544D01*
X1511Y1544D02*
X1531Y1544D01*
X1557Y1544D02*
X1577Y1544D01*
X1611Y1544D02*
X1631Y1544D01*
X1657Y1544D02*
X1677Y1544D01*
X95Y1543D02*
X131Y1543D01*
X160Y1543D02*
X196Y1543D01*
X1093Y1543D02*
X1128Y1543D01*
X1157Y1543D02*
X1193Y1543D01*
X1410Y1543D02*
X1430Y1543D01*
X1457Y1543D02*
X1477Y1543D01*
X1510Y1543D02*
X1530Y1543D01*
X1557Y1543D02*
X1577Y1543D01*
X1610Y1543D02*
X1630Y1543D01*
X1657Y1543D02*
X1677Y1543D01*
X95Y1542D02*
X130Y1542D01*
X160Y1542D02*
X196Y1542D01*
X1092Y1542D02*
X1127Y1542D01*
X1157Y1542D02*
X1194Y1542D01*
X1410Y1542D02*
X1430Y1542D01*
X1458Y1542D02*
X1478Y1542D01*
X1510Y1542D02*
X1530Y1542D01*
X1558Y1542D02*
X1578Y1542D01*
X1610Y1542D02*
X1630Y1542D01*
X1658Y1542D02*
X1678Y1542D01*
X95Y1541D02*
X130Y1541D01*
X161Y1541D02*
X196Y1541D01*
X1092Y1541D02*
X1127Y1541D01*
X1158Y1541D02*
X1194Y1541D01*
X1410Y1541D02*
X1429Y1541D01*
X1459Y1541D02*
X1478Y1541D01*
X1510Y1541D02*
X1529Y1541D01*
X1559Y1541D02*
X1578Y1541D01*
X1610Y1541D02*
X1629Y1541D01*
X1659Y1541D02*
X1678Y1541D01*
X94Y1540D02*
X130Y1540D01*
X161Y1540D02*
X196Y1540D01*
X1092Y1540D02*
X1126Y1540D01*
X1158Y1540D02*
X1194Y1540D01*
X1410Y1540D02*
X1429Y1540D01*
X1459Y1540D02*
X1478Y1540D01*
X1510Y1540D02*
X1529Y1540D01*
X1559Y1540D02*
X1578Y1540D01*
X1610Y1540D02*
X1629Y1540D01*
X1659Y1540D02*
X1678Y1540D01*
X94Y1539D02*
X129Y1539D01*
X161Y1539D02*
X197Y1539D01*
X1092Y1539D02*
X1126Y1539D01*
X1158Y1539D02*
X1194Y1539D01*
X1410Y1539D02*
X1429Y1539D01*
X1459Y1539D02*
X1478Y1539D01*
X1510Y1539D02*
X1529Y1539D01*
X1559Y1539D02*
X1578Y1539D01*
X1610Y1539D02*
X1629Y1539D01*
X1659Y1539D02*
X1678Y1539D01*
X94Y1538D02*
X129Y1538D01*
X162Y1538D02*
X197Y1538D01*
X1092Y1538D02*
X1126Y1538D01*
X1158Y1538D02*
X1194Y1538D01*
X1410Y1538D02*
X1429Y1538D01*
X1459Y1538D02*
X1478Y1538D01*
X1510Y1538D02*
X1529Y1538D01*
X1559Y1538D02*
X1578Y1538D01*
X1610Y1538D02*
X1629Y1538D01*
X1659Y1538D02*
X1678Y1538D01*
X94Y1537D02*
X129Y1537D01*
X162Y1537D02*
X197Y1537D01*
X1092Y1537D02*
X1126Y1537D01*
X1158Y1537D02*
X1194Y1537D01*
X1409Y1537D02*
X1429Y1537D01*
X1459Y1537D02*
X1478Y1537D01*
X1509Y1537D02*
X1529Y1537D01*
X1559Y1537D02*
X1578Y1537D01*
X1609Y1537D02*
X1629Y1537D01*
X1659Y1537D02*
X1678Y1537D01*
X94Y1536D02*
X129Y1536D01*
X162Y1536D02*
X197Y1536D01*
X1091Y1536D02*
X1126Y1536D01*
X1159Y1536D02*
X1194Y1536D01*
X1409Y1536D02*
X1428Y1536D01*
X1459Y1536D02*
X1478Y1536D01*
X1509Y1536D02*
X1528Y1536D01*
X1559Y1536D02*
X1578Y1536D01*
X1609Y1536D02*
X1628Y1536D01*
X1659Y1536D02*
X1678Y1536D01*
X94Y1535D02*
X129Y1535D01*
X162Y1535D02*
X197Y1535D01*
X1091Y1535D02*
X1126Y1535D01*
X1159Y1535D02*
X1194Y1535D01*
X1409Y1535D02*
X1428Y1535D01*
X1459Y1535D02*
X1478Y1535D01*
X1509Y1535D02*
X1528Y1535D01*
X1559Y1535D02*
X1578Y1535D01*
X1609Y1535D02*
X1628Y1535D01*
X1659Y1535D02*
X1678Y1535D01*
X94Y1534D02*
X129Y1534D01*
X162Y1534D02*
X197Y1534D01*
X1092Y1534D02*
X1126Y1534D01*
X1158Y1534D02*
X1194Y1534D01*
X1409Y1534D02*
X1429Y1534D01*
X1459Y1534D02*
X1478Y1534D01*
X1509Y1534D02*
X1529Y1534D01*
X1559Y1534D02*
X1578Y1534D01*
X1609Y1534D02*
X1629Y1534D01*
X1659Y1534D02*
X1678Y1534D01*
X94Y1533D02*
X129Y1533D01*
X162Y1533D02*
X197Y1533D01*
X1092Y1533D02*
X1126Y1533D01*
X1158Y1533D02*
X1194Y1533D01*
X1410Y1533D02*
X1429Y1533D01*
X1459Y1533D02*
X1478Y1533D01*
X1510Y1533D02*
X1529Y1533D01*
X1559Y1533D02*
X1578Y1533D01*
X1610Y1533D02*
X1629Y1533D01*
X1659Y1533D02*
X1678Y1533D01*
X94Y1532D02*
X129Y1532D01*
X162Y1532D02*
X197Y1532D01*
X1092Y1532D02*
X1126Y1532D01*
X1158Y1532D02*
X1194Y1532D01*
X1410Y1532D02*
X1429Y1532D01*
X1459Y1532D02*
X1478Y1532D01*
X1510Y1532D02*
X1529Y1532D01*
X1559Y1532D02*
X1578Y1532D01*
X1610Y1532D02*
X1629Y1532D01*
X1659Y1532D02*
X1678Y1532D01*
X94Y1531D02*
X130Y1531D01*
X161Y1531D02*
X196Y1531D01*
X1092Y1531D02*
X1126Y1531D01*
X1158Y1531D02*
X1194Y1531D01*
X1410Y1531D02*
X1429Y1531D01*
X1459Y1531D02*
X1478Y1531D01*
X1510Y1531D02*
X1529Y1531D01*
X1559Y1531D02*
X1578Y1531D01*
X1610Y1531D02*
X1629Y1531D01*
X1659Y1531D02*
X1678Y1531D01*
X94Y1530D02*
X130Y1530D01*
X161Y1530D02*
X196Y1530D01*
X1092Y1530D02*
X1127Y1530D01*
X1158Y1530D02*
X1194Y1530D01*
X1410Y1530D02*
X1429Y1530D01*
X1459Y1530D02*
X1478Y1530D01*
X1510Y1530D02*
X1529Y1530D01*
X1559Y1530D02*
X1578Y1530D01*
X1610Y1530D02*
X1629Y1530D01*
X1659Y1530D02*
X1678Y1530D01*
X95Y1529D02*
X130Y1529D01*
X161Y1529D02*
X196Y1529D01*
X1092Y1529D02*
X1127Y1529D01*
X1157Y1529D02*
X1194Y1529D01*
X1410Y1529D02*
X1430Y1529D01*
X1458Y1529D02*
X1478Y1529D01*
X1510Y1529D02*
X1530Y1529D01*
X1558Y1529D02*
X1578Y1529D01*
X1610Y1529D02*
X1630Y1529D01*
X1658Y1529D02*
X1678Y1529D01*
X95Y1528D02*
X131Y1528D01*
X160Y1528D02*
X196Y1528D01*
X1093Y1528D02*
X1128Y1528D01*
X1157Y1528D02*
X1193Y1528D01*
X1410Y1528D02*
X1430Y1528D01*
X1458Y1528D02*
X1477Y1528D01*
X1510Y1528D02*
X1530Y1528D01*
X1558Y1528D02*
X1577Y1528D01*
X1610Y1528D02*
X1630Y1528D01*
X1658Y1528D02*
X1677Y1528D01*
X95Y1527D02*
X131Y1527D01*
X159Y1527D02*
X195Y1527D01*
X1093Y1527D02*
X1128Y1527D01*
X1156Y1527D02*
X1193Y1527D01*
X1411Y1527D02*
X1431Y1527D01*
X1457Y1527D02*
X1477Y1527D01*
X1511Y1527D02*
X1531Y1527D01*
X1557Y1527D02*
X1577Y1527D01*
X1611Y1527D02*
X1631Y1527D01*
X1657Y1527D02*
X1677Y1527D01*
X96Y1526D02*
X132Y1526D01*
X159Y1526D02*
X195Y1526D01*
X1093Y1526D02*
X1129Y1526D01*
X1156Y1526D02*
X1193Y1526D01*
X1411Y1526D02*
X1432Y1526D01*
X1456Y1526D02*
X1477Y1526D01*
X1511Y1526D02*
X1532Y1526D01*
X1556Y1526D02*
X1577Y1526D01*
X1611Y1526D02*
X1632Y1526D01*
X1656Y1526D02*
X1677Y1526D01*
X96Y1525D02*
X133Y1525D01*
X158Y1525D02*
X195Y1525D01*
X1094Y1525D02*
X1130Y1525D01*
X1155Y1525D02*
X1192Y1525D01*
X1411Y1525D02*
X1433Y1525D01*
X1455Y1525D02*
X1477Y1525D01*
X1511Y1525D02*
X1533Y1525D01*
X1555Y1525D02*
X1577Y1525D01*
X1611Y1525D02*
X1633Y1525D01*
X1655Y1525D02*
X1677Y1525D01*
X97Y1524D02*
X134Y1524D01*
X157Y1524D02*
X194Y1524D01*
X1094Y1524D02*
X1131Y1524D01*
X1154Y1524D02*
X1192Y1524D01*
X1412Y1524D02*
X1434Y1524D01*
X1454Y1524D02*
X1476Y1524D01*
X1512Y1524D02*
X1534Y1524D01*
X1554Y1524D02*
X1576Y1524D01*
X1612Y1524D02*
X1634Y1524D01*
X1654Y1524D02*
X1676Y1524D01*
X97Y1523D02*
X135Y1523D01*
X156Y1523D02*
X194Y1523D01*
X1095Y1523D02*
X1132Y1523D01*
X1153Y1523D02*
X1191Y1523D01*
X1412Y1523D02*
X1435Y1523D01*
X1453Y1523D02*
X1476Y1523D01*
X1512Y1523D02*
X1535Y1523D01*
X1553Y1523D02*
X1576Y1523D01*
X1612Y1523D02*
X1635Y1523D01*
X1653Y1523D02*
X1676Y1523D01*
X98Y1522D02*
X136Y1522D01*
X155Y1522D02*
X193Y1522D01*
X1095Y1522D02*
X1133Y1522D01*
X1151Y1522D02*
X1191Y1522D01*
X1412Y1522D02*
X1437Y1522D01*
X1451Y1522D02*
X1475Y1522D01*
X1512Y1522D02*
X1537Y1522D01*
X1551Y1522D02*
X1575Y1522D01*
X1612Y1522D02*
X1637Y1522D01*
X1651Y1522D02*
X1675Y1522D01*
X98Y1521D02*
X138Y1521D01*
X153Y1521D02*
X192Y1521D01*
X1096Y1521D02*
X1135Y1521D01*
X1149Y1521D02*
X1190Y1521D01*
X1413Y1521D02*
X1439Y1521D01*
X1449Y1521D02*
X1475Y1521D01*
X1513Y1521D02*
X1539Y1521D01*
X1549Y1521D02*
X1575Y1521D01*
X1613Y1521D02*
X1639Y1521D01*
X1649Y1521D02*
X1675Y1521D01*
X99Y1520D02*
X141Y1520D01*
X150Y1520D02*
X192Y1520D01*
X1097Y1520D02*
X1138Y1520D01*
X1147Y1520D02*
X1189Y1520D01*
X1413Y1520D02*
X1475Y1520D01*
X1513Y1520D02*
X1575Y1520D01*
X1613Y1520D02*
X1675Y1520D01*
X100Y1519D02*
X191Y1519D01*
X1097Y1519D02*
X1188Y1519D01*
X1414Y1519D02*
X1474Y1519D01*
X1514Y1519D02*
X1574Y1519D01*
X1614Y1519D02*
X1674Y1519D01*
X101Y1518D02*
X190Y1518D01*
X1098Y1518D02*
X1188Y1518D01*
X1414Y1518D02*
X1474Y1518D01*
X1514Y1518D02*
X1574Y1518D01*
X1614Y1518D02*
X1674Y1518D01*
X102Y1517D02*
X189Y1517D01*
X1099Y1517D02*
X1187Y1517D01*
X1415Y1517D02*
X1473Y1517D01*
X1515Y1517D02*
X1573Y1517D01*
X1615Y1517D02*
X1673Y1517D01*
X103Y1516D02*
X188Y1516D01*
X1100Y1516D02*
X1185Y1516D01*
X1415Y1516D02*
X1472Y1516D01*
X1515Y1516D02*
X1572Y1516D01*
X1615Y1516D02*
X1672Y1516D01*
X104Y1515D02*
X187Y1515D01*
X1102Y1515D02*
X1184Y1515D01*
X1416Y1515D02*
X1472Y1515D01*
X1516Y1515D02*
X1572Y1515D01*
X1616Y1515D02*
X1672Y1515D01*
X105Y1514D02*
X185Y1514D01*
X1103Y1514D02*
X1183Y1514D01*
X1417Y1514D02*
X1471Y1514D01*
X1517Y1514D02*
X1571Y1514D01*
X1617Y1514D02*
X1671Y1514D01*
X1892Y1514D02*
X1899Y1514D01*
X2140Y1514D02*
X2147Y1514D01*
X107Y1513D02*
X184Y1513D01*
X1105Y1513D02*
X1181Y1513D01*
X1418Y1513D02*
X1470Y1513D01*
X1518Y1513D02*
X1570Y1513D01*
X1618Y1513D02*
X1670Y1513D01*
X1887Y1513D02*
X1905Y1513D01*
X2135Y1513D02*
X2153Y1513D01*
X109Y1512D02*
X182Y1512D01*
X1106Y1512D02*
X1179Y1512D01*
X1419Y1512D02*
X1469Y1512D01*
X1519Y1512D02*
X1569Y1512D01*
X1619Y1512D02*
X1669Y1512D01*
X1883Y1512D02*
X1908Y1512D01*
X2131Y1512D02*
X2156Y1512D01*
X111Y1511D02*
X180Y1511D01*
X1109Y1511D02*
X1177Y1511D01*
X1419Y1511D02*
X1468Y1511D01*
X1519Y1511D02*
X1568Y1511D01*
X1619Y1511D02*
X1668Y1511D01*
X1881Y1511D02*
X1911Y1511D01*
X2129Y1511D02*
X2159Y1511D01*
X115Y1510D02*
X176Y1510D01*
X1112Y1510D02*
X1173Y1510D01*
X1420Y1510D02*
X1467Y1510D01*
X1520Y1510D02*
X1567Y1510D01*
X1620Y1510D02*
X1667Y1510D01*
X1879Y1510D02*
X1913Y1510D01*
X2127Y1510D02*
X2161Y1510D01*
X1422Y1509D02*
X1466Y1509D01*
X1522Y1509D02*
X1566Y1509D01*
X1622Y1509D02*
X1666Y1509D01*
X1877Y1509D02*
X1915Y1509D01*
X2125Y1509D02*
X2163Y1509D01*
X1423Y1508D02*
X1465Y1508D01*
X1523Y1508D02*
X1565Y1508D01*
X1623Y1508D02*
X1665Y1508D01*
X1875Y1508D02*
X1917Y1508D01*
X2123Y1508D02*
X2165Y1508D01*
X1424Y1507D02*
X1464Y1507D01*
X1524Y1507D02*
X1564Y1507D01*
X1624Y1507D02*
X1664Y1507D01*
X1874Y1507D02*
X1918Y1507D01*
X2122Y1507D02*
X2166Y1507D01*
X1426Y1506D02*
X1462Y1506D01*
X1526Y1506D02*
X1562Y1506D01*
X1626Y1506D02*
X1662Y1506D01*
X1872Y1506D02*
X1919Y1506D01*
X2120Y1506D02*
X2167Y1506D01*
X1428Y1505D02*
X1460Y1505D01*
X1528Y1505D02*
X1560Y1505D01*
X1628Y1505D02*
X1660Y1505D01*
X1871Y1505D02*
X1921Y1505D01*
X2119Y1505D02*
X2169Y1505D01*
X1430Y1504D02*
X1458Y1504D01*
X1530Y1504D02*
X1558Y1504D01*
X1630Y1504D02*
X1658Y1504D01*
X1870Y1504D02*
X1922Y1504D01*
X2118Y1504D02*
X2170Y1504D01*
X1432Y1503D02*
X1456Y1503D01*
X1532Y1503D02*
X1556Y1503D01*
X1632Y1503D02*
X1656Y1503D01*
X1869Y1503D02*
X1923Y1503D01*
X2117Y1503D02*
X2171Y1503D01*
X1435Y1502D02*
X1453Y1502D01*
X1535Y1502D02*
X1553Y1502D01*
X1635Y1502D02*
X1653Y1502D01*
X1868Y1502D02*
X1924Y1502D01*
X2116Y1502D02*
X2172Y1502D01*
X1439Y1501D02*
X1449Y1501D01*
X1539Y1501D02*
X1549Y1501D01*
X1639Y1501D02*
X1649Y1501D01*
X1867Y1501D02*
X1925Y1501D01*
X2115Y1501D02*
X2173Y1501D01*
X1866Y1500D02*
X1926Y1500D01*
X2114Y1500D02*
X2174Y1500D01*
X1865Y1499D02*
X1926Y1499D01*
X2113Y1499D02*
X2174Y1499D01*
X1865Y1498D02*
X1927Y1498D01*
X2113Y1498D02*
X2175Y1498D01*
X1864Y1497D02*
X1928Y1497D01*
X2112Y1497D02*
X2176Y1497D01*
X1863Y1496D02*
X1929Y1496D01*
X2111Y1496D02*
X2177Y1496D01*
X1863Y1495D02*
X1929Y1495D01*
X2111Y1495D02*
X2177Y1495D01*
X1862Y1494D02*
X1930Y1494D01*
X2110Y1494D02*
X2178Y1494D01*
X1861Y1493D02*
X1930Y1493D01*
X2109Y1493D02*
X2178Y1493D01*
X1861Y1492D02*
X1931Y1492D01*
X2109Y1492D02*
X2179Y1492D01*
X1860Y1491D02*
X1931Y1491D01*
X2109Y1491D02*
X2179Y1491D01*
X1860Y1490D02*
X1932Y1490D01*
X2108Y1490D02*
X2180Y1490D01*
X1860Y1489D02*
X1932Y1489D01*
X2108Y1489D02*
X2180Y1489D01*
X1859Y1488D02*
X1932Y1488D01*
X2107Y1488D02*
X2180Y1488D01*
X1859Y1487D02*
X1933Y1487D01*
X2107Y1487D02*
X2181Y1487D01*
X1859Y1486D02*
X1933Y1486D01*
X2107Y1486D02*
X2181Y1486D01*
X1858Y1485D02*
X1933Y1485D01*
X2106Y1485D02*
X2181Y1485D01*
X1858Y1484D02*
X1934Y1484D01*
X2106Y1484D02*
X2182Y1484D01*
X1858Y1483D02*
X1934Y1483D01*
X2106Y1483D02*
X2182Y1483D01*
X1858Y1482D02*
X1934Y1482D01*
X2106Y1482D02*
X2182Y1482D01*
X1858Y1481D02*
X1934Y1481D01*
X2106Y1481D02*
X2182Y1481D01*
X1857Y1480D02*
X1934Y1480D01*
X2105Y1480D02*
X2182Y1480D01*
X1857Y1479D02*
X1935Y1479D01*
X2105Y1479D02*
X2183Y1479D01*
X1857Y1478D02*
X1935Y1478D01*
X2105Y1478D02*
X2183Y1478D01*
X1857Y1477D02*
X1935Y1477D01*
X2105Y1477D02*
X2183Y1477D01*
X1857Y1476D02*
X1935Y1476D01*
X2105Y1476D02*
X2183Y1476D01*
X1857Y1475D02*
X1935Y1475D01*
X2105Y1475D02*
X2183Y1475D01*
X1857Y1474D02*
X1935Y1474D01*
X2105Y1474D02*
X2183Y1474D01*
X1857Y1473D02*
X1935Y1473D01*
X2105Y1473D02*
X2183Y1473D01*
X1857Y1472D02*
X1935Y1472D01*
X2105Y1472D02*
X2183Y1472D01*
X1857Y1471D02*
X1935Y1471D01*
X2105Y1471D02*
X2183Y1471D01*
X1857Y1470D02*
X1935Y1470D01*
X2105Y1470D02*
X2183Y1470D01*
X1857Y1469D02*
X1935Y1469D01*
X2105Y1469D02*
X2183Y1469D01*
X1857Y1468D02*
X1935Y1468D01*
X2105Y1468D02*
X2183Y1468D01*
X1857Y1467D02*
X1935Y1467D01*
X2105Y1467D02*
X2183Y1467D01*
X1857Y1466D02*
X1935Y1466D01*
X2105Y1466D02*
X2183Y1466D01*
X1857Y1465D02*
X1935Y1465D01*
X2105Y1465D02*
X2183Y1465D01*
X1857Y1464D02*
X1935Y1464D01*
X2105Y1464D02*
X2183Y1464D01*
X1857Y1463D02*
X1935Y1463D01*
X2105Y1463D02*
X2183Y1463D01*
X1857Y1462D02*
X1935Y1462D01*
X2105Y1462D02*
X2183Y1462D01*
X115Y1461D02*
X176Y1461D01*
X1113Y1461D02*
X1173Y1461D01*
X1857Y1461D02*
X1935Y1461D01*
X2105Y1461D02*
X2183Y1461D01*
X111Y1460D02*
X179Y1460D01*
X1109Y1460D02*
X1177Y1460D01*
X1857Y1460D02*
X1935Y1460D01*
X2105Y1460D02*
X2183Y1460D01*
X109Y1459D02*
X182Y1459D01*
X1107Y1459D02*
X1179Y1459D01*
X1857Y1459D02*
X1935Y1459D01*
X2105Y1459D02*
X2183Y1459D01*
X107Y1458D02*
X184Y1458D01*
X1105Y1458D02*
X1181Y1458D01*
X1857Y1458D02*
X1935Y1458D01*
X2105Y1458D02*
X2183Y1458D01*
X105Y1457D02*
X185Y1457D01*
X1103Y1457D02*
X1183Y1457D01*
X1857Y1457D02*
X1935Y1457D01*
X2105Y1457D02*
X2183Y1457D01*
X104Y1456D02*
X187Y1456D01*
X1102Y1456D02*
X1184Y1456D01*
X1857Y1456D02*
X1935Y1456D01*
X2105Y1456D02*
X2183Y1456D01*
X103Y1455D02*
X188Y1455D01*
X1100Y1455D02*
X1185Y1455D01*
X1857Y1455D02*
X1894Y1455D01*
X1898Y1455D02*
X1935Y1455D01*
X2105Y1455D02*
X2142Y1455D01*
X2146Y1455D02*
X2183Y1455D01*
X102Y1454D02*
X189Y1454D01*
X1099Y1454D02*
X1187Y1454D01*
X1857Y1454D02*
X1889Y1454D01*
X1903Y1454D02*
X1935Y1454D01*
X2105Y1454D02*
X2137Y1454D01*
X2151Y1454D02*
X2183Y1454D01*
X101Y1453D02*
X190Y1453D01*
X1098Y1453D02*
X1188Y1453D01*
X1857Y1453D02*
X1887Y1453D01*
X1905Y1453D02*
X1935Y1453D01*
X2105Y1453D02*
X2135Y1453D01*
X2153Y1453D02*
X2183Y1453D01*
X100Y1452D02*
X191Y1452D01*
X1098Y1452D02*
X1188Y1452D01*
X1857Y1452D02*
X1885Y1452D01*
X1907Y1452D02*
X1935Y1452D01*
X2105Y1452D02*
X2133Y1452D01*
X2155Y1452D02*
X2183Y1452D01*
X99Y1451D02*
X141Y1451D01*
X149Y1451D02*
X192Y1451D01*
X1097Y1451D02*
X1138Y1451D01*
X1146Y1451D02*
X1189Y1451D01*
X1857Y1451D02*
X1883Y1451D01*
X1908Y1451D02*
X1935Y1451D01*
X2105Y1451D02*
X2131Y1451D01*
X2156Y1451D02*
X2183Y1451D01*
X98Y1450D02*
X138Y1450D01*
X152Y1450D02*
X192Y1450D01*
X1096Y1450D02*
X1135Y1450D01*
X1149Y1450D02*
X1190Y1450D01*
X1857Y1450D02*
X1882Y1450D01*
X1910Y1450D02*
X1935Y1450D01*
X2105Y1450D02*
X2130Y1450D01*
X2158Y1450D02*
X2183Y1450D01*
X98Y1449D02*
X136Y1449D01*
X154Y1449D02*
X193Y1449D01*
X1095Y1449D02*
X1133Y1449D01*
X1151Y1449D02*
X1191Y1449D01*
X1857Y1449D02*
X1881Y1449D01*
X1911Y1449D02*
X1935Y1449D01*
X2105Y1449D02*
X2129Y1449D01*
X2159Y1449D02*
X2183Y1449D01*
X97Y1448D02*
X135Y1448D01*
X156Y1448D02*
X193Y1448D01*
X1095Y1448D02*
X1132Y1448D01*
X1153Y1448D02*
X1191Y1448D01*
X1857Y1448D02*
X1880Y1448D01*
X1911Y1448D02*
X1935Y1448D01*
X2105Y1448D02*
X2128Y1448D01*
X2159Y1448D02*
X2183Y1448D01*
X97Y1447D02*
X134Y1447D01*
X157Y1447D02*
X194Y1447D01*
X1094Y1447D02*
X1131Y1447D01*
X1154Y1447D02*
X1192Y1447D01*
X1857Y1447D02*
X1879Y1447D01*
X1912Y1447D02*
X1935Y1447D01*
X2105Y1447D02*
X2128Y1447D01*
X2160Y1447D02*
X2183Y1447D01*
X96Y1446D02*
X133Y1446D01*
X158Y1446D02*
X195Y1446D01*
X1094Y1446D02*
X1130Y1446D01*
X1155Y1446D02*
X1192Y1446D01*
X1857Y1446D02*
X1879Y1446D01*
X1913Y1446D02*
X1935Y1446D01*
X2105Y1446D02*
X2127Y1446D01*
X2161Y1446D02*
X2183Y1446D01*
X96Y1445D02*
X132Y1445D01*
X159Y1445D02*
X195Y1445D01*
X1093Y1445D02*
X1129Y1445D01*
X1156Y1445D02*
X1193Y1445D01*
X1857Y1445D02*
X1878Y1445D01*
X1913Y1445D02*
X1935Y1445D01*
X2105Y1445D02*
X2126Y1445D01*
X2162Y1445D02*
X2183Y1445D01*
X95Y1444D02*
X131Y1444D01*
X159Y1444D02*
X195Y1444D01*
X1093Y1444D02*
X1128Y1444D01*
X1156Y1444D02*
X1193Y1444D01*
X1857Y1444D02*
X1878Y1444D01*
X1914Y1444D02*
X1935Y1444D01*
X2105Y1444D02*
X2126Y1444D01*
X2162Y1444D02*
X2183Y1444D01*
X95Y1443D02*
X131Y1443D01*
X160Y1443D02*
X196Y1443D01*
X1093Y1443D02*
X1128Y1443D01*
X1157Y1443D02*
X1193Y1443D01*
X1857Y1443D02*
X1877Y1443D01*
X1915Y1443D02*
X1935Y1443D01*
X2105Y1443D02*
X2125Y1443D01*
X2163Y1443D02*
X2183Y1443D01*
X95Y1442D02*
X130Y1442D01*
X160Y1442D02*
X196Y1442D01*
X1092Y1442D02*
X1127Y1442D01*
X1157Y1442D02*
X1194Y1442D01*
X1857Y1442D02*
X1877Y1442D01*
X1915Y1442D02*
X1935Y1442D01*
X2105Y1442D02*
X2125Y1442D01*
X2163Y1442D02*
X2183Y1442D01*
X95Y1441D02*
X130Y1441D01*
X161Y1441D02*
X196Y1441D01*
X1092Y1441D02*
X1127Y1441D01*
X1158Y1441D02*
X1194Y1441D01*
X1857Y1441D02*
X1877Y1441D01*
X1915Y1441D02*
X1935Y1441D01*
X2105Y1441D02*
X2125Y1441D01*
X2163Y1441D02*
X2183Y1441D01*
X94Y1440D02*
X130Y1440D01*
X161Y1440D02*
X196Y1440D01*
X1092Y1440D02*
X1126Y1440D01*
X1158Y1440D02*
X1194Y1440D01*
X1857Y1440D02*
X1876Y1440D01*
X1915Y1440D02*
X1935Y1440D01*
X2105Y1440D02*
X2124Y1440D01*
X2164Y1440D02*
X2183Y1440D01*
X94Y1439D02*
X129Y1439D01*
X162Y1439D02*
X197Y1439D01*
X1092Y1439D02*
X1126Y1439D01*
X1158Y1439D02*
X1194Y1439D01*
X1857Y1439D02*
X1876Y1439D01*
X1916Y1439D02*
X1935Y1439D01*
X2105Y1439D02*
X2124Y1439D01*
X2164Y1439D02*
X2183Y1439D01*
X94Y1438D02*
X129Y1438D01*
X162Y1438D02*
X197Y1438D01*
X1092Y1438D02*
X1126Y1438D01*
X1158Y1438D02*
X1194Y1438D01*
X1857Y1438D02*
X1876Y1438D01*
X1916Y1438D02*
X1935Y1438D01*
X2105Y1438D02*
X2124Y1438D01*
X2164Y1438D02*
X2183Y1438D01*
X94Y1437D02*
X129Y1437D01*
X162Y1437D02*
X197Y1437D01*
X1092Y1437D02*
X1126Y1437D01*
X1159Y1437D02*
X1194Y1437D01*
X1857Y1437D02*
X1876Y1437D01*
X1916Y1437D02*
X1935Y1437D01*
X2105Y1437D02*
X2124Y1437D01*
X2164Y1437D02*
X2183Y1437D01*
X94Y1436D02*
X129Y1436D01*
X162Y1436D02*
X197Y1436D01*
X1091Y1436D02*
X1126Y1436D01*
X1159Y1436D02*
X1194Y1436D01*
X1857Y1436D02*
X1876Y1436D01*
X1916Y1436D02*
X1935Y1436D01*
X2105Y1436D02*
X2124Y1436D01*
X2164Y1436D02*
X2183Y1436D01*
X94Y1435D02*
X129Y1435D01*
X162Y1435D02*
X197Y1435D01*
X1091Y1435D02*
X1126Y1435D01*
X1159Y1435D02*
X1194Y1435D01*
X1857Y1435D02*
X1876Y1435D01*
X1916Y1435D02*
X1935Y1435D01*
X2105Y1435D02*
X2124Y1435D01*
X2164Y1435D02*
X2183Y1435D01*
X94Y1434D02*
X129Y1434D01*
X162Y1434D02*
X197Y1434D01*
X1092Y1434D02*
X1126Y1434D01*
X1159Y1434D02*
X1194Y1434D01*
X1857Y1434D02*
X1876Y1434D01*
X1916Y1434D02*
X1935Y1434D01*
X2105Y1434D02*
X2124Y1434D01*
X2164Y1434D02*
X2183Y1434D01*
X94Y1433D02*
X129Y1433D01*
X162Y1433D02*
X197Y1433D01*
X1092Y1433D02*
X1126Y1433D01*
X1159Y1433D02*
X1194Y1433D01*
X1857Y1433D02*
X1876Y1433D01*
X1916Y1433D02*
X1935Y1433D01*
X2105Y1433D02*
X2124Y1433D01*
X2164Y1433D02*
X2183Y1433D01*
X94Y1432D02*
X129Y1432D01*
X162Y1432D02*
X197Y1432D01*
X1092Y1432D02*
X1126Y1432D01*
X1158Y1432D02*
X1194Y1432D01*
X1857Y1432D02*
X1876Y1432D01*
X1916Y1432D02*
X1935Y1432D01*
X2105Y1432D02*
X2124Y1432D01*
X2164Y1432D02*
X2183Y1432D01*
X94Y1431D02*
X130Y1431D01*
X161Y1431D02*
X196Y1431D01*
X1092Y1431D02*
X1126Y1431D01*
X1158Y1431D02*
X1194Y1431D01*
X1857Y1431D02*
X1876Y1431D01*
X1915Y1431D02*
X1935Y1431D01*
X2105Y1431D02*
X2124Y1431D01*
X2164Y1431D02*
X2183Y1431D01*
X94Y1430D02*
X130Y1430D01*
X161Y1430D02*
X196Y1430D01*
X1092Y1430D02*
X1127Y1430D01*
X1158Y1430D02*
X1194Y1430D01*
X1857Y1430D02*
X1877Y1430D01*
X1915Y1430D02*
X1935Y1430D01*
X2105Y1430D02*
X2125Y1430D01*
X2163Y1430D02*
X2183Y1430D01*
X95Y1429D02*
X130Y1429D01*
X161Y1429D02*
X196Y1429D01*
X1092Y1429D02*
X1127Y1429D01*
X1157Y1429D02*
X1194Y1429D01*
X1857Y1429D02*
X1877Y1429D01*
X1915Y1429D02*
X1935Y1429D01*
X2105Y1429D02*
X2125Y1429D01*
X2163Y1429D02*
X2183Y1429D01*
X95Y1428D02*
X131Y1428D01*
X160Y1428D02*
X196Y1428D01*
X1093Y1428D02*
X1128Y1428D01*
X1157Y1428D02*
X1193Y1428D01*
X1857Y1428D02*
X1877Y1428D01*
X1915Y1428D02*
X1935Y1428D01*
X2105Y1428D02*
X2125Y1428D01*
X2163Y1428D02*
X2183Y1428D01*
X95Y1427D02*
X131Y1427D01*
X160Y1427D02*
X195Y1427D01*
X1093Y1427D02*
X1128Y1427D01*
X1156Y1427D02*
X1193Y1427D01*
X1857Y1427D02*
X1878Y1427D01*
X1914Y1427D02*
X1935Y1427D01*
X2105Y1427D02*
X2126Y1427D01*
X2162Y1427D02*
X2183Y1427D01*
X96Y1426D02*
X132Y1426D01*
X159Y1426D02*
X195Y1426D01*
X1093Y1426D02*
X1129Y1426D01*
X1156Y1426D02*
X1193Y1426D01*
X1857Y1426D02*
X1878Y1426D01*
X1914Y1426D02*
X1935Y1426D01*
X2105Y1426D02*
X2126Y1426D01*
X2162Y1426D02*
X2183Y1426D01*
X96Y1425D02*
X133Y1425D01*
X158Y1425D02*
X195Y1425D01*
X1094Y1425D02*
X1130Y1425D01*
X1155Y1425D02*
X1192Y1425D01*
X1857Y1425D02*
X1879Y1425D01*
X1913Y1425D02*
X1935Y1425D01*
X2105Y1425D02*
X2127Y1425D01*
X2161Y1425D02*
X2183Y1425D01*
X97Y1424D02*
X134Y1424D01*
X157Y1424D02*
X194Y1424D01*
X1094Y1424D02*
X1130Y1424D01*
X1154Y1424D02*
X1192Y1424D01*
X1857Y1424D02*
X1879Y1424D01*
X1912Y1424D02*
X1935Y1424D01*
X2105Y1424D02*
X2127Y1424D01*
X2160Y1424D02*
X2183Y1424D01*
X97Y1423D02*
X135Y1423D01*
X156Y1423D02*
X194Y1423D01*
X1095Y1423D02*
X1132Y1423D01*
X1153Y1423D02*
X1191Y1423D01*
X1857Y1423D02*
X1880Y1423D01*
X1911Y1423D02*
X1935Y1423D01*
X2105Y1423D02*
X2128Y1423D01*
X2159Y1423D02*
X2183Y1423D01*
X98Y1422D02*
X136Y1422D01*
X155Y1422D02*
X193Y1422D01*
X1095Y1422D02*
X1133Y1422D01*
X1151Y1422D02*
X1191Y1422D01*
X1857Y1422D02*
X1881Y1422D01*
X1911Y1422D02*
X1935Y1422D01*
X2105Y1422D02*
X2129Y1422D01*
X2159Y1422D02*
X2183Y1422D01*
X98Y1421D02*
X138Y1421D01*
X153Y1421D02*
X192Y1421D01*
X1096Y1421D02*
X1135Y1421D01*
X1150Y1421D02*
X1190Y1421D01*
X1857Y1421D02*
X1882Y1421D01*
X1910Y1421D02*
X1935Y1421D01*
X2105Y1421D02*
X2130Y1421D01*
X2158Y1421D02*
X2183Y1421D01*
X99Y1420D02*
X141Y1420D01*
X150Y1420D02*
X192Y1420D01*
X1097Y1420D02*
X1137Y1420D01*
X1147Y1420D02*
X1189Y1420D01*
X1857Y1420D02*
X1883Y1420D01*
X1908Y1420D02*
X1935Y1420D01*
X2105Y1420D02*
X2131Y1420D01*
X2156Y1420D02*
X2183Y1420D01*
X100Y1419D02*
X191Y1419D01*
X1097Y1419D02*
X1188Y1419D01*
X1857Y1419D02*
X1885Y1419D01*
X1907Y1419D02*
X1935Y1419D01*
X2105Y1419D02*
X2133Y1419D01*
X2155Y1419D02*
X2183Y1419D01*
X101Y1418D02*
X190Y1418D01*
X1098Y1418D02*
X1188Y1418D01*
X1857Y1418D02*
X1886Y1418D01*
X1905Y1418D02*
X1935Y1418D01*
X2105Y1418D02*
X2135Y1418D01*
X2153Y1418D02*
X2183Y1418D01*
X102Y1417D02*
X189Y1417D01*
X1099Y1417D02*
X1187Y1417D01*
X1857Y1417D02*
X1889Y1417D01*
X1903Y1417D02*
X1935Y1417D01*
X2105Y1417D02*
X2137Y1417D01*
X2151Y1417D02*
X2183Y1417D01*
X103Y1416D02*
X188Y1416D01*
X1100Y1416D02*
X1185Y1416D01*
X1857Y1416D02*
X1893Y1416D01*
X1898Y1416D02*
X1935Y1416D01*
X2105Y1416D02*
X2141Y1416D01*
X2146Y1416D02*
X2183Y1416D01*
X104Y1415D02*
X187Y1415D01*
X1102Y1415D02*
X1184Y1415D01*
X1857Y1415D02*
X1935Y1415D01*
X2105Y1415D02*
X2183Y1415D01*
X105Y1414D02*
X185Y1414D01*
X1103Y1414D02*
X1183Y1414D01*
X1857Y1414D02*
X1935Y1414D01*
X2105Y1414D02*
X2183Y1414D01*
X107Y1413D02*
X184Y1413D01*
X1105Y1413D02*
X1181Y1413D01*
X1857Y1413D02*
X1935Y1413D01*
X2105Y1413D02*
X2183Y1413D01*
X109Y1412D02*
X182Y1412D01*
X1106Y1412D02*
X1179Y1412D01*
X1857Y1412D02*
X1935Y1412D01*
X2105Y1412D02*
X2183Y1412D01*
X111Y1411D02*
X180Y1411D01*
X1109Y1411D02*
X1177Y1411D01*
X1857Y1411D02*
X1935Y1411D01*
X2105Y1411D02*
X2183Y1411D01*
X115Y1410D02*
X176Y1410D01*
X1112Y1410D02*
X1174Y1410D01*
X1857Y1410D02*
X1935Y1410D01*
X2105Y1410D02*
X2183Y1410D01*
X1857Y1409D02*
X1935Y1409D01*
X2105Y1409D02*
X2183Y1409D01*
X1857Y1408D02*
X1935Y1408D01*
X2105Y1408D02*
X2183Y1408D01*
X1857Y1407D02*
X1935Y1407D01*
X2105Y1407D02*
X2183Y1407D01*
X1857Y1406D02*
X1935Y1406D01*
X2105Y1406D02*
X2183Y1406D01*
X1857Y1405D02*
X1935Y1405D01*
X2105Y1405D02*
X2183Y1405D01*
X1857Y1404D02*
X1935Y1404D01*
X2105Y1404D02*
X2183Y1404D01*
X1857Y1403D02*
X1935Y1403D01*
X2105Y1403D02*
X2183Y1403D01*
X1857Y1402D02*
X1935Y1402D01*
X2105Y1402D02*
X2183Y1402D01*
X1857Y1401D02*
X1935Y1401D01*
X2105Y1401D02*
X2183Y1401D01*
X1857Y1400D02*
X1935Y1400D01*
X2105Y1400D02*
X2183Y1400D01*
X1857Y1399D02*
X1935Y1399D01*
X2105Y1399D02*
X2183Y1399D01*
X1857Y1398D02*
X1935Y1398D01*
X2105Y1398D02*
X2183Y1398D01*
X1857Y1397D02*
X1935Y1397D01*
X2105Y1397D02*
X2183Y1397D01*
X1857Y1396D02*
X1935Y1396D01*
X2105Y1396D02*
X2183Y1396D01*
X1857Y1395D02*
X1935Y1395D01*
X2105Y1395D02*
X2183Y1395D01*
X1857Y1394D02*
X1935Y1394D01*
X2105Y1394D02*
X2183Y1394D01*
X1857Y1393D02*
X1935Y1393D01*
X2105Y1393D02*
X2183Y1393D01*
X1857Y1392D02*
X1935Y1392D01*
X2105Y1392D02*
X2183Y1392D01*
X1857Y1391D02*
X1934Y1391D01*
X2105Y1391D02*
X2182Y1391D01*
X1858Y1390D02*
X1934Y1390D01*
X2106Y1390D02*
X2182Y1390D01*
X1858Y1389D02*
X1934Y1389D01*
X2106Y1389D02*
X2182Y1389D01*
X1858Y1388D02*
X1934Y1388D01*
X2106Y1388D02*
X2182Y1388D01*
X1858Y1387D02*
X1934Y1387D01*
X2106Y1387D02*
X2182Y1387D01*
X1858Y1386D02*
X1933Y1386D01*
X2106Y1386D02*
X2181Y1386D01*
X1859Y1385D02*
X1933Y1385D01*
X2107Y1385D02*
X2181Y1385D01*
X1859Y1384D02*
X1933Y1384D01*
X2107Y1384D02*
X2181Y1384D01*
X1859Y1383D02*
X1932Y1383D01*
X2107Y1383D02*
X2180Y1383D01*
X1860Y1382D02*
X1932Y1382D01*
X2108Y1382D02*
X2180Y1382D01*
X1860Y1381D02*
X1932Y1381D01*
X2108Y1381D02*
X2180Y1381D01*
X1860Y1380D02*
X1931Y1380D01*
X2109Y1380D02*
X2179Y1380D01*
X1861Y1379D02*
X1931Y1379D01*
X2109Y1379D02*
X2179Y1379D01*
X1861Y1378D02*
X1930Y1378D01*
X2109Y1378D02*
X2178Y1378D01*
X1862Y1377D02*
X1930Y1377D01*
X2110Y1377D02*
X2178Y1377D01*
X1863Y1376D02*
X1929Y1376D01*
X2111Y1376D02*
X2177Y1376D01*
X1863Y1375D02*
X1929Y1375D01*
X2111Y1375D02*
X2177Y1375D01*
X1864Y1374D02*
X1928Y1374D01*
X2112Y1374D02*
X2176Y1374D01*
X1865Y1373D02*
X1927Y1373D01*
X2113Y1373D02*
X2175Y1373D01*
X1865Y1372D02*
X1926Y1372D01*
X2113Y1372D02*
X2174Y1372D01*
X1866Y1371D02*
X1926Y1371D01*
X2114Y1371D02*
X2174Y1371D01*
X1867Y1370D02*
X1925Y1370D01*
X2115Y1370D02*
X2173Y1370D01*
X1868Y1369D02*
X1924Y1369D01*
X2116Y1369D02*
X2172Y1369D01*
X1869Y1368D02*
X1923Y1368D01*
X2117Y1368D02*
X2171Y1368D01*
X1870Y1367D02*
X1922Y1367D01*
X2118Y1367D02*
X2170Y1367D01*
X1871Y1366D02*
X1921Y1366D01*
X2119Y1366D02*
X2169Y1366D01*
X1872Y1365D02*
X1919Y1365D01*
X2120Y1365D02*
X2167Y1365D01*
X1874Y1364D02*
X1918Y1364D01*
X2122Y1364D02*
X2166Y1364D01*
X1875Y1363D02*
X1917Y1363D01*
X2123Y1363D02*
X2165Y1363D01*
X1877Y1362D02*
X1915Y1362D01*
X2125Y1362D02*
X2163Y1362D01*
X115Y1361D02*
X176Y1361D01*
X1113Y1361D02*
X1173Y1361D01*
X1879Y1361D02*
X1913Y1361D01*
X2127Y1361D02*
X2161Y1361D01*
X111Y1360D02*
X179Y1360D01*
X1109Y1360D02*
X1177Y1360D01*
X1881Y1360D02*
X1911Y1360D01*
X2129Y1360D02*
X2159Y1360D01*
X109Y1359D02*
X182Y1359D01*
X1107Y1359D02*
X1179Y1359D01*
X1883Y1359D02*
X1908Y1359D01*
X2131Y1359D02*
X2156Y1359D01*
X107Y1358D02*
X184Y1358D01*
X1105Y1358D02*
X1181Y1358D01*
X1887Y1358D02*
X1905Y1358D01*
X2135Y1358D02*
X2153Y1358D01*
X105Y1357D02*
X185Y1357D01*
X1103Y1357D02*
X1183Y1357D01*
X1892Y1357D02*
X1900Y1357D01*
X2140Y1357D02*
X2148Y1357D01*
X104Y1356D02*
X187Y1356D01*
X1102Y1356D02*
X1184Y1356D01*
X103Y1355D02*
X188Y1355D01*
X1100Y1355D02*
X1185Y1355D01*
X102Y1354D02*
X189Y1354D01*
X1099Y1354D02*
X1187Y1354D01*
X101Y1353D02*
X190Y1353D01*
X1098Y1353D02*
X1187Y1353D01*
X100Y1352D02*
X191Y1352D01*
X1098Y1352D02*
X1188Y1352D01*
X99Y1351D02*
X141Y1351D01*
X150Y1351D02*
X192Y1351D01*
X1097Y1351D02*
X1138Y1351D01*
X1146Y1351D02*
X1189Y1351D01*
X98Y1350D02*
X138Y1350D01*
X153Y1350D02*
X192Y1350D01*
X1096Y1350D02*
X1135Y1350D01*
X1149Y1350D02*
X1190Y1350D01*
X98Y1349D02*
X136Y1349D01*
X155Y1349D02*
X193Y1349D01*
X1095Y1349D02*
X1133Y1349D01*
X1151Y1349D02*
X1190Y1349D01*
X97Y1348D02*
X135Y1348D01*
X156Y1348D02*
X193Y1348D01*
X1095Y1348D02*
X1132Y1348D01*
X1152Y1348D02*
X1191Y1348D01*
X97Y1347D02*
X134Y1347D01*
X157Y1347D02*
X194Y1347D01*
X1094Y1347D02*
X1131Y1347D01*
X1154Y1347D02*
X1192Y1347D01*
X96Y1346D02*
X133Y1346D01*
X158Y1346D02*
X195Y1346D01*
X1094Y1346D02*
X1130Y1346D01*
X1155Y1346D02*
X1192Y1346D01*
X96Y1345D02*
X132Y1345D01*
X159Y1345D02*
X195Y1345D01*
X1093Y1345D02*
X1129Y1345D01*
X1155Y1345D02*
X1193Y1345D01*
X95Y1344D02*
X131Y1344D01*
X160Y1344D02*
X195Y1344D01*
X1093Y1344D02*
X1128Y1344D01*
X1156Y1344D02*
X1193Y1344D01*
X95Y1343D02*
X131Y1343D01*
X160Y1343D02*
X196Y1343D01*
X1093Y1343D02*
X1128Y1343D01*
X1157Y1343D02*
X1193Y1343D01*
X95Y1342D02*
X130Y1342D01*
X161Y1342D02*
X196Y1342D01*
X1092Y1342D02*
X1127Y1342D01*
X1157Y1342D02*
X1194Y1342D01*
X94Y1341D02*
X130Y1341D01*
X161Y1341D02*
X196Y1341D01*
X1092Y1341D02*
X1127Y1341D01*
X1158Y1341D02*
X1194Y1341D01*
X94Y1340D02*
X129Y1340D01*
X161Y1340D02*
X196Y1340D01*
X1092Y1340D02*
X1126Y1340D01*
X1158Y1340D02*
X1194Y1340D01*
X94Y1339D02*
X129Y1339D01*
X162Y1339D02*
X197Y1339D01*
X1092Y1339D02*
X1126Y1339D01*
X1158Y1339D02*
X1194Y1339D01*
X94Y1338D02*
X129Y1338D01*
X162Y1338D02*
X197Y1338D01*
X1092Y1338D02*
X1126Y1338D01*
X1158Y1338D02*
X1194Y1338D01*
X94Y1337D02*
X129Y1337D01*
X162Y1337D02*
X197Y1337D01*
X1092Y1337D02*
X1126Y1337D01*
X1158Y1337D02*
X1194Y1337D01*
X94Y1336D02*
X129Y1336D01*
X162Y1336D02*
X197Y1336D01*
X1091Y1336D02*
X1126Y1336D01*
X1159Y1336D02*
X1194Y1336D01*
X94Y1335D02*
X129Y1335D01*
X162Y1335D02*
X197Y1335D01*
X1091Y1335D02*
X1126Y1335D01*
X1159Y1335D02*
X1194Y1335D01*
X94Y1334D02*
X129Y1334D01*
X162Y1334D02*
X197Y1334D01*
X1092Y1334D02*
X1126Y1334D01*
X1158Y1334D02*
X1194Y1334D01*
X94Y1333D02*
X129Y1333D01*
X162Y1333D02*
X197Y1333D01*
X1092Y1333D02*
X1126Y1333D01*
X1158Y1333D02*
X1194Y1333D01*
X94Y1332D02*
X129Y1332D01*
X162Y1332D02*
X197Y1332D01*
X1092Y1332D02*
X1126Y1332D01*
X1158Y1332D02*
X1194Y1332D01*
X94Y1331D02*
X129Y1331D01*
X161Y1331D02*
X196Y1331D01*
X1092Y1331D02*
X1126Y1331D01*
X1158Y1331D02*
X1194Y1331D01*
X94Y1330D02*
X130Y1330D01*
X161Y1330D02*
X196Y1330D01*
X1092Y1330D02*
X1127Y1330D01*
X1158Y1330D02*
X1194Y1330D01*
X95Y1329D02*
X130Y1329D01*
X161Y1329D02*
X196Y1329D01*
X1092Y1329D02*
X1127Y1329D01*
X1157Y1329D02*
X1194Y1329D01*
X95Y1328D02*
X131Y1328D01*
X160Y1328D02*
X196Y1328D01*
X1093Y1328D02*
X1128Y1328D01*
X1157Y1328D02*
X1193Y1328D01*
X95Y1327D02*
X131Y1327D01*
X160Y1327D02*
X195Y1327D01*
X1093Y1327D02*
X1128Y1327D01*
X1156Y1327D02*
X1193Y1327D01*
X96Y1326D02*
X132Y1326D01*
X159Y1326D02*
X195Y1326D01*
X1093Y1326D02*
X1129Y1326D01*
X1156Y1326D02*
X1193Y1326D01*
X96Y1325D02*
X133Y1325D01*
X158Y1325D02*
X195Y1325D01*
X1094Y1325D02*
X1130Y1325D01*
X1155Y1325D02*
X1192Y1325D01*
X97Y1324D02*
X133Y1324D01*
X157Y1324D02*
X194Y1324D01*
X1094Y1324D02*
X1131Y1324D01*
X1154Y1324D02*
X1192Y1324D01*
X97Y1323D02*
X135Y1323D01*
X156Y1323D02*
X194Y1323D01*
X1095Y1323D02*
X1132Y1323D01*
X1153Y1323D02*
X1191Y1323D01*
X98Y1322D02*
X136Y1322D01*
X155Y1322D02*
X193Y1322D01*
X1095Y1322D02*
X1133Y1322D01*
X1151Y1322D02*
X1191Y1322D01*
X98Y1321D02*
X138Y1321D01*
X153Y1321D02*
X192Y1321D01*
X1096Y1321D02*
X1135Y1321D01*
X1149Y1321D02*
X1190Y1321D01*
X99Y1320D02*
X140Y1320D01*
X150Y1320D02*
X192Y1320D01*
X1097Y1320D02*
X1138Y1320D01*
X1147Y1320D02*
X1189Y1320D01*
X100Y1319D02*
X191Y1319D01*
X1097Y1319D02*
X1188Y1319D01*
X101Y1318D02*
X190Y1318D01*
X1098Y1318D02*
X1188Y1318D01*
X102Y1317D02*
X189Y1317D01*
X1099Y1317D02*
X1187Y1317D01*
X103Y1316D02*
X188Y1316D01*
X1100Y1316D02*
X1185Y1316D01*
X104Y1315D02*
X187Y1315D01*
X1102Y1315D02*
X1184Y1315D01*
X105Y1314D02*
X185Y1314D01*
X1103Y1314D02*
X1183Y1314D01*
X107Y1313D02*
X184Y1313D01*
X1105Y1313D02*
X1181Y1313D01*
X109Y1312D02*
X182Y1312D01*
X1106Y1312D02*
X1179Y1312D01*
X111Y1311D02*
X180Y1311D01*
X1109Y1311D02*
X1177Y1311D01*
X115Y1310D02*
X176Y1310D01*
X1112Y1310D02*
X1173Y1310D01*
X115Y1261D02*
X176Y1261D01*
X1113Y1261D02*
X1173Y1261D01*
X111Y1260D02*
X179Y1260D01*
X1109Y1260D02*
X1177Y1260D01*
X109Y1259D02*
X182Y1259D01*
X1107Y1259D02*
X1179Y1259D01*
X107Y1258D02*
X184Y1258D01*
X1105Y1258D02*
X1181Y1258D01*
X105Y1257D02*
X185Y1257D01*
X1103Y1257D02*
X1183Y1257D01*
X104Y1256D02*
X187Y1256D01*
X1102Y1256D02*
X1184Y1256D01*
X103Y1255D02*
X188Y1255D01*
X1100Y1255D02*
X1185Y1255D01*
X102Y1254D02*
X189Y1254D01*
X1099Y1254D02*
X1187Y1254D01*
X101Y1253D02*
X190Y1253D01*
X1098Y1253D02*
X1187Y1253D01*
X100Y1252D02*
X191Y1252D01*
X1098Y1252D02*
X1188Y1252D01*
X99Y1251D02*
X141Y1251D01*
X149Y1251D02*
X192Y1251D01*
X1097Y1251D02*
X1138Y1251D01*
X1146Y1251D02*
X1189Y1251D01*
X98Y1250D02*
X138Y1250D01*
X152Y1250D02*
X192Y1250D01*
X1096Y1250D02*
X1135Y1250D01*
X1149Y1250D02*
X1190Y1250D01*
X98Y1249D02*
X137Y1249D01*
X154Y1249D02*
X193Y1249D01*
X1095Y1249D02*
X1133Y1249D01*
X1151Y1249D02*
X1190Y1249D01*
X97Y1248D02*
X135Y1248D01*
X156Y1248D02*
X193Y1248D01*
X1095Y1248D02*
X1132Y1248D01*
X1152Y1248D02*
X1191Y1248D01*
X97Y1247D02*
X134Y1247D01*
X157Y1247D02*
X194Y1247D01*
X1094Y1247D02*
X1131Y1247D01*
X1154Y1247D02*
X1192Y1247D01*
X96Y1246D02*
X133Y1246D01*
X158Y1246D02*
X195Y1246D01*
X1094Y1246D02*
X1130Y1246D01*
X1155Y1246D02*
X1192Y1246D01*
X96Y1245D02*
X132Y1245D01*
X159Y1245D02*
X195Y1245D01*
X1093Y1245D02*
X1129Y1245D01*
X1155Y1245D02*
X1193Y1245D01*
X95Y1244D02*
X131Y1244D01*
X159Y1244D02*
X195Y1244D01*
X1093Y1244D02*
X1128Y1244D01*
X1156Y1244D02*
X1193Y1244D01*
X95Y1243D02*
X131Y1243D01*
X160Y1243D02*
X196Y1243D01*
X1093Y1243D02*
X1128Y1243D01*
X1157Y1243D02*
X1193Y1243D01*
X95Y1242D02*
X130Y1242D01*
X160Y1242D02*
X196Y1242D01*
X1092Y1242D02*
X1127Y1242D01*
X1157Y1242D02*
X1194Y1242D01*
X94Y1241D02*
X130Y1241D01*
X161Y1241D02*
X196Y1241D01*
X1092Y1241D02*
X1127Y1241D01*
X1158Y1241D02*
X1194Y1241D01*
X94Y1240D02*
X130Y1240D01*
X161Y1240D02*
X196Y1240D01*
X1092Y1240D02*
X1126Y1240D01*
X1158Y1240D02*
X1194Y1240D01*
X94Y1239D02*
X129Y1239D01*
X161Y1239D02*
X197Y1239D01*
X1092Y1239D02*
X1126Y1239D01*
X1158Y1239D02*
X1194Y1239D01*
X94Y1238D02*
X129Y1238D01*
X162Y1238D02*
X197Y1238D01*
X1092Y1238D02*
X1126Y1238D01*
X1158Y1238D02*
X1194Y1238D01*
X94Y1237D02*
X129Y1237D01*
X162Y1237D02*
X197Y1237D01*
X1092Y1237D02*
X1126Y1237D01*
X1158Y1237D02*
X1194Y1237D01*
X94Y1236D02*
X129Y1236D01*
X162Y1236D02*
X197Y1236D01*
X1091Y1236D02*
X1126Y1236D01*
X1159Y1236D02*
X1194Y1236D01*
X94Y1235D02*
X129Y1235D01*
X162Y1235D02*
X197Y1235D01*
X1091Y1235D02*
X1126Y1235D01*
X1159Y1235D02*
X1194Y1235D01*
X94Y1234D02*
X129Y1234D01*
X162Y1234D02*
X197Y1234D01*
X1092Y1234D02*
X1126Y1234D01*
X1158Y1234D02*
X1194Y1234D01*
X94Y1233D02*
X129Y1233D01*
X162Y1233D02*
X197Y1233D01*
X1092Y1233D02*
X1126Y1233D01*
X1158Y1233D02*
X1194Y1233D01*
X94Y1232D02*
X129Y1232D01*
X162Y1232D02*
X197Y1232D01*
X1092Y1232D02*
X1126Y1232D01*
X1158Y1232D02*
X1194Y1232D01*
X94Y1231D02*
X130Y1231D01*
X161Y1231D02*
X196Y1231D01*
X1092Y1231D02*
X1126Y1231D01*
X1158Y1231D02*
X1194Y1231D01*
X94Y1230D02*
X130Y1230D01*
X161Y1230D02*
X196Y1230D01*
X1092Y1230D02*
X1127Y1230D01*
X1158Y1230D02*
X1194Y1230D01*
X95Y1229D02*
X130Y1229D01*
X161Y1229D02*
X196Y1229D01*
X1092Y1229D02*
X1127Y1229D01*
X1157Y1229D02*
X1194Y1229D01*
X95Y1228D02*
X131Y1228D01*
X160Y1228D02*
X196Y1228D01*
X1093Y1228D02*
X1128Y1228D01*
X1157Y1228D02*
X1193Y1228D01*
X95Y1227D02*
X131Y1227D01*
X159Y1227D02*
X195Y1227D01*
X1093Y1227D02*
X1128Y1227D01*
X1156Y1227D02*
X1193Y1227D01*
X96Y1226D02*
X132Y1226D01*
X159Y1226D02*
X195Y1226D01*
X1093Y1226D02*
X1129Y1226D01*
X1156Y1226D02*
X1193Y1226D01*
X96Y1225D02*
X133Y1225D01*
X158Y1225D02*
X195Y1225D01*
X1094Y1225D02*
X1130Y1225D01*
X1155Y1225D02*
X1192Y1225D01*
X97Y1224D02*
X134Y1224D01*
X157Y1224D02*
X194Y1224D01*
X1094Y1224D02*
X1131Y1224D01*
X1154Y1224D02*
X1192Y1224D01*
X97Y1223D02*
X135Y1223D01*
X156Y1223D02*
X194Y1223D01*
X1095Y1223D02*
X1132Y1223D01*
X1153Y1223D02*
X1191Y1223D01*
X98Y1222D02*
X136Y1222D01*
X155Y1222D02*
X193Y1222D01*
X1095Y1222D02*
X1133Y1222D01*
X1151Y1222D02*
X1191Y1222D01*
X98Y1221D02*
X138Y1221D01*
X153Y1221D02*
X192Y1221D01*
X1096Y1221D02*
X1135Y1221D01*
X1149Y1221D02*
X1190Y1221D01*
X99Y1220D02*
X141Y1220D01*
X150Y1220D02*
X192Y1220D01*
X1097Y1220D02*
X1138Y1220D01*
X1147Y1220D02*
X1189Y1220D01*
X100Y1219D02*
X191Y1219D01*
X1097Y1219D02*
X1188Y1219D01*
X101Y1218D02*
X190Y1218D01*
X1098Y1218D02*
X1188Y1218D01*
X102Y1217D02*
X189Y1217D01*
X1099Y1217D02*
X1187Y1217D01*
X103Y1216D02*
X188Y1216D01*
X1100Y1216D02*
X1185Y1216D01*
X104Y1215D02*
X187Y1215D01*
X1102Y1215D02*
X1184Y1215D01*
X105Y1214D02*
X185Y1214D01*
X1103Y1214D02*
X1183Y1214D01*
X107Y1213D02*
X184Y1213D01*
X1105Y1213D02*
X1181Y1213D01*
X109Y1212D02*
X182Y1212D01*
X1106Y1212D02*
X1179Y1212D01*
X111Y1211D02*
X180Y1211D01*
X1109Y1211D02*
X1177Y1211D01*
X115Y1210D02*
X176Y1210D01*
X1112Y1210D02*
X1173Y1210D01*
X1968Y1171D02*
X2060Y1171D01*
X1964Y1170D02*
X2064Y1170D01*
X1961Y1169D02*
X2067Y1169D01*
X1959Y1168D02*
X2069Y1168D01*
X1956Y1167D02*
X2072Y1167D01*
X1955Y1166D02*
X2073Y1166D01*
X1953Y1165D02*
X2075Y1165D01*
X1952Y1164D02*
X2076Y1164D01*
X1950Y1163D02*
X2078Y1163D01*
X1949Y1162D02*
X2079Y1162D01*
X115Y1161D02*
X176Y1161D01*
X1113Y1161D02*
X1173Y1161D01*
X1948Y1161D02*
X2080Y1161D01*
X111Y1160D02*
X179Y1160D01*
X1109Y1160D02*
X1177Y1160D01*
X1947Y1160D02*
X2081Y1160D01*
X109Y1159D02*
X182Y1159D01*
X1107Y1159D02*
X1179Y1159D01*
X1946Y1159D02*
X2082Y1159D01*
X107Y1158D02*
X184Y1158D01*
X1105Y1158D02*
X1181Y1158D01*
X1945Y1158D02*
X2083Y1158D01*
X105Y1157D02*
X185Y1157D01*
X1103Y1157D02*
X1183Y1157D01*
X1944Y1157D02*
X2084Y1157D01*
X104Y1156D02*
X187Y1156D01*
X1102Y1156D02*
X1184Y1156D01*
X1944Y1156D02*
X2084Y1156D01*
X103Y1155D02*
X188Y1155D01*
X1100Y1155D02*
X1185Y1155D01*
X1943Y1155D02*
X2085Y1155D01*
X102Y1154D02*
X189Y1154D01*
X1099Y1154D02*
X1187Y1154D01*
X1942Y1154D02*
X2086Y1154D01*
X101Y1153D02*
X190Y1153D01*
X1098Y1153D02*
X1188Y1153D01*
X1942Y1153D02*
X2086Y1153D01*
X100Y1152D02*
X191Y1152D01*
X1098Y1152D02*
X1188Y1152D01*
X1941Y1152D02*
X2087Y1152D01*
X99Y1151D02*
X141Y1151D01*
X149Y1151D02*
X192Y1151D01*
X1097Y1151D02*
X1138Y1151D01*
X1146Y1151D02*
X1189Y1151D01*
X1940Y1151D02*
X2008Y1151D01*
X2020Y1151D02*
X2088Y1151D01*
X98Y1150D02*
X138Y1150D01*
X152Y1150D02*
X192Y1150D01*
X1096Y1150D02*
X1135Y1150D01*
X1149Y1150D02*
X1190Y1150D01*
X1940Y1150D02*
X2005Y1150D01*
X2023Y1150D02*
X2088Y1150D01*
X98Y1149D02*
X137Y1149D01*
X154Y1149D02*
X193Y1149D01*
X1095Y1149D02*
X1133Y1149D01*
X1151Y1149D02*
X1191Y1149D01*
X1939Y1149D02*
X2003Y1149D01*
X2025Y1149D02*
X2088Y1149D01*
X97Y1148D02*
X135Y1148D01*
X156Y1148D02*
X193Y1148D01*
X1095Y1148D02*
X1132Y1148D01*
X1152Y1148D02*
X1191Y1148D01*
X1939Y1148D02*
X2002Y1148D01*
X2026Y1148D02*
X2089Y1148D01*
X97Y1147D02*
X134Y1147D01*
X157Y1147D02*
X194Y1147D01*
X1094Y1147D02*
X1131Y1147D01*
X1154Y1147D02*
X1192Y1147D01*
X1939Y1147D02*
X2000Y1147D01*
X2027Y1147D02*
X2089Y1147D01*
X96Y1146D02*
X133Y1146D01*
X158Y1146D02*
X195Y1146D01*
X1094Y1146D02*
X1130Y1146D01*
X1155Y1146D02*
X1192Y1146D01*
X1938Y1146D02*
X1999Y1146D01*
X2029Y1146D02*
X2090Y1146D01*
X96Y1145D02*
X132Y1145D01*
X159Y1145D02*
X195Y1145D01*
X1093Y1145D02*
X1129Y1145D01*
X1155Y1145D02*
X1193Y1145D01*
X1938Y1145D02*
X1999Y1145D01*
X2029Y1145D02*
X2090Y1145D01*
X95Y1144D02*
X131Y1144D01*
X159Y1144D02*
X195Y1144D01*
X1093Y1144D02*
X1128Y1144D01*
X1156Y1144D02*
X1193Y1144D01*
X1938Y1144D02*
X1998Y1144D01*
X2030Y1144D02*
X2090Y1144D01*
X95Y1143D02*
X131Y1143D01*
X160Y1143D02*
X196Y1143D01*
X1093Y1143D02*
X1128Y1143D01*
X1157Y1143D02*
X1193Y1143D01*
X1937Y1143D02*
X1997Y1143D01*
X2031Y1143D02*
X2091Y1143D01*
X95Y1142D02*
X130Y1142D01*
X160Y1142D02*
X196Y1142D01*
X1092Y1142D02*
X1127Y1142D01*
X1157Y1142D02*
X1194Y1142D01*
X1937Y1142D02*
X1996Y1142D01*
X2032Y1142D02*
X2091Y1142D01*
X94Y1141D02*
X130Y1141D01*
X161Y1141D02*
X196Y1141D01*
X1092Y1141D02*
X1127Y1141D01*
X1158Y1141D02*
X1194Y1141D01*
X1937Y1141D02*
X1996Y1141D01*
X2032Y1141D02*
X2091Y1141D01*
X94Y1140D02*
X130Y1140D01*
X161Y1140D02*
X196Y1140D01*
X1092Y1140D02*
X1126Y1140D01*
X1158Y1140D02*
X1194Y1140D01*
X1936Y1140D02*
X1995Y1140D01*
X2033Y1140D02*
X2091Y1140D01*
X94Y1139D02*
X129Y1139D01*
X161Y1139D02*
X197Y1139D01*
X1092Y1139D02*
X1126Y1139D01*
X1158Y1139D02*
X1194Y1139D01*
X1936Y1139D02*
X1995Y1139D01*
X2033Y1139D02*
X2092Y1139D01*
X94Y1138D02*
X129Y1138D01*
X162Y1138D02*
X197Y1138D01*
X1092Y1138D02*
X1126Y1138D01*
X1158Y1138D02*
X1194Y1138D01*
X1936Y1138D02*
X1995Y1138D01*
X2033Y1138D02*
X2092Y1138D01*
X94Y1137D02*
X129Y1137D01*
X162Y1137D02*
X197Y1137D01*
X1092Y1137D02*
X1126Y1137D01*
X1159Y1137D02*
X1194Y1137D01*
X1936Y1137D02*
X1994Y1137D01*
X2034Y1137D02*
X2092Y1137D01*
X94Y1136D02*
X129Y1136D01*
X162Y1136D02*
X197Y1136D01*
X1091Y1136D02*
X1126Y1136D01*
X1159Y1136D02*
X1194Y1136D01*
X1936Y1136D02*
X1994Y1136D01*
X2034Y1136D02*
X2092Y1136D01*
X94Y1135D02*
X129Y1135D01*
X162Y1135D02*
X197Y1135D01*
X1091Y1135D02*
X1126Y1135D01*
X1159Y1135D02*
X1194Y1135D01*
X1936Y1135D02*
X1994Y1135D01*
X2034Y1135D02*
X2092Y1135D01*
X94Y1134D02*
X129Y1134D01*
X162Y1134D02*
X197Y1134D01*
X1092Y1134D02*
X1126Y1134D01*
X1159Y1134D02*
X1194Y1134D01*
X1936Y1134D02*
X1994Y1134D01*
X2034Y1134D02*
X2092Y1134D01*
X94Y1133D02*
X129Y1133D01*
X162Y1133D02*
X197Y1133D01*
X1092Y1133D02*
X1126Y1133D01*
X1158Y1133D02*
X1194Y1133D01*
X1936Y1133D02*
X1994Y1133D01*
X2034Y1133D02*
X2092Y1133D01*
X94Y1132D02*
X129Y1132D01*
X162Y1132D02*
X197Y1132D01*
X1092Y1132D02*
X1126Y1132D01*
X1158Y1132D02*
X1194Y1132D01*
X1936Y1132D02*
X1994Y1132D01*
X2034Y1132D02*
X2092Y1132D01*
X94Y1131D02*
X130Y1131D01*
X161Y1131D02*
X196Y1131D01*
X1092Y1131D02*
X1126Y1131D01*
X1158Y1131D02*
X1194Y1131D01*
X1936Y1131D02*
X1994Y1131D01*
X2034Y1131D02*
X2092Y1131D01*
X94Y1130D02*
X130Y1130D01*
X161Y1130D02*
X196Y1130D01*
X1092Y1130D02*
X1127Y1130D01*
X1158Y1130D02*
X1194Y1130D01*
X1936Y1130D02*
X1994Y1130D01*
X2034Y1130D02*
X2092Y1130D01*
X95Y1129D02*
X130Y1129D01*
X161Y1129D02*
X196Y1129D01*
X1092Y1129D02*
X1127Y1129D01*
X1157Y1129D02*
X1194Y1129D01*
X1936Y1129D02*
X1994Y1129D01*
X2034Y1129D02*
X2092Y1129D01*
X95Y1128D02*
X131Y1128D01*
X160Y1128D02*
X196Y1128D01*
X1093Y1128D02*
X1128Y1128D01*
X1157Y1128D02*
X1193Y1128D01*
X1936Y1128D02*
X1994Y1128D01*
X2034Y1128D02*
X2092Y1128D01*
X95Y1127D02*
X131Y1127D01*
X159Y1127D02*
X195Y1127D01*
X1093Y1127D02*
X1128Y1127D01*
X1156Y1127D02*
X1193Y1127D01*
X1936Y1127D02*
X1995Y1127D01*
X2033Y1127D02*
X2092Y1127D01*
X96Y1126D02*
X132Y1126D01*
X159Y1126D02*
X195Y1126D01*
X1093Y1126D02*
X1129Y1126D01*
X1156Y1126D02*
X1193Y1126D01*
X1936Y1126D02*
X1995Y1126D01*
X2033Y1126D02*
X2092Y1126D01*
X96Y1125D02*
X133Y1125D01*
X158Y1125D02*
X195Y1125D01*
X1094Y1125D02*
X1130Y1125D01*
X1155Y1125D02*
X1192Y1125D01*
X1936Y1125D02*
X1995Y1125D01*
X2033Y1125D02*
X2092Y1125D01*
X97Y1124D02*
X134Y1124D01*
X157Y1124D02*
X194Y1124D01*
X1094Y1124D02*
X1131Y1124D01*
X1154Y1124D02*
X1192Y1124D01*
X1937Y1124D02*
X1996Y1124D01*
X2032Y1124D02*
X2091Y1124D01*
X97Y1123D02*
X135Y1123D01*
X156Y1123D02*
X194Y1123D01*
X1095Y1123D02*
X1132Y1123D01*
X1153Y1123D02*
X1191Y1123D01*
X1937Y1123D02*
X1996Y1123D01*
X2032Y1123D02*
X2091Y1123D01*
X98Y1122D02*
X136Y1122D01*
X155Y1122D02*
X193Y1122D01*
X1095Y1122D02*
X1133Y1122D01*
X1151Y1122D02*
X1191Y1122D01*
X1937Y1122D02*
X1997Y1122D01*
X2031Y1122D02*
X2091Y1122D01*
X98Y1121D02*
X138Y1121D01*
X153Y1121D02*
X192Y1121D01*
X1096Y1121D02*
X1135Y1121D01*
X1149Y1121D02*
X1190Y1121D01*
X1937Y1121D02*
X1997Y1121D01*
X2031Y1121D02*
X2091Y1121D01*
X99Y1120D02*
X141Y1120D01*
X150Y1120D02*
X192Y1120D01*
X1097Y1120D02*
X1138Y1120D01*
X1147Y1120D02*
X1189Y1120D01*
X1938Y1120D02*
X1998Y1120D01*
X2030Y1120D02*
X2090Y1120D01*
X100Y1119D02*
X191Y1119D01*
X1097Y1119D02*
X1188Y1119D01*
X1938Y1119D02*
X1999Y1119D01*
X2029Y1119D02*
X2090Y1119D01*
X101Y1118D02*
X190Y1118D01*
X1098Y1118D02*
X1188Y1118D01*
X1938Y1118D02*
X2000Y1118D01*
X2028Y1118D02*
X2089Y1118D01*
X102Y1117D02*
X189Y1117D01*
X1099Y1117D02*
X1187Y1117D01*
X1939Y1117D02*
X2001Y1117D01*
X2027Y1117D02*
X2089Y1117D01*
X103Y1116D02*
X188Y1116D01*
X1100Y1116D02*
X1185Y1116D01*
X1939Y1116D02*
X2003Y1116D01*
X2025Y1116D02*
X2089Y1116D01*
X104Y1115D02*
X187Y1115D01*
X1102Y1115D02*
X1184Y1115D01*
X1940Y1115D02*
X2004Y1115D01*
X2024Y1115D02*
X2088Y1115D01*
X105Y1114D02*
X185Y1114D01*
X1103Y1114D02*
X1183Y1114D01*
X1940Y1114D02*
X2006Y1114D01*
X2021Y1114D02*
X2088Y1114D01*
X107Y1113D02*
X184Y1113D01*
X1105Y1113D02*
X1181Y1113D01*
X1941Y1113D02*
X2010Y1113D01*
X2018Y1113D02*
X2087Y1113D01*
X109Y1112D02*
X182Y1112D01*
X1106Y1112D02*
X1179Y1112D01*
X1941Y1112D02*
X2087Y1112D01*
X111Y1111D02*
X180Y1111D01*
X1109Y1111D02*
X1177Y1111D01*
X1942Y1111D02*
X2086Y1111D01*
X115Y1110D02*
X176Y1110D01*
X1112Y1110D02*
X1174Y1110D01*
X1943Y1110D02*
X2085Y1110D01*
X1943Y1109D02*
X2084Y1109D01*
X1944Y1108D02*
X2084Y1108D01*
X1945Y1107D02*
X2083Y1107D01*
X1946Y1106D02*
X2082Y1106D01*
X1947Y1105D02*
X2081Y1105D01*
X1948Y1104D02*
X2080Y1104D01*
X1949Y1103D02*
X2079Y1103D01*
X1950Y1102D02*
X2078Y1102D01*
X1951Y1101D02*
X2077Y1101D01*
X1953Y1100D02*
X2075Y1100D01*
X1954Y1099D02*
X2074Y1099D01*
X1956Y1098D02*
X2072Y1098D01*
X1958Y1097D02*
X2070Y1097D01*
X1960Y1096D02*
X2068Y1096D01*
X1963Y1095D02*
X2065Y1095D01*
X1966Y1094D02*
X2062Y1094D01*
X1974Y1093D02*
X2053Y1093D01*
X1439Y1070D02*
X1449Y1070D01*
X1539Y1070D02*
X1549Y1070D01*
X1639Y1070D02*
X1649Y1070D01*
X1435Y1069D02*
X1453Y1069D01*
X1535Y1069D02*
X1553Y1069D01*
X1635Y1069D02*
X1653Y1069D01*
X1432Y1068D02*
X1456Y1068D01*
X1532Y1068D02*
X1556Y1068D01*
X1632Y1068D02*
X1656Y1068D01*
X1430Y1067D02*
X1458Y1067D01*
X1530Y1067D02*
X1558Y1067D01*
X1630Y1067D02*
X1658Y1067D01*
X1428Y1066D02*
X1460Y1066D01*
X1528Y1066D02*
X1560Y1066D01*
X1628Y1066D02*
X1660Y1066D01*
X1426Y1065D02*
X1462Y1065D01*
X1526Y1065D02*
X1562Y1065D01*
X1626Y1065D02*
X1662Y1065D01*
X1424Y1064D02*
X1464Y1064D01*
X1524Y1064D02*
X1564Y1064D01*
X1624Y1064D02*
X1664Y1064D01*
X1423Y1063D02*
X1465Y1063D01*
X1523Y1063D02*
X1565Y1063D01*
X1623Y1063D02*
X1665Y1063D01*
X1422Y1062D02*
X1466Y1062D01*
X1522Y1062D02*
X1566Y1062D01*
X1622Y1062D02*
X1666Y1062D01*
X115Y1061D02*
X176Y1061D01*
X1113Y1061D02*
X1173Y1061D01*
X1421Y1061D02*
X1467Y1061D01*
X1521Y1061D02*
X1567Y1061D01*
X1621Y1061D02*
X1667Y1061D01*
X111Y1060D02*
X179Y1060D01*
X1109Y1060D02*
X1177Y1060D01*
X1419Y1060D02*
X1468Y1060D01*
X1519Y1060D02*
X1568Y1060D01*
X1619Y1060D02*
X1668Y1060D01*
X109Y1059D02*
X182Y1059D01*
X1107Y1059D02*
X1179Y1059D01*
X1419Y1059D02*
X1469Y1059D01*
X1519Y1059D02*
X1569Y1059D01*
X1619Y1059D02*
X1669Y1059D01*
X107Y1058D02*
X184Y1058D01*
X1105Y1058D02*
X1181Y1058D01*
X1418Y1058D02*
X1470Y1058D01*
X1518Y1058D02*
X1570Y1058D01*
X1618Y1058D02*
X1670Y1058D01*
X105Y1057D02*
X185Y1057D01*
X1103Y1057D02*
X1183Y1057D01*
X1417Y1057D02*
X1471Y1057D01*
X1517Y1057D02*
X1571Y1057D01*
X1617Y1057D02*
X1671Y1057D01*
X104Y1056D02*
X187Y1056D01*
X1102Y1056D02*
X1184Y1056D01*
X1416Y1056D02*
X1472Y1056D01*
X1516Y1056D02*
X1572Y1056D01*
X1616Y1056D02*
X1672Y1056D01*
X103Y1055D02*
X188Y1055D01*
X1100Y1055D02*
X1185Y1055D01*
X1415Y1055D02*
X1472Y1055D01*
X1515Y1055D02*
X1572Y1055D01*
X1615Y1055D02*
X1672Y1055D01*
X102Y1054D02*
X189Y1054D01*
X1099Y1054D02*
X1187Y1054D01*
X1415Y1054D02*
X1473Y1054D01*
X1515Y1054D02*
X1573Y1054D01*
X1615Y1054D02*
X1673Y1054D01*
X101Y1053D02*
X190Y1053D01*
X1098Y1053D02*
X1187Y1053D01*
X1414Y1053D02*
X1474Y1053D01*
X1514Y1053D02*
X1574Y1053D01*
X1614Y1053D02*
X1674Y1053D01*
X100Y1052D02*
X191Y1052D01*
X1098Y1052D02*
X1188Y1052D01*
X1414Y1052D02*
X1474Y1052D01*
X1514Y1052D02*
X1574Y1052D01*
X1614Y1052D02*
X1674Y1052D01*
X99Y1051D02*
X141Y1051D01*
X150Y1051D02*
X192Y1051D01*
X1097Y1051D02*
X1138Y1051D01*
X1146Y1051D02*
X1189Y1051D01*
X1413Y1051D02*
X1475Y1051D01*
X1513Y1051D02*
X1575Y1051D01*
X1613Y1051D02*
X1675Y1051D01*
X98Y1050D02*
X138Y1050D01*
X153Y1050D02*
X192Y1050D01*
X1096Y1050D02*
X1135Y1050D01*
X1149Y1050D02*
X1190Y1050D01*
X1413Y1050D02*
X1439Y1050D01*
X1449Y1050D02*
X1475Y1050D01*
X1513Y1050D02*
X1539Y1050D01*
X1549Y1050D02*
X1575Y1050D01*
X1613Y1050D02*
X1639Y1050D01*
X1649Y1050D02*
X1675Y1050D01*
X98Y1049D02*
X136Y1049D01*
X154Y1049D02*
X193Y1049D01*
X1095Y1049D02*
X1133Y1049D01*
X1151Y1049D02*
X1190Y1049D01*
X1412Y1049D02*
X1437Y1049D01*
X1451Y1049D02*
X1475Y1049D01*
X1512Y1049D02*
X1537Y1049D01*
X1551Y1049D02*
X1575Y1049D01*
X1612Y1049D02*
X1637Y1049D01*
X1651Y1049D02*
X1675Y1049D01*
X97Y1048D02*
X135Y1048D01*
X156Y1048D02*
X193Y1048D01*
X1095Y1048D02*
X1132Y1048D01*
X1153Y1048D02*
X1191Y1048D01*
X1412Y1048D02*
X1435Y1048D01*
X1453Y1048D02*
X1476Y1048D01*
X1512Y1048D02*
X1535Y1048D01*
X1553Y1048D02*
X1576Y1048D01*
X1612Y1048D02*
X1635Y1048D01*
X1653Y1048D02*
X1676Y1048D01*
X97Y1047D02*
X134Y1047D01*
X157Y1047D02*
X194Y1047D01*
X1094Y1047D02*
X1130Y1047D01*
X1154Y1047D02*
X1192Y1047D01*
X1412Y1047D02*
X1434Y1047D01*
X1454Y1047D02*
X1476Y1047D01*
X1512Y1047D02*
X1534Y1047D01*
X1554Y1047D02*
X1576Y1047D01*
X1612Y1047D02*
X1634Y1047D01*
X1654Y1047D02*
X1676Y1047D01*
X96Y1046D02*
X133Y1046D01*
X158Y1046D02*
X195Y1046D01*
X1094Y1046D02*
X1130Y1046D01*
X1155Y1046D02*
X1192Y1046D01*
X1411Y1046D02*
X1433Y1046D01*
X1455Y1046D02*
X1477Y1046D01*
X1511Y1046D02*
X1533Y1046D01*
X1555Y1046D02*
X1577Y1046D01*
X1611Y1046D02*
X1633Y1046D01*
X1655Y1046D02*
X1677Y1046D01*
X96Y1045D02*
X132Y1045D01*
X159Y1045D02*
X195Y1045D01*
X1093Y1045D02*
X1129Y1045D01*
X1156Y1045D02*
X1193Y1045D01*
X1411Y1045D02*
X1432Y1045D01*
X1456Y1045D02*
X1477Y1045D01*
X1511Y1045D02*
X1532Y1045D01*
X1556Y1045D02*
X1577Y1045D01*
X1611Y1045D02*
X1632Y1045D01*
X1656Y1045D02*
X1677Y1045D01*
X95Y1044D02*
X131Y1044D01*
X160Y1044D02*
X195Y1044D01*
X1093Y1044D02*
X1128Y1044D01*
X1156Y1044D02*
X1193Y1044D01*
X1411Y1044D02*
X1431Y1044D01*
X1457Y1044D02*
X1477Y1044D01*
X1511Y1044D02*
X1531Y1044D01*
X1557Y1044D02*
X1577Y1044D01*
X1611Y1044D02*
X1631Y1044D01*
X1657Y1044D02*
X1677Y1044D01*
X95Y1043D02*
X131Y1043D01*
X160Y1043D02*
X196Y1043D01*
X1093Y1043D02*
X1127Y1043D01*
X1157Y1043D02*
X1193Y1043D01*
X1410Y1043D02*
X1430Y1043D01*
X1457Y1043D02*
X1477Y1043D01*
X1510Y1043D02*
X1530Y1043D01*
X1557Y1043D02*
X1577Y1043D01*
X1610Y1043D02*
X1630Y1043D01*
X1657Y1043D02*
X1677Y1043D01*
X95Y1042D02*
X130Y1042D01*
X161Y1042D02*
X196Y1042D01*
X1092Y1042D02*
X1127Y1042D01*
X1157Y1042D02*
X1194Y1042D01*
X1410Y1042D02*
X1430Y1042D01*
X1458Y1042D02*
X1478Y1042D01*
X1510Y1042D02*
X1530Y1042D01*
X1558Y1042D02*
X1578Y1042D01*
X1610Y1042D02*
X1630Y1042D01*
X1658Y1042D02*
X1678Y1042D01*
X94Y1041D02*
X130Y1041D01*
X161Y1041D02*
X196Y1041D01*
X1092Y1041D02*
X1127Y1041D01*
X1158Y1041D02*
X1194Y1041D01*
X1410Y1041D02*
X1429Y1041D01*
X1459Y1041D02*
X1478Y1041D01*
X1510Y1041D02*
X1529Y1041D01*
X1559Y1041D02*
X1578Y1041D01*
X1610Y1041D02*
X1629Y1041D01*
X1659Y1041D02*
X1678Y1041D01*
X94Y1040D02*
X129Y1040D01*
X161Y1040D02*
X196Y1040D01*
X1092Y1040D02*
X1126Y1040D01*
X1158Y1040D02*
X1194Y1040D01*
X1410Y1040D02*
X1429Y1040D01*
X1459Y1040D02*
X1478Y1040D01*
X1510Y1040D02*
X1529Y1040D01*
X1559Y1040D02*
X1578Y1040D01*
X1610Y1040D02*
X1629Y1040D01*
X1659Y1040D02*
X1678Y1040D01*
X94Y1039D02*
X129Y1039D01*
X162Y1039D02*
X197Y1039D01*
X1092Y1039D02*
X1126Y1039D01*
X1158Y1039D02*
X1194Y1039D01*
X1410Y1039D02*
X1429Y1039D01*
X1459Y1039D02*
X1478Y1039D01*
X1510Y1039D02*
X1529Y1039D01*
X1559Y1039D02*
X1578Y1039D01*
X1610Y1039D02*
X1629Y1039D01*
X1659Y1039D02*
X1678Y1039D01*
X94Y1038D02*
X129Y1038D01*
X162Y1038D02*
X197Y1038D01*
X1092Y1038D02*
X1126Y1038D01*
X1159Y1038D02*
X1194Y1038D01*
X1410Y1038D02*
X1429Y1038D01*
X1459Y1038D02*
X1478Y1038D01*
X1510Y1038D02*
X1529Y1038D01*
X1559Y1038D02*
X1578Y1038D01*
X1610Y1038D02*
X1629Y1038D01*
X1659Y1038D02*
X1678Y1038D01*
X94Y1037D02*
X129Y1037D01*
X162Y1037D02*
X197Y1037D01*
X1092Y1037D02*
X1126Y1037D01*
X1159Y1037D02*
X1194Y1037D01*
X1409Y1037D02*
X1429Y1037D01*
X1459Y1037D02*
X1478Y1037D01*
X1509Y1037D02*
X1529Y1037D01*
X1559Y1037D02*
X1578Y1037D01*
X1609Y1037D02*
X1629Y1037D01*
X1659Y1037D02*
X1678Y1037D01*
X94Y1036D02*
X129Y1036D01*
X162Y1036D02*
X197Y1036D01*
X1091Y1036D02*
X1126Y1036D01*
X1159Y1036D02*
X1194Y1036D01*
X1409Y1036D02*
X1428Y1036D01*
X1459Y1036D02*
X1478Y1036D01*
X1509Y1036D02*
X1528Y1036D01*
X1559Y1036D02*
X1578Y1036D01*
X1609Y1036D02*
X1628Y1036D01*
X1659Y1036D02*
X1678Y1036D01*
X94Y1035D02*
X129Y1035D01*
X162Y1035D02*
X197Y1035D01*
X1091Y1035D02*
X1125Y1035D01*
X1159Y1035D02*
X1194Y1035D01*
X1409Y1035D02*
X1428Y1035D01*
X1459Y1035D02*
X1478Y1035D01*
X1509Y1035D02*
X1528Y1035D01*
X1559Y1035D02*
X1578Y1035D01*
X1609Y1035D02*
X1628Y1035D01*
X1659Y1035D02*
X1678Y1035D01*
X94Y1034D02*
X129Y1034D01*
X162Y1034D02*
X197Y1034D01*
X1092Y1034D02*
X1126Y1034D01*
X1159Y1034D02*
X1194Y1034D01*
X1409Y1034D02*
X1429Y1034D01*
X1459Y1034D02*
X1478Y1034D01*
X1509Y1034D02*
X1529Y1034D01*
X1559Y1034D02*
X1578Y1034D01*
X1609Y1034D02*
X1629Y1034D01*
X1659Y1034D02*
X1678Y1034D01*
X94Y1033D02*
X129Y1033D01*
X162Y1033D02*
X197Y1033D01*
X1092Y1033D02*
X1126Y1033D01*
X1159Y1033D02*
X1194Y1033D01*
X1410Y1033D02*
X1429Y1033D01*
X1459Y1033D02*
X1478Y1033D01*
X1510Y1033D02*
X1529Y1033D01*
X1559Y1033D02*
X1578Y1033D01*
X1610Y1033D02*
X1629Y1033D01*
X1659Y1033D02*
X1678Y1033D01*
X94Y1032D02*
X129Y1032D01*
X162Y1032D02*
X197Y1032D01*
X1092Y1032D02*
X1126Y1032D01*
X1158Y1032D02*
X1194Y1032D01*
X1410Y1032D02*
X1429Y1032D01*
X1459Y1032D02*
X1478Y1032D01*
X1510Y1032D02*
X1529Y1032D01*
X1559Y1032D02*
X1578Y1032D01*
X1610Y1032D02*
X1629Y1032D01*
X1659Y1032D02*
X1678Y1032D01*
X94Y1031D02*
X129Y1031D01*
X161Y1031D02*
X196Y1031D01*
X1092Y1031D02*
X1126Y1031D01*
X1158Y1031D02*
X1194Y1031D01*
X1410Y1031D02*
X1429Y1031D01*
X1459Y1031D02*
X1478Y1031D01*
X1510Y1031D02*
X1529Y1031D01*
X1559Y1031D02*
X1578Y1031D01*
X1610Y1031D02*
X1629Y1031D01*
X1659Y1031D02*
X1678Y1031D01*
X94Y1030D02*
X130Y1030D01*
X161Y1030D02*
X196Y1030D01*
X1092Y1030D02*
X1126Y1030D01*
X1158Y1030D02*
X1194Y1030D01*
X1410Y1030D02*
X1429Y1030D01*
X1459Y1030D02*
X1478Y1030D01*
X1510Y1030D02*
X1529Y1030D01*
X1559Y1030D02*
X1578Y1030D01*
X1610Y1030D02*
X1629Y1030D01*
X1659Y1030D02*
X1678Y1030D01*
X95Y1029D02*
X130Y1029D01*
X161Y1029D02*
X196Y1029D01*
X1092Y1029D02*
X1127Y1029D01*
X1157Y1029D02*
X1194Y1029D01*
X1410Y1029D02*
X1430Y1029D01*
X1458Y1029D02*
X1478Y1029D01*
X1510Y1029D02*
X1530Y1029D01*
X1558Y1029D02*
X1578Y1029D01*
X1610Y1029D02*
X1630Y1029D01*
X1658Y1029D02*
X1678Y1029D01*
X95Y1028D02*
X131Y1028D01*
X160Y1028D02*
X196Y1028D01*
X1093Y1028D02*
X1127Y1028D01*
X1157Y1028D02*
X1193Y1028D01*
X1410Y1028D02*
X1430Y1028D01*
X1458Y1028D02*
X1477Y1028D01*
X1510Y1028D02*
X1530Y1028D01*
X1558Y1028D02*
X1577Y1028D01*
X1610Y1028D02*
X1630Y1028D01*
X1658Y1028D02*
X1677Y1028D01*
X95Y1027D02*
X131Y1027D01*
X160Y1027D02*
X195Y1027D01*
X1093Y1027D02*
X1128Y1027D01*
X1156Y1027D02*
X1193Y1027D01*
X1411Y1027D02*
X1431Y1027D01*
X1457Y1027D02*
X1477Y1027D01*
X1511Y1027D02*
X1531Y1027D01*
X1557Y1027D02*
X1577Y1027D01*
X1611Y1027D02*
X1631Y1027D01*
X1657Y1027D02*
X1677Y1027D01*
X96Y1026D02*
X132Y1026D01*
X159Y1026D02*
X195Y1026D01*
X1093Y1026D02*
X1129Y1026D01*
X1156Y1026D02*
X1193Y1026D01*
X1411Y1026D02*
X1432Y1026D01*
X1456Y1026D02*
X1477Y1026D01*
X1511Y1026D02*
X1532Y1026D01*
X1556Y1026D02*
X1577Y1026D01*
X1611Y1026D02*
X1632Y1026D01*
X1656Y1026D02*
X1677Y1026D01*
X96Y1025D02*
X133Y1025D01*
X158Y1025D02*
X195Y1025D01*
X1094Y1025D02*
X1129Y1025D01*
X1155Y1025D02*
X1192Y1025D01*
X1411Y1025D02*
X1433Y1025D01*
X1455Y1025D02*
X1477Y1025D01*
X1511Y1025D02*
X1533Y1025D01*
X1555Y1025D02*
X1577Y1025D01*
X1611Y1025D02*
X1633Y1025D01*
X1655Y1025D02*
X1677Y1025D01*
X97Y1024D02*
X134Y1024D01*
X157Y1024D02*
X194Y1024D01*
X1094Y1024D02*
X1130Y1024D01*
X1154Y1024D02*
X1192Y1024D01*
X1412Y1024D02*
X1434Y1024D01*
X1454Y1024D02*
X1476Y1024D01*
X1512Y1024D02*
X1534Y1024D01*
X1554Y1024D02*
X1576Y1024D01*
X1612Y1024D02*
X1634Y1024D01*
X1654Y1024D02*
X1676Y1024D01*
X97Y1023D02*
X135Y1023D01*
X156Y1023D02*
X194Y1023D01*
X1095Y1023D02*
X1131Y1023D01*
X1153Y1023D02*
X1191Y1023D01*
X1412Y1023D02*
X1435Y1023D01*
X1453Y1023D02*
X1476Y1023D01*
X1512Y1023D02*
X1535Y1023D01*
X1553Y1023D02*
X1576Y1023D01*
X1612Y1023D02*
X1635Y1023D01*
X1653Y1023D02*
X1676Y1023D01*
X98Y1022D02*
X136Y1022D01*
X155Y1022D02*
X193Y1022D01*
X1095Y1022D02*
X1133Y1022D01*
X1151Y1022D02*
X1191Y1022D01*
X1412Y1022D02*
X1437Y1022D01*
X1451Y1022D02*
X1475Y1022D01*
X1512Y1022D02*
X1537Y1022D01*
X1551Y1022D02*
X1575Y1022D01*
X1612Y1022D02*
X1637Y1022D01*
X1651Y1022D02*
X1675Y1022D01*
X98Y1021D02*
X138Y1021D01*
X153Y1021D02*
X192Y1021D01*
X1096Y1021D02*
X1135Y1021D01*
X1150Y1021D02*
X1190Y1021D01*
X1413Y1021D02*
X1439Y1021D01*
X1449Y1021D02*
X1475Y1021D01*
X1513Y1021D02*
X1539Y1021D01*
X1549Y1021D02*
X1575Y1021D01*
X1613Y1021D02*
X1639Y1021D01*
X1649Y1021D02*
X1675Y1021D01*
X99Y1020D02*
X141Y1020D01*
X150Y1020D02*
X192Y1020D01*
X1097Y1020D02*
X1137Y1020D01*
X1147Y1020D02*
X1189Y1020D01*
X1413Y1020D02*
X1475Y1020D01*
X1513Y1020D02*
X1575Y1020D01*
X1613Y1020D02*
X1675Y1020D01*
X100Y1019D02*
X191Y1019D01*
X1097Y1019D02*
X1188Y1019D01*
X1414Y1019D02*
X1474Y1019D01*
X1514Y1019D02*
X1574Y1019D01*
X1614Y1019D02*
X1674Y1019D01*
X101Y1018D02*
X190Y1018D01*
X1098Y1018D02*
X1188Y1018D01*
X1414Y1018D02*
X1474Y1018D01*
X1514Y1018D02*
X1574Y1018D01*
X1614Y1018D02*
X1674Y1018D01*
X102Y1017D02*
X189Y1017D01*
X1099Y1017D02*
X1187Y1017D01*
X1415Y1017D02*
X1473Y1017D01*
X1515Y1017D02*
X1573Y1017D01*
X1615Y1017D02*
X1673Y1017D01*
X103Y1016D02*
X188Y1016D01*
X1100Y1016D02*
X1185Y1016D01*
X1415Y1016D02*
X1472Y1016D01*
X1515Y1016D02*
X1572Y1016D01*
X1615Y1016D02*
X1672Y1016D01*
X104Y1015D02*
X187Y1015D01*
X1102Y1015D02*
X1184Y1015D01*
X1416Y1015D02*
X1472Y1015D01*
X1516Y1015D02*
X1572Y1015D01*
X1616Y1015D02*
X1672Y1015D01*
X105Y1014D02*
X185Y1014D01*
X1103Y1014D02*
X1183Y1014D01*
X1417Y1014D02*
X1471Y1014D01*
X1517Y1014D02*
X1571Y1014D01*
X1617Y1014D02*
X1671Y1014D01*
X1892Y1014D02*
X1900Y1014D01*
X2140Y1014D02*
X2148Y1014D01*
X107Y1013D02*
X184Y1013D01*
X1105Y1013D02*
X1181Y1013D01*
X1418Y1013D02*
X1470Y1013D01*
X1518Y1013D02*
X1570Y1013D01*
X1618Y1013D02*
X1670Y1013D01*
X1887Y1013D02*
X1905Y1013D01*
X2135Y1013D02*
X2153Y1013D01*
X109Y1012D02*
X182Y1012D01*
X1106Y1012D02*
X1179Y1012D01*
X1419Y1012D02*
X1469Y1012D01*
X1519Y1012D02*
X1569Y1012D01*
X1619Y1012D02*
X1669Y1012D01*
X1883Y1012D02*
X1908Y1012D01*
X2131Y1012D02*
X2156Y1012D01*
X111Y1011D02*
X180Y1011D01*
X1109Y1011D02*
X1177Y1011D01*
X1419Y1011D02*
X1468Y1011D01*
X1519Y1011D02*
X1568Y1011D01*
X1619Y1011D02*
X1668Y1011D01*
X1881Y1011D02*
X1911Y1011D01*
X2129Y1011D02*
X2159Y1011D01*
X115Y1010D02*
X176Y1010D01*
X1112Y1010D02*
X1173Y1010D01*
X1420Y1010D02*
X1467Y1010D01*
X1520Y1010D02*
X1567Y1010D01*
X1620Y1010D02*
X1667Y1010D01*
X1879Y1010D02*
X1913Y1010D01*
X2127Y1010D02*
X2161Y1010D01*
X1422Y1009D02*
X1466Y1009D01*
X1522Y1009D02*
X1566Y1009D01*
X1622Y1009D02*
X1666Y1009D01*
X1877Y1009D02*
X1915Y1009D01*
X2125Y1009D02*
X2163Y1009D01*
X1423Y1008D02*
X1465Y1008D01*
X1523Y1008D02*
X1565Y1008D01*
X1623Y1008D02*
X1665Y1008D01*
X1875Y1008D02*
X1917Y1008D01*
X2123Y1008D02*
X2165Y1008D01*
X1424Y1007D02*
X1464Y1007D01*
X1524Y1007D02*
X1564Y1007D01*
X1624Y1007D02*
X1664Y1007D01*
X1874Y1007D02*
X1918Y1007D01*
X2122Y1007D02*
X2166Y1007D01*
X1426Y1006D02*
X1462Y1006D01*
X1526Y1006D02*
X1562Y1006D01*
X1626Y1006D02*
X1662Y1006D01*
X1872Y1006D02*
X1919Y1006D01*
X2120Y1006D02*
X2167Y1006D01*
X1428Y1005D02*
X1460Y1005D01*
X1528Y1005D02*
X1560Y1005D01*
X1628Y1005D02*
X1660Y1005D01*
X1871Y1005D02*
X1921Y1005D01*
X2119Y1005D02*
X2169Y1005D01*
X1430Y1004D02*
X1458Y1004D01*
X1530Y1004D02*
X1558Y1004D01*
X1630Y1004D02*
X1658Y1004D01*
X1870Y1004D02*
X1922Y1004D01*
X2118Y1004D02*
X2170Y1004D01*
X1432Y1003D02*
X1456Y1003D01*
X1532Y1003D02*
X1556Y1003D01*
X1632Y1003D02*
X1656Y1003D01*
X1869Y1003D02*
X1923Y1003D01*
X2117Y1003D02*
X2171Y1003D01*
X1435Y1002D02*
X1453Y1002D01*
X1535Y1002D02*
X1553Y1002D01*
X1635Y1002D02*
X1653Y1002D01*
X1868Y1002D02*
X1924Y1002D01*
X2116Y1002D02*
X2172Y1002D01*
X1439Y1001D02*
X1449Y1001D01*
X1539Y1001D02*
X1549Y1001D01*
X1639Y1001D02*
X1649Y1001D01*
X1867Y1001D02*
X1925Y1001D01*
X2115Y1001D02*
X2173Y1001D01*
X1866Y1000D02*
X1926Y1000D01*
X2114Y1000D02*
X2174Y1000D01*
X1865Y999D02*
X1926Y999D01*
X2113Y999D02*
X2174Y999D01*
X1865Y998D02*
X1927Y998D01*
X2113Y998D02*
X2175Y998D01*
X1864Y997D02*
X1928Y997D01*
X2112Y997D02*
X2176Y997D01*
X1863Y996D02*
X1929Y996D01*
X2111Y996D02*
X2177Y996D01*
X1863Y995D02*
X1929Y995D01*
X2111Y995D02*
X2177Y995D01*
X1862Y994D02*
X1930Y994D01*
X2110Y994D02*
X2178Y994D01*
X1861Y993D02*
X1930Y993D01*
X2109Y993D02*
X2178Y993D01*
X1861Y992D02*
X1931Y992D01*
X2109Y992D02*
X2179Y992D01*
X1860Y991D02*
X1931Y991D01*
X2109Y991D02*
X2179Y991D01*
X1860Y990D02*
X1932Y990D01*
X2108Y990D02*
X2180Y990D01*
X1860Y989D02*
X1932Y989D01*
X2108Y989D02*
X2180Y989D01*
X1859Y988D02*
X1932Y988D01*
X2107Y988D02*
X2180Y988D01*
X1859Y987D02*
X1933Y987D01*
X2107Y987D02*
X2181Y987D01*
X1859Y986D02*
X1933Y986D01*
X2107Y986D02*
X2181Y986D01*
X1858Y985D02*
X1933Y985D01*
X2106Y985D02*
X2181Y985D01*
X1858Y984D02*
X1934Y984D01*
X2106Y984D02*
X2182Y984D01*
X1858Y983D02*
X1934Y983D01*
X2106Y983D02*
X2182Y983D01*
X1858Y982D02*
X1934Y982D01*
X2106Y982D02*
X2182Y982D01*
X1858Y981D02*
X1934Y981D01*
X2106Y981D02*
X2182Y981D01*
X1857Y980D02*
X1934Y980D01*
X2105Y980D02*
X2182Y980D01*
X1857Y979D02*
X1935Y979D01*
X2105Y979D02*
X2183Y979D01*
X1857Y978D02*
X1935Y978D01*
X2105Y978D02*
X2183Y978D01*
X1857Y977D02*
X1935Y977D01*
X2105Y977D02*
X2183Y977D01*
X1857Y976D02*
X1935Y976D01*
X2105Y976D02*
X2183Y976D01*
X1857Y975D02*
X1935Y975D01*
X2105Y975D02*
X2183Y975D01*
X1857Y974D02*
X1935Y974D01*
X2105Y974D02*
X2183Y974D01*
X1857Y973D02*
X1935Y973D01*
X2105Y973D02*
X2183Y973D01*
X1857Y972D02*
X1935Y972D01*
X2105Y972D02*
X2183Y972D01*
X1857Y971D02*
X1935Y971D01*
X2105Y971D02*
X2183Y971D01*
X1857Y970D02*
X1935Y970D01*
X2105Y970D02*
X2183Y970D01*
X1857Y969D02*
X1935Y969D01*
X2105Y969D02*
X2183Y969D01*
X1857Y968D02*
X1935Y968D01*
X2105Y968D02*
X2183Y968D01*
X1857Y967D02*
X1935Y967D01*
X2105Y967D02*
X2183Y967D01*
X1857Y966D02*
X1935Y966D01*
X2105Y966D02*
X2183Y966D01*
X1857Y965D02*
X1935Y965D01*
X2105Y965D02*
X2183Y965D01*
X1857Y964D02*
X1935Y964D01*
X2105Y964D02*
X2183Y964D01*
X1857Y963D02*
X1935Y963D01*
X2105Y963D02*
X2183Y963D01*
X1857Y962D02*
X1935Y962D01*
X2105Y962D02*
X2183Y962D01*
X115Y961D02*
X176Y961D01*
X1113Y961D02*
X1173Y961D01*
X1857Y961D02*
X1935Y961D01*
X2105Y961D02*
X2183Y961D01*
X111Y960D02*
X179Y960D01*
X1109Y960D02*
X1177Y960D01*
X1857Y960D02*
X1935Y960D01*
X2105Y960D02*
X2183Y960D01*
X109Y959D02*
X182Y959D01*
X1107Y959D02*
X1179Y959D01*
X1857Y959D02*
X1935Y959D01*
X2105Y959D02*
X2183Y959D01*
X107Y958D02*
X184Y958D01*
X1105Y958D02*
X1181Y958D01*
X1857Y958D02*
X1935Y958D01*
X2105Y958D02*
X2183Y958D01*
X105Y957D02*
X185Y957D01*
X1103Y957D02*
X1183Y957D01*
X1857Y957D02*
X1935Y957D01*
X2105Y957D02*
X2183Y957D01*
X104Y956D02*
X187Y956D01*
X1102Y956D02*
X1184Y956D01*
X1857Y956D02*
X1935Y956D01*
X2105Y956D02*
X2183Y956D01*
X103Y955D02*
X188Y955D01*
X1100Y955D02*
X1185Y955D01*
X1857Y955D02*
X1894Y955D01*
X1898Y955D02*
X1935Y955D01*
X2105Y955D02*
X2142Y955D01*
X2146Y955D02*
X2183Y955D01*
X102Y954D02*
X189Y954D01*
X1099Y954D02*
X1187Y954D01*
X1857Y954D02*
X1889Y954D01*
X1903Y954D02*
X1935Y954D01*
X2105Y954D02*
X2137Y954D01*
X2151Y954D02*
X2183Y954D01*
X101Y953D02*
X190Y953D01*
X1098Y953D02*
X1188Y953D01*
X1857Y953D02*
X1887Y953D01*
X1905Y953D02*
X1935Y953D01*
X2105Y953D02*
X2135Y953D01*
X2153Y953D02*
X2183Y953D01*
X100Y952D02*
X191Y952D01*
X1098Y952D02*
X1188Y952D01*
X1857Y952D02*
X1885Y952D01*
X1907Y952D02*
X1935Y952D01*
X2105Y952D02*
X2133Y952D01*
X2155Y952D02*
X2183Y952D01*
X99Y951D02*
X141Y951D01*
X150Y951D02*
X192Y951D01*
X1097Y951D02*
X1138Y951D01*
X1146Y951D02*
X1189Y951D01*
X1857Y951D02*
X1883Y951D01*
X1908Y951D02*
X1935Y951D01*
X2105Y951D02*
X2131Y951D01*
X2156Y951D02*
X2183Y951D01*
X98Y950D02*
X138Y950D01*
X153Y950D02*
X192Y950D01*
X1096Y950D02*
X1135Y950D01*
X1149Y950D02*
X1190Y950D01*
X1857Y950D02*
X1882Y950D01*
X1910Y950D02*
X1935Y950D01*
X2105Y950D02*
X2130Y950D01*
X2158Y950D02*
X2183Y950D01*
X98Y949D02*
X136Y949D01*
X154Y949D02*
X193Y949D01*
X1095Y949D02*
X1133Y949D01*
X1151Y949D02*
X1191Y949D01*
X1857Y949D02*
X1881Y949D01*
X1911Y949D02*
X1935Y949D01*
X2105Y949D02*
X2129Y949D01*
X2159Y949D02*
X2183Y949D01*
X97Y948D02*
X135Y948D01*
X156Y948D02*
X193Y948D01*
X1095Y948D02*
X1132Y948D01*
X1153Y948D02*
X1191Y948D01*
X1857Y948D02*
X1880Y948D01*
X1911Y948D02*
X1935Y948D01*
X2105Y948D02*
X2128Y948D01*
X2159Y948D02*
X2183Y948D01*
X97Y947D02*
X134Y947D01*
X157Y947D02*
X194Y947D01*
X1094Y947D02*
X1130Y947D01*
X1154Y947D02*
X1192Y947D01*
X1857Y947D02*
X1879Y947D01*
X1912Y947D02*
X1935Y947D01*
X2105Y947D02*
X2127Y947D01*
X2160Y947D02*
X2183Y947D01*
X96Y946D02*
X133Y946D01*
X158Y946D02*
X195Y946D01*
X1094Y946D02*
X1130Y946D01*
X1155Y946D02*
X1192Y946D01*
X1857Y946D02*
X1879Y946D01*
X1913Y946D02*
X1935Y946D01*
X2105Y946D02*
X2127Y946D01*
X2161Y946D02*
X2183Y946D01*
X96Y945D02*
X132Y945D01*
X159Y945D02*
X195Y945D01*
X1093Y945D02*
X1129Y945D01*
X1156Y945D02*
X1193Y945D01*
X1857Y945D02*
X1878Y945D01*
X1913Y945D02*
X1935Y945D01*
X2105Y945D02*
X2126Y945D01*
X2162Y945D02*
X2183Y945D01*
X95Y944D02*
X131Y944D01*
X160Y944D02*
X195Y944D01*
X1093Y944D02*
X1128Y944D01*
X1156Y944D02*
X1193Y944D01*
X1857Y944D02*
X1878Y944D01*
X1914Y944D02*
X1935Y944D01*
X2105Y944D02*
X2126Y944D01*
X2162Y944D02*
X2183Y944D01*
X95Y943D02*
X131Y943D01*
X160Y943D02*
X196Y943D01*
X1093Y943D02*
X1127Y943D01*
X1157Y943D02*
X1193Y943D01*
X1857Y943D02*
X1877Y943D01*
X1915Y943D02*
X1935Y943D01*
X2105Y943D02*
X2125Y943D01*
X2163Y943D02*
X2183Y943D01*
X95Y942D02*
X130Y942D01*
X161Y942D02*
X196Y942D01*
X1092Y942D02*
X1127Y942D01*
X1157Y942D02*
X1194Y942D01*
X1857Y942D02*
X1877Y942D01*
X1915Y942D02*
X1935Y942D01*
X2105Y942D02*
X2125Y942D01*
X2163Y942D02*
X2183Y942D01*
X94Y941D02*
X130Y941D01*
X161Y941D02*
X196Y941D01*
X1092Y941D02*
X1127Y941D01*
X1158Y941D02*
X1194Y941D01*
X1857Y941D02*
X1877Y941D01*
X1915Y941D02*
X1935Y941D01*
X2105Y941D02*
X2125Y941D01*
X2163Y941D02*
X2183Y941D01*
X94Y940D02*
X129Y940D01*
X161Y940D02*
X196Y940D01*
X1092Y940D02*
X1126Y940D01*
X1158Y940D02*
X1194Y940D01*
X1857Y940D02*
X1876Y940D01*
X1915Y940D02*
X1935Y940D01*
X2105Y940D02*
X2124Y940D01*
X2164Y940D02*
X2183Y940D01*
X94Y939D02*
X129Y939D01*
X162Y939D02*
X197Y939D01*
X1092Y939D02*
X1126Y939D01*
X1158Y939D02*
X1194Y939D01*
X1857Y939D02*
X1876Y939D01*
X1916Y939D02*
X1935Y939D01*
X2105Y939D02*
X2124Y939D01*
X2164Y939D02*
X2183Y939D01*
X94Y938D02*
X129Y938D01*
X162Y938D02*
X197Y938D01*
X1092Y938D02*
X1126Y938D01*
X1159Y938D02*
X1194Y938D01*
X1857Y938D02*
X1876Y938D01*
X1916Y938D02*
X1935Y938D01*
X2105Y938D02*
X2124Y938D01*
X2164Y938D02*
X2183Y938D01*
X94Y937D02*
X129Y937D01*
X162Y937D02*
X197Y937D01*
X1092Y937D02*
X1126Y937D01*
X1159Y937D02*
X1194Y937D01*
X1857Y937D02*
X1876Y937D01*
X1916Y937D02*
X1935Y937D01*
X2105Y937D02*
X2124Y937D01*
X2164Y937D02*
X2183Y937D01*
X94Y936D02*
X129Y936D01*
X162Y936D02*
X197Y936D01*
X1091Y936D02*
X1126Y936D01*
X1159Y936D02*
X1194Y936D01*
X1857Y936D02*
X1876Y936D01*
X1916Y936D02*
X1935Y936D01*
X2105Y936D02*
X2124Y936D01*
X2164Y936D02*
X2183Y936D01*
X94Y935D02*
X129Y935D01*
X162Y935D02*
X197Y935D01*
X1091Y935D02*
X1126Y935D01*
X1159Y935D02*
X1194Y935D01*
X1857Y935D02*
X1876Y935D01*
X1916Y935D02*
X1935Y935D01*
X2105Y935D02*
X2124Y935D01*
X2164Y935D02*
X2183Y935D01*
X94Y934D02*
X129Y934D01*
X162Y934D02*
X197Y934D01*
X1092Y934D02*
X1126Y934D01*
X1159Y934D02*
X1194Y934D01*
X1857Y934D02*
X1876Y934D01*
X1916Y934D02*
X1935Y934D01*
X2105Y934D02*
X2124Y934D01*
X2164Y934D02*
X2183Y934D01*
X94Y933D02*
X129Y933D01*
X162Y933D02*
X197Y933D01*
X1092Y933D02*
X1126Y933D01*
X1159Y933D02*
X1194Y933D01*
X1857Y933D02*
X1876Y933D01*
X1916Y933D02*
X1935Y933D01*
X2105Y933D02*
X2124Y933D01*
X2164Y933D02*
X2183Y933D01*
X94Y932D02*
X129Y932D01*
X162Y932D02*
X197Y932D01*
X1092Y932D02*
X1126Y932D01*
X1158Y932D02*
X1194Y932D01*
X1857Y932D02*
X1876Y932D01*
X1916Y932D02*
X1935Y932D01*
X2105Y932D02*
X2124Y932D01*
X2164Y932D02*
X2183Y932D01*
X94Y931D02*
X129Y931D01*
X161Y931D02*
X196Y931D01*
X1092Y931D02*
X1126Y931D01*
X1158Y931D02*
X1194Y931D01*
X1857Y931D02*
X1876Y931D01*
X1915Y931D02*
X1935Y931D01*
X2105Y931D02*
X2124Y931D01*
X2164Y931D02*
X2183Y931D01*
X94Y930D02*
X130Y930D01*
X161Y930D02*
X196Y930D01*
X1092Y930D02*
X1126Y930D01*
X1158Y930D02*
X1194Y930D01*
X1857Y930D02*
X1877Y930D01*
X1915Y930D02*
X1935Y930D01*
X2105Y930D02*
X2125Y930D01*
X2163Y930D02*
X2183Y930D01*
X95Y929D02*
X130Y929D01*
X161Y929D02*
X196Y929D01*
X1092Y929D02*
X1127Y929D01*
X1158Y929D02*
X1194Y929D01*
X1857Y929D02*
X1877Y929D01*
X1915Y929D02*
X1935Y929D01*
X2105Y929D02*
X2125Y929D01*
X2163Y929D02*
X2183Y929D01*
X95Y928D02*
X131Y928D01*
X160Y928D02*
X196Y928D01*
X1093Y928D02*
X1127Y928D01*
X1157Y928D02*
X1193Y928D01*
X1857Y928D02*
X1877Y928D01*
X1915Y928D02*
X1935Y928D01*
X2105Y928D02*
X2125Y928D01*
X2163Y928D02*
X2183Y928D01*
X95Y927D02*
X131Y927D01*
X160Y927D02*
X195Y927D01*
X1093Y927D02*
X1128Y927D01*
X1156Y927D02*
X1193Y927D01*
X1857Y927D02*
X1878Y927D01*
X1914Y927D02*
X1935Y927D01*
X2105Y927D02*
X2126Y927D01*
X2162Y927D02*
X2183Y927D01*
X96Y926D02*
X132Y926D01*
X159Y926D02*
X195Y926D01*
X1093Y926D02*
X1129Y926D01*
X1156Y926D02*
X1193Y926D01*
X1857Y926D02*
X1878Y926D01*
X1914Y926D02*
X1935Y926D01*
X2105Y926D02*
X2126Y926D01*
X2162Y926D02*
X2183Y926D01*
X96Y925D02*
X133Y925D01*
X158Y925D02*
X195Y925D01*
X1094Y925D02*
X1129Y925D01*
X1155Y925D02*
X1192Y925D01*
X1857Y925D02*
X1879Y925D01*
X1913Y925D02*
X1935Y925D01*
X2105Y925D02*
X2127Y925D01*
X2161Y925D02*
X2183Y925D01*
X97Y924D02*
X134Y924D01*
X157Y924D02*
X194Y924D01*
X1094Y924D02*
X1130Y924D01*
X1154Y924D02*
X1192Y924D01*
X1857Y924D02*
X1879Y924D01*
X1912Y924D02*
X1935Y924D01*
X2105Y924D02*
X2127Y924D01*
X2160Y924D02*
X2183Y924D01*
X97Y923D02*
X135Y923D01*
X156Y923D02*
X194Y923D01*
X1095Y923D02*
X1131Y923D01*
X1153Y923D02*
X1191Y923D01*
X1857Y923D02*
X1880Y923D01*
X1911Y923D02*
X1935Y923D01*
X2105Y923D02*
X2128Y923D01*
X2159Y923D02*
X2183Y923D01*
X98Y922D02*
X136Y922D01*
X155Y922D02*
X193Y922D01*
X1095Y922D02*
X1133Y922D01*
X1151Y922D02*
X1191Y922D01*
X1857Y922D02*
X1881Y922D01*
X1911Y922D02*
X1935Y922D01*
X2105Y922D02*
X2129Y922D01*
X2159Y922D02*
X2183Y922D01*
X98Y921D02*
X138Y921D01*
X153Y921D02*
X192Y921D01*
X1096Y921D02*
X1135Y921D01*
X1150Y921D02*
X1190Y921D01*
X1857Y921D02*
X1882Y921D01*
X1910Y921D02*
X1935Y921D01*
X2105Y921D02*
X2130Y921D01*
X2158Y921D02*
X2183Y921D01*
X99Y920D02*
X141Y920D01*
X150Y920D02*
X192Y920D01*
X1097Y920D02*
X1137Y920D01*
X1147Y920D02*
X1189Y920D01*
X1857Y920D02*
X1883Y920D01*
X1908Y920D02*
X1935Y920D01*
X2105Y920D02*
X2131Y920D01*
X2156Y920D02*
X2183Y920D01*
X100Y919D02*
X191Y919D01*
X1097Y919D02*
X1188Y919D01*
X1857Y919D02*
X1885Y919D01*
X1907Y919D02*
X1935Y919D01*
X2105Y919D02*
X2133Y919D01*
X2155Y919D02*
X2183Y919D01*
X101Y918D02*
X190Y918D01*
X1098Y918D02*
X1188Y918D01*
X1857Y918D02*
X1886Y918D01*
X1905Y918D02*
X1935Y918D01*
X2105Y918D02*
X2135Y918D01*
X2153Y918D02*
X2183Y918D01*
X102Y917D02*
X189Y917D01*
X1099Y917D02*
X1187Y917D01*
X1857Y917D02*
X1889Y917D01*
X1903Y917D02*
X1935Y917D01*
X2105Y917D02*
X2137Y917D01*
X2151Y917D02*
X2183Y917D01*
X103Y916D02*
X188Y916D01*
X1100Y916D02*
X1185Y916D01*
X1857Y916D02*
X1893Y916D01*
X1898Y916D02*
X1935Y916D01*
X2105Y916D02*
X2141Y916D01*
X2146Y916D02*
X2183Y916D01*
X104Y915D02*
X187Y915D01*
X1102Y915D02*
X1184Y915D01*
X1857Y915D02*
X1935Y915D01*
X2105Y915D02*
X2183Y915D01*
X105Y914D02*
X185Y914D01*
X1103Y914D02*
X1183Y914D01*
X1857Y914D02*
X1935Y914D01*
X2105Y914D02*
X2183Y914D01*
X107Y913D02*
X184Y913D01*
X1105Y913D02*
X1181Y913D01*
X1857Y913D02*
X1935Y913D01*
X2105Y913D02*
X2183Y913D01*
X109Y912D02*
X182Y912D01*
X1106Y912D02*
X1179Y912D01*
X1857Y912D02*
X1935Y912D01*
X2105Y912D02*
X2183Y912D01*
X111Y911D02*
X180Y911D01*
X1109Y911D02*
X1177Y911D01*
X1857Y911D02*
X1935Y911D01*
X2105Y911D02*
X2183Y911D01*
X115Y910D02*
X176Y910D01*
X1112Y910D02*
X1174Y910D01*
X1857Y910D02*
X1935Y910D01*
X2105Y910D02*
X2183Y910D01*
X1857Y909D02*
X1935Y909D01*
X2105Y909D02*
X2183Y909D01*
X1857Y908D02*
X1935Y908D01*
X2105Y908D02*
X2183Y908D01*
X1857Y907D02*
X1935Y907D01*
X2105Y907D02*
X2183Y907D01*
X1857Y906D02*
X1935Y906D01*
X2105Y906D02*
X2183Y906D01*
X1857Y905D02*
X1935Y905D01*
X2105Y905D02*
X2183Y905D01*
X1857Y904D02*
X1935Y904D01*
X2105Y904D02*
X2183Y904D01*
X1857Y903D02*
X1935Y903D01*
X2105Y903D02*
X2183Y903D01*
X1857Y902D02*
X1935Y902D01*
X2105Y902D02*
X2183Y902D01*
X1857Y901D02*
X1935Y901D01*
X2105Y901D02*
X2183Y901D01*
X1857Y900D02*
X1935Y900D01*
X2105Y900D02*
X2183Y900D01*
X1857Y899D02*
X1935Y899D01*
X2105Y899D02*
X2183Y899D01*
X1857Y898D02*
X1935Y898D01*
X2105Y898D02*
X2183Y898D01*
X1857Y897D02*
X1935Y897D01*
X2105Y897D02*
X2183Y897D01*
X1857Y896D02*
X1935Y896D01*
X2105Y896D02*
X2183Y896D01*
X1857Y895D02*
X1935Y895D01*
X2105Y895D02*
X2183Y895D01*
X1857Y894D02*
X1935Y894D01*
X2105Y894D02*
X2183Y894D01*
X1857Y893D02*
X1935Y893D01*
X2105Y893D02*
X2183Y893D01*
X1857Y892D02*
X1935Y892D01*
X2105Y892D02*
X2183Y892D01*
X1857Y891D02*
X1934Y891D01*
X2105Y891D02*
X2182Y891D01*
X1858Y890D02*
X1934Y890D01*
X2106Y890D02*
X2182Y890D01*
X1858Y889D02*
X1934Y889D01*
X2106Y889D02*
X2182Y889D01*
X1858Y888D02*
X1934Y888D01*
X2106Y888D02*
X2182Y888D01*
X1858Y887D02*
X1934Y887D01*
X2106Y887D02*
X2182Y887D01*
X1858Y886D02*
X1933Y886D01*
X2106Y886D02*
X2181Y886D01*
X1859Y885D02*
X1933Y885D01*
X2107Y885D02*
X2181Y885D01*
X1859Y884D02*
X1933Y884D01*
X2107Y884D02*
X2181Y884D01*
X1859Y883D02*
X1932Y883D01*
X2107Y883D02*
X2180Y883D01*
X1860Y882D02*
X1932Y882D01*
X2108Y882D02*
X2180Y882D01*
X1860Y881D02*
X1932Y881D01*
X2108Y881D02*
X2180Y881D01*
X1860Y880D02*
X1931Y880D01*
X2109Y880D02*
X2179Y880D01*
X1861Y879D02*
X1931Y879D01*
X2109Y879D02*
X2179Y879D01*
X1861Y878D02*
X1930Y878D01*
X2109Y878D02*
X2178Y878D01*
X1862Y877D02*
X1930Y877D01*
X2110Y877D02*
X2178Y877D01*
X1863Y876D02*
X1929Y876D01*
X2111Y876D02*
X2177Y876D01*
X1863Y875D02*
X1929Y875D01*
X2111Y875D02*
X2177Y875D01*
X1864Y874D02*
X1928Y874D01*
X2112Y874D02*
X2176Y874D01*
X1865Y873D02*
X1927Y873D01*
X2113Y873D02*
X2175Y873D01*
X1865Y872D02*
X1926Y872D01*
X2113Y872D02*
X2174Y872D01*
X1866Y871D02*
X1926Y871D01*
X2114Y871D02*
X2174Y871D01*
X1867Y870D02*
X1925Y870D01*
X2115Y870D02*
X2173Y870D01*
X1868Y869D02*
X1924Y869D01*
X2116Y869D02*
X2172Y869D01*
X1869Y868D02*
X1923Y868D01*
X2117Y868D02*
X2171Y868D01*
X1870Y867D02*
X1922Y867D01*
X2118Y867D02*
X2170Y867D01*
X1871Y866D02*
X1921Y866D01*
X2119Y866D02*
X2169Y866D01*
X1872Y865D02*
X1919Y865D01*
X2120Y865D02*
X2167Y865D01*
X1874Y864D02*
X1918Y864D01*
X2122Y864D02*
X2166Y864D01*
X1875Y863D02*
X1917Y863D01*
X2123Y863D02*
X2165Y863D01*
X1877Y862D02*
X1915Y862D01*
X2125Y862D02*
X2163Y862D01*
X115Y861D02*
X176Y861D01*
X1113Y861D02*
X1173Y861D01*
X1879Y861D02*
X1913Y861D01*
X2127Y861D02*
X2161Y861D01*
X111Y860D02*
X179Y860D01*
X1109Y860D02*
X1177Y860D01*
X1881Y860D02*
X1911Y860D01*
X2129Y860D02*
X2159Y860D01*
X109Y859D02*
X182Y859D01*
X1107Y859D02*
X1179Y859D01*
X1883Y859D02*
X1908Y859D01*
X2131Y859D02*
X2156Y859D01*
X107Y858D02*
X184Y858D01*
X1105Y858D02*
X1181Y858D01*
X1887Y858D02*
X1905Y858D01*
X2135Y858D02*
X2153Y858D01*
X105Y857D02*
X185Y857D01*
X1103Y857D02*
X1183Y857D01*
X1892Y857D02*
X1900Y857D01*
X2140Y857D02*
X2148Y857D01*
X104Y856D02*
X187Y856D01*
X1102Y856D02*
X1184Y856D01*
X103Y855D02*
X188Y855D01*
X1100Y855D02*
X1185Y855D01*
X102Y854D02*
X189Y854D01*
X1099Y854D02*
X1187Y854D01*
X101Y853D02*
X190Y853D01*
X1098Y853D02*
X1187Y853D01*
X100Y852D02*
X191Y852D01*
X1098Y852D02*
X1188Y852D01*
X99Y851D02*
X141Y851D01*
X150Y851D02*
X192Y851D01*
X1097Y851D02*
X1138Y851D01*
X1146Y851D02*
X1189Y851D01*
X98Y850D02*
X138Y850D01*
X153Y850D02*
X192Y850D01*
X1096Y850D02*
X1135Y850D01*
X1149Y850D02*
X1190Y850D01*
X98Y849D02*
X136Y849D01*
X154Y849D02*
X193Y849D01*
X1095Y849D02*
X1133Y849D01*
X1151Y849D02*
X1190Y849D01*
X97Y848D02*
X135Y848D01*
X156Y848D02*
X193Y848D01*
X1095Y848D02*
X1132Y848D01*
X1153Y848D02*
X1191Y848D01*
X97Y847D02*
X134Y847D01*
X157Y847D02*
X194Y847D01*
X1094Y847D02*
X1130Y847D01*
X1154Y847D02*
X1192Y847D01*
X96Y846D02*
X133Y846D01*
X158Y846D02*
X195Y846D01*
X1094Y846D02*
X1129Y846D01*
X1155Y846D02*
X1192Y846D01*
X96Y845D02*
X132Y845D01*
X159Y845D02*
X195Y845D01*
X1093Y845D02*
X1129Y845D01*
X1156Y845D02*
X1193Y845D01*
X95Y844D02*
X131Y844D01*
X160Y844D02*
X195Y844D01*
X1093Y844D02*
X1128Y844D01*
X1156Y844D02*
X1193Y844D01*
X95Y843D02*
X131Y843D01*
X160Y843D02*
X196Y843D01*
X1093Y843D02*
X1127Y843D01*
X1157Y843D02*
X1193Y843D01*
X95Y842D02*
X130Y842D01*
X161Y842D02*
X196Y842D01*
X1092Y842D02*
X1127Y842D01*
X1157Y842D02*
X1194Y842D01*
X94Y841D02*
X130Y841D01*
X161Y841D02*
X196Y841D01*
X1092Y841D02*
X1126Y841D01*
X1158Y841D02*
X1194Y841D01*
X94Y840D02*
X129Y840D01*
X161Y840D02*
X196Y840D01*
X1092Y840D02*
X1126Y840D01*
X1158Y840D02*
X1194Y840D01*
X94Y839D02*
X129Y839D01*
X162Y839D02*
X197Y839D01*
X1092Y839D02*
X1126Y839D01*
X1158Y839D02*
X1194Y839D01*
X94Y838D02*
X129Y838D01*
X162Y838D02*
X197Y838D01*
X1092Y838D02*
X1126Y838D01*
X1159Y838D02*
X1194Y838D01*
X94Y837D02*
X129Y837D01*
X162Y837D02*
X197Y837D01*
X1092Y837D02*
X1126Y837D01*
X1159Y837D02*
X1194Y837D01*
X94Y836D02*
X129Y836D01*
X162Y836D02*
X197Y836D01*
X1091Y836D02*
X1126Y836D01*
X1159Y836D02*
X1194Y836D01*
X94Y835D02*
X129Y835D01*
X162Y835D02*
X197Y835D01*
X1091Y835D02*
X1125Y835D01*
X1159Y835D02*
X1194Y835D01*
X94Y834D02*
X129Y834D01*
X162Y834D02*
X197Y834D01*
X1092Y834D02*
X1126Y834D01*
X1159Y834D02*
X1194Y834D01*
X94Y833D02*
X129Y833D01*
X162Y833D02*
X197Y833D01*
X1092Y833D02*
X1126Y833D01*
X1159Y833D02*
X1194Y833D01*
X94Y832D02*
X129Y832D01*
X162Y832D02*
X197Y832D01*
X1092Y832D02*
X1126Y832D01*
X1158Y832D02*
X1194Y832D01*
X94Y831D02*
X129Y831D01*
X161Y831D02*
X196Y831D01*
X1092Y831D02*
X1126Y831D01*
X1158Y831D02*
X1194Y831D01*
X94Y830D02*
X130Y830D01*
X161Y830D02*
X196Y830D01*
X1092Y830D02*
X1126Y830D01*
X1158Y830D02*
X1194Y830D01*
X95Y829D02*
X130Y829D01*
X161Y829D02*
X196Y829D01*
X1092Y829D02*
X1127Y829D01*
X1157Y829D02*
X1194Y829D01*
X95Y828D02*
X131Y828D01*
X160Y828D02*
X196Y828D01*
X1093Y828D02*
X1127Y828D01*
X1157Y828D02*
X1193Y828D01*
X95Y827D02*
X131Y827D01*
X160Y827D02*
X195Y827D01*
X1093Y827D02*
X1128Y827D01*
X1156Y827D02*
X1193Y827D01*
X96Y826D02*
X132Y826D01*
X159Y826D02*
X195Y826D01*
X1093Y826D02*
X1129Y826D01*
X1156Y826D02*
X1193Y826D01*
X96Y825D02*
X133Y825D01*
X158Y825D02*
X195Y825D01*
X1094Y825D02*
X1129Y825D01*
X1155Y825D02*
X1192Y825D01*
X97Y824D02*
X134Y824D01*
X157Y824D02*
X194Y824D01*
X1094Y824D02*
X1130Y824D01*
X1154Y824D02*
X1192Y824D01*
X97Y823D02*
X135Y823D01*
X156Y823D02*
X194Y823D01*
X1095Y823D02*
X1131Y823D01*
X1153Y823D02*
X1191Y823D01*
X98Y822D02*
X136Y822D01*
X155Y822D02*
X193Y822D01*
X1095Y822D02*
X1133Y822D01*
X1151Y822D02*
X1191Y822D01*
X98Y821D02*
X138Y821D01*
X153Y821D02*
X192Y821D01*
X1096Y821D02*
X1135Y821D01*
X1150Y821D02*
X1190Y821D01*
X99Y820D02*
X141Y820D01*
X150Y820D02*
X192Y820D01*
X1097Y820D02*
X1137Y820D01*
X1147Y820D02*
X1189Y820D01*
X100Y819D02*
X191Y819D01*
X1097Y819D02*
X1188Y819D01*
X101Y818D02*
X190Y818D01*
X1098Y818D02*
X1188Y818D01*
X102Y817D02*
X189Y817D01*
X1099Y817D02*
X1187Y817D01*
X103Y816D02*
X188Y816D01*
X1100Y816D02*
X1185Y816D01*
X104Y815D02*
X187Y815D01*
X1102Y815D02*
X1184Y815D01*
X105Y814D02*
X185Y814D01*
X1103Y814D02*
X1183Y814D01*
X107Y813D02*
X184Y813D01*
X1105Y813D02*
X1181Y813D01*
X109Y812D02*
X182Y812D01*
X1106Y812D02*
X1179Y812D01*
X111Y811D02*
X180Y811D01*
X1109Y811D02*
X1177Y811D01*
X115Y810D02*
X176Y810D01*
X1112Y810D02*
X1173Y810D01*
X115Y761D02*
X176Y761D01*
X1112Y761D02*
X1173Y761D01*
X111Y760D02*
X179Y760D01*
X1109Y760D02*
X1177Y760D01*
X109Y759D02*
X182Y759D01*
X1106Y759D02*
X1179Y759D01*
X107Y758D02*
X184Y758D01*
X1105Y758D02*
X1181Y758D01*
X105Y757D02*
X185Y757D01*
X1103Y757D02*
X1183Y757D01*
X104Y756D02*
X187Y756D01*
X1102Y756D02*
X1184Y756D01*
X103Y755D02*
X188Y755D01*
X1100Y755D02*
X1185Y755D01*
X102Y754D02*
X189Y754D01*
X1099Y754D02*
X1186Y754D01*
X101Y753D02*
X190Y753D01*
X1098Y753D02*
X1187Y753D01*
X100Y752D02*
X191Y752D01*
X1097Y752D02*
X1188Y752D01*
X99Y751D02*
X141Y751D01*
X149Y751D02*
X192Y751D01*
X1097Y751D02*
X1138Y751D01*
X1146Y751D02*
X1189Y751D01*
X98Y750D02*
X138Y750D01*
X152Y750D02*
X192Y750D01*
X1096Y750D02*
X1135Y750D01*
X1149Y750D02*
X1190Y750D01*
X98Y749D02*
X137Y749D01*
X154Y749D02*
X193Y749D01*
X1095Y749D02*
X1133Y749D01*
X1151Y749D02*
X1190Y749D01*
X97Y748D02*
X135Y748D01*
X156Y748D02*
X193Y748D01*
X1095Y748D02*
X1132Y748D01*
X1152Y748D02*
X1191Y748D01*
X97Y747D02*
X134Y747D01*
X157Y747D02*
X194Y747D01*
X1094Y747D02*
X1131Y747D01*
X1154Y747D02*
X1191Y747D01*
X96Y746D02*
X133Y746D01*
X158Y746D02*
X195Y746D01*
X1094Y746D02*
X1130Y746D01*
X1154Y746D02*
X1192Y746D01*
X96Y745D02*
X132Y745D01*
X159Y745D02*
X195Y745D01*
X1093Y745D02*
X1129Y745D01*
X1155Y745D02*
X1192Y745D01*
X95Y744D02*
X131Y744D01*
X159Y744D02*
X195Y744D01*
X1093Y744D02*
X1128Y744D01*
X1156Y744D02*
X1193Y744D01*
X95Y743D02*
X131Y743D01*
X160Y743D02*
X196Y743D01*
X1092Y743D02*
X1128Y743D01*
X1157Y743D02*
X1193Y743D01*
X95Y742D02*
X130Y742D01*
X160Y742D02*
X196Y742D01*
X1092Y742D02*
X1127Y742D01*
X1157Y742D02*
X1193Y742D01*
X94Y741D02*
X130Y741D01*
X161Y741D02*
X196Y741D01*
X1092Y741D02*
X1127Y741D01*
X1157Y741D02*
X1194Y741D01*
X94Y740D02*
X130Y740D01*
X161Y740D02*
X196Y740D01*
X1092Y740D02*
X1126Y740D01*
X1158Y740D02*
X1194Y740D01*
X94Y739D02*
X129Y739D01*
X161Y739D02*
X197Y739D01*
X1092Y739D02*
X1126Y739D01*
X1158Y739D02*
X1194Y739D01*
X94Y738D02*
X129Y738D01*
X162Y738D02*
X197Y738D01*
X1091Y738D02*
X1126Y738D01*
X1158Y738D02*
X1194Y738D01*
X94Y737D02*
X129Y737D01*
X162Y737D02*
X197Y737D01*
X1091Y737D02*
X1126Y737D01*
X1158Y737D02*
X1194Y737D01*
X94Y736D02*
X129Y736D01*
X162Y736D02*
X197Y736D01*
X1091Y736D02*
X1126Y736D01*
X1158Y736D02*
X1194Y736D01*
X94Y735D02*
X129Y735D01*
X162Y735D02*
X197Y735D01*
X1091Y735D02*
X1126Y735D01*
X1159Y735D02*
X1194Y735D01*
X94Y734D02*
X129Y734D01*
X162Y734D02*
X197Y734D01*
X1091Y734D02*
X1126Y734D01*
X1158Y734D02*
X1194Y734D01*
X94Y733D02*
X129Y733D01*
X162Y733D02*
X197Y733D01*
X1091Y733D02*
X1126Y733D01*
X1158Y733D02*
X1194Y733D01*
X94Y732D02*
X129Y732D01*
X162Y732D02*
X197Y732D01*
X1092Y732D02*
X1126Y732D01*
X1158Y732D02*
X1194Y732D01*
X94Y731D02*
X130Y731D01*
X161Y731D02*
X196Y731D01*
X1092Y731D02*
X1126Y731D01*
X1158Y731D02*
X1194Y731D01*
X94Y730D02*
X130Y730D01*
X161Y730D02*
X196Y730D01*
X1092Y730D02*
X1127Y730D01*
X1158Y730D02*
X1194Y730D01*
X95Y729D02*
X130Y729D01*
X161Y729D02*
X196Y729D01*
X1092Y729D02*
X1127Y729D01*
X1157Y729D02*
X1193Y729D01*
X95Y728D02*
X131Y728D01*
X160Y728D02*
X196Y728D01*
X1092Y728D02*
X1127Y728D01*
X1157Y728D02*
X1193Y728D01*
X95Y727D02*
X131Y727D01*
X159Y727D02*
X195Y727D01*
X1093Y727D02*
X1128Y727D01*
X1156Y727D02*
X1193Y727D01*
X96Y726D02*
X132Y726D01*
X159Y726D02*
X195Y726D01*
X1093Y726D02*
X1129Y726D01*
X1155Y726D02*
X1192Y726D01*
X96Y725D02*
X133Y725D01*
X158Y725D02*
X195Y725D01*
X1094Y725D02*
X1130Y725D01*
X1155Y725D02*
X1192Y725D01*
X97Y724D02*
X134Y724D01*
X157Y724D02*
X194Y724D01*
X1094Y724D02*
X1130Y724D01*
X1154Y724D02*
X1192Y724D01*
X97Y723D02*
X135Y723D01*
X156Y723D02*
X194Y723D01*
X1095Y723D02*
X1132Y723D01*
X1153Y723D02*
X1191Y723D01*
X98Y722D02*
X136Y722D01*
X155Y722D02*
X193Y722D01*
X1095Y722D02*
X1133Y722D01*
X1151Y722D02*
X1190Y722D01*
X98Y721D02*
X138Y721D01*
X153Y721D02*
X192Y721D01*
X1096Y721D02*
X1135Y721D01*
X1149Y721D02*
X1190Y721D01*
X99Y720D02*
X141Y720D01*
X150Y720D02*
X192Y720D01*
X1097Y720D02*
X1138Y720D01*
X1147Y720D02*
X1189Y720D01*
X100Y719D02*
X191Y719D01*
X1097Y719D02*
X1188Y719D01*
X101Y718D02*
X190Y718D01*
X1098Y718D02*
X1187Y718D01*
X102Y717D02*
X189Y717D01*
X1099Y717D02*
X1187Y717D01*
X103Y716D02*
X188Y716D01*
X1100Y716D02*
X1185Y716D01*
X104Y715D02*
X187Y715D01*
X1102Y715D02*
X1184Y715D01*
X105Y714D02*
X185Y714D01*
X1103Y714D02*
X1183Y714D01*
X107Y713D02*
X184Y713D01*
X1105Y713D02*
X1181Y713D01*
X109Y712D02*
X182Y712D01*
X1106Y712D02*
X1179Y712D01*
X111Y711D02*
X180Y711D01*
X1109Y711D02*
X1177Y711D01*
X115Y710D02*
X176Y710D01*
X1112Y710D02*
X1173Y710D01*
X1968Y671D02*
X2060Y671D01*
X1439Y670D02*
X1449Y670D01*
X1539Y670D02*
X1549Y670D01*
X1639Y670D02*
X1649Y670D01*
X1964Y670D02*
X2064Y670D01*
X1435Y669D02*
X1453Y669D01*
X1535Y669D02*
X1553Y669D01*
X1635Y669D02*
X1653Y669D01*
X1961Y669D02*
X2067Y669D01*
X1432Y668D02*
X1456Y668D01*
X1532Y668D02*
X1556Y668D01*
X1632Y668D02*
X1656Y668D01*
X1959Y668D02*
X2069Y668D01*
X1430Y667D02*
X1458Y667D01*
X1530Y667D02*
X1558Y667D01*
X1630Y667D02*
X1658Y667D01*
X1956Y667D02*
X2072Y667D01*
X1428Y666D02*
X1460Y666D01*
X1528Y666D02*
X1560Y666D01*
X1628Y666D02*
X1660Y666D01*
X1955Y666D02*
X2073Y666D01*
X1426Y665D02*
X1462Y665D01*
X1526Y665D02*
X1562Y665D01*
X1626Y665D02*
X1662Y665D01*
X1953Y665D02*
X2075Y665D01*
X1424Y664D02*
X1464Y664D01*
X1524Y664D02*
X1564Y664D01*
X1624Y664D02*
X1664Y664D01*
X1952Y664D02*
X2076Y664D01*
X1423Y663D02*
X1465Y663D01*
X1523Y663D02*
X1565Y663D01*
X1623Y663D02*
X1665Y663D01*
X1950Y663D02*
X2078Y663D01*
X1422Y662D02*
X1466Y662D01*
X1522Y662D02*
X1566Y662D01*
X1622Y662D02*
X1666Y662D01*
X1949Y662D02*
X2079Y662D01*
X1421Y661D02*
X1467Y661D01*
X1521Y661D02*
X1567Y661D01*
X1621Y661D02*
X1667Y661D01*
X1948Y661D02*
X2080Y661D01*
X1419Y660D02*
X1468Y660D01*
X1519Y660D02*
X1568Y660D01*
X1619Y660D02*
X1668Y660D01*
X1947Y660D02*
X2081Y660D01*
X1419Y659D02*
X1469Y659D01*
X1519Y659D02*
X1569Y659D01*
X1619Y659D02*
X1669Y659D01*
X1946Y659D02*
X2082Y659D01*
X1418Y658D02*
X1470Y658D01*
X1518Y658D02*
X1570Y658D01*
X1618Y658D02*
X1670Y658D01*
X1945Y658D02*
X2083Y658D01*
X1417Y657D02*
X1471Y657D01*
X1517Y657D02*
X1571Y657D01*
X1617Y657D02*
X1671Y657D01*
X1944Y657D02*
X2084Y657D01*
X1416Y656D02*
X1472Y656D01*
X1516Y656D02*
X1572Y656D01*
X1616Y656D02*
X1672Y656D01*
X1944Y656D02*
X2084Y656D01*
X1415Y655D02*
X1472Y655D01*
X1515Y655D02*
X1572Y655D01*
X1615Y655D02*
X1672Y655D01*
X1943Y655D02*
X2085Y655D01*
X1415Y654D02*
X1473Y654D01*
X1515Y654D02*
X1573Y654D01*
X1615Y654D02*
X1673Y654D01*
X1942Y654D02*
X2086Y654D01*
X1414Y653D02*
X1474Y653D01*
X1514Y653D02*
X1574Y653D01*
X1614Y653D02*
X1674Y653D01*
X1942Y653D02*
X2086Y653D01*
X1414Y652D02*
X1474Y652D01*
X1514Y652D02*
X1574Y652D01*
X1614Y652D02*
X1674Y652D01*
X1941Y652D02*
X2087Y652D01*
X1413Y651D02*
X1475Y651D01*
X1513Y651D02*
X1575Y651D01*
X1613Y651D02*
X1675Y651D01*
X1940Y651D02*
X2008Y651D01*
X2020Y651D02*
X2088Y651D01*
X1413Y650D02*
X1439Y650D01*
X1449Y650D02*
X1475Y650D01*
X1513Y650D02*
X1539Y650D01*
X1549Y650D02*
X1575Y650D01*
X1613Y650D02*
X1639Y650D01*
X1649Y650D02*
X1675Y650D01*
X1940Y650D02*
X2005Y650D01*
X2023Y650D02*
X2088Y650D01*
X1412Y649D02*
X1437Y649D01*
X1451Y649D02*
X1475Y649D01*
X1512Y649D02*
X1537Y649D01*
X1551Y649D02*
X1575Y649D01*
X1612Y649D02*
X1637Y649D01*
X1651Y649D02*
X1675Y649D01*
X1939Y649D02*
X2003Y649D01*
X2025Y649D02*
X2088Y649D01*
X1412Y648D02*
X1435Y648D01*
X1453Y648D02*
X1476Y648D01*
X1512Y648D02*
X1535Y648D01*
X1553Y648D02*
X1576Y648D01*
X1612Y648D02*
X1635Y648D01*
X1653Y648D02*
X1676Y648D01*
X1939Y648D02*
X2002Y648D01*
X2026Y648D02*
X2089Y648D01*
X1412Y647D02*
X1434Y647D01*
X1454Y647D02*
X1476Y647D01*
X1512Y647D02*
X1534Y647D01*
X1554Y647D02*
X1576Y647D01*
X1612Y647D02*
X1634Y647D01*
X1654Y647D02*
X1676Y647D01*
X1939Y647D02*
X2000Y647D01*
X2027Y647D02*
X2089Y647D01*
X1411Y646D02*
X1433Y646D01*
X1455Y646D02*
X1477Y646D01*
X1511Y646D02*
X1533Y646D01*
X1555Y646D02*
X1577Y646D01*
X1611Y646D02*
X1633Y646D01*
X1655Y646D02*
X1677Y646D01*
X1938Y646D02*
X1999Y646D01*
X2029Y646D02*
X2090Y646D01*
X1411Y645D02*
X1432Y645D01*
X1456Y645D02*
X1477Y645D01*
X1511Y645D02*
X1532Y645D01*
X1556Y645D02*
X1577Y645D01*
X1611Y645D02*
X1632Y645D01*
X1656Y645D02*
X1677Y645D01*
X1938Y645D02*
X1999Y645D01*
X2029Y645D02*
X2090Y645D01*
X1411Y644D02*
X1431Y644D01*
X1457Y644D02*
X1477Y644D01*
X1511Y644D02*
X1531Y644D01*
X1557Y644D02*
X1577Y644D01*
X1611Y644D02*
X1631Y644D01*
X1657Y644D02*
X1677Y644D01*
X1938Y644D02*
X1998Y644D01*
X2030Y644D02*
X2090Y644D01*
X1410Y643D02*
X1430Y643D01*
X1457Y643D02*
X1477Y643D01*
X1510Y643D02*
X1530Y643D01*
X1557Y643D02*
X1577Y643D01*
X1610Y643D02*
X1630Y643D01*
X1657Y643D02*
X1677Y643D01*
X1937Y643D02*
X1997Y643D01*
X2031Y643D02*
X2091Y643D01*
X1410Y642D02*
X1430Y642D01*
X1458Y642D02*
X1478Y642D01*
X1510Y642D02*
X1530Y642D01*
X1558Y642D02*
X1578Y642D01*
X1610Y642D02*
X1630Y642D01*
X1658Y642D02*
X1678Y642D01*
X1937Y642D02*
X1996Y642D01*
X2032Y642D02*
X2091Y642D01*
X1410Y641D02*
X1429Y641D01*
X1459Y641D02*
X1478Y641D01*
X1510Y641D02*
X1529Y641D01*
X1559Y641D02*
X1578Y641D01*
X1610Y641D02*
X1629Y641D01*
X1659Y641D02*
X1678Y641D01*
X1937Y641D02*
X1996Y641D01*
X2032Y641D02*
X2091Y641D01*
X1410Y640D02*
X1429Y640D01*
X1459Y640D02*
X1478Y640D01*
X1510Y640D02*
X1529Y640D01*
X1559Y640D02*
X1578Y640D01*
X1610Y640D02*
X1629Y640D01*
X1659Y640D02*
X1678Y640D01*
X1936Y640D02*
X1995Y640D01*
X2033Y640D02*
X2091Y640D01*
X1410Y639D02*
X1429Y639D01*
X1459Y639D02*
X1478Y639D01*
X1510Y639D02*
X1529Y639D01*
X1559Y639D02*
X1578Y639D01*
X1610Y639D02*
X1629Y639D01*
X1659Y639D02*
X1678Y639D01*
X1936Y639D02*
X1995Y639D01*
X2033Y639D02*
X2092Y639D01*
X1410Y638D02*
X1429Y638D01*
X1459Y638D02*
X1478Y638D01*
X1510Y638D02*
X1529Y638D01*
X1559Y638D02*
X1578Y638D01*
X1610Y638D02*
X1629Y638D01*
X1659Y638D02*
X1678Y638D01*
X1936Y638D02*
X1995Y638D01*
X2033Y638D02*
X2092Y638D01*
X1409Y637D02*
X1429Y637D01*
X1459Y637D02*
X1478Y637D01*
X1509Y637D02*
X1529Y637D01*
X1559Y637D02*
X1578Y637D01*
X1609Y637D02*
X1629Y637D01*
X1659Y637D02*
X1678Y637D01*
X1936Y637D02*
X1994Y637D01*
X2034Y637D02*
X2092Y637D01*
X1409Y636D02*
X1428Y636D01*
X1459Y636D02*
X1478Y636D01*
X1509Y636D02*
X1528Y636D01*
X1559Y636D02*
X1578Y636D01*
X1609Y636D02*
X1628Y636D01*
X1659Y636D02*
X1678Y636D01*
X1936Y636D02*
X1994Y636D01*
X2034Y636D02*
X2092Y636D01*
X1409Y635D02*
X1428Y635D01*
X1459Y635D02*
X1478Y635D01*
X1509Y635D02*
X1528Y635D01*
X1559Y635D02*
X1578Y635D01*
X1609Y635D02*
X1628Y635D01*
X1659Y635D02*
X1678Y635D01*
X1936Y635D02*
X1994Y635D01*
X2034Y635D02*
X2092Y635D01*
X1409Y634D02*
X1429Y634D01*
X1459Y634D02*
X1478Y634D01*
X1509Y634D02*
X1529Y634D01*
X1559Y634D02*
X1578Y634D01*
X1609Y634D02*
X1629Y634D01*
X1659Y634D02*
X1678Y634D01*
X1936Y634D02*
X1994Y634D01*
X2034Y634D02*
X2092Y634D01*
X1410Y633D02*
X1429Y633D01*
X1459Y633D02*
X1478Y633D01*
X1510Y633D02*
X1529Y633D01*
X1559Y633D02*
X1578Y633D01*
X1610Y633D02*
X1629Y633D01*
X1659Y633D02*
X1678Y633D01*
X1936Y633D02*
X1994Y633D01*
X2034Y633D02*
X2092Y633D01*
X1410Y632D02*
X1429Y632D01*
X1459Y632D02*
X1478Y632D01*
X1510Y632D02*
X1529Y632D01*
X1559Y632D02*
X1578Y632D01*
X1610Y632D02*
X1629Y632D01*
X1659Y632D02*
X1678Y632D01*
X1936Y632D02*
X1994Y632D01*
X2034Y632D02*
X2092Y632D01*
X1410Y631D02*
X1429Y631D01*
X1459Y631D02*
X1478Y631D01*
X1510Y631D02*
X1529Y631D01*
X1559Y631D02*
X1578Y631D01*
X1610Y631D02*
X1629Y631D01*
X1659Y631D02*
X1678Y631D01*
X1936Y631D02*
X1994Y631D01*
X2034Y631D02*
X2092Y631D01*
X1410Y630D02*
X1429Y630D01*
X1459Y630D02*
X1478Y630D01*
X1510Y630D02*
X1529Y630D01*
X1559Y630D02*
X1578Y630D01*
X1610Y630D02*
X1629Y630D01*
X1659Y630D02*
X1678Y630D01*
X1936Y630D02*
X1994Y630D01*
X2034Y630D02*
X2092Y630D01*
X1410Y629D02*
X1430Y629D01*
X1458Y629D02*
X1478Y629D01*
X1510Y629D02*
X1530Y629D01*
X1558Y629D02*
X1578Y629D01*
X1610Y629D02*
X1630Y629D01*
X1658Y629D02*
X1678Y629D01*
X1936Y629D02*
X1994Y629D01*
X2034Y629D02*
X2092Y629D01*
X1410Y628D02*
X1430Y628D01*
X1457Y628D02*
X1477Y628D01*
X1510Y628D02*
X1530Y628D01*
X1557Y628D02*
X1577Y628D01*
X1610Y628D02*
X1630Y628D01*
X1657Y628D02*
X1677Y628D01*
X1936Y628D02*
X1994Y628D01*
X2034Y628D02*
X2092Y628D01*
X1411Y627D02*
X1431Y627D01*
X1457Y627D02*
X1477Y627D01*
X1511Y627D02*
X1531Y627D01*
X1557Y627D02*
X1577Y627D01*
X1611Y627D02*
X1631Y627D01*
X1657Y627D02*
X1677Y627D01*
X1936Y627D02*
X1995Y627D01*
X2033Y627D02*
X2092Y627D01*
X1411Y626D02*
X1432Y626D01*
X1456Y626D02*
X1477Y626D01*
X1511Y626D02*
X1532Y626D01*
X1556Y626D02*
X1577Y626D01*
X1611Y626D02*
X1632Y626D01*
X1656Y626D02*
X1677Y626D01*
X1936Y626D02*
X1995Y626D01*
X2033Y626D02*
X2092Y626D01*
X1411Y625D02*
X1433Y625D01*
X1455Y625D02*
X1477Y625D01*
X1511Y625D02*
X1533Y625D01*
X1555Y625D02*
X1577Y625D01*
X1611Y625D02*
X1633Y625D01*
X1655Y625D02*
X1677Y625D01*
X1936Y625D02*
X1995Y625D01*
X2033Y625D02*
X2092Y625D01*
X1412Y624D02*
X1434Y624D01*
X1454Y624D02*
X1476Y624D01*
X1512Y624D02*
X1534Y624D01*
X1554Y624D02*
X1576Y624D01*
X1612Y624D02*
X1634Y624D01*
X1654Y624D02*
X1676Y624D01*
X1937Y624D02*
X1996Y624D01*
X2032Y624D02*
X2091Y624D01*
X1412Y623D02*
X1435Y623D01*
X1453Y623D02*
X1476Y623D01*
X1512Y623D02*
X1535Y623D01*
X1553Y623D02*
X1576Y623D01*
X1612Y623D02*
X1635Y623D01*
X1653Y623D02*
X1676Y623D01*
X1937Y623D02*
X1996Y623D01*
X2032Y623D02*
X2091Y623D01*
X1412Y622D02*
X1437Y622D01*
X1451Y622D02*
X1475Y622D01*
X1512Y622D02*
X1537Y622D01*
X1551Y622D02*
X1575Y622D01*
X1612Y622D02*
X1637Y622D01*
X1651Y622D02*
X1675Y622D01*
X1937Y622D02*
X1997Y622D01*
X2031Y622D02*
X2091Y622D01*
X1413Y621D02*
X1439Y621D01*
X1449Y621D02*
X1475Y621D01*
X1513Y621D02*
X1539Y621D01*
X1549Y621D02*
X1575Y621D01*
X1613Y621D02*
X1639Y621D01*
X1649Y621D02*
X1675Y621D01*
X1937Y621D02*
X1997Y621D01*
X2031Y621D02*
X2091Y621D01*
X1413Y620D02*
X1475Y620D01*
X1513Y620D02*
X1575Y620D01*
X1613Y620D02*
X1675Y620D01*
X1938Y620D02*
X1998Y620D01*
X2030Y620D02*
X2090Y620D01*
X1414Y619D02*
X1474Y619D01*
X1514Y619D02*
X1574Y619D01*
X1614Y619D02*
X1674Y619D01*
X1938Y619D02*
X1999Y619D01*
X2029Y619D02*
X2090Y619D01*
X1414Y618D02*
X1474Y618D01*
X1514Y618D02*
X1574Y618D01*
X1614Y618D02*
X1674Y618D01*
X1938Y618D02*
X2000Y618D01*
X2028Y618D02*
X2089Y618D01*
X1415Y617D02*
X1473Y617D01*
X1515Y617D02*
X1573Y617D01*
X1615Y617D02*
X1673Y617D01*
X1939Y617D02*
X2001Y617D01*
X2027Y617D02*
X2089Y617D01*
X1415Y616D02*
X1472Y616D01*
X1515Y616D02*
X1572Y616D01*
X1615Y616D02*
X1672Y616D01*
X1939Y616D02*
X2003Y616D01*
X2025Y616D02*
X2089Y616D01*
X1416Y615D02*
X1472Y615D01*
X1516Y615D02*
X1572Y615D01*
X1616Y615D02*
X1672Y615D01*
X1940Y615D02*
X2004Y615D01*
X2024Y615D02*
X2088Y615D01*
X1417Y614D02*
X1471Y614D01*
X1517Y614D02*
X1571Y614D01*
X1617Y614D02*
X1671Y614D01*
X1940Y614D02*
X2006Y614D01*
X2021Y614D02*
X2088Y614D01*
X1418Y613D02*
X1470Y613D01*
X1518Y613D02*
X1570Y613D01*
X1618Y613D02*
X1670Y613D01*
X1941Y613D02*
X2010Y613D01*
X2018Y613D02*
X2087Y613D01*
X1419Y612D02*
X1469Y612D01*
X1519Y612D02*
X1569Y612D01*
X1619Y612D02*
X1669Y612D01*
X1941Y612D02*
X2087Y612D01*
X1419Y611D02*
X1468Y611D01*
X1519Y611D02*
X1568Y611D01*
X1619Y611D02*
X1668Y611D01*
X1942Y611D02*
X2086Y611D01*
X1420Y610D02*
X1467Y610D01*
X1520Y610D02*
X1567Y610D01*
X1620Y610D02*
X1667Y610D01*
X1943Y610D02*
X2085Y610D01*
X1422Y609D02*
X1466Y609D01*
X1522Y609D02*
X1566Y609D01*
X1622Y609D02*
X1666Y609D01*
X1943Y609D02*
X2084Y609D01*
X1423Y608D02*
X1465Y608D01*
X1523Y608D02*
X1565Y608D01*
X1623Y608D02*
X1665Y608D01*
X1944Y608D02*
X2084Y608D01*
X1424Y607D02*
X1464Y607D01*
X1524Y607D02*
X1564Y607D01*
X1624Y607D02*
X1664Y607D01*
X1945Y607D02*
X2083Y607D01*
X1426Y606D02*
X1462Y606D01*
X1526Y606D02*
X1562Y606D01*
X1626Y606D02*
X1662Y606D01*
X1946Y606D02*
X2082Y606D01*
X1428Y605D02*
X1460Y605D01*
X1528Y605D02*
X1560Y605D01*
X1628Y605D02*
X1660Y605D01*
X1947Y605D02*
X2081Y605D01*
X1430Y604D02*
X1458Y604D01*
X1530Y604D02*
X1558Y604D01*
X1630Y604D02*
X1658Y604D01*
X1948Y604D02*
X2080Y604D01*
X1432Y603D02*
X1456Y603D01*
X1532Y603D02*
X1556Y603D01*
X1632Y603D02*
X1656Y603D01*
X1949Y603D02*
X2079Y603D01*
X1435Y602D02*
X1453Y602D01*
X1535Y602D02*
X1553Y602D01*
X1635Y602D02*
X1653Y602D01*
X1950Y602D02*
X2078Y602D01*
X1439Y601D02*
X1449Y601D01*
X1539Y601D02*
X1549Y601D01*
X1639Y601D02*
X1649Y601D01*
X1951Y601D02*
X2077Y601D01*
X1953Y600D02*
X2075Y600D01*
X1954Y599D02*
X2074Y599D01*
X1956Y598D02*
X2072Y598D01*
X1958Y597D02*
X2070Y597D01*
X1960Y596D02*
X2068Y596D01*
X1963Y595D02*
X2065Y595D01*
X1966Y594D02*
X2062Y594D01*
X1974Y593D02*
X2053Y593D01*
X1892Y514D02*
X1900Y514D01*
X2140Y514D02*
X2148Y514D01*
X1887Y513D02*
X1905Y513D01*
X2135Y513D02*
X2153Y513D01*
X1883Y512D02*
X1908Y512D01*
X2131Y512D02*
X2156Y512D01*
X1881Y511D02*
X1911Y511D01*
X2129Y511D02*
X2159Y511D01*
X1879Y510D02*
X1913Y510D01*
X2127Y510D02*
X2161Y510D01*
X1877Y509D02*
X1915Y509D01*
X2125Y509D02*
X2163Y509D01*
X1875Y508D02*
X1917Y508D01*
X2123Y508D02*
X2165Y508D01*
X1874Y507D02*
X1918Y507D01*
X2122Y507D02*
X2166Y507D01*
X1872Y506D02*
X1919Y506D01*
X2120Y506D02*
X2167Y506D01*
X1871Y505D02*
X1921Y505D01*
X2119Y505D02*
X2169Y505D01*
X1870Y504D02*
X1922Y504D01*
X2118Y504D02*
X2170Y504D01*
X1869Y503D02*
X1923Y503D01*
X2117Y503D02*
X2171Y503D01*
X1868Y502D02*
X1924Y502D01*
X2116Y502D02*
X2172Y502D01*
X1867Y501D02*
X1925Y501D01*
X2115Y501D02*
X2173Y501D01*
X1866Y500D02*
X1926Y500D01*
X2114Y500D02*
X2174Y500D01*
X1865Y499D02*
X1926Y499D01*
X2113Y499D02*
X2174Y499D01*
X1865Y498D02*
X1927Y498D01*
X2113Y498D02*
X2175Y498D01*
X1864Y497D02*
X1928Y497D01*
X2112Y497D02*
X2176Y497D01*
X1863Y496D02*
X1929Y496D01*
X2111Y496D02*
X2177Y496D01*
X1863Y495D02*
X1929Y495D01*
X2111Y495D02*
X2177Y495D01*
X1862Y494D02*
X1930Y494D01*
X2110Y494D02*
X2178Y494D01*
X1861Y493D02*
X1930Y493D01*
X2109Y493D02*
X2178Y493D01*
X1861Y492D02*
X1931Y492D01*
X2109Y492D02*
X2179Y492D01*
X1860Y491D02*
X1931Y491D01*
X2109Y491D02*
X2179Y491D01*
X1860Y490D02*
X1932Y490D01*
X2108Y490D02*
X2180Y490D01*
X1860Y489D02*
X1932Y489D01*
X2108Y489D02*
X2180Y489D01*
X1859Y488D02*
X1932Y488D01*
X2107Y488D02*
X2180Y488D01*
X1859Y487D02*
X1933Y487D01*
X2107Y487D02*
X2181Y487D01*
X1859Y486D02*
X1933Y486D01*
X2107Y486D02*
X2181Y486D01*
X1858Y485D02*
X1933Y485D01*
X2106Y485D02*
X2181Y485D01*
X1858Y484D02*
X1934Y484D01*
X2106Y484D02*
X2182Y484D01*
X1858Y483D02*
X1934Y483D01*
X2106Y483D02*
X2182Y483D01*
X1858Y482D02*
X1934Y482D01*
X2106Y482D02*
X2182Y482D01*
X1858Y481D02*
X1934Y481D01*
X2106Y481D02*
X2182Y481D01*
X1857Y480D02*
X1934Y480D01*
X2105Y480D02*
X2182Y480D01*
X1857Y479D02*
X1935Y479D01*
X2105Y479D02*
X2183Y479D01*
X1857Y478D02*
X1935Y478D01*
X2105Y478D02*
X2183Y478D01*
X1857Y477D02*
X1935Y477D01*
X2105Y477D02*
X2183Y477D01*
X1857Y476D02*
X1935Y476D01*
X2105Y476D02*
X2183Y476D01*
X1857Y475D02*
X1935Y475D01*
X2105Y475D02*
X2183Y475D01*
X1857Y474D02*
X1935Y474D01*
X2105Y474D02*
X2183Y474D01*
X1857Y473D02*
X1935Y473D01*
X2105Y473D02*
X2183Y473D01*
X1857Y472D02*
X1935Y472D01*
X2105Y472D02*
X2183Y472D01*
X1857Y471D02*
X1935Y471D01*
X2105Y471D02*
X2183Y471D01*
X1857Y470D02*
X1935Y470D01*
X2105Y470D02*
X2183Y470D01*
X1857Y469D02*
X1935Y469D01*
X2105Y469D02*
X2183Y469D01*
X1857Y468D02*
X1935Y468D01*
X2105Y468D02*
X2183Y468D01*
X1857Y467D02*
X1935Y467D01*
X2105Y467D02*
X2183Y467D01*
X1857Y466D02*
X1935Y466D01*
X2105Y466D02*
X2183Y466D01*
X1857Y465D02*
X1935Y465D01*
X2105Y465D02*
X2183Y465D01*
X1857Y464D02*
X1935Y464D01*
X2105Y464D02*
X2183Y464D01*
X1857Y463D02*
X1935Y463D01*
X2105Y463D02*
X2183Y463D01*
X1857Y462D02*
X1935Y462D01*
X2105Y462D02*
X2183Y462D01*
X1857Y461D02*
X1935Y461D01*
X2105Y461D02*
X2183Y461D01*
X1857Y460D02*
X1935Y460D01*
X2105Y460D02*
X2183Y460D01*
X1857Y459D02*
X1935Y459D01*
X2105Y459D02*
X2183Y459D01*
X1857Y458D02*
X1935Y458D01*
X2105Y458D02*
X2183Y458D01*
X1857Y457D02*
X1935Y457D01*
X2105Y457D02*
X2183Y457D01*
X1857Y456D02*
X1935Y456D01*
X2105Y456D02*
X2183Y456D01*
X1857Y455D02*
X1894Y455D01*
X1898Y455D02*
X1935Y455D01*
X2105Y455D02*
X2142Y455D01*
X2146Y455D02*
X2183Y455D01*
X1857Y454D02*
X1889Y454D01*
X1903Y454D02*
X1935Y454D01*
X2105Y454D02*
X2137Y454D01*
X2151Y454D02*
X2183Y454D01*
X1857Y453D02*
X1887Y453D01*
X1905Y453D02*
X1935Y453D01*
X2105Y453D02*
X2135Y453D01*
X2153Y453D02*
X2183Y453D01*
X1857Y452D02*
X1885Y452D01*
X1907Y452D02*
X1935Y452D01*
X2105Y452D02*
X2133Y452D01*
X2155Y452D02*
X2183Y452D01*
X1857Y451D02*
X1883Y451D01*
X1908Y451D02*
X1935Y451D01*
X2105Y451D02*
X2131Y451D01*
X2156Y451D02*
X2183Y451D01*
X1857Y450D02*
X1882Y450D01*
X1910Y450D02*
X1935Y450D01*
X2105Y450D02*
X2130Y450D01*
X2158Y450D02*
X2183Y450D01*
X1857Y449D02*
X1881Y449D01*
X1911Y449D02*
X1935Y449D01*
X2105Y449D02*
X2129Y449D01*
X2159Y449D02*
X2183Y449D01*
X1857Y448D02*
X1880Y448D01*
X1911Y448D02*
X1935Y448D01*
X2105Y448D02*
X2128Y448D01*
X2159Y448D02*
X2183Y448D01*
X1857Y447D02*
X1879Y447D01*
X1912Y447D02*
X1935Y447D01*
X2105Y447D02*
X2127Y447D01*
X2160Y447D02*
X2183Y447D01*
X1857Y446D02*
X1879Y446D01*
X1913Y446D02*
X1935Y446D01*
X2105Y446D02*
X2127Y446D01*
X2161Y446D02*
X2183Y446D01*
X1857Y445D02*
X1878Y445D01*
X1913Y445D02*
X1935Y445D01*
X2105Y445D02*
X2126Y445D01*
X2162Y445D02*
X2183Y445D01*
X1857Y444D02*
X1878Y444D01*
X1914Y444D02*
X1935Y444D01*
X2105Y444D02*
X2126Y444D01*
X2162Y444D02*
X2183Y444D01*
X1857Y443D02*
X1877Y443D01*
X1915Y443D02*
X1935Y443D01*
X2105Y443D02*
X2125Y443D01*
X2163Y443D02*
X2183Y443D01*
X1857Y442D02*
X1877Y442D01*
X1915Y442D02*
X1935Y442D01*
X2105Y442D02*
X2125Y442D01*
X2163Y442D02*
X2183Y442D01*
X1857Y441D02*
X1877Y441D01*
X1915Y441D02*
X1935Y441D01*
X2105Y441D02*
X2125Y441D01*
X2163Y441D02*
X2183Y441D01*
X1857Y440D02*
X1876Y440D01*
X1915Y440D02*
X1935Y440D01*
X2105Y440D02*
X2124Y440D01*
X2164Y440D02*
X2183Y440D01*
X1857Y439D02*
X1876Y439D01*
X1916Y439D02*
X1935Y439D01*
X2105Y439D02*
X2124Y439D01*
X2164Y439D02*
X2183Y439D01*
X1857Y438D02*
X1876Y438D01*
X1916Y438D02*
X1935Y438D01*
X2105Y438D02*
X2124Y438D01*
X2164Y438D02*
X2183Y438D01*
X1857Y437D02*
X1876Y437D01*
X1916Y437D02*
X1935Y437D01*
X2105Y437D02*
X2124Y437D01*
X2164Y437D02*
X2183Y437D01*
X1857Y436D02*
X1876Y436D01*
X1916Y436D02*
X1935Y436D01*
X2105Y436D02*
X2124Y436D01*
X2164Y436D02*
X2183Y436D01*
X1857Y435D02*
X1876Y435D01*
X1916Y435D02*
X1935Y435D01*
X2105Y435D02*
X2124Y435D01*
X2164Y435D02*
X2183Y435D01*
X1857Y434D02*
X1876Y434D01*
X1916Y434D02*
X1935Y434D01*
X2105Y434D02*
X2124Y434D01*
X2164Y434D02*
X2183Y434D01*
X1857Y433D02*
X1876Y433D01*
X1916Y433D02*
X1935Y433D01*
X2105Y433D02*
X2124Y433D01*
X2164Y433D02*
X2183Y433D01*
X1857Y432D02*
X1876Y432D01*
X1916Y432D02*
X1935Y432D01*
X2105Y432D02*
X2124Y432D01*
X2164Y432D02*
X2183Y432D01*
X1857Y431D02*
X1876Y431D01*
X1915Y431D02*
X1935Y431D01*
X2105Y431D02*
X2124Y431D01*
X2164Y431D02*
X2183Y431D01*
X1857Y430D02*
X1877Y430D01*
X1915Y430D02*
X1935Y430D01*
X2105Y430D02*
X2125Y430D01*
X2163Y430D02*
X2183Y430D01*
X1857Y429D02*
X1877Y429D01*
X1915Y429D02*
X1935Y429D01*
X2105Y429D02*
X2125Y429D01*
X2163Y429D02*
X2183Y429D01*
X1857Y428D02*
X1877Y428D01*
X1915Y428D02*
X1935Y428D01*
X2105Y428D02*
X2125Y428D01*
X2163Y428D02*
X2183Y428D01*
X1857Y427D02*
X1878Y427D01*
X1914Y427D02*
X1935Y427D01*
X2105Y427D02*
X2126Y427D01*
X2162Y427D02*
X2183Y427D01*
X1857Y426D02*
X1878Y426D01*
X1914Y426D02*
X1935Y426D01*
X2105Y426D02*
X2126Y426D01*
X2162Y426D02*
X2183Y426D01*
X1857Y425D02*
X1879Y425D01*
X1913Y425D02*
X1935Y425D01*
X2105Y425D02*
X2127Y425D01*
X2161Y425D02*
X2183Y425D01*
X1857Y424D02*
X1879Y424D01*
X1912Y424D02*
X1935Y424D01*
X2105Y424D02*
X2127Y424D01*
X2160Y424D02*
X2183Y424D01*
X1857Y423D02*
X1880Y423D01*
X1911Y423D02*
X1935Y423D01*
X2105Y423D02*
X2128Y423D01*
X2159Y423D02*
X2183Y423D01*
X1857Y422D02*
X1881Y422D01*
X1911Y422D02*
X1935Y422D01*
X2105Y422D02*
X2129Y422D01*
X2159Y422D02*
X2183Y422D01*
X1857Y421D02*
X1882Y421D01*
X1910Y421D02*
X1935Y421D01*
X2105Y421D02*
X2130Y421D01*
X2158Y421D02*
X2183Y421D01*
X1857Y420D02*
X1883Y420D01*
X1908Y420D02*
X1935Y420D01*
X2105Y420D02*
X2131Y420D01*
X2156Y420D02*
X2183Y420D01*
X1857Y419D02*
X1885Y419D01*
X1907Y419D02*
X1935Y419D01*
X2105Y419D02*
X2133Y419D01*
X2155Y419D02*
X2183Y419D01*
X1857Y418D02*
X1887Y418D01*
X1905Y418D02*
X1935Y418D01*
X2105Y418D02*
X2135Y418D01*
X2153Y418D02*
X2183Y418D01*
X1857Y417D02*
X1889Y417D01*
X1903Y417D02*
X1935Y417D01*
X2105Y417D02*
X2137Y417D01*
X2151Y417D02*
X2183Y417D01*
X1857Y416D02*
X1893Y416D01*
X1898Y416D02*
X1935Y416D01*
X2105Y416D02*
X2141Y416D01*
X2146Y416D02*
X2183Y416D01*
X1857Y415D02*
X1935Y415D01*
X2105Y415D02*
X2183Y415D01*
X1857Y414D02*
X1935Y414D01*
X2105Y414D02*
X2183Y414D01*
X1857Y413D02*
X1935Y413D01*
X2105Y413D02*
X2183Y413D01*
X1857Y412D02*
X1935Y412D01*
X2105Y412D02*
X2183Y412D01*
X1857Y411D02*
X1935Y411D01*
X2105Y411D02*
X2183Y411D01*
X1857Y410D02*
X1935Y410D01*
X2105Y410D02*
X2183Y410D01*
X1857Y409D02*
X1935Y409D01*
X2105Y409D02*
X2183Y409D01*
X1857Y408D02*
X1935Y408D01*
X2105Y408D02*
X2183Y408D01*
X1857Y407D02*
X1935Y407D01*
X2105Y407D02*
X2183Y407D01*
X1857Y406D02*
X1935Y406D01*
X2105Y406D02*
X2183Y406D01*
X1857Y405D02*
X1935Y405D01*
X2105Y405D02*
X2183Y405D01*
X1857Y404D02*
X1935Y404D01*
X2105Y404D02*
X2183Y404D01*
X1857Y403D02*
X1935Y403D01*
X2105Y403D02*
X2183Y403D01*
X1857Y402D02*
X1935Y402D01*
X2105Y402D02*
X2183Y402D01*
X1857Y401D02*
X1935Y401D01*
X2105Y401D02*
X2183Y401D01*
X1857Y400D02*
X1935Y400D01*
X2105Y400D02*
X2183Y400D01*
X1857Y399D02*
X1935Y399D01*
X2105Y399D02*
X2183Y399D01*
X1857Y398D02*
X1935Y398D01*
X2105Y398D02*
X2183Y398D01*
X1857Y397D02*
X1935Y397D01*
X2105Y397D02*
X2183Y397D01*
X1857Y396D02*
X1935Y396D01*
X2105Y396D02*
X2183Y396D01*
X1857Y395D02*
X1935Y395D01*
X2105Y395D02*
X2183Y395D01*
X1857Y394D02*
X1935Y394D01*
X2105Y394D02*
X2183Y394D01*
X1857Y393D02*
X1935Y393D01*
X2105Y393D02*
X2183Y393D01*
X1857Y392D02*
X1935Y392D01*
X2105Y392D02*
X2183Y392D01*
X1857Y391D02*
X1934Y391D01*
X2105Y391D02*
X2182Y391D01*
X1858Y390D02*
X1934Y390D01*
X2106Y390D02*
X2182Y390D01*
X1858Y389D02*
X1934Y389D01*
X2106Y389D02*
X2182Y389D01*
X1858Y388D02*
X1934Y388D01*
X2106Y388D02*
X2182Y388D01*
X1858Y387D02*
X1934Y387D01*
X2106Y387D02*
X2182Y387D01*
X1858Y386D02*
X1933Y386D01*
X2106Y386D02*
X2181Y386D01*
X1859Y385D02*
X1933Y385D01*
X2107Y385D02*
X2181Y385D01*
X1859Y384D02*
X1933Y384D01*
X2107Y384D02*
X2181Y384D01*
X1859Y383D02*
X1932Y383D01*
X2107Y383D02*
X2180Y383D01*
X1860Y382D02*
X1932Y382D01*
X2108Y382D02*
X2180Y382D01*
X1860Y381D02*
X1932Y381D01*
X2108Y381D02*
X2180Y381D01*
X1860Y380D02*
X1931Y380D01*
X2109Y380D02*
X2179Y380D01*
X1861Y379D02*
X1931Y379D01*
X2109Y379D02*
X2179Y379D01*
X1861Y378D02*
X1930Y378D01*
X2109Y378D02*
X2178Y378D01*
X1862Y377D02*
X1930Y377D01*
X2110Y377D02*
X2178Y377D01*
X1863Y376D02*
X1929Y376D01*
X2111Y376D02*
X2177Y376D01*
X1863Y375D02*
X1929Y375D01*
X2111Y375D02*
X2177Y375D01*
X1864Y374D02*
X1928Y374D01*
X2112Y374D02*
X2176Y374D01*
X1865Y373D02*
X1927Y373D01*
X2113Y373D02*
X2175Y373D01*
X1865Y372D02*
X1926Y372D01*
X2113Y372D02*
X2174Y372D01*
X1866Y371D02*
X1926Y371D01*
X2114Y371D02*
X2174Y371D01*
X1867Y370D02*
X1925Y370D01*
X2115Y370D02*
X2173Y370D01*
X1868Y369D02*
X1924Y369D01*
X2116Y369D02*
X2172Y369D01*
X1869Y368D02*
X1923Y368D01*
X2117Y368D02*
X2171Y368D01*
X1870Y367D02*
X1922Y367D01*
X2118Y367D02*
X2170Y367D01*
X1871Y366D02*
X1921Y366D01*
X2119Y366D02*
X2169Y366D01*
X1872Y365D02*
X1919Y365D01*
X2120Y365D02*
X2167Y365D01*
X1874Y364D02*
X1918Y364D01*
X2122Y364D02*
X2166Y364D01*
X1875Y363D02*
X1917Y363D01*
X2123Y363D02*
X2165Y363D01*
X1877Y362D02*
X1915Y362D01*
X2125Y362D02*
X2163Y362D01*
X1879Y361D02*
X1913Y361D01*
X2127Y361D02*
X2161Y361D01*
X1881Y360D02*
X1911Y360D01*
X2129Y360D02*
X2159Y360D01*
X1883Y359D02*
X1908Y359D01*
X2131Y359D02*
X2156Y359D01*
X1887Y358D02*
X1905Y358D01*
X2135Y358D02*
X2153Y358D01*
X1892Y357D02*
X1900Y357D01*
X2140Y357D02*
X2148Y357D01*
D02*
G04 End of Copper0*
M02*