G04 MADE WITH FRITZING*
G04 WWW.FRITZING.ORG*
G04 DOUBLE SIDED*
G04 HOLES PLATED*
G04 CONTOUR ON CENTER OF CONTOUR VECTOR*
%ASAXBY*%
%FSLAX23Y23*%
%MOIN*%
%OFA0B0*%
%SFA1.0B1.0*%
%ADD10C,0.062000*%
%ADD11C,0.085000*%
%ADD12C,0.088740*%
%ADD13C,0.072992*%
%ADD14C,0.135984*%
%ADD15R,0.072992X0.072992*%
%ADD16R,0.001000X0.001000*%
%LNMASK0*%
G90*
G70*
G54D10*
X1144Y735D03*
X1144Y835D03*
X1144Y935D03*
X1144Y1035D03*
X1144Y1135D03*
X1144Y1235D03*
X1144Y1335D03*
X1144Y1435D03*
X1144Y1535D03*
X1144Y1635D03*
X1144Y1735D03*
X1144Y1835D03*
X1144Y1935D03*
X1144Y2035D03*
X1144Y2135D03*
X144Y2135D03*
X144Y2035D03*
X144Y1935D03*
X144Y1835D03*
X144Y1735D03*
X144Y1635D03*
X144Y1535D03*
X144Y1435D03*
X144Y1335D03*
X144Y1235D03*
X144Y1135D03*
X144Y1035D03*
X144Y935D03*
X144Y835D03*
X144Y735D03*
G54D11*
X1344Y435D03*
X1744Y435D03*
X1344Y835D03*
X1744Y835D03*
X1344Y1335D03*
X1744Y1335D03*
X1344Y1835D03*
X1744Y1835D03*
G54D12*
X1896Y1935D03*
X2144Y1935D03*
X2015Y2132D03*
X1896Y935D03*
X2144Y935D03*
X2015Y1132D03*
X1896Y435D03*
X2144Y435D03*
X2015Y632D03*
X1896Y2435D03*
X2144Y2435D03*
X2015Y2632D03*
X1896Y1435D03*
X2144Y1435D03*
X2015Y1632D03*
G54D11*
X1344Y2235D03*
X1744Y2235D03*
G54D13*
X1543Y2435D03*
X1444Y2435D03*
G54D14*
X144Y2935D03*
X144Y135D03*
X2144Y2935D03*
X2144Y135D03*
G54D15*
X1543Y2435D03*
G54D16*
X1968Y2676D02*
X2060Y2676D01*
X1963Y2675D02*
X2065Y2675D01*
X1960Y2674D02*
X2068Y2674D01*
X1958Y2673D02*
X2070Y2673D01*
X1956Y2672D02*
X2072Y2672D01*
X1954Y2671D02*
X2074Y2671D01*
X1952Y2670D02*
X2076Y2670D01*
X1950Y2669D02*
X2078Y2669D01*
X1949Y2668D02*
X2079Y2668D01*
X1947Y2667D02*
X2080Y2667D01*
X1946Y2666D02*
X2082Y2666D01*
X1945Y2665D02*
X2083Y2665D01*
X1944Y2664D02*
X2084Y2664D01*
X1943Y2663D02*
X2085Y2663D01*
X1942Y2662D02*
X2086Y2662D01*
X1941Y2661D02*
X2087Y2661D01*
X1940Y2660D02*
X2087Y2660D01*
X1940Y2659D02*
X2088Y2659D01*
X1939Y2658D02*
X2089Y2658D01*
X1938Y2657D02*
X2090Y2657D01*
X1938Y2656D02*
X2090Y2656D01*
X1937Y2655D02*
X2091Y2655D01*
X1936Y2654D02*
X2091Y2654D01*
X1936Y2653D02*
X2092Y2653D01*
X1935Y2652D02*
X2092Y2652D01*
X1935Y2651D02*
X2093Y2651D01*
X1935Y2650D02*
X2093Y2650D01*
X1934Y2649D02*
X2094Y2649D01*
X1934Y2648D02*
X2094Y2648D01*
X1933Y2647D02*
X2095Y2647D01*
X1933Y2646D02*
X2008Y2646D01*
X2020Y2646D02*
X2095Y2646D01*
X1933Y2645D02*
X2006Y2645D01*
X2022Y2645D02*
X2095Y2645D01*
X1932Y2644D02*
X2005Y2644D01*
X2023Y2644D02*
X2096Y2644D01*
X1932Y2643D02*
X2003Y2643D01*
X2025Y2643D02*
X2096Y2643D01*
X1932Y2642D02*
X2002Y2642D01*
X2025Y2642D02*
X2096Y2642D01*
X1932Y2641D02*
X2002Y2641D01*
X2026Y2641D02*
X2096Y2641D01*
X1931Y2640D02*
X2001Y2640D01*
X2027Y2640D02*
X2096Y2640D01*
X1931Y2639D02*
X2000Y2639D01*
X2028Y2639D02*
X2097Y2639D01*
X1931Y2638D02*
X2000Y2638D01*
X2028Y2638D02*
X2097Y2638D01*
X1931Y2637D02*
X2000Y2637D01*
X2028Y2637D02*
X2097Y2637D01*
X1931Y2636D02*
X1999Y2636D01*
X2029Y2636D02*
X2097Y2636D01*
X1931Y2635D02*
X1999Y2635D01*
X2029Y2635D02*
X2097Y2635D01*
X1931Y2634D02*
X1999Y2634D01*
X2029Y2634D02*
X2097Y2634D01*
X1931Y2633D02*
X1999Y2633D01*
X2029Y2633D02*
X2097Y2633D01*
X1931Y2632D02*
X1999Y2632D01*
X2029Y2632D02*
X2097Y2632D01*
X1931Y2631D02*
X1999Y2631D01*
X2029Y2631D02*
X2097Y2631D01*
X1931Y2630D02*
X1999Y2630D01*
X2029Y2630D02*
X2097Y2630D01*
X1931Y2629D02*
X1999Y2629D01*
X2029Y2629D02*
X2097Y2629D01*
X1931Y2628D02*
X1999Y2628D01*
X2029Y2628D02*
X2097Y2628D01*
X1931Y2627D02*
X2000Y2627D01*
X2028Y2627D02*
X2097Y2627D01*
X1931Y2626D02*
X2000Y2626D01*
X2028Y2626D02*
X2097Y2626D01*
X1931Y2625D02*
X2001Y2625D01*
X2027Y2625D02*
X2097Y2625D01*
X1932Y2624D02*
X2001Y2624D01*
X2027Y2624D02*
X2096Y2624D01*
X1932Y2623D02*
X2002Y2623D01*
X2026Y2623D02*
X2096Y2623D01*
X1932Y2622D02*
X2003Y2622D01*
X2025Y2622D02*
X2096Y2622D01*
X1932Y2621D02*
X2004Y2621D01*
X2024Y2621D02*
X2096Y2621D01*
X1933Y2620D02*
X2005Y2620D01*
X2022Y2620D02*
X2095Y2620D01*
X1933Y2619D02*
X2007Y2619D01*
X2021Y2619D02*
X2095Y2619D01*
X1933Y2618D02*
X2010Y2618D01*
X2018Y2618D02*
X2095Y2618D01*
X1934Y2617D02*
X2094Y2617D01*
X1934Y2616D02*
X2094Y2616D01*
X1934Y2615D02*
X2094Y2615D01*
X1935Y2614D02*
X2093Y2614D01*
X1935Y2613D02*
X2093Y2613D01*
X1936Y2612D02*
X2092Y2612D01*
X1936Y2611D02*
X2092Y2611D01*
X1937Y2610D02*
X2091Y2610D01*
X1937Y2609D02*
X2090Y2609D01*
X1938Y2608D02*
X2090Y2608D01*
X1939Y2607D02*
X2089Y2607D01*
X1939Y2606D02*
X2088Y2606D01*
X1940Y2605D02*
X2088Y2605D01*
X1941Y2604D02*
X2087Y2604D01*
X1942Y2603D02*
X2086Y2603D01*
X1943Y2602D02*
X2085Y2602D01*
X1944Y2601D02*
X2084Y2601D01*
X1945Y2600D02*
X2083Y2600D01*
X1946Y2599D02*
X2082Y2599D01*
X1947Y2598D02*
X2081Y2598D01*
X1948Y2597D02*
X2080Y2597D01*
X1950Y2596D02*
X2078Y2596D01*
X1951Y2595D02*
X2077Y2595D01*
X1953Y2594D02*
X2075Y2594D01*
X1955Y2593D02*
X2073Y2593D01*
X1957Y2592D02*
X2071Y2592D01*
X1959Y2591D02*
X2069Y2591D01*
X1962Y2590D02*
X2066Y2590D01*
X1966Y2589D02*
X2062Y2589D01*
X1974Y2588D02*
X2053Y2588D01*
X1892Y2519D02*
X1900Y2519D01*
X2140Y2519D02*
X2148Y2519D01*
X1886Y2518D02*
X1905Y2518D01*
X2134Y2518D02*
X2153Y2518D01*
X1883Y2517D02*
X1909Y2517D01*
X2131Y2517D02*
X2157Y2517D01*
X1880Y2516D02*
X1912Y2516D01*
X2128Y2516D02*
X2160Y2516D01*
X1878Y2515D02*
X1914Y2515D01*
X2126Y2515D02*
X2162Y2515D01*
X1876Y2514D02*
X1916Y2514D01*
X2124Y2514D02*
X2164Y2514D01*
X1874Y2513D02*
X1918Y2513D01*
X2122Y2513D02*
X2166Y2513D01*
X1872Y2512D02*
X1919Y2512D01*
X2120Y2512D02*
X2168Y2512D01*
X1871Y2511D02*
X1921Y2511D01*
X2119Y2511D02*
X2169Y2511D01*
X1869Y2510D02*
X1922Y2510D01*
X2117Y2510D02*
X2170Y2510D01*
X1868Y2509D02*
X1924Y2509D01*
X2116Y2509D02*
X2172Y2509D01*
X1867Y2508D02*
X1925Y2508D01*
X2115Y2508D02*
X2173Y2508D01*
X1866Y2507D02*
X1926Y2507D01*
X2114Y2507D02*
X2174Y2507D01*
X1865Y2506D02*
X1927Y2506D01*
X2113Y2506D02*
X2175Y2506D01*
X1864Y2505D02*
X1928Y2505D01*
X2112Y2505D02*
X2176Y2505D01*
X1863Y2504D02*
X1929Y2504D01*
X2111Y2504D02*
X2177Y2504D01*
X1862Y2503D02*
X1930Y2503D01*
X2110Y2503D02*
X2178Y2503D01*
X1861Y2502D02*
X1930Y2502D01*
X2109Y2502D02*
X2178Y2502D01*
X1861Y2501D02*
X1931Y2501D01*
X2109Y2501D02*
X2179Y2501D01*
X1860Y2500D02*
X1932Y2500D01*
X2108Y2500D02*
X2180Y2500D01*
X1859Y2499D02*
X1932Y2499D01*
X2107Y2499D02*
X2181Y2499D01*
X1859Y2498D02*
X1933Y2498D01*
X2107Y2498D02*
X2181Y2498D01*
X1858Y2497D02*
X1934Y2497D01*
X2106Y2497D02*
X2182Y2497D01*
X1857Y2496D02*
X1934Y2496D01*
X2105Y2496D02*
X2182Y2496D01*
X1857Y2495D02*
X1935Y2495D01*
X2105Y2495D02*
X2183Y2495D01*
X1856Y2494D02*
X1935Y2494D01*
X2105Y2494D02*
X2183Y2494D01*
X1856Y2493D02*
X1936Y2493D01*
X2104Y2493D02*
X2184Y2493D01*
X1856Y2492D02*
X1936Y2492D01*
X2104Y2492D02*
X2184Y2492D01*
X1855Y2491D02*
X1937Y2491D01*
X2103Y2491D02*
X2185Y2491D01*
X1855Y2490D02*
X1937Y2490D01*
X2103Y2490D02*
X2185Y2490D01*
X1854Y2489D02*
X1937Y2489D01*
X2102Y2489D02*
X2185Y2489D01*
X1854Y2488D02*
X1938Y2488D01*
X2102Y2488D02*
X2186Y2488D01*
X1854Y2487D02*
X1938Y2487D01*
X2102Y2487D02*
X2186Y2487D01*
X1854Y2486D02*
X1938Y2486D01*
X2102Y2486D02*
X2186Y2486D01*
X1853Y2485D02*
X1938Y2485D01*
X2101Y2485D02*
X2186Y2485D01*
X1853Y2484D02*
X1939Y2484D01*
X2101Y2484D02*
X2187Y2484D01*
X1853Y2483D02*
X1939Y2483D01*
X2101Y2483D02*
X2187Y2483D01*
X1853Y2482D02*
X1939Y2482D01*
X2101Y2482D02*
X2187Y2482D01*
X1852Y2481D02*
X1939Y2481D01*
X2101Y2481D02*
X2187Y2481D01*
X1852Y2480D02*
X1939Y2480D01*
X2100Y2480D02*
X2187Y2480D01*
X1852Y2479D02*
X1940Y2479D01*
X2100Y2479D02*
X2188Y2479D01*
X1852Y2478D02*
X1940Y2478D01*
X2100Y2478D02*
X2188Y2478D01*
X1852Y2477D02*
X1940Y2477D01*
X2100Y2477D02*
X2188Y2477D01*
X1852Y2476D02*
X1940Y2476D01*
X2100Y2476D02*
X2188Y2476D01*
X1852Y2475D02*
X1940Y2475D01*
X2100Y2475D02*
X2188Y2475D01*
X1852Y2474D02*
X1940Y2474D01*
X2100Y2474D02*
X2188Y2474D01*
X1852Y2473D02*
X1940Y2473D01*
X2100Y2473D02*
X2188Y2473D01*
X1852Y2472D02*
X1940Y2472D01*
X2100Y2472D02*
X2188Y2472D01*
X1852Y2471D02*
X1940Y2471D01*
X2100Y2471D02*
X2188Y2471D01*
X1852Y2470D02*
X1940Y2470D01*
X2100Y2470D02*
X2188Y2470D01*
X1852Y2469D02*
X1940Y2469D01*
X2100Y2469D02*
X2188Y2469D01*
X1852Y2468D02*
X1940Y2468D01*
X2100Y2468D02*
X2188Y2468D01*
X1852Y2467D02*
X1940Y2467D01*
X2100Y2467D02*
X2188Y2467D01*
X1852Y2466D02*
X1940Y2466D01*
X2100Y2466D02*
X2188Y2466D01*
X1852Y2465D02*
X1940Y2465D01*
X2100Y2465D02*
X2188Y2465D01*
X1852Y2464D02*
X1940Y2464D01*
X2100Y2464D02*
X2188Y2464D01*
X1852Y2463D02*
X1940Y2463D01*
X2100Y2463D02*
X2188Y2463D01*
X1852Y2462D02*
X1940Y2462D01*
X2100Y2462D02*
X2188Y2462D01*
X1852Y2461D02*
X1940Y2461D01*
X2100Y2461D02*
X2188Y2461D01*
X1852Y2460D02*
X1940Y2460D01*
X2100Y2460D02*
X2188Y2460D01*
X1852Y2459D02*
X1940Y2459D01*
X2100Y2459D02*
X2188Y2459D01*
X1852Y2458D02*
X1940Y2458D01*
X2100Y2458D02*
X2188Y2458D01*
X1852Y2457D02*
X1940Y2457D01*
X2100Y2457D02*
X2188Y2457D01*
X1852Y2456D02*
X1940Y2456D01*
X2100Y2456D02*
X2188Y2456D01*
X1852Y2455D02*
X1940Y2455D01*
X2100Y2455D02*
X2188Y2455D01*
X1852Y2454D02*
X1940Y2454D01*
X2100Y2454D02*
X2188Y2454D01*
X1852Y2453D02*
X1940Y2453D01*
X2100Y2453D02*
X2188Y2453D01*
X1852Y2452D02*
X1940Y2452D01*
X2100Y2452D02*
X2188Y2452D01*
X1852Y2451D02*
X1940Y2451D01*
X2100Y2451D02*
X2188Y2451D01*
X1852Y2450D02*
X1893Y2450D01*
X1898Y2450D02*
X1940Y2450D01*
X2100Y2450D02*
X2141Y2450D01*
X2146Y2450D02*
X2188Y2450D01*
X1852Y2449D02*
X1889Y2449D01*
X1902Y2449D02*
X1940Y2449D01*
X2100Y2449D02*
X2137Y2449D01*
X2150Y2449D02*
X2188Y2449D01*
X1852Y2448D02*
X1888Y2448D01*
X1904Y2448D02*
X1940Y2448D01*
X2100Y2448D02*
X2136Y2448D01*
X2152Y2448D02*
X2188Y2448D01*
X1852Y2447D02*
X1886Y2447D01*
X1905Y2447D02*
X1940Y2447D01*
X2100Y2447D02*
X2134Y2447D01*
X2153Y2447D02*
X2188Y2447D01*
X1852Y2446D02*
X1885Y2446D01*
X1907Y2446D02*
X1940Y2446D01*
X2100Y2446D02*
X2133Y2446D01*
X2155Y2446D02*
X2188Y2446D01*
X1852Y2445D02*
X1884Y2445D01*
X1907Y2445D02*
X1940Y2445D01*
X2100Y2445D02*
X2132Y2445D01*
X2156Y2445D02*
X2188Y2445D01*
X1852Y2444D02*
X1883Y2444D01*
X1908Y2444D02*
X1940Y2444D01*
X2100Y2444D02*
X2131Y2444D01*
X2156Y2444D02*
X2188Y2444D01*
X1852Y2443D02*
X1883Y2443D01*
X1909Y2443D02*
X1940Y2443D01*
X2100Y2443D02*
X2131Y2443D01*
X2157Y2443D02*
X2188Y2443D01*
X1852Y2442D02*
X1882Y2442D01*
X1910Y2442D02*
X1940Y2442D01*
X2100Y2442D02*
X2130Y2442D01*
X2158Y2442D02*
X2188Y2442D01*
X1852Y2441D02*
X1882Y2441D01*
X1910Y2441D02*
X1940Y2441D01*
X2100Y2441D02*
X2130Y2441D01*
X2158Y2441D02*
X2188Y2441D01*
X1852Y2440D02*
X1881Y2440D01*
X1910Y2440D02*
X1940Y2440D01*
X2100Y2440D02*
X2129Y2440D01*
X2158Y2440D02*
X2188Y2440D01*
X1852Y2439D02*
X1881Y2439D01*
X1911Y2439D02*
X1940Y2439D01*
X2100Y2439D02*
X2129Y2439D01*
X2159Y2439D02*
X2188Y2439D01*
X1852Y2438D02*
X1881Y2438D01*
X1911Y2438D02*
X1940Y2438D01*
X2100Y2438D02*
X2129Y2438D01*
X2159Y2438D02*
X2188Y2438D01*
X1852Y2437D02*
X1881Y2437D01*
X1911Y2437D02*
X1940Y2437D01*
X2100Y2437D02*
X2129Y2437D01*
X2159Y2437D02*
X2188Y2437D01*
X1852Y2436D02*
X1881Y2436D01*
X1911Y2436D02*
X1940Y2436D01*
X2100Y2436D02*
X2129Y2436D01*
X2159Y2436D02*
X2188Y2436D01*
X1852Y2435D02*
X1881Y2435D01*
X1911Y2435D02*
X1940Y2435D01*
X2100Y2435D02*
X2129Y2435D01*
X2159Y2435D02*
X2188Y2435D01*
X1852Y2434D02*
X1881Y2434D01*
X1911Y2434D02*
X1940Y2434D01*
X2100Y2434D02*
X2129Y2434D01*
X2159Y2434D02*
X2188Y2434D01*
X1852Y2433D02*
X1881Y2433D01*
X1911Y2433D02*
X1940Y2433D01*
X2100Y2433D02*
X2129Y2433D01*
X2159Y2433D02*
X2188Y2433D01*
X1852Y2432D02*
X1881Y2432D01*
X1911Y2432D02*
X1940Y2432D01*
X2100Y2432D02*
X2129Y2432D01*
X2159Y2432D02*
X2188Y2432D01*
X1852Y2431D02*
X1881Y2431D01*
X1910Y2431D02*
X1940Y2431D01*
X2100Y2431D02*
X2129Y2431D01*
X2158Y2431D02*
X2188Y2431D01*
X1852Y2430D02*
X1882Y2430D01*
X1910Y2430D02*
X1940Y2430D01*
X2100Y2430D02*
X2130Y2430D01*
X2158Y2430D02*
X2188Y2430D01*
X1852Y2429D02*
X1882Y2429D01*
X1910Y2429D02*
X1940Y2429D01*
X2100Y2429D02*
X2130Y2429D01*
X2158Y2429D02*
X2188Y2429D01*
X1852Y2428D02*
X1883Y2428D01*
X1909Y2428D02*
X1940Y2428D01*
X2100Y2428D02*
X2131Y2428D01*
X2157Y2428D02*
X2188Y2428D01*
X1852Y2427D02*
X1883Y2427D01*
X1908Y2427D02*
X1940Y2427D01*
X2100Y2427D02*
X2131Y2427D01*
X2156Y2427D02*
X2188Y2427D01*
X1852Y2426D02*
X1884Y2426D01*
X1908Y2426D02*
X1940Y2426D01*
X2100Y2426D02*
X2132Y2426D01*
X2156Y2426D02*
X2188Y2426D01*
X1852Y2425D02*
X1885Y2425D01*
X1907Y2425D02*
X1940Y2425D01*
X2100Y2425D02*
X2133Y2425D01*
X2155Y2425D02*
X2188Y2425D01*
X1852Y2424D02*
X1886Y2424D01*
X1905Y2424D02*
X1940Y2424D01*
X2100Y2424D02*
X2134Y2424D01*
X2153Y2424D02*
X2188Y2424D01*
X1852Y2423D02*
X1888Y2423D01*
X1904Y2423D02*
X1940Y2423D01*
X2100Y2423D02*
X2136Y2423D01*
X2152Y2423D02*
X2188Y2423D01*
X1852Y2422D02*
X1889Y2422D01*
X1902Y2422D02*
X1940Y2422D01*
X2100Y2422D02*
X2137Y2422D01*
X2150Y2422D02*
X2188Y2422D01*
X1852Y2421D02*
X1893Y2421D01*
X1899Y2421D02*
X1940Y2421D01*
X2100Y2421D02*
X2141Y2421D01*
X2147Y2421D02*
X2188Y2421D01*
X1852Y2420D02*
X1940Y2420D01*
X2100Y2420D02*
X2188Y2420D01*
X1852Y2419D02*
X1940Y2419D01*
X2100Y2419D02*
X2188Y2419D01*
X1852Y2418D02*
X1940Y2418D01*
X2100Y2418D02*
X2188Y2418D01*
X1852Y2417D02*
X1940Y2417D01*
X2100Y2417D02*
X2188Y2417D01*
X1852Y2416D02*
X1940Y2416D01*
X2100Y2416D02*
X2188Y2416D01*
X1852Y2415D02*
X1940Y2415D01*
X2100Y2415D02*
X2188Y2415D01*
X1852Y2414D02*
X1940Y2414D01*
X2100Y2414D02*
X2188Y2414D01*
X1852Y2413D02*
X1940Y2413D01*
X2100Y2413D02*
X2188Y2413D01*
X1852Y2412D02*
X1940Y2412D01*
X2100Y2412D02*
X2188Y2412D01*
X1852Y2411D02*
X1940Y2411D01*
X2100Y2411D02*
X2188Y2411D01*
X1852Y2410D02*
X1940Y2410D01*
X2100Y2410D02*
X2188Y2410D01*
X1852Y2409D02*
X1940Y2409D01*
X2100Y2409D02*
X2188Y2409D01*
X1852Y2408D02*
X1940Y2408D01*
X2100Y2408D02*
X2188Y2408D01*
X1852Y2407D02*
X1940Y2407D01*
X2100Y2407D02*
X2188Y2407D01*
X1852Y2406D02*
X1940Y2406D01*
X2100Y2406D02*
X2188Y2406D01*
X1852Y2405D02*
X1940Y2405D01*
X2100Y2405D02*
X2188Y2405D01*
X1852Y2404D02*
X1940Y2404D01*
X2100Y2404D02*
X2188Y2404D01*
X1852Y2403D02*
X1940Y2403D01*
X2100Y2403D02*
X2188Y2403D01*
X1852Y2402D02*
X1940Y2402D01*
X2100Y2402D02*
X2188Y2402D01*
X1852Y2401D02*
X1940Y2401D01*
X2100Y2401D02*
X2188Y2401D01*
X1852Y2400D02*
X1940Y2400D01*
X2100Y2400D02*
X2188Y2400D01*
X1852Y2399D02*
X1940Y2399D01*
X2100Y2399D02*
X2188Y2399D01*
X1852Y2398D02*
X1940Y2398D01*
X2100Y2398D02*
X2188Y2398D01*
X1852Y2397D02*
X1940Y2397D01*
X2100Y2397D02*
X2188Y2397D01*
X1852Y2396D02*
X1940Y2396D01*
X2100Y2396D02*
X2188Y2396D01*
X1852Y2395D02*
X1940Y2395D01*
X2100Y2395D02*
X2188Y2395D01*
X1852Y2394D02*
X1940Y2394D01*
X2100Y2394D02*
X2188Y2394D01*
X1852Y2393D02*
X1940Y2393D01*
X2100Y2393D02*
X2188Y2393D01*
X1852Y2392D02*
X1940Y2392D01*
X2100Y2392D02*
X2188Y2392D01*
X1852Y2391D02*
X1939Y2391D01*
X2100Y2391D02*
X2187Y2391D01*
X1852Y2390D02*
X1939Y2390D01*
X2101Y2390D02*
X2187Y2390D01*
X1853Y2389D02*
X1939Y2389D01*
X2101Y2389D02*
X2187Y2389D01*
X1853Y2388D02*
X1939Y2388D01*
X2101Y2388D02*
X2187Y2388D01*
X1853Y2387D02*
X1939Y2387D01*
X2101Y2387D02*
X2187Y2387D01*
X1853Y2386D02*
X1938Y2386D01*
X2101Y2386D02*
X2186Y2386D01*
X1854Y2385D02*
X1938Y2385D01*
X2102Y2385D02*
X2186Y2385D01*
X1854Y2384D02*
X1938Y2384D01*
X2102Y2384D02*
X2186Y2384D01*
X1854Y2383D02*
X1938Y2383D01*
X2102Y2383D02*
X2186Y2383D01*
X1854Y2382D02*
X1937Y2382D01*
X2102Y2382D02*
X2185Y2382D01*
X1855Y2381D02*
X1937Y2381D01*
X2103Y2381D02*
X2185Y2381D01*
X1855Y2380D02*
X1937Y2380D01*
X2103Y2380D02*
X2185Y2380D01*
X1856Y2379D02*
X1936Y2379D01*
X2104Y2379D02*
X2184Y2379D01*
X1856Y2378D02*
X1936Y2378D01*
X2104Y2378D02*
X2184Y2378D01*
X1856Y2377D02*
X1935Y2377D01*
X2105Y2377D02*
X2183Y2377D01*
X1857Y2376D02*
X1935Y2376D01*
X2105Y2376D02*
X2183Y2376D01*
X1857Y2375D02*
X1934Y2375D01*
X2105Y2375D02*
X2182Y2375D01*
X1858Y2374D02*
X1934Y2374D01*
X2106Y2374D02*
X2182Y2374D01*
X1859Y2373D02*
X1933Y2373D01*
X2107Y2373D02*
X2181Y2373D01*
X1859Y2372D02*
X1932Y2372D01*
X2107Y2372D02*
X2181Y2372D01*
X1860Y2371D02*
X1932Y2371D01*
X2108Y2371D02*
X2180Y2371D01*
X1861Y2370D02*
X1931Y2370D01*
X2109Y2370D02*
X2179Y2370D01*
X1861Y2369D02*
X1930Y2369D01*
X2109Y2369D02*
X2178Y2369D01*
X1862Y2368D02*
X1930Y2368D01*
X2110Y2368D02*
X2178Y2368D01*
X1863Y2367D02*
X1929Y2367D01*
X2111Y2367D02*
X2177Y2367D01*
X1864Y2366D02*
X1928Y2366D01*
X2112Y2366D02*
X2176Y2366D01*
X1865Y2365D02*
X1927Y2365D01*
X2113Y2365D02*
X2175Y2365D01*
X1866Y2364D02*
X1926Y2364D01*
X2114Y2364D02*
X2174Y2364D01*
X1867Y2363D02*
X1925Y2363D01*
X2115Y2363D02*
X2173Y2363D01*
X1868Y2362D02*
X1924Y2362D01*
X2116Y2362D02*
X2172Y2362D01*
X1869Y2361D02*
X1922Y2361D01*
X2117Y2361D02*
X2170Y2361D01*
X1871Y2360D02*
X1921Y2360D01*
X2119Y2360D02*
X2169Y2360D01*
X1872Y2359D02*
X1920Y2359D01*
X2120Y2359D02*
X2168Y2359D01*
X1874Y2358D02*
X1918Y2358D01*
X2122Y2358D02*
X2166Y2358D01*
X1876Y2357D02*
X1916Y2357D01*
X2124Y2357D02*
X2164Y2357D01*
X1878Y2356D02*
X1914Y2356D01*
X2126Y2356D02*
X2162Y2356D01*
X1880Y2355D02*
X1912Y2355D01*
X2128Y2355D02*
X2160Y2355D01*
X1883Y2354D02*
X1909Y2354D01*
X2131Y2354D02*
X2157Y2354D01*
X1886Y2353D02*
X1905Y2353D01*
X2134Y2353D02*
X2153Y2353D01*
X1892Y2352D02*
X1900Y2352D01*
X2140Y2352D02*
X2148Y2352D01*
X1968Y2176D02*
X2060Y2176D01*
X1963Y2175D02*
X2065Y2175D01*
X1960Y2174D02*
X2068Y2174D01*
X1958Y2173D02*
X2070Y2173D01*
X1956Y2172D02*
X2072Y2172D01*
X115Y2171D02*
X176Y2171D01*
X1112Y2171D02*
X1173Y2171D01*
X1954Y2171D02*
X2074Y2171D01*
X110Y2170D02*
X180Y2170D01*
X1108Y2170D02*
X1178Y2170D01*
X1952Y2170D02*
X2076Y2170D01*
X107Y2169D02*
X183Y2169D01*
X1105Y2169D02*
X1181Y2169D01*
X1950Y2169D02*
X2078Y2169D01*
X105Y2168D02*
X186Y2168D01*
X1103Y2168D02*
X1183Y2168D01*
X1949Y2168D02*
X2079Y2168D01*
X103Y2167D02*
X188Y2167D01*
X1100Y2167D02*
X1185Y2167D01*
X1947Y2167D02*
X2080Y2167D01*
X101Y2166D02*
X190Y2166D01*
X1099Y2166D02*
X1187Y2166D01*
X1946Y2166D02*
X2082Y2166D01*
X100Y2165D02*
X191Y2165D01*
X1097Y2165D02*
X1189Y2165D01*
X1945Y2165D02*
X2083Y2165D01*
X98Y2164D02*
X193Y2164D01*
X1096Y2164D02*
X1190Y2164D01*
X1944Y2164D02*
X2084Y2164D01*
X97Y2163D02*
X194Y2163D01*
X1094Y2163D02*
X1192Y2163D01*
X1943Y2163D02*
X2085Y2163D01*
X96Y2162D02*
X195Y2162D01*
X1093Y2162D02*
X1193Y2162D01*
X1942Y2162D02*
X2086Y2162D01*
X95Y2161D02*
X196Y2161D01*
X1092Y2161D02*
X1194Y2161D01*
X1941Y2161D02*
X2087Y2161D01*
X94Y2160D02*
X197Y2160D01*
X1091Y2160D02*
X1195Y2160D01*
X1940Y2160D02*
X2087Y2160D01*
X93Y2159D02*
X198Y2159D01*
X1090Y2159D02*
X1196Y2159D01*
X1940Y2159D02*
X2088Y2159D01*
X92Y2158D02*
X199Y2158D01*
X1089Y2158D02*
X1196Y2158D01*
X1939Y2158D02*
X2089Y2158D01*
X91Y2157D02*
X200Y2157D01*
X1089Y2157D02*
X1197Y2157D01*
X1938Y2157D02*
X2090Y2157D01*
X90Y2156D02*
X200Y2156D01*
X1088Y2156D02*
X1198Y2156D01*
X1938Y2156D02*
X2090Y2156D01*
X90Y2155D02*
X201Y2155D01*
X1087Y2155D02*
X1198Y2155D01*
X1937Y2155D02*
X2091Y2155D01*
X89Y2154D02*
X202Y2154D01*
X1087Y2154D02*
X1199Y2154D01*
X1936Y2154D02*
X2091Y2154D01*
X89Y2153D02*
X202Y2153D01*
X1086Y2153D02*
X1200Y2153D01*
X1936Y2153D02*
X2092Y2153D01*
X88Y2152D02*
X203Y2152D01*
X1086Y2152D02*
X1200Y2152D01*
X1935Y2152D02*
X2092Y2152D01*
X88Y2151D02*
X203Y2151D01*
X1085Y2151D02*
X1201Y2151D01*
X1935Y2151D02*
X2093Y2151D01*
X87Y2150D02*
X204Y2150D01*
X1085Y2150D02*
X1201Y2150D01*
X1935Y2150D02*
X2093Y2150D01*
X87Y2149D02*
X204Y2149D01*
X1084Y2149D02*
X1202Y2149D01*
X1934Y2149D02*
X2094Y2149D01*
X86Y2148D02*
X204Y2148D01*
X1084Y2148D02*
X1202Y2148D01*
X1934Y2148D02*
X2094Y2148D01*
X86Y2147D02*
X205Y2147D01*
X1084Y2147D02*
X1202Y2147D01*
X1933Y2147D02*
X2095Y2147D01*
X86Y2146D02*
X205Y2146D01*
X1083Y2146D02*
X1203Y2146D01*
X1933Y2146D02*
X2008Y2146D01*
X2020Y2146D02*
X2095Y2146D01*
X85Y2145D02*
X205Y2145D01*
X1083Y2145D02*
X1203Y2145D01*
X1933Y2145D02*
X2006Y2145D01*
X2022Y2145D02*
X2095Y2145D01*
X85Y2144D02*
X206Y2144D01*
X1083Y2144D02*
X1203Y2144D01*
X1932Y2144D02*
X2005Y2144D01*
X2023Y2144D02*
X2096Y2144D01*
X85Y2143D02*
X206Y2143D01*
X1082Y2143D02*
X1203Y2143D01*
X1932Y2143D02*
X2003Y2143D01*
X2025Y2143D02*
X2096Y2143D01*
X85Y2142D02*
X206Y2142D01*
X1082Y2142D02*
X1204Y2142D01*
X1932Y2142D02*
X2002Y2142D01*
X2025Y2142D02*
X2096Y2142D01*
X84Y2141D02*
X143Y2141D01*
X148Y2141D02*
X206Y2141D01*
X1082Y2141D02*
X1139Y2141D01*
X1145Y2141D02*
X1204Y2141D01*
X1932Y2141D02*
X2002Y2141D01*
X2026Y2141D02*
X2096Y2141D01*
X84Y2140D02*
X141Y2140D01*
X150Y2140D02*
X206Y2140D01*
X1082Y2140D02*
X1138Y2140D01*
X1147Y2140D02*
X1204Y2140D01*
X1931Y2140D02*
X2001Y2140D01*
X2027Y2140D02*
X2096Y2140D01*
X84Y2139D02*
X140Y2139D01*
X151Y2139D02*
X207Y2139D01*
X1082Y2139D02*
X1137Y2139D01*
X1148Y2139D02*
X1204Y2139D01*
X1931Y2139D02*
X2000Y2139D01*
X2028Y2139D02*
X2097Y2139D01*
X84Y2138D02*
X139Y2138D01*
X151Y2138D02*
X207Y2138D01*
X1082Y2138D02*
X1136Y2138D01*
X1148Y2138D02*
X1204Y2138D01*
X1931Y2138D02*
X2000Y2138D01*
X2028Y2138D02*
X2097Y2138D01*
X84Y2137D02*
X139Y2137D01*
X152Y2137D02*
X207Y2137D01*
X1082Y2137D02*
X1136Y2137D01*
X1149Y2137D02*
X1204Y2137D01*
X1931Y2137D02*
X2000Y2137D01*
X2028Y2137D02*
X2097Y2137D01*
X84Y2136D02*
X139Y2136D01*
X152Y2136D02*
X207Y2136D01*
X1081Y2136D02*
X1136Y2136D01*
X1149Y2136D02*
X1204Y2136D01*
X1931Y2136D02*
X1999Y2136D01*
X2029Y2136D02*
X2097Y2136D01*
X84Y2135D02*
X139Y2135D01*
X152Y2135D02*
X207Y2135D01*
X1081Y2135D02*
X1136Y2135D01*
X1149Y2135D02*
X1204Y2135D01*
X1931Y2135D02*
X1999Y2135D01*
X2029Y2135D02*
X2097Y2135D01*
X84Y2134D02*
X139Y2134D01*
X152Y2134D02*
X207Y2134D01*
X1082Y2134D02*
X1136Y2134D01*
X1149Y2134D02*
X1204Y2134D01*
X1931Y2134D02*
X1999Y2134D01*
X2029Y2134D02*
X2097Y2134D01*
X84Y2133D02*
X139Y2133D01*
X152Y2133D02*
X207Y2133D01*
X1082Y2133D02*
X1136Y2133D01*
X1148Y2133D02*
X1204Y2133D01*
X1931Y2133D02*
X1999Y2133D01*
X2029Y2133D02*
X2097Y2133D01*
X84Y2132D02*
X140Y2132D01*
X151Y2132D02*
X207Y2132D01*
X1082Y2132D02*
X1137Y2132D01*
X1148Y2132D02*
X1204Y2132D01*
X1931Y2132D02*
X1999Y2132D01*
X2029Y2132D02*
X2097Y2132D01*
X84Y2131D02*
X141Y2131D01*
X150Y2131D02*
X206Y2131D01*
X1082Y2131D02*
X1137Y2131D01*
X1147Y2131D02*
X1204Y2131D01*
X1931Y2131D02*
X1999Y2131D01*
X2029Y2131D02*
X2097Y2131D01*
X84Y2130D02*
X142Y2130D01*
X149Y2130D02*
X206Y2130D01*
X1082Y2130D02*
X1139Y2130D01*
X1145Y2130D02*
X1204Y2130D01*
X1931Y2130D02*
X1999Y2130D01*
X2029Y2130D02*
X2097Y2130D01*
X85Y2129D02*
X206Y2129D01*
X1082Y2129D02*
X1204Y2129D01*
X1931Y2129D02*
X1999Y2129D01*
X2029Y2129D02*
X2097Y2129D01*
X85Y2128D02*
X206Y2128D01*
X1082Y2128D02*
X1203Y2128D01*
X1931Y2128D02*
X1999Y2128D01*
X2029Y2128D02*
X2097Y2128D01*
X85Y2127D02*
X206Y2127D01*
X1083Y2127D02*
X1203Y2127D01*
X1931Y2127D02*
X2000Y2127D01*
X2028Y2127D02*
X2097Y2127D01*
X85Y2126D02*
X205Y2126D01*
X1083Y2126D02*
X1203Y2126D01*
X1931Y2126D02*
X2000Y2126D01*
X2028Y2126D02*
X2097Y2126D01*
X86Y2125D02*
X205Y2125D01*
X1083Y2125D02*
X1203Y2125D01*
X1931Y2125D02*
X2001Y2125D01*
X2027Y2125D02*
X2097Y2125D01*
X86Y2124D02*
X205Y2124D01*
X1084Y2124D02*
X1202Y2124D01*
X1932Y2124D02*
X2001Y2124D01*
X2027Y2124D02*
X2096Y2124D01*
X86Y2123D02*
X204Y2123D01*
X1084Y2123D02*
X1202Y2123D01*
X1932Y2123D02*
X2002Y2123D01*
X2026Y2123D02*
X2096Y2123D01*
X87Y2122D02*
X204Y2122D01*
X1084Y2122D02*
X1202Y2122D01*
X1932Y2122D02*
X2003Y2122D01*
X2025Y2122D02*
X2096Y2122D01*
X87Y2121D02*
X204Y2121D01*
X1085Y2121D02*
X1201Y2121D01*
X1932Y2121D02*
X2004Y2121D01*
X2024Y2121D02*
X2096Y2121D01*
X88Y2120D02*
X203Y2120D01*
X1085Y2120D02*
X1201Y2120D01*
X1933Y2120D02*
X2005Y2120D01*
X2022Y2120D02*
X2095Y2120D01*
X88Y2119D02*
X203Y2119D01*
X1086Y2119D02*
X1200Y2119D01*
X1933Y2119D02*
X2007Y2119D01*
X2021Y2119D02*
X2095Y2119D01*
X89Y2118D02*
X202Y2118D01*
X1086Y2118D02*
X1200Y2118D01*
X1933Y2118D02*
X2010Y2118D01*
X2018Y2118D02*
X2095Y2118D01*
X89Y2117D02*
X202Y2117D01*
X1087Y2117D02*
X1199Y2117D01*
X1934Y2117D02*
X2094Y2117D01*
X90Y2116D02*
X201Y2116D01*
X1087Y2116D02*
X1198Y2116D01*
X1934Y2116D02*
X2094Y2116D01*
X90Y2115D02*
X200Y2115D01*
X1088Y2115D02*
X1198Y2115D01*
X1934Y2115D02*
X2094Y2115D01*
X91Y2114D02*
X200Y2114D01*
X1089Y2114D02*
X1197Y2114D01*
X1935Y2114D02*
X2093Y2114D01*
X92Y2113D02*
X199Y2113D01*
X1089Y2113D02*
X1196Y2113D01*
X1935Y2113D02*
X2093Y2113D01*
X93Y2112D02*
X198Y2112D01*
X1090Y2112D02*
X1196Y2112D01*
X1936Y2112D02*
X2092Y2112D01*
X94Y2111D02*
X197Y2111D01*
X1091Y2111D02*
X1195Y2111D01*
X1936Y2111D02*
X2092Y2111D01*
X94Y2110D02*
X196Y2110D01*
X1092Y2110D02*
X1194Y2110D01*
X1937Y2110D02*
X2091Y2110D01*
X96Y2109D02*
X195Y2109D01*
X1093Y2109D02*
X1193Y2109D01*
X1937Y2109D02*
X2090Y2109D01*
X97Y2108D02*
X194Y2108D01*
X1094Y2108D02*
X1192Y2108D01*
X1938Y2108D02*
X2090Y2108D01*
X98Y2107D02*
X193Y2107D01*
X1096Y2107D02*
X1190Y2107D01*
X1939Y2107D02*
X2089Y2107D01*
X99Y2106D02*
X191Y2106D01*
X1097Y2106D02*
X1189Y2106D01*
X1939Y2106D02*
X2088Y2106D01*
X101Y2105D02*
X190Y2105D01*
X1099Y2105D02*
X1187Y2105D01*
X1940Y2105D02*
X2088Y2105D01*
X103Y2104D02*
X188Y2104D01*
X1100Y2104D02*
X1185Y2104D01*
X1941Y2104D02*
X2087Y2104D01*
X105Y2103D02*
X186Y2103D01*
X1102Y2103D02*
X1183Y2103D01*
X1942Y2103D02*
X2086Y2103D01*
X107Y2102D02*
X183Y2102D01*
X1105Y2102D02*
X1181Y2102D01*
X1943Y2102D02*
X2085Y2102D01*
X110Y2101D02*
X181Y2101D01*
X1108Y2101D02*
X1178Y2101D01*
X1944Y2101D02*
X2084Y2101D01*
X115Y2100D02*
X176Y2100D01*
X1112Y2100D02*
X1174Y2100D01*
X1945Y2100D02*
X2083Y2100D01*
X1946Y2099D02*
X2082Y2099D01*
X1947Y2098D02*
X2081Y2098D01*
X1948Y2097D02*
X2080Y2097D01*
X1950Y2096D02*
X2078Y2096D01*
X1951Y2095D02*
X2077Y2095D01*
X1953Y2094D02*
X2075Y2094D01*
X1955Y2093D02*
X2073Y2093D01*
X1957Y2092D02*
X2071Y2092D01*
X1959Y2091D02*
X2069Y2091D01*
X1962Y2090D02*
X2066Y2090D01*
X1966Y2089D02*
X2062Y2089D01*
X1974Y2088D02*
X2053Y2088D01*
X1439Y2075D02*
X1449Y2075D01*
X1539Y2075D02*
X1549Y2075D01*
X1639Y2075D02*
X1649Y2075D01*
X1434Y2074D02*
X1454Y2074D01*
X1534Y2074D02*
X1554Y2074D01*
X1634Y2074D02*
X1654Y2074D01*
X1431Y2073D02*
X1457Y2073D01*
X1531Y2073D02*
X1557Y2073D01*
X1631Y2073D02*
X1657Y2073D01*
X1428Y2072D02*
X1460Y2072D01*
X1528Y2072D02*
X1560Y2072D01*
X1628Y2072D02*
X1660Y2072D01*
X115Y2071D02*
X176Y2071D01*
X1112Y2071D02*
X1173Y2071D01*
X1426Y2071D02*
X1462Y2071D01*
X1526Y2071D02*
X1562Y2071D01*
X1626Y2071D02*
X1662Y2071D01*
X110Y2070D02*
X180Y2070D01*
X1108Y2070D02*
X1178Y2070D01*
X1424Y2070D02*
X1463Y2070D01*
X1524Y2070D02*
X1563Y2070D01*
X1624Y2070D02*
X1663Y2070D01*
X107Y2069D02*
X183Y2069D01*
X1105Y2069D02*
X1181Y2069D01*
X1423Y2069D02*
X1465Y2069D01*
X1523Y2069D02*
X1565Y2069D01*
X1623Y2069D02*
X1665Y2069D01*
X105Y2068D02*
X186Y2068D01*
X1103Y2068D02*
X1183Y2068D01*
X1421Y2068D02*
X1467Y2068D01*
X1521Y2068D02*
X1567Y2068D01*
X1621Y2068D02*
X1667Y2068D01*
X103Y2067D02*
X188Y2067D01*
X1100Y2067D02*
X1185Y2067D01*
X1420Y2067D02*
X1468Y2067D01*
X1520Y2067D02*
X1568Y2067D01*
X1620Y2067D02*
X1668Y2067D01*
X101Y2066D02*
X190Y2066D01*
X1099Y2066D02*
X1187Y2066D01*
X1419Y2066D02*
X1469Y2066D01*
X1519Y2066D02*
X1569Y2066D01*
X1619Y2066D02*
X1669Y2066D01*
X100Y2065D02*
X191Y2065D01*
X1097Y2065D02*
X1189Y2065D01*
X1418Y2065D02*
X1470Y2065D01*
X1518Y2065D02*
X1570Y2065D01*
X1618Y2065D02*
X1670Y2065D01*
X98Y2064D02*
X193Y2064D01*
X1096Y2064D02*
X1190Y2064D01*
X1416Y2064D02*
X1471Y2064D01*
X1516Y2064D02*
X1571Y2064D01*
X1616Y2064D02*
X1671Y2064D01*
X97Y2063D02*
X194Y2063D01*
X1094Y2063D02*
X1192Y2063D01*
X1415Y2063D02*
X1472Y2063D01*
X1515Y2063D02*
X1572Y2063D01*
X1615Y2063D02*
X1672Y2063D01*
X96Y2062D02*
X195Y2062D01*
X1093Y2062D02*
X1193Y2062D01*
X1415Y2062D02*
X1473Y2062D01*
X1515Y2062D02*
X1573Y2062D01*
X1615Y2062D02*
X1673Y2062D01*
X95Y2061D02*
X196Y2061D01*
X1092Y2061D02*
X1194Y2061D01*
X1414Y2061D02*
X1474Y2061D01*
X1514Y2061D02*
X1574Y2061D01*
X1614Y2061D02*
X1674Y2061D01*
X94Y2060D02*
X197Y2060D01*
X1091Y2060D02*
X1195Y2060D01*
X1413Y2060D02*
X1475Y2060D01*
X1513Y2060D02*
X1575Y2060D01*
X1613Y2060D02*
X1675Y2060D01*
X93Y2059D02*
X198Y2059D01*
X1090Y2059D02*
X1196Y2059D01*
X1412Y2059D02*
X1476Y2059D01*
X1512Y2059D02*
X1576Y2059D01*
X1612Y2059D02*
X1676Y2059D01*
X92Y2058D02*
X199Y2058D01*
X1089Y2058D02*
X1196Y2058D01*
X1411Y2058D02*
X1476Y2058D01*
X1511Y2058D02*
X1576Y2058D01*
X1611Y2058D02*
X1676Y2058D01*
X91Y2057D02*
X200Y2057D01*
X1089Y2057D02*
X1197Y2057D01*
X1411Y2057D02*
X1477Y2057D01*
X1511Y2057D02*
X1577Y2057D01*
X1611Y2057D02*
X1677Y2057D01*
X90Y2056D02*
X200Y2056D01*
X1088Y2056D02*
X1198Y2056D01*
X1410Y2056D02*
X1478Y2056D01*
X1510Y2056D02*
X1578Y2056D01*
X1610Y2056D02*
X1678Y2056D01*
X90Y2055D02*
X201Y2055D01*
X1087Y2055D02*
X1199Y2055D01*
X1410Y2055D02*
X1478Y2055D01*
X1510Y2055D02*
X1578Y2055D01*
X1610Y2055D02*
X1678Y2055D01*
X89Y2054D02*
X202Y2054D01*
X1087Y2054D02*
X1199Y2054D01*
X1409Y2054D02*
X1479Y2054D01*
X1509Y2054D02*
X1579Y2054D01*
X1609Y2054D02*
X1679Y2054D01*
X89Y2053D02*
X202Y2053D01*
X1086Y2053D02*
X1200Y2053D01*
X1409Y2053D02*
X1479Y2053D01*
X1509Y2053D02*
X1579Y2053D01*
X1609Y2053D02*
X1679Y2053D01*
X88Y2052D02*
X203Y2052D01*
X1086Y2052D02*
X1200Y2052D01*
X1408Y2052D02*
X1480Y2052D01*
X1508Y2052D02*
X1580Y2052D01*
X1608Y2052D02*
X1680Y2052D01*
X88Y2051D02*
X203Y2051D01*
X1085Y2051D02*
X1201Y2051D01*
X1408Y2051D02*
X1480Y2051D01*
X1508Y2051D02*
X1580Y2051D01*
X1608Y2051D02*
X1680Y2051D01*
X87Y2050D02*
X204Y2050D01*
X1085Y2050D02*
X1201Y2050D01*
X1407Y2050D02*
X1481Y2050D01*
X1507Y2050D02*
X1581Y2050D01*
X1607Y2050D02*
X1681Y2050D01*
X87Y2049D02*
X204Y2049D01*
X1084Y2049D02*
X1202Y2049D01*
X1407Y2049D02*
X1481Y2049D01*
X1507Y2049D02*
X1581Y2049D01*
X1607Y2049D02*
X1681Y2049D01*
X86Y2048D02*
X204Y2048D01*
X1084Y2048D02*
X1202Y2048D01*
X1406Y2048D02*
X1481Y2048D01*
X1506Y2048D02*
X1581Y2048D01*
X1606Y2048D02*
X1681Y2048D01*
X86Y2047D02*
X205Y2047D01*
X1084Y2047D02*
X1202Y2047D01*
X1406Y2047D02*
X1482Y2047D01*
X1506Y2047D02*
X1582Y2047D01*
X1606Y2047D02*
X1682Y2047D01*
X86Y2046D02*
X205Y2046D01*
X1083Y2046D02*
X1203Y2046D01*
X1406Y2046D02*
X1482Y2046D01*
X1506Y2046D02*
X1582Y2046D01*
X1606Y2046D02*
X1682Y2046D01*
X85Y2045D02*
X205Y2045D01*
X1083Y2045D02*
X1203Y2045D01*
X1406Y2045D02*
X1482Y2045D01*
X1506Y2045D02*
X1582Y2045D01*
X1606Y2045D02*
X1682Y2045D01*
X85Y2044D02*
X206Y2044D01*
X1083Y2044D02*
X1203Y2044D01*
X1405Y2044D02*
X1482Y2044D01*
X1505Y2044D02*
X1582Y2044D01*
X1605Y2044D02*
X1682Y2044D01*
X85Y2043D02*
X206Y2043D01*
X1082Y2043D02*
X1204Y2043D01*
X1405Y2043D02*
X1483Y2043D01*
X1505Y2043D02*
X1583Y2043D01*
X1605Y2043D02*
X1683Y2043D01*
X85Y2042D02*
X206Y2042D01*
X1082Y2042D02*
X1204Y2042D01*
X1405Y2042D02*
X1483Y2042D01*
X1505Y2042D02*
X1583Y2042D01*
X1605Y2042D02*
X1683Y2042D01*
X84Y2041D02*
X143Y2041D01*
X148Y2041D02*
X206Y2041D01*
X1082Y2041D02*
X1139Y2041D01*
X1145Y2041D02*
X1204Y2041D01*
X1405Y2041D02*
X1483Y2041D01*
X1505Y2041D02*
X1583Y2041D01*
X1605Y2041D02*
X1683Y2041D01*
X84Y2040D02*
X141Y2040D01*
X150Y2040D02*
X206Y2040D01*
X1082Y2040D02*
X1138Y2040D01*
X1147Y2040D02*
X1204Y2040D01*
X1405Y2040D02*
X1483Y2040D01*
X1505Y2040D02*
X1583Y2040D01*
X1605Y2040D02*
X1683Y2040D01*
X84Y2039D02*
X140Y2039D01*
X151Y2039D02*
X207Y2039D01*
X1082Y2039D02*
X1137Y2039D01*
X1148Y2039D02*
X1204Y2039D01*
X1405Y2039D02*
X1483Y2039D01*
X1505Y2039D02*
X1583Y2039D01*
X1605Y2039D02*
X1683Y2039D01*
X84Y2038D02*
X139Y2038D01*
X151Y2038D02*
X207Y2038D01*
X1082Y2038D02*
X1136Y2038D01*
X1148Y2038D02*
X1204Y2038D01*
X1405Y2038D02*
X1483Y2038D01*
X1505Y2038D02*
X1583Y2038D01*
X1605Y2038D02*
X1683Y2038D01*
X84Y2037D02*
X139Y2037D01*
X152Y2037D02*
X207Y2037D01*
X1082Y2037D02*
X1136Y2037D01*
X1149Y2037D02*
X1204Y2037D01*
X1404Y2037D02*
X1483Y2037D01*
X1504Y2037D02*
X1583Y2037D01*
X1604Y2037D02*
X1683Y2037D01*
X84Y2036D02*
X139Y2036D01*
X152Y2036D02*
X207Y2036D01*
X1081Y2036D02*
X1136Y2036D01*
X1149Y2036D02*
X1204Y2036D01*
X1404Y2036D02*
X1483Y2036D01*
X1504Y2036D02*
X1583Y2036D01*
X1604Y2036D02*
X1683Y2036D01*
X84Y2035D02*
X139Y2035D01*
X152Y2035D02*
X207Y2035D01*
X1081Y2035D02*
X1136Y2035D01*
X1149Y2035D02*
X1204Y2035D01*
X1404Y2035D02*
X1483Y2035D01*
X1504Y2035D02*
X1583Y2035D01*
X1604Y2035D02*
X1683Y2035D01*
X84Y2034D02*
X139Y2034D01*
X152Y2034D02*
X207Y2034D01*
X1082Y2034D02*
X1136Y2034D01*
X1149Y2034D02*
X1204Y2034D01*
X1404Y2034D02*
X1483Y2034D01*
X1504Y2034D02*
X1583Y2034D01*
X1604Y2034D02*
X1683Y2034D01*
X84Y2033D02*
X139Y2033D01*
X152Y2033D02*
X207Y2033D01*
X1082Y2033D02*
X1136Y2033D01*
X1148Y2033D02*
X1204Y2033D01*
X1405Y2033D02*
X1483Y2033D01*
X1505Y2033D02*
X1583Y2033D01*
X1605Y2033D02*
X1683Y2033D01*
X84Y2032D02*
X140Y2032D01*
X151Y2032D02*
X207Y2032D01*
X1082Y2032D02*
X1137Y2032D01*
X1148Y2032D02*
X1204Y2032D01*
X1405Y2032D02*
X1483Y2032D01*
X1505Y2032D02*
X1583Y2032D01*
X1605Y2032D02*
X1683Y2032D01*
X84Y2031D02*
X141Y2031D01*
X150Y2031D02*
X206Y2031D01*
X1082Y2031D02*
X1137Y2031D01*
X1147Y2031D02*
X1204Y2031D01*
X1405Y2031D02*
X1483Y2031D01*
X1505Y2031D02*
X1583Y2031D01*
X1605Y2031D02*
X1683Y2031D01*
X84Y2030D02*
X142Y2030D01*
X149Y2030D02*
X206Y2030D01*
X1082Y2030D02*
X1139Y2030D01*
X1145Y2030D02*
X1204Y2030D01*
X1405Y2030D02*
X1483Y2030D01*
X1505Y2030D02*
X1583Y2030D01*
X1605Y2030D02*
X1683Y2030D01*
X85Y2029D02*
X206Y2029D01*
X1082Y2029D02*
X1204Y2029D01*
X1405Y2029D02*
X1483Y2029D01*
X1505Y2029D02*
X1583Y2029D01*
X1605Y2029D02*
X1683Y2029D01*
X85Y2028D02*
X206Y2028D01*
X1082Y2028D02*
X1204Y2028D01*
X1405Y2028D02*
X1483Y2028D01*
X1505Y2028D02*
X1583Y2028D01*
X1605Y2028D02*
X1683Y2028D01*
X85Y2027D02*
X206Y2027D01*
X1083Y2027D02*
X1203Y2027D01*
X1405Y2027D02*
X1482Y2027D01*
X1505Y2027D02*
X1582Y2027D01*
X1605Y2027D02*
X1682Y2027D01*
X85Y2026D02*
X205Y2026D01*
X1083Y2026D02*
X1203Y2026D01*
X1406Y2026D02*
X1482Y2026D01*
X1506Y2026D02*
X1582Y2026D01*
X1606Y2026D02*
X1682Y2026D01*
X86Y2025D02*
X205Y2025D01*
X1083Y2025D02*
X1203Y2025D01*
X1406Y2025D02*
X1482Y2025D01*
X1506Y2025D02*
X1582Y2025D01*
X1606Y2025D02*
X1682Y2025D01*
X86Y2024D02*
X205Y2024D01*
X1084Y2024D02*
X1202Y2024D01*
X1406Y2024D02*
X1482Y2024D01*
X1506Y2024D02*
X1582Y2024D01*
X1606Y2024D02*
X1682Y2024D01*
X86Y2023D02*
X204Y2023D01*
X1084Y2023D02*
X1202Y2023D01*
X1406Y2023D02*
X1481Y2023D01*
X1506Y2023D02*
X1581Y2023D01*
X1606Y2023D02*
X1681Y2023D01*
X87Y2022D02*
X204Y2022D01*
X1084Y2022D02*
X1202Y2022D01*
X1407Y2022D02*
X1481Y2022D01*
X1507Y2022D02*
X1581Y2022D01*
X1607Y2022D02*
X1681Y2022D01*
X87Y2021D02*
X204Y2021D01*
X1085Y2021D02*
X1201Y2021D01*
X1407Y2021D02*
X1481Y2021D01*
X1507Y2021D02*
X1581Y2021D01*
X1607Y2021D02*
X1681Y2021D01*
X88Y2020D02*
X203Y2020D01*
X1085Y2020D02*
X1201Y2020D01*
X1408Y2020D02*
X1480Y2020D01*
X1508Y2020D02*
X1580Y2020D01*
X1608Y2020D02*
X1680Y2020D01*
X88Y2019D02*
X203Y2019D01*
X1086Y2019D02*
X1200Y2019D01*
X1408Y2019D02*
X1480Y2019D01*
X1508Y2019D02*
X1580Y2019D01*
X1608Y2019D02*
X1680Y2019D01*
X1892Y2019D02*
X1900Y2019D01*
X2140Y2019D02*
X2148Y2019D01*
X89Y2018D02*
X202Y2018D01*
X1086Y2018D02*
X1200Y2018D01*
X1408Y2018D02*
X1479Y2018D01*
X1508Y2018D02*
X1579Y2018D01*
X1608Y2018D02*
X1679Y2018D01*
X1886Y2018D02*
X1905Y2018D01*
X2134Y2018D02*
X2153Y2018D01*
X89Y2017D02*
X202Y2017D01*
X1087Y2017D02*
X1199Y2017D01*
X1409Y2017D02*
X1479Y2017D01*
X1509Y2017D02*
X1579Y2017D01*
X1609Y2017D02*
X1679Y2017D01*
X1883Y2017D02*
X1909Y2017D01*
X2131Y2017D02*
X2157Y2017D01*
X90Y2016D02*
X201Y2016D01*
X1087Y2016D02*
X1199Y2016D01*
X1410Y2016D02*
X1478Y2016D01*
X1510Y2016D02*
X1578Y2016D01*
X1610Y2016D02*
X1678Y2016D01*
X1880Y2016D02*
X1912Y2016D01*
X2128Y2016D02*
X2160Y2016D01*
X90Y2015D02*
X200Y2015D01*
X1088Y2015D02*
X1198Y2015D01*
X1410Y2015D02*
X1478Y2015D01*
X1510Y2015D02*
X1578Y2015D01*
X1610Y2015D02*
X1678Y2015D01*
X1878Y2015D02*
X1914Y2015D01*
X2126Y2015D02*
X2162Y2015D01*
X91Y2014D02*
X200Y2014D01*
X1089Y2014D02*
X1197Y2014D01*
X1411Y2014D02*
X1477Y2014D01*
X1511Y2014D02*
X1577Y2014D01*
X1611Y2014D02*
X1677Y2014D01*
X1876Y2014D02*
X1916Y2014D01*
X2124Y2014D02*
X2164Y2014D01*
X92Y2013D02*
X199Y2013D01*
X1089Y2013D02*
X1196Y2013D01*
X1411Y2013D02*
X1476Y2013D01*
X1511Y2013D02*
X1576Y2013D01*
X1611Y2013D02*
X1676Y2013D01*
X1874Y2013D02*
X1918Y2013D01*
X2122Y2013D02*
X2166Y2013D01*
X93Y2012D02*
X198Y2012D01*
X1090Y2012D02*
X1196Y2012D01*
X1412Y2012D02*
X1476Y2012D01*
X1512Y2012D02*
X1576Y2012D01*
X1612Y2012D02*
X1676Y2012D01*
X1872Y2012D02*
X1919Y2012D01*
X2120Y2012D02*
X2167Y2012D01*
X94Y2011D02*
X197Y2011D01*
X1091Y2011D02*
X1195Y2011D01*
X1413Y2011D02*
X1475Y2011D01*
X1513Y2011D02*
X1575Y2011D01*
X1613Y2011D02*
X1675Y2011D01*
X1871Y2011D02*
X1921Y2011D01*
X2119Y2011D02*
X2169Y2011D01*
X94Y2010D02*
X196Y2010D01*
X1092Y2010D02*
X1194Y2010D01*
X1414Y2010D02*
X1474Y2010D01*
X1514Y2010D02*
X1574Y2010D01*
X1614Y2010D02*
X1674Y2010D01*
X1869Y2010D02*
X1922Y2010D01*
X2117Y2010D02*
X2170Y2010D01*
X96Y2009D02*
X195Y2009D01*
X1093Y2009D02*
X1193Y2009D01*
X1415Y2009D02*
X1473Y2009D01*
X1515Y2009D02*
X1573Y2009D01*
X1615Y2009D02*
X1673Y2009D01*
X1868Y2009D02*
X1924Y2009D01*
X2116Y2009D02*
X2172Y2009D01*
X97Y2008D02*
X194Y2008D01*
X1094Y2008D02*
X1192Y2008D01*
X1415Y2008D02*
X1472Y2008D01*
X1515Y2008D02*
X1572Y2008D01*
X1615Y2008D02*
X1672Y2008D01*
X1867Y2008D02*
X1925Y2008D01*
X2115Y2008D02*
X2173Y2008D01*
X98Y2007D02*
X193Y2007D01*
X1096Y2007D02*
X1190Y2007D01*
X1416Y2007D02*
X1471Y2007D01*
X1516Y2007D02*
X1571Y2007D01*
X1616Y2007D02*
X1671Y2007D01*
X1866Y2007D02*
X1926Y2007D01*
X2114Y2007D02*
X2174Y2007D01*
X99Y2006D02*
X191Y2006D01*
X1097Y2006D02*
X1189Y2006D01*
X1417Y2006D02*
X1470Y2006D01*
X1517Y2006D02*
X1570Y2006D01*
X1617Y2006D02*
X1670Y2006D01*
X1865Y2006D02*
X1927Y2006D01*
X2113Y2006D02*
X2175Y2006D01*
X101Y2005D02*
X190Y2005D01*
X1099Y2005D02*
X1187Y2005D01*
X1419Y2005D02*
X1469Y2005D01*
X1519Y2005D02*
X1569Y2005D01*
X1619Y2005D02*
X1669Y2005D01*
X1864Y2005D02*
X1928Y2005D01*
X2112Y2005D02*
X2176Y2005D01*
X103Y2004D02*
X188Y2004D01*
X1100Y2004D02*
X1186Y2004D01*
X1420Y2004D02*
X1468Y2004D01*
X1520Y2004D02*
X1568Y2004D01*
X1620Y2004D02*
X1668Y2004D01*
X1863Y2004D02*
X1929Y2004D01*
X2111Y2004D02*
X2177Y2004D01*
X105Y2003D02*
X186Y2003D01*
X1102Y2003D02*
X1183Y2003D01*
X1421Y2003D02*
X1467Y2003D01*
X1521Y2003D02*
X1567Y2003D01*
X1621Y2003D02*
X1667Y2003D01*
X1862Y2003D02*
X1930Y2003D01*
X2110Y2003D02*
X2178Y2003D01*
X107Y2002D02*
X183Y2002D01*
X1105Y2002D02*
X1181Y2002D01*
X1423Y2002D02*
X1465Y2002D01*
X1523Y2002D02*
X1565Y2002D01*
X1623Y2002D02*
X1665Y2002D01*
X1861Y2002D02*
X1930Y2002D01*
X2109Y2002D02*
X2178Y2002D01*
X110Y2001D02*
X181Y2001D01*
X1108Y2001D02*
X1178Y2001D01*
X1424Y2001D02*
X1463Y2001D01*
X1524Y2001D02*
X1563Y2001D01*
X1624Y2001D02*
X1663Y2001D01*
X1861Y2001D02*
X1931Y2001D01*
X2109Y2001D02*
X2179Y2001D01*
X115Y2000D02*
X176Y2000D01*
X1112Y2000D02*
X1174Y2000D01*
X1426Y2000D02*
X1462Y2000D01*
X1526Y2000D02*
X1562Y2000D01*
X1626Y2000D02*
X1662Y2000D01*
X1860Y2000D02*
X1932Y2000D01*
X2108Y2000D02*
X2180Y2000D01*
X1428Y1999D02*
X1460Y1999D01*
X1528Y1999D02*
X1560Y1999D01*
X1628Y1999D02*
X1660Y1999D01*
X1859Y1999D02*
X1932Y1999D01*
X2107Y1999D02*
X2181Y1999D01*
X1431Y1998D02*
X1457Y1998D01*
X1531Y1998D02*
X1557Y1998D01*
X1631Y1998D02*
X1657Y1998D01*
X1859Y1998D02*
X1933Y1998D01*
X2107Y1998D02*
X2181Y1998D01*
X1434Y1997D02*
X1454Y1997D01*
X1534Y1997D02*
X1554Y1997D01*
X1634Y1997D02*
X1654Y1997D01*
X1858Y1997D02*
X1934Y1997D01*
X2106Y1997D02*
X2182Y1997D01*
X1439Y1996D02*
X1449Y1996D01*
X1539Y1996D02*
X1549Y1996D01*
X1639Y1996D02*
X1649Y1996D01*
X1857Y1996D02*
X1934Y1996D01*
X2105Y1996D02*
X2182Y1996D01*
X1857Y1995D02*
X1935Y1995D01*
X2105Y1995D02*
X2183Y1995D01*
X1856Y1994D02*
X1935Y1994D01*
X2105Y1994D02*
X2183Y1994D01*
X1856Y1993D02*
X1936Y1993D01*
X2104Y1993D02*
X2184Y1993D01*
X1856Y1992D02*
X1936Y1992D01*
X2104Y1992D02*
X2184Y1992D01*
X1855Y1991D02*
X1937Y1991D01*
X2103Y1991D02*
X2185Y1991D01*
X1855Y1990D02*
X1937Y1990D01*
X2103Y1990D02*
X2185Y1990D01*
X1854Y1989D02*
X1937Y1989D01*
X2102Y1989D02*
X2185Y1989D01*
X1854Y1988D02*
X1938Y1988D01*
X2102Y1988D02*
X2186Y1988D01*
X1854Y1987D02*
X1938Y1987D01*
X2102Y1987D02*
X2186Y1987D01*
X1854Y1986D02*
X1938Y1986D01*
X2102Y1986D02*
X2186Y1986D01*
X1853Y1985D02*
X1938Y1985D01*
X2101Y1985D02*
X2186Y1985D01*
X1853Y1984D02*
X1939Y1984D01*
X2101Y1984D02*
X2187Y1984D01*
X1853Y1983D02*
X1939Y1983D01*
X2101Y1983D02*
X2187Y1983D01*
X1853Y1982D02*
X1939Y1982D01*
X2101Y1982D02*
X2187Y1982D01*
X1852Y1981D02*
X1939Y1981D01*
X2101Y1981D02*
X2187Y1981D01*
X1852Y1980D02*
X1939Y1980D01*
X2100Y1980D02*
X2187Y1980D01*
X1852Y1979D02*
X1940Y1979D01*
X2100Y1979D02*
X2188Y1979D01*
X1852Y1978D02*
X1940Y1978D01*
X2100Y1978D02*
X2188Y1978D01*
X1852Y1977D02*
X1940Y1977D01*
X2100Y1977D02*
X2188Y1977D01*
X1852Y1976D02*
X1940Y1976D01*
X2100Y1976D02*
X2188Y1976D01*
X1852Y1975D02*
X1940Y1975D01*
X2100Y1975D02*
X2188Y1975D01*
X1852Y1974D02*
X1940Y1974D01*
X2100Y1974D02*
X2188Y1974D01*
X1852Y1973D02*
X1940Y1973D01*
X2100Y1973D02*
X2188Y1973D01*
X1852Y1972D02*
X1940Y1972D01*
X2100Y1972D02*
X2188Y1972D01*
X115Y1971D02*
X176Y1971D01*
X1112Y1971D02*
X1173Y1971D01*
X1852Y1971D02*
X1940Y1971D01*
X2100Y1971D02*
X2188Y1971D01*
X110Y1970D02*
X180Y1970D01*
X1108Y1970D02*
X1178Y1970D01*
X1852Y1970D02*
X1940Y1970D01*
X2100Y1970D02*
X2188Y1970D01*
X107Y1969D02*
X183Y1969D01*
X1105Y1969D02*
X1181Y1969D01*
X1852Y1969D02*
X1940Y1969D01*
X2100Y1969D02*
X2188Y1969D01*
X105Y1968D02*
X186Y1968D01*
X1103Y1968D02*
X1183Y1968D01*
X1852Y1968D02*
X1940Y1968D01*
X2100Y1968D02*
X2188Y1968D01*
X103Y1967D02*
X188Y1967D01*
X1100Y1967D02*
X1185Y1967D01*
X1852Y1967D02*
X1940Y1967D01*
X2100Y1967D02*
X2188Y1967D01*
X101Y1966D02*
X190Y1966D01*
X1099Y1966D02*
X1187Y1966D01*
X1852Y1966D02*
X1940Y1966D01*
X2100Y1966D02*
X2188Y1966D01*
X100Y1965D02*
X191Y1965D01*
X1097Y1965D02*
X1189Y1965D01*
X1852Y1965D02*
X1940Y1965D01*
X2100Y1965D02*
X2188Y1965D01*
X98Y1964D02*
X193Y1964D01*
X1096Y1964D02*
X1190Y1964D01*
X1852Y1964D02*
X1940Y1964D01*
X2100Y1964D02*
X2188Y1964D01*
X97Y1963D02*
X194Y1963D01*
X1094Y1963D02*
X1192Y1963D01*
X1852Y1963D02*
X1940Y1963D01*
X2100Y1963D02*
X2188Y1963D01*
X96Y1962D02*
X195Y1962D01*
X1093Y1962D02*
X1193Y1962D01*
X1852Y1962D02*
X1940Y1962D01*
X2100Y1962D02*
X2188Y1962D01*
X95Y1961D02*
X196Y1961D01*
X1092Y1961D02*
X1194Y1961D01*
X1852Y1961D02*
X1940Y1961D01*
X2100Y1961D02*
X2188Y1961D01*
X94Y1960D02*
X197Y1960D01*
X1091Y1960D02*
X1195Y1960D01*
X1852Y1960D02*
X1940Y1960D01*
X2100Y1960D02*
X2188Y1960D01*
X93Y1959D02*
X198Y1959D01*
X1090Y1959D02*
X1196Y1959D01*
X1852Y1959D02*
X1940Y1959D01*
X2100Y1959D02*
X2188Y1959D01*
X92Y1958D02*
X199Y1958D01*
X1089Y1958D02*
X1196Y1958D01*
X1852Y1958D02*
X1940Y1958D01*
X2100Y1958D02*
X2188Y1958D01*
X91Y1957D02*
X200Y1957D01*
X1089Y1957D02*
X1197Y1957D01*
X1852Y1957D02*
X1940Y1957D01*
X2100Y1957D02*
X2188Y1957D01*
X90Y1956D02*
X200Y1956D01*
X1088Y1956D02*
X1198Y1956D01*
X1852Y1956D02*
X1940Y1956D01*
X2100Y1956D02*
X2188Y1956D01*
X90Y1955D02*
X201Y1955D01*
X1087Y1955D02*
X1198Y1955D01*
X1852Y1955D02*
X1940Y1955D01*
X2100Y1955D02*
X2188Y1955D01*
X89Y1954D02*
X202Y1954D01*
X1087Y1954D02*
X1199Y1954D01*
X1852Y1954D02*
X1940Y1954D01*
X2100Y1954D02*
X2188Y1954D01*
X89Y1953D02*
X202Y1953D01*
X1086Y1953D02*
X1200Y1953D01*
X1852Y1953D02*
X1940Y1953D01*
X2100Y1953D02*
X2188Y1953D01*
X88Y1952D02*
X203Y1952D01*
X1086Y1952D02*
X1200Y1952D01*
X1852Y1952D02*
X1940Y1952D01*
X2100Y1952D02*
X2188Y1952D01*
X88Y1951D02*
X203Y1951D01*
X1085Y1951D02*
X1201Y1951D01*
X1852Y1951D02*
X1940Y1951D01*
X2100Y1951D02*
X2188Y1951D01*
X87Y1950D02*
X204Y1950D01*
X1085Y1950D02*
X1201Y1950D01*
X1852Y1950D02*
X1893Y1950D01*
X1898Y1950D02*
X1940Y1950D01*
X2100Y1950D02*
X2141Y1950D01*
X2146Y1950D02*
X2188Y1950D01*
X87Y1949D02*
X204Y1949D01*
X1084Y1949D02*
X1202Y1949D01*
X1852Y1949D02*
X1889Y1949D01*
X1902Y1949D02*
X1940Y1949D01*
X2100Y1949D02*
X2137Y1949D01*
X2150Y1949D02*
X2188Y1949D01*
X86Y1948D02*
X204Y1948D01*
X1084Y1948D02*
X1202Y1948D01*
X1852Y1948D02*
X1888Y1948D01*
X1904Y1948D02*
X1940Y1948D01*
X2100Y1948D02*
X2136Y1948D01*
X2152Y1948D02*
X2188Y1948D01*
X86Y1947D02*
X205Y1947D01*
X1084Y1947D02*
X1202Y1947D01*
X1852Y1947D02*
X1886Y1947D01*
X1905Y1947D02*
X1940Y1947D01*
X2100Y1947D02*
X2134Y1947D01*
X2153Y1947D02*
X2188Y1947D01*
X86Y1946D02*
X205Y1946D01*
X1083Y1946D02*
X1203Y1946D01*
X1852Y1946D02*
X1885Y1946D01*
X1907Y1946D02*
X1940Y1946D01*
X2100Y1946D02*
X2133Y1946D01*
X2155Y1946D02*
X2188Y1946D01*
X85Y1945D02*
X205Y1945D01*
X1083Y1945D02*
X1203Y1945D01*
X1852Y1945D02*
X1884Y1945D01*
X1907Y1945D02*
X1940Y1945D01*
X2100Y1945D02*
X2132Y1945D01*
X2156Y1945D02*
X2188Y1945D01*
X85Y1944D02*
X206Y1944D01*
X1083Y1944D02*
X1203Y1944D01*
X1852Y1944D02*
X1883Y1944D01*
X1908Y1944D02*
X1940Y1944D01*
X2100Y1944D02*
X2131Y1944D01*
X2156Y1944D02*
X2188Y1944D01*
X85Y1943D02*
X206Y1943D01*
X1082Y1943D02*
X1203Y1943D01*
X1852Y1943D02*
X1883Y1943D01*
X1909Y1943D02*
X1940Y1943D01*
X2100Y1943D02*
X2131Y1943D01*
X2157Y1943D02*
X2188Y1943D01*
X85Y1942D02*
X206Y1942D01*
X1082Y1942D02*
X1204Y1942D01*
X1852Y1942D02*
X1882Y1942D01*
X1910Y1942D02*
X1940Y1942D01*
X2100Y1942D02*
X2130Y1942D01*
X2158Y1942D02*
X2188Y1942D01*
X84Y1941D02*
X143Y1941D01*
X148Y1941D02*
X206Y1941D01*
X1082Y1941D02*
X1139Y1941D01*
X1145Y1941D02*
X1204Y1941D01*
X1852Y1941D02*
X1882Y1941D01*
X1910Y1941D02*
X1940Y1941D01*
X2100Y1941D02*
X2130Y1941D01*
X2158Y1941D02*
X2188Y1941D01*
X84Y1940D02*
X141Y1940D01*
X150Y1940D02*
X206Y1940D01*
X1082Y1940D02*
X1138Y1940D01*
X1147Y1940D02*
X1204Y1940D01*
X1852Y1940D02*
X1881Y1940D01*
X1910Y1940D02*
X1940Y1940D01*
X2100Y1940D02*
X2129Y1940D01*
X2158Y1940D02*
X2188Y1940D01*
X84Y1939D02*
X140Y1939D01*
X151Y1939D02*
X207Y1939D01*
X1082Y1939D02*
X1137Y1939D01*
X1148Y1939D02*
X1204Y1939D01*
X1852Y1939D02*
X1881Y1939D01*
X1911Y1939D02*
X1940Y1939D01*
X2100Y1939D02*
X2129Y1939D01*
X2159Y1939D02*
X2188Y1939D01*
X84Y1938D02*
X139Y1938D01*
X151Y1938D02*
X207Y1938D01*
X1082Y1938D02*
X1136Y1938D01*
X1148Y1938D02*
X1204Y1938D01*
X1852Y1938D02*
X1881Y1938D01*
X1911Y1938D02*
X1940Y1938D01*
X2100Y1938D02*
X2129Y1938D01*
X2159Y1938D02*
X2188Y1938D01*
X84Y1937D02*
X139Y1937D01*
X152Y1937D02*
X207Y1937D01*
X1082Y1937D02*
X1136Y1937D01*
X1149Y1937D02*
X1204Y1937D01*
X1852Y1937D02*
X1881Y1937D01*
X1911Y1937D02*
X1940Y1937D01*
X2100Y1937D02*
X2129Y1937D01*
X2159Y1937D02*
X2188Y1937D01*
X84Y1936D02*
X139Y1936D01*
X152Y1936D02*
X207Y1936D01*
X1081Y1936D02*
X1136Y1936D01*
X1149Y1936D02*
X1204Y1936D01*
X1852Y1936D02*
X1881Y1936D01*
X1911Y1936D02*
X1940Y1936D01*
X2100Y1936D02*
X2129Y1936D01*
X2159Y1936D02*
X2188Y1936D01*
X84Y1935D02*
X139Y1935D01*
X152Y1935D02*
X207Y1935D01*
X1081Y1935D02*
X1136Y1935D01*
X1149Y1935D02*
X1204Y1935D01*
X1852Y1935D02*
X1881Y1935D01*
X1911Y1935D02*
X1940Y1935D01*
X2100Y1935D02*
X2129Y1935D01*
X2159Y1935D02*
X2188Y1935D01*
X84Y1934D02*
X139Y1934D01*
X152Y1934D02*
X207Y1934D01*
X1082Y1934D02*
X1136Y1934D01*
X1149Y1934D02*
X1204Y1934D01*
X1852Y1934D02*
X1881Y1934D01*
X1911Y1934D02*
X1940Y1934D01*
X2100Y1934D02*
X2129Y1934D01*
X2159Y1934D02*
X2188Y1934D01*
X84Y1933D02*
X139Y1933D01*
X152Y1933D02*
X207Y1933D01*
X1082Y1933D02*
X1136Y1933D01*
X1148Y1933D02*
X1204Y1933D01*
X1852Y1933D02*
X1881Y1933D01*
X1911Y1933D02*
X1940Y1933D01*
X2100Y1933D02*
X2129Y1933D01*
X2159Y1933D02*
X2188Y1933D01*
X84Y1932D02*
X140Y1932D01*
X151Y1932D02*
X207Y1932D01*
X1082Y1932D02*
X1137Y1932D01*
X1148Y1932D02*
X1204Y1932D01*
X1852Y1932D02*
X1881Y1932D01*
X1911Y1932D02*
X1940Y1932D01*
X2100Y1932D02*
X2129Y1932D01*
X2159Y1932D02*
X2188Y1932D01*
X84Y1931D02*
X141Y1931D01*
X150Y1931D02*
X206Y1931D01*
X1082Y1931D02*
X1137Y1931D01*
X1147Y1931D02*
X1204Y1931D01*
X1852Y1931D02*
X1881Y1931D01*
X1910Y1931D02*
X1940Y1931D01*
X2100Y1931D02*
X2129Y1931D01*
X2158Y1931D02*
X2188Y1931D01*
X84Y1930D02*
X142Y1930D01*
X149Y1930D02*
X206Y1930D01*
X1082Y1930D02*
X1139Y1930D01*
X1145Y1930D02*
X1204Y1930D01*
X1852Y1930D02*
X1882Y1930D01*
X1910Y1930D02*
X1940Y1930D01*
X2100Y1930D02*
X2130Y1930D01*
X2158Y1930D02*
X2188Y1930D01*
X85Y1929D02*
X206Y1929D01*
X1082Y1929D02*
X1204Y1929D01*
X1852Y1929D02*
X1882Y1929D01*
X1910Y1929D02*
X1940Y1929D01*
X2100Y1929D02*
X2130Y1929D01*
X2158Y1929D02*
X2188Y1929D01*
X85Y1928D02*
X206Y1928D01*
X1082Y1928D02*
X1203Y1928D01*
X1852Y1928D02*
X1883Y1928D01*
X1909Y1928D02*
X1940Y1928D01*
X2100Y1928D02*
X2131Y1928D01*
X2157Y1928D02*
X2188Y1928D01*
X85Y1927D02*
X206Y1927D01*
X1083Y1927D02*
X1203Y1927D01*
X1852Y1927D02*
X1883Y1927D01*
X1908Y1927D02*
X1940Y1927D01*
X2100Y1927D02*
X2131Y1927D01*
X2156Y1927D02*
X2188Y1927D01*
X85Y1926D02*
X205Y1926D01*
X1083Y1926D02*
X1203Y1926D01*
X1852Y1926D02*
X1884Y1926D01*
X1908Y1926D02*
X1940Y1926D01*
X2100Y1926D02*
X2132Y1926D01*
X2156Y1926D02*
X2188Y1926D01*
X86Y1925D02*
X205Y1925D01*
X1083Y1925D02*
X1203Y1925D01*
X1852Y1925D02*
X1885Y1925D01*
X1907Y1925D02*
X1940Y1925D01*
X2100Y1925D02*
X2133Y1925D01*
X2155Y1925D02*
X2188Y1925D01*
X86Y1924D02*
X205Y1924D01*
X1084Y1924D02*
X1202Y1924D01*
X1852Y1924D02*
X1886Y1924D01*
X1905Y1924D02*
X1940Y1924D01*
X2100Y1924D02*
X2134Y1924D01*
X2153Y1924D02*
X2188Y1924D01*
X86Y1923D02*
X204Y1923D01*
X1084Y1923D02*
X1202Y1923D01*
X1852Y1923D02*
X1888Y1923D01*
X1904Y1923D02*
X1940Y1923D01*
X2100Y1923D02*
X2136Y1923D01*
X2152Y1923D02*
X2188Y1923D01*
X87Y1922D02*
X204Y1922D01*
X1084Y1922D02*
X1202Y1922D01*
X1852Y1922D02*
X1889Y1922D01*
X1902Y1922D02*
X1940Y1922D01*
X2100Y1922D02*
X2137Y1922D01*
X2150Y1922D02*
X2188Y1922D01*
X87Y1921D02*
X204Y1921D01*
X1085Y1921D02*
X1201Y1921D01*
X1852Y1921D02*
X1893Y1921D01*
X1899Y1921D02*
X1940Y1921D01*
X2100Y1921D02*
X2141Y1921D01*
X2147Y1921D02*
X2188Y1921D01*
X88Y1920D02*
X203Y1920D01*
X1085Y1920D02*
X1201Y1920D01*
X1852Y1920D02*
X1940Y1920D01*
X2100Y1920D02*
X2188Y1920D01*
X88Y1919D02*
X203Y1919D01*
X1086Y1919D02*
X1200Y1919D01*
X1852Y1919D02*
X1940Y1919D01*
X2100Y1919D02*
X2188Y1919D01*
X89Y1918D02*
X202Y1918D01*
X1086Y1918D02*
X1200Y1918D01*
X1852Y1918D02*
X1940Y1918D01*
X2100Y1918D02*
X2188Y1918D01*
X89Y1917D02*
X202Y1917D01*
X1087Y1917D02*
X1199Y1917D01*
X1852Y1917D02*
X1940Y1917D01*
X2100Y1917D02*
X2188Y1917D01*
X90Y1916D02*
X201Y1916D01*
X1087Y1916D02*
X1198Y1916D01*
X1852Y1916D02*
X1940Y1916D01*
X2100Y1916D02*
X2188Y1916D01*
X90Y1915D02*
X200Y1915D01*
X1088Y1915D02*
X1198Y1915D01*
X1852Y1915D02*
X1940Y1915D01*
X2100Y1915D02*
X2188Y1915D01*
X91Y1914D02*
X200Y1914D01*
X1089Y1914D02*
X1197Y1914D01*
X1852Y1914D02*
X1940Y1914D01*
X2100Y1914D02*
X2188Y1914D01*
X92Y1913D02*
X199Y1913D01*
X1089Y1913D02*
X1196Y1913D01*
X1852Y1913D02*
X1940Y1913D01*
X2100Y1913D02*
X2188Y1913D01*
X93Y1912D02*
X198Y1912D01*
X1090Y1912D02*
X1196Y1912D01*
X1852Y1912D02*
X1940Y1912D01*
X2100Y1912D02*
X2188Y1912D01*
X94Y1911D02*
X197Y1911D01*
X1091Y1911D02*
X1195Y1911D01*
X1852Y1911D02*
X1940Y1911D01*
X2100Y1911D02*
X2188Y1911D01*
X94Y1910D02*
X196Y1910D01*
X1092Y1910D02*
X1194Y1910D01*
X1852Y1910D02*
X1940Y1910D01*
X2100Y1910D02*
X2188Y1910D01*
X96Y1909D02*
X195Y1909D01*
X1093Y1909D02*
X1193Y1909D01*
X1852Y1909D02*
X1940Y1909D01*
X2100Y1909D02*
X2188Y1909D01*
X97Y1908D02*
X194Y1908D01*
X1094Y1908D02*
X1192Y1908D01*
X1852Y1908D02*
X1940Y1908D01*
X2100Y1908D02*
X2188Y1908D01*
X98Y1907D02*
X193Y1907D01*
X1096Y1907D02*
X1190Y1907D01*
X1852Y1907D02*
X1940Y1907D01*
X2100Y1907D02*
X2188Y1907D01*
X99Y1906D02*
X191Y1906D01*
X1097Y1906D02*
X1189Y1906D01*
X1852Y1906D02*
X1940Y1906D01*
X2100Y1906D02*
X2188Y1906D01*
X101Y1905D02*
X190Y1905D01*
X1099Y1905D02*
X1187Y1905D01*
X1852Y1905D02*
X1940Y1905D01*
X2100Y1905D02*
X2188Y1905D01*
X103Y1904D02*
X188Y1904D01*
X1100Y1904D02*
X1185Y1904D01*
X1852Y1904D02*
X1940Y1904D01*
X2100Y1904D02*
X2188Y1904D01*
X105Y1903D02*
X186Y1903D01*
X1102Y1903D02*
X1183Y1903D01*
X1852Y1903D02*
X1940Y1903D01*
X2100Y1903D02*
X2188Y1903D01*
X107Y1902D02*
X183Y1902D01*
X1105Y1902D02*
X1181Y1902D01*
X1852Y1902D02*
X1940Y1902D01*
X2100Y1902D02*
X2188Y1902D01*
X110Y1901D02*
X181Y1901D01*
X1108Y1901D02*
X1178Y1901D01*
X1852Y1901D02*
X1940Y1901D01*
X2100Y1901D02*
X2188Y1901D01*
X115Y1900D02*
X176Y1900D01*
X1112Y1900D02*
X1174Y1900D01*
X1852Y1900D02*
X1940Y1900D01*
X2100Y1900D02*
X2188Y1900D01*
X1852Y1899D02*
X1940Y1899D01*
X2100Y1899D02*
X2188Y1899D01*
X1852Y1898D02*
X1940Y1898D01*
X2100Y1898D02*
X2188Y1898D01*
X1852Y1897D02*
X1940Y1897D01*
X2100Y1897D02*
X2188Y1897D01*
X1852Y1896D02*
X1940Y1896D01*
X2100Y1896D02*
X2188Y1896D01*
X1852Y1895D02*
X1940Y1895D01*
X2100Y1895D02*
X2188Y1895D01*
X1852Y1894D02*
X1940Y1894D01*
X2100Y1894D02*
X2188Y1894D01*
X1852Y1893D02*
X1940Y1893D01*
X2100Y1893D02*
X2188Y1893D01*
X1852Y1892D02*
X1940Y1892D01*
X2100Y1892D02*
X2188Y1892D01*
X1852Y1891D02*
X1939Y1891D01*
X2100Y1891D02*
X2187Y1891D01*
X1852Y1890D02*
X1939Y1890D01*
X2101Y1890D02*
X2187Y1890D01*
X1853Y1889D02*
X1939Y1889D01*
X2101Y1889D02*
X2187Y1889D01*
X1853Y1888D02*
X1939Y1888D01*
X2101Y1888D02*
X2187Y1888D01*
X1853Y1887D02*
X1939Y1887D01*
X2101Y1887D02*
X2187Y1887D01*
X1853Y1886D02*
X1938Y1886D01*
X2101Y1886D02*
X2186Y1886D01*
X1854Y1885D02*
X1938Y1885D01*
X2102Y1885D02*
X2186Y1885D01*
X1854Y1884D02*
X1938Y1884D01*
X2102Y1884D02*
X2186Y1884D01*
X1854Y1883D02*
X1938Y1883D01*
X2102Y1883D02*
X2186Y1883D01*
X1854Y1882D02*
X1937Y1882D01*
X2102Y1882D02*
X2185Y1882D01*
X1855Y1881D02*
X1937Y1881D01*
X2103Y1881D02*
X2185Y1881D01*
X1855Y1880D02*
X1937Y1880D01*
X2103Y1880D02*
X2185Y1880D01*
X1856Y1879D02*
X1936Y1879D01*
X2104Y1879D02*
X2184Y1879D01*
X1856Y1878D02*
X1936Y1878D01*
X2104Y1878D02*
X2184Y1878D01*
X1856Y1877D02*
X1935Y1877D01*
X2105Y1877D02*
X2183Y1877D01*
X1857Y1876D02*
X1935Y1876D01*
X2105Y1876D02*
X2183Y1876D01*
X1857Y1875D02*
X1934Y1875D01*
X2105Y1875D02*
X2182Y1875D01*
X1858Y1874D02*
X1934Y1874D01*
X2106Y1874D02*
X2182Y1874D01*
X1859Y1873D02*
X1933Y1873D01*
X2107Y1873D02*
X2181Y1873D01*
X1859Y1872D02*
X1932Y1872D01*
X2107Y1872D02*
X2181Y1872D01*
X115Y1871D02*
X176Y1871D01*
X1112Y1871D02*
X1173Y1871D01*
X1860Y1871D02*
X1932Y1871D01*
X2108Y1871D02*
X2180Y1871D01*
X110Y1870D02*
X180Y1870D01*
X1108Y1870D02*
X1178Y1870D01*
X1861Y1870D02*
X1931Y1870D01*
X2109Y1870D02*
X2179Y1870D01*
X107Y1869D02*
X183Y1869D01*
X1105Y1869D02*
X1181Y1869D01*
X1861Y1869D02*
X1930Y1869D01*
X2109Y1869D02*
X2178Y1869D01*
X105Y1868D02*
X186Y1868D01*
X1103Y1868D02*
X1183Y1868D01*
X1862Y1868D02*
X1930Y1868D01*
X2110Y1868D02*
X2178Y1868D01*
X103Y1867D02*
X188Y1867D01*
X1100Y1867D02*
X1185Y1867D01*
X1863Y1867D02*
X1929Y1867D01*
X2111Y1867D02*
X2177Y1867D01*
X101Y1866D02*
X190Y1866D01*
X1099Y1866D02*
X1187Y1866D01*
X1864Y1866D02*
X1928Y1866D01*
X2112Y1866D02*
X2176Y1866D01*
X100Y1865D02*
X191Y1865D01*
X1097Y1865D02*
X1189Y1865D01*
X1865Y1865D02*
X1927Y1865D01*
X2113Y1865D02*
X2175Y1865D01*
X98Y1864D02*
X193Y1864D01*
X1096Y1864D02*
X1190Y1864D01*
X1866Y1864D02*
X1926Y1864D01*
X2114Y1864D02*
X2174Y1864D01*
X97Y1863D02*
X194Y1863D01*
X1094Y1863D02*
X1192Y1863D01*
X1867Y1863D02*
X1925Y1863D01*
X2115Y1863D02*
X2173Y1863D01*
X96Y1862D02*
X195Y1862D01*
X1093Y1862D02*
X1193Y1862D01*
X1868Y1862D02*
X1924Y1862D01*
X2116Y1862D02*
X2172Y1862D01*
X95Y1861D02*
X196Y1861D01*
X1092Y1861D02*
X1194Y1861D01*
X1869Y1861D02*
X1922Y1861D01*
X2117Y1861D02*
X2170Y1861D01*
X94Y1860D02*
X197Y1860D01*
X1091Y1860D02*
X1195Y1860D01*
X1871Y1860D02*
X1921Y1860D01*
X2119Y1860D02*
X2169Y1860D01*
X93Y1859D02*
X198Y1859D01*
X1090Y1859D02*
X1196Y1859D01*
X1872Y1859D02*
X1920Y1859D01*
X2120Y1859D02*
X2168Y1859D01*
X92Y1858D02*
X199Y1858D01*
X1089Y1858D02*
X1196Y1858D01*
X1874Y1858D02*
X1918Y1858D01*
X2122Y1858D02*
X2166Y1858D01*
X91Y1857D02*
X200Y1857D01*
X1089Y1857D02*
X1197Y1857D01*
X1876Y1857D02*
X1916Y1857D01*
X2124Y1857D02*
X2164Y1857D01*
X90Y1856D02*
X200Y1856D01*
X1088Y1856D02*
X1198Y1856D01*
X1878Y1856D02*
X1914Y1856D01*
X2126Y1856D02*
X2162Y1856D01*
X90Y1855D02*
X201Y1855D01*
X1087Y1855D02*
X1199Y1855D01*
X1880Y1855D02*
X1912Y1855D01*
X2128Y1855D02*
X2160Y1855D01*
X89Y1854D02*
X202Y1854D01*
X1087Y1854D02*
X1199Y1854D01*
X1883Y1854D02*
X1909Y1854D01*
X2131Y1854D02*
X2157Y1854D01*
X89Y1853D02*
X202Y1853D01*
X1086Y1853D02*
X1200Y1853D01*
X1886Y1853D02*
X1905Y1853D01*
X2134Y1853D02*
X2153Y1853D01*
X88Y1852D02*
X203Y1852D01*
X1086Y1852D02*
X1200Y1852D01*
X1892Y1852D02*
X1900Y1852D01*
X2140Y1852D02*
X2148Y1852D01*
X88Y1851D02*
X203Y1851D01*
X1085Y1851D02*
X1201Y1851D01*
X87Y1850D02*
X204Y1850D01*
X1085Y1850D02*
X1201Y1850D01*
X87Y1849D02*
X204Y1849D01*
X1084Y1849D02*
X1202Y1849D01*
X86Y1848D02*
X204Y1848D01*
X1084Y1848D02*
X1202Y1848D01*
X86Y1847D02*
X205Y1847D01*
X1084Y1847D02*
X1202Y1847D01*
X86Y1846D02*
X205Y1846D01*
X1083Y1846D02*
X1203Y1846D01*
X85Y1845D02*
X205Y1845D01*
X1083Y1845D02*
X1203Y1845D01*
X85Y1844D02*
X206Y1844D01*
X1083Y1844D02*
X1203Y1844D01*
X85Y1843D02*
X206Y1843D01*
X1082Y1843D02*
X1204Y1843D01*
X85Y1842D02*
X206Y1842D01*
X1082Y1842D02*
X1204Y1842D01*
X84Y1841D02*
X142Y1841D01*
X148Y1841D02*
X206Y1841D01*
X1082Y1841D02*
X1139Y1841D01*
X1145Y1841D02*
X1204Y1841D01*
X84Y1840D02*
X141Y1840D01*
X150Y1840D02*
X206Y1840D01*
X1082Y1840D02*
X1137Y1840D01*
X1147Y1840D02*
X1204Y1840D01*
X84Y1839D02*
X140Y1839D01*
X151Y1839D02*
X207Y1839D01*
X1082Y1839D02*
X1137Y1839D01*
X1148Y1839D02*
X1204Y1839D01*
X84Y1838D02*
X139Y1838D01*
X152Y1838D02*
X207Y1838D01*
X1082Y1838D02*
X1136Y1838D01*
X1148Y1838D02*
X1204Y1838D01*
X84Y1837D02*
X139Y1837D01*
X152Y1837D02*
X207Y1837D01*
X1082Y1837D02*
X1136Y1837D01*
X1149Y1837D02*
X1204Y1837D01*
X84Y1836D02*
X139Y1836D01*
X152Y1836D02*
X207Y1836D01*
X1081Y1836D02*
X1135Y1836D01*
X1149Y1836D02*
X1204Y1836D01*
X84Y1835D02*
X139Y1835D01*
X152Y1835D02*
X207Y1835D01*
X1081Y1835D02*
X1135Y1835D01*
X1149Y1835D02*
X1204Y1835D01*
X84Y1834D02*
X139Y1834D01*
X152Y1834D02*
X207Y1834D01*
X1082Y1834D02*
X1135Y1834D01*
X1149Y1834D02*
X1204Y1834D01*
X84Y1833D02*
X139Y1833D01*
X152Y1833D02*
X207Y1833D01*
X1082Y1833D02*
X1136Y1833D01*
X1148Y1833D02*
X1204Y1833D01*
X84Y1832D02*
X140Y1832D01*
X151Y1832D02*
X207Y1832D01*
X1082Y1832D02*
X1136Y1832D01*
X1148Y1832D02*
X1204Y1832D01*
X84Y1831D02*
X141Y1831D01*
X150Y1831D02*
X206Y1831D01*
X1082Y1831D02*
X1137Y1831D01*
X1147Y1831D02*
X1204Y1831D01*
X84Y1830D02*
X142Y1830D01*
X149Y1830D02*
X206Y1830D01*
X1082Y1830D02*
X1139Y1830D01*
X1146Y1830D02*
X1204Y1830D01*
X85Y1829D02*
X206Y1829D01*
X1082Y1829D02*
X1204Y1829D01*
X85Y1828D02*
X206Y1828D01*
X1082Y1828D02*
X1204Y1828D01*
X85Y1827D02*
X206Y1827D01*
X1083Y1827D02*
X1203Y1827D01*
X85Y1826D02*
X205Y1826D01*
X1083Y1826D02*
X1203Y1826D01*
X86Y1825D02*
X205Y1825D01*
X1083Y1825D02*
X1203Y1825D01*
X86Y1824D02*
X205Y1824D01*
X1084Y1824D02*
X1202Y1824D01*
X86Y1823D02*
X204Y1823D01*
X1084Y1823D02*
X1202Y1823D01*
X87Y1822D02*
X204Y1822D01*
X1084Y1822D02*
X1202Y1822D01*
X87Y1821D02*
X204Y1821D01*
X1085Y1821D02*
X1201Y1821D01*
X88Y1820D02*
X203Y1820D01*
X1085Y1820D02*
X1201Y1820D01*
X88Y1819D02*
X203Y1819D01*
X1086Y1819D02*
X1200Y1819D01*
X89Y1818D02*
X202Y1818D01*
X1086Y1818D02*
X1200Y1818D01*
X89Y1817D02*
X202Y1817D01*
X1087Y1817D02*
X1199Y1817D01*
X90Y1816D02*
X201Y1816D01*
X1087Y1816D02*
X1199Y1816D01*
X90Y1815D02*
X200Y1815D01*
X1088Y1815D02*
X1198Y1815D01*
X91Y1814D02*
X200Y1814D01*
X1089Y1814D02*
X1197Y1814D01*
X92Y1813D02*
X199Y1813D01*
X1089Y1813D02*
X1196Y1813D01*
X93Y1812D02*
X198Y1812D01*
X1090Y1812D02*
X1196Y1812D01*
X94Y1811D02*
X197Y1811D01*
X1091Y1811D02*
X1195Y1811D01*
X94Y1810D02*
X196Y1810D01*
X1092Y1810D02*
X1194Y1810D01*
X96Y1809D02*
X195Y1809D01*
X1093Y1809D02*
X1193Y1809D01*
X97Y1808D02*
X194Y1808D01*
X1094Y1808D02*
X1192Y1808D01*
X98Y1807D02*
X193Y1807D01*
X1096Y1807D02*
X1190Y1807D01*
X99Y1806D02*
X191Y1806D01*
X1097Y1806D02*
X1189Y1806D01*
X101Y1805D02*
X190Y1805D01*
X1099Y1805D02*
X1187Y1805D01*
X103Y1804D02*
X188Y1804D01*
X1100Y1804D02*
X1186Y1804D01*
X105Y1803D02*
X186Y1803D01*
X1102Y1803D02*
X1183Y1803D01*
X107Y1802D02*
X183Y1802D01*
X1105Y1802D02*
X1181Y1802D01*
X110Y1801D02*
X181Y1801D01*
X1108Y1801D02*
X1178Y1801D01*
X115Y1800D02*
X176Y1800D01*
X1112Y1800D02*
X1174Y1800D01*
X114Y1771D02*
X175Y1771D01*
X1112Y1771D02*
X1173Y1771D01*
X109Y1770D02*
X179Y1770D01*
X1108Y1770D02*
X1178Y1770D01*
X106Y1769D02*
X182Y1769D01*
X1105Y1769D02*
X1181Y1769D01*
X104Y1768D02*
X185Y1768D01*
X1103Y1768D02*
X1183Y1768D01*
X102Y1767D02*
X187Y1767D01*
X1100Y1767D02*
X1185Y1767D01*
X100Y1766D02*
X189Y1766D01*
X1099Y1766D02*
X1187Y1766D01*
X99Y1765D02*
X190Y1765D01*
X1097Y1765D02*
X1189Y1765D01*
X97Y1764D02*
X192Y1764D01*
X1096Y1764D02*
X1190Y1764D01*
X96Y1763D02*
X193Y1763D01*
X1094Y1763D02*
X1192Y1763D01*
X95Y1762D02*
X194Y1762D01*
X1093Y1762D02*
X1193Y1762D01*
X94Y1761D02*
X195Y1761D01*
X1092Y1761D02*
X1194Y1761D01*
X93Y1760D02*
X196Y1760D01*
X1091Y1760D02*
X1195Y1760D01*
X92Y1759D02*
X197Y1759D01*
X1090Y1759D02*
X1196Y1759D01*
X91Y1758D02*
X198Y1758D01*
X1089Y1758D02*
X1196Y1758D01*
X90Y1757D02*
X199Y1757D01*
X1089Y1757D02*
X1197Y1757D01*
X89Y1756D02*
X199Y1756D01*
X1088Y1756D02*
X1198Y1756D01*
X89Y1755D02*
X200Y1755D01*
X1087Y1755D02*
X1198Y1755D01*
X88Y1754D02*
X200Y1754D01*
X1087Y1754D02*
X1199Y1754D01*
X88Y1753D02*
X201Y1753D01*
X1086Y1753D02*
X1200Y1753D01*
X87Y1752D02*
X202Y1752D01*
X1086Y1752D02*
X1200Y1752D01*
X87Y1751D02*
X202Y1751D01*
X1085Y1751D02*
X1201Y1751D01*
X86Y1750D02*
X203Y1750D01*
X1085Y1750D02*
X1201Y1750D01*
X86Y1749D02*
X203Y1749D01*
X1084Y1749D02*
X1202Y1749D01*
X85Y1748D02*
X203Y1748D01*
X1084Y1748D02*
X1202Y1748D01*
X85Y1747D02*
X204Y1747D01*
X1084Y1747D02*
X1202Y1747D01*
X85Y1746D02*
X204Y1746D01*
X1083Y1746D02*
X1203Y1746D01*
X84Y1745D02*
X204Y1745D01*
X1083Y1745D02*
X1203Y1745D01*
X84Y1744D02*
X205Y1744D01*
X1083Y1744D02*
X1203Y1744D01*
X84Y1743D02*
X205Y1743D01*
X1082Y1743D02*
X1203Y1743D01*
X84Y1742D02*
X205Y1742D01*
X1082Y1742D02*
X1204Y1742D01*
X83Y1741D02*
X141Y1741D01*
X147Y1741D02*
X205Y1741D01*
X1082Y1741D02*
X1139Y1741D01*
X1145Y1741D02*
X1204Y1741D01*
X83Y1740D02*
X140Y1740D01*
X149Y1740D02*
X205Y1740D01*
X1082Y1740D02*
X1138Y1740D01*
X1146Y1740D02*
X1204Y1740D01*
X83Y1739D02*
X139Y1739D01*
X150Y1739D02*
X206Y1739D01*
X1082Y1739D02*
X1137Y1739D01*
X1147Y1739D02*
X1204Y1739D01*
X83Y1738D02*
X138Y1738D01*
X150Y1738D02*
X206Y1738D01*
X1082Y1738D02*
X1136Y1738D01*
X1148Y1738D02*
X1204Y1738D01*
X83Y1737D02*
X138Y1737D01*
X151Y1737D02*
X206Y1737D01*
X1082Y1737D02*
X1136Y1737D01*
X1149Y1737D02*
X1204Y1737D01*
X83Y1736D02*
X138Y1736D01*
X151Y1736D02*
X206Y1736D01*
X1081Y1736D02*
X1136Y1736D01*
X1149Y1736D02*
X1204Y1736D01*
X83Y1735D02*
X138Y1735D01*
X151Y1735D02*
X206Y1735D01*
X1081Y1735D02*
X1136Y1735D01*
X1149Y1735D02*
X1204Y1735D01*
X83Y1734D02*
X138Y1734D01*
X151Y1734D02*
X206Y1734D01*
X1082Y1734D02*
X1136Y1734D01*
X1149Y1734D02*
X1204Y1734D01*
X83Y1733D02*
X138Y1733D01*
X150Y1733D02*
X206Y1733D01*
X1082Y1733D02*
X1136Y1733D01*
X1148Y1733D02*
X1204Y1733D01*
X83Y1732D02*
X139Y1732D01*
X150Y1732D02*
X206Y1732D01*
X1082Y1732D02*
X1137Y1732D01*
X1148Y1732D02*
X1204Y1732D01*
X83Y1731D02*
X140Y1731D01*
X149Y1731D02*
X205Y1731D01*
X1082Y1731D02*
X1138Y1731D01*
X1147Y1731D02*
X1204Y1731D01*
X83Y1730D02*
X141Y1730D01*
X148Y1730D02*
X205Y1730D01*
X1082Y1730D02*
X1139Y1730D01*
X1145Y1730D02*
X1204Y1730D01*
X84Y1729D02*
X205Y1729D01*
X1082Y1729D02*
X1204Y1729D01*
X84Y1728D02*
X205Y1728D01*
X1082Y1728D02*
X1203Y1728D01*
X84Y1727D02*
X205Y1727D01*
X1083Y1727D02*
X1203Y1727D01*
X84Y1726D02*
X204Y1726D01*
X1083Y1726D02*
X1203Y1726D01*
X85Y1725D02*
X204Y1725D01*
X1083Y1725D02*
X1203Y1725D01*
X85Y1724D02*
X204Y1724D01*
X1084Y1724D02*
X1202Y1724D01*
X85Y1723D02*
X203Y1723D01*
X1084Y1723D02*
X1202Y1723D01*
X86Y1722D02*
X203Y1722D01*
X1084Y1722D02*
X1202Y1722D01*
X86Y1721D02*
X203Y1721D01*
X1085Y1721D02*
X1201Y1721D01*
X87Y1720D02*
X202Y1720D01*
X1085Y1720D02*
X1201Y1720D01*
X87Y1719D02*
X202Y1719D01*
X1086Y1719D02*
X1200Y1719D01*
X88Y1718D02*
X201Y1718D01*
X1086Y1718D02*
X1200Y1718D01*
X88Y1717D02*
X201Y1717D01*
X1087Y1717D02*
X1199Y1717D01*
X89Y1716D02*
X200Y1716D01*
X1087Y1716D02*
X1198Y1716D01*
X89Y1715D02*
X199Y1715D01*
X1088Y1715D02*
X1198Y1715D01*
X90Y1714D02*
X199Y1714D01*
X1089Y1714D02*
X1197Y1714D01*
X91Y1713D02*
X198Y1713D01*
X1089Y1713D02*
X1196Y1713D01*
X92Y1712D02*
X197Y1712D01*
X1090Y1712D02*
X1196Y1712D01*
X93Y1711D02*
X196Y1711D01*
X1091Y1711D02*
X1195Y1711D01*
X93Y1710D02*
X195Y1710D01*
X1092Y1710D02*
X1194Y1710D01*
X95Y1709D02*
X194Y1709D01*
X1093Y1709D02*
X1193Y1709D01*
X96Y1708D02*
X193Y1708D01*
X1094Y1708D02*
X1192Y1708D01*
X97Y1707D02*
X192Y1707D01*
X1096Y1707D02*
X1190Y1707D01*
X98Y1706D02*
X190Y1706D01*
X1097Y1706D02*
X1189Y1706D01*
X100Y1705D02*
X189Y1705D01*
X1099Y1705D02*
X1187Y1705D01*
X102Y1704D02*
X187Y1704D01*
X1100Y1704D02*
X1185Y1704D01*
X104Y1703D02*
X185Y1703D01*
X1102Y1703D02*
X1183Y1703D01*
X106Y1702D02*
X182Y1702D01*
X1105Y1702D02*
X1181Y1702D01*
X109Y1701D02*
X180Y1701D01*
X1108Y1701D02*
X1178Y1701D01*
X114Y1700D02*
X175Y1700D01*
X1112Y1700D02*
X1174Y1700D01*
X1968Y1676D02*
X2060Y1676D01*
X1963Y1675D02*
X2065Y1675D01*
X1960Y1674D02*
X2068Y1674D01*
X1958Y1673D02*
X2070Y1673D01*
X1956Y1672D02*
X2072Y1672D01*
X115Y1671D02*
X176Y1671D01*
X1112Y1671D02*
X1173Y1671D01*
X1954Y1671D02*
X2074Y1671D01*
X110Y1670D02*
X180Y1670D01*
X1108Y1670D02*
X1178Y1670D01*
X1952Y1670D02*
X2076Y1670D01*
X107Y1669D02*
X183Y1669D01*
X1105Y1669D02*
X1181Y1669D01*
X1950Y1669D02*
X2078Y1669D01*
X105Y1668D02*
X186Y1668D01*
X1103Y1668D02*
X1183Y1668D01*
X1949Y1668D02*
X2079Y1668D01*
X103Y1667D02*
X188Y1667D01*
X1100Y1667D02*
X1185Y1667D01*
X1947Y1667D02*
X2080Y1667D01*
X101Y1666D02*
X190Y1666D01*
X1099Y1666D02*
X1187Y1666D01*
X1946Y1666D02*
X2082Y1666D01*
X100Y1665D02*
X191Y1665D01*
X1097Y1665D02*
X1189Y1665D01*
X1945Y1665D02*
X2083Y1665D01*
X98Y1664D02*
X193Y1664D01*
X1096Y1664D02*
X1190Y1664D01*
X1944Y1664D02*
X2084Y1664D01*
X97Y1663D02*
X194Y1663D01*
X1094Y1663D02*
X1192Y1663D01*
X1943Y1663D02*
X2085Y1663D01*
X96Y1662D02*
X195Y1662D01*
X1093Y1662D02*
X1193Y1662D01*
X1942Y1662D02*
X2086Y1662D01*
X95Y1661D02*
X196Y1661D01*
X1092Y1661D02*
X1194Y1661D01*
X1941Y1661D02*
X2087Y1661D01*
X94Y1660D02*
X197Y1660D01*
X1091Y1660D02*
X1195Y1660D01*
X1940Y1660D02*
X2087Y1660D01*
X93Y1659D02*
X198Y1659D01*
X1090Y1659D02*
X1196Y1659D01*
X1940Y1659D02*
X2088Y1659D01*
X92Y1658D02*
X199Y1658D01*
X1089Y1658D02*
X1196Y1658D01*
X1939Y1658D02*
X2089Y1658D01*
X91Y1657D02*
X200Y1657D01*
X1089Y1657D02*
X1197Y1657D01*
X1938Y1657D02*
X2090Y1657D01*
X90Y1656D02*
X200Y1656D01*
X1088Y1656D02*
X1198Y1656D01*
X1938Y1656D02*
X2090Y1656D01*
X90Y1655D02*
X201Y1655D01*
X1087Y1655D02*
X1198Y1655D01*
X1937Y1655D02*
X2091Y1655D01*
X89Y1654D02*
X202Y1654D01*
X1087Y1654D02*
X1199Y1654D01*
X1936Y1654D02*
X2091Y1654D01*
X89Y1653D02*
X202Y1653D01*
X1086Y1653D02*
X1200Y1653D01*
X1936Y1653D02*
X2092Y1653D01*
X88Y1652D02*
X203Y1652D01*
X1086Y1652D02*
X1200Y1652D01*
X1935Y1652D02*
X2092Y1652D01*
X88Y1651D02*
X203Y1651D01*
X1085Y1651D02*
X1201Y1651D01*
X1935Y1651D02*
X2093Y1651D01*
X87Y1650D02*
X204Y1650D01*
X1085Y1650D02*
X1201Y1650D01*
X1935Y1650D02*
X2093Y1650D01*
X87Y1649D02*
X204Y1649D01*
X1084Y1649D02*
X1202Y1649D01*
X1934Y1649D02*
X2094Y1649D01*
X86Y1648D02*
X204Y1648D01*
X1084Y1648D02*
X1202Y1648D01*
X1934Y1648D02*
X2094Y1648D01*
X86Y1647D02*
X205Y1647D01*
X1084Y1647D02*
X1202Y1647D01*
X1933Y1647D02*
X2095Y1647D01*
X86Y1646D02*
X205Y1646D01*
X1083Y1646D02*
X1203Y1646D01*
X1933Y1646D02*
X2008Y1646D01*
X2020Y1646D02*
X2095Y1646D01*
X85Y1645D02*
X205Y1645D01*
X1083Y1645D02*
X1203Y1645D01*
X1933Y1645D02*
X2006Y1645D01*
X2022Y1645D02*
X2095Y1645D01*
X85Y1644D02*
X206Y1644D01*
X1083Y1644D02*
X1203Y1644D01*
X1932Y1644D02*
X2005Y1644D01*
X2023Y1644D02*
X2096Y1644D01*
X85Y1643D02*
X206Y1643D01*
X1082Y1643D02*
X1203Y1643D01*
X1932Y1643D02*
X2003Y1643D01*
X2025Y1643D02*
X2096Y1643D01*
X85Y1642D02*
X206Y1642D01*
X1082Y1642D02*
X1204Y1642D01*
X1932Y1642D02*
X2002Y1642D01*
X2025Y1642D02*
X2096Y1642D01*
X84Y1641D02*
X142Y1641D01*
X148Y1641D02*
X206Y1641D01*
X1082Y1641D02*
X1139Y1641D01*
X1145Y1641D02*
X1204Y1641D01*
X1932Y1641D02*
X2002Y1641D01*
X2026Y1641D02*
X2096Y1641D01*
X84Y1640D02*
X141Y1640D01*
X150Y1640D02*
X206Y1640D01*
X1082Y1640D02*
X1138Y1640D01*
X1146Y1640D02*
X1204Y1640D01*
X1931Y1640D02*
X2001Y1640D01*
X2027Y1640D02*
X2096Y1640D01*
X84Y1639D02*
X140Y1639D01*
X151Y1639D02*
X207Y1639D01*
X1082Y1639D02*
X1137Y1639D01*
X1147Y1639D02*
X1204Y1639D01*
X1931Y1639D02*
X2000Y1639D01*
X2028Y1639D02*
X2097Y1639D01*
X84Y1638D02*
X139Y1638D01*
X151Y1638D02*
X207Y1638D01*
X1082Y1638D02*
X1136Y1638D01*
X1148Y1638D02*
X1204Y1638D01*
X1931Y1638D02*
X2000Y1638D01*
X2028Y1638D02*
X2097Y1638D01*
X84Y1637D02*
X139Y1637D01*
X152Y1637D02*
X207Y1637D01*
X1082Y1637D02*
X1136Y1637D01*
X1149Y1637D02*
X1204Y1637D01*
X1931Y1637D02*
X2000Y1637D01*
X2028Y1637D02*
X2097Y1637D01*
X84Y1636D02*
X139Y1636D01*
X152Y1636D02*
X207Y1636D01*
X1081Y1636D02*
X1136Y1636D01*
X1149Y1636D02*
X1204Y1636D01*
X1931Y1636D02*
X1999Y1636D01*
X2029Y1636D02*
X2097Y1636D01*
X84Y1635D02*
X139Y1635D01*
X152Y1635D02*
X207Y1635D01*
X1081Y1635D02*
X1136Y1635D01*
X1149Y1635D02*
X1204Y1635D01*
X1931Y1635D02*
X1999Y1635D01*
X2029Y1635D02*
X2097Y1635D01*
X84Y1634D02*
X139Y1634D01*
X152Y1634D02*
X207Y1634D01*
X1082Y1634D02*
X1136Y1634D01*
X1149Y1634D02*
X1204Y1634D01*
X1931Y1634D02*
X1999Y1634D01*
X2029Y1634D02*
X2097Y1634D01*
X84Y1633D02*
X139Y1633D01*
X152Y1633D02*
X207Y1633D01*
X1082Y1633D02*
X1136Y1633D01*
X1148Y1633D02*
X1204Y1633D01*
X1931Y1633D02*
X1999Y1633D01*
X2029Y1633D02*
X2097Y1633D01*
X84Y1632D02*
X140Y1632D01*
X151Y1632D02*
X207Y1632D01*
X1082Y1632D02*
X1137Y1632D01*
X1148Y1632D02*
X1204Y1632D01*
X1931Y1632D02*
X1999Y1632D01*
X2029Y1632D02*
X2097Y1632D01*
X84Y1631D02*
X141Y1631D01*
X150Y1631D02*
X206Y1631D01*
X1082Y1631D02*
X1138Y1631D01*
X1147Y1631D02*
X1204Y1631D01*
X1931Y1631D02*
X1999Y1631D01*
X2029Y1631D02*
X2097Y1631D01*
X84Y1630D02*
X142Y1630D01*
X149Y1630D02*
X206Y1630D01*
X1082Y1630D02*
X1139Y1630D01*
X1145Y1630D02*
X1204Y1630D01*
X1931Y1630D02*
X1999Y1630D01*
X2029Y1630D02*
X2097Y1630D01*
X85Y1629D02*
X206Y1629D01*
X1082Y1629D02*
X1204Y1629D01*
X1931Y1629D02*
X1999Y1629D01*
X2029Y1629D02*
X2097Y1629D01*
X85Y1628D02*
X206Y1628D01*
X1082Y1628D02*
X1203Y1628D01*
X1931Y1628D02*
X1999Y1628D01*
X2029Y1628D02*
X2097Y1628D01*
X85Y1627D02*
X206Y1627D01*
X1083Y1627D02*
X1203Y1627D01*
X1931Y1627D02*
X2000Y1627D01*
X2028Y1627D02*
X2097Y1627D01*
X85Y1626D02*
X205Y1626D01*
X1083Y1626D02*
X1203Y1626D01*
X1931Y1626D02*
X2000Y1626D01*
X2028Y1626D02*
X2097Y1626D01*
X86Y1625D02*
X205Y1625D01*
X1083Y1625D02*
X1203Y1625D01*
X1931Y1625D02*
X2001Y1625D01*
X2027Y1625D02*
X2097Y1625D01*
X86Y1624D02*
X205Y1624D01*
X1084Y1624D02*
X1202Y1624D01*
X1932Y1624D02*
X2001Y1624D01*
X2027Y1624D02*
X2096Y1624D01*
X86Y1623D02*
X204Y1623D01*
X1084Y1623D02*
X1202Y1623D01*
X1932Y1623D02*
X2002Y1623D01*
X2026Y1623D02*
X2096Y1623D01*
X87Y1622D02*
X204Y1622D01*
X1084Y1622D02*
X1202Y1622D01*
X1932Y1622D02*
X2003Y1622D01*
X2025Y1622D02*
X2096Y1622D01*
X87Y1621D02*
X204Y1621D01*
X1085Y1621D02*
X1201Y1621D01*
X1932Y1621D02*
X2004Y1621D01*
X2024Y1621D02*
X2096Y1621D01*
X88Y1620D02*
X203Y1620D01*
X1085Y1620D02*
X1201Y1620D01*
X1933Y1620D02*
X2005Y1620D01*
X2022Y1620D02*
X2095Y1620D01*
X88Y1619D02*
X203Y1619D01*
X1086Y1619D02*
X1200Y1619D01*
X1933Y1619D02*
X2007Y1619D01*
X2021Y1619D02*
X2095Y1619D01*
X89Y1618D02*
X202Y1618D01*
X1086Y1618D02*
X1200Y1618D01*
X1933Y1618D02*
X2010Y1618D01*
X2018Y1618D02*
X2095Y1618D01*
X89Y1617D02*
X202Y1617D01*
X1087Y1617D02*
X1199Y1617D01*
X1934Y1617D02*
X2094Y1617D01*
X90Y1616D02*
X201Y1616D01*
X1087Y1616D02*
X1198Y1616D01*
X1934Y1616D02*
X2094Y1616D01*
X90Y1615D02*
X200Y1615D01*
X1088Y1615D02*
X1198Y1615D01*
X1934Y1615D02*
X2094Y1615D01*
X91Y1614D02*
X200Y1614D01*
X1089Y1614D02*
X1197Y1614D01*
X1935Y1614D02*
X2093Y1614D01*
X92Y1613D02*
X199Y1613D01*
X1089Y1613D02*
X1196Y1613D01*
X1935Y1613D02*
X2093Y1613D01*
X93Y1612D02*
X198Y1612D01*
X1090Y1612D02*
X1196Y1612D01*
X1936Y1612D02*
X2092Y1612D01*
X94Y1611D02*
X197Y1611D01*
X1091Y1611D02*
X1195Y1611D01*
X1936Y1611D02*
X2092Y1611D01*
X94Y1610D02*
X196Y1610D01*
X1092Y1610D02*
X1194Y1610D01*
X1937Y1610D02*
X2091Y1610D01*
X96Y1609D02*
X195Y1609D01*
X1093Y1609D02*
X1193Y1609D01*
X1937Y1609D02*
X2090Y1609D01*
X97Y1608D02*
X194Y1608D01*
X1094Y1608D02*
X1192Y1608D01*
X1938Y1608D02*
X2090Y1608D01*
X98Y1607D02*
X193Y1607D01*
X1096Y1607D02*
X1190Y1607D01*
X1939Y1607D02*
X2089Y1607D01*
X99Y1606D02*
X191Y1606D01*
X1097Y1606D02*
X1189Y1606D01*
X1939Y1606D02*
X2088Y1606D01*
X101Y1605D02*
X190Y1605D01*
X1099Y1605D02*
X1187Y1605D01*
X1940Y1605D02*
X2088Y1605D01*
X103Y1604D02*
X188Y1604D01*
X1100Y1604D02*
X1185Y1604D01*
X1941Y1604D02*
X2087Y1604D01*
X105Y1603D02*
X186Y1603D01*
X1102Y1603D02*
X1183Y1603D01*
X1942Y1603D02*
X2086Y1603D01*
X107Y1602D02*
X183Y1602D01*
X1105Y1602D02*
X1181Y1602D01*
X1943Y1602D02*
X2085Y1602D01*
X110Y1601D02*
X181Y1601D01*
X1108Y1601D02*
X1178Y1601D01*
X1944Y1601D02*
X2084Y1601D01*
X115Y1600D02*
X176Y1600D01*
X1112Y1600D02*
X1174Y1600D01*
X1945Y1600D02*
X2083Y1600D01*
X1946Y1599D02*
X2082Y1599D01*
X1947Y1598D02*
X2081Y1598D01*
X1948Y1597D02*
X2080Y1597D01*
X1950Y1596D02*
X2078Y1596D01*
X1951Y1595D02*
X2077Y1595D01*
X1953Y1594D02*
X2075Y1594D01*
X1955Y1593D02*
X2073Y1593D01*
X1957Y1592D02*
X2071Y1592D01*
X1959Y1591D02*
X2069Y1591D01*
X1962Y1590D02*
X2066Y1590D01*
X1966Y1589D02*
X2062Y1589D01*
X1974Y1588D02*
X2053Y1588D01*
X1439Y1575D02*
X1449Y1575D01*
X1539Y1575D02*
X1549Y1575D01*
X1639Y1575D02*
X1649Y1575D01*
X1434Y1574D02*
X1454Y1574D01*
X1534Y1574D02*
X1554Y1574D01*
X1634Y1574D02*
X1654Y1574D01*
X1431Y1573D02*
X1457Y1573D01*
X1531Y1573D02*
X1557Y1573D01*
X1631Y1573D02*
X1657Y1573D01*
X1428Y1572D02*
X1460Y1572D01*
X1528Y1572D02*
X1560Y1572D01*
X1628Y1572D02*
X1660Y1572D01*
X115Y1571D02*
X176Y1571D01*
X1112Y1571D02*
X1173Y1571D01*
X1426Y1571D02*
X1462Y1571D01*
X1526Y1571D02*
X1562Y1571D01*
X1626Y1571D02*
X1662Y1571D01*
X110Y1570D02*
X180Y1570D01*
X1108Y1570D02*
X1178Y1570D01*
X1424Y1570D02*
X1463Y1570D01*
X1524Y1570D02*
X1563Y1570D01*
X1624Y1570D02*
X1663Y1570D01*
X107Y1569D02*
X183Y1569D01*
X1105Y1569D02*
X1181Y1569D01*
X1423Y1569D02*
X1465Y1569D01*
X1523Y1569D02*
X1565Y1569D01*
X1623Y1569D02*
X1665Y1569D01*
X105Y1568D02*
X186Y1568D01*
X1103Y1568D02*
X1183Y1568D01*
X1421Y1568D02*
X1467Y1568D01*
X1521Y1568D02*
X1567Y1568D01*
X1621Y1568D02*
X1667Y1568D01*
X103Y1567D02*
X188Y1567D01*
X1100Y1567D02*
X1185Y1567D01*
X1420Y1567D02*
X1468Y1567D01*
X1520Y1567D02*
X1568Y1567D01*
X1620Y1567D02*
X1668Y1567D01*
X101Y1566D02*
X190Y1566D01*
X1099Y1566D02*
X1187Y1566D01*
X1419Y1566D02*
X1469Y1566D01*
X1519Y1566D02*
X1569Y1566D01*
X1619Y1566D02*
X1669Y1566D01*
X100Y1565D02*
X191Y1565D01*
X1097Y1565D02*
X1189Y1565D01*
X1418Y1565D02*
X1470Y1565D01*
X1518Y1565D02*
X1570Y1565D01*
X1618Y1565D02*
X1670Y1565D01*
X98Y1564D02*
X193Y1564D01*
X1096Y1564D02*
X1190Y1564D01*
X1416Y1564D02*
X1471Y1564D01*
X1516Y1564D02*
X1571Y1564D01*
X1616Y1564D02*
X1671Y1564D01*
X97Y1563D02*
X194Y1563D01*
X1094Y1563D02*
X1192Y1563D01*
X1415Y1563D02*
X1472Y1563D01*
X1515Y1563D02*
X1572Y1563D01*
X1615Y1563D02*
X1672Y1563D01*
X96Y1562D02*
X195Y1562D01*
X1093Y1562D02*
X1193Y1562D01*
X1415Y1562D02*
X1473Y1562D01*
X1515Y1562D02*
X1573Y1562D01*
X1615Y1562D02*
X1673Y1562D01*
X95Y1561D02*
X196Y1561D01*
X1092Y1561D02*
X1194Y1561D01*
X1414Y1561D02*
X1474Y1561D01*
X1514Y1561D02*
X1574Y1561D01*
X1614Y1561D02*
X1674Y1561D01*
X94Y1560D02*
X197Y1560D01*
X1091Y1560D02*
X1195Y1560D01*
X1413Y1560D02*
X1475Y1560D01*
X1513Y1560D02*
X1575Y1560D01*
X1613Y1560D02*
X1675Y1560D01*
X93Y1559D02*
X198Y1559D01*
X1090Y1559D02*
X1196Y1559D01*
X1412Y1559D02*
X1476Y1559D01*
X1512Y1559D02*
X1576Y1559D01*
X1612Y1559D02*
X1676Y1559D01*
X92Y1558D02*
X199Y1558D01*
X1089Y1558D02*
X1196Y1558D01*
X1411Y1558D02*
X1476Y1558D01*
X1511Y1558D02*
X1576Y1558D01*
X1611Y1558D02*
X1676Y1558D01*
X91Y1557D02*
X200Y1557D01*
X1089Y1557D02*
X1197Y1557D01*
X1411Y1557D02*
X1477Y1557D01*
X1511Y1557D02*
X1577Y1557D01*
X1611Y1557D02*
X1677Y1557D01*
X90Y1556D02*
X200Y1556D01*
X1088Y1556D02*
X1198Y1556D01*
X1410Y1556D02*
X1478Y1556D01*
X1510Y1556D02*
X1578Y1556D01*
X1610Y1556D02*
X1678Y1556D01*
X90Y1555D02*
X201Y1555D01*
X1087Y1555D02*
X1198Y1555D01*
X1410Y1555D02*
X1478Y1555D01*
X1510Y1555D02*
X1578Y1555D01*
X1610Y1555D02*
X1678Y1555D01*
X89Y1554D02*
X202Y1554D01*
X1087Y1554D02*
X1199Y1554D01*
X1409Y1554D02*
X1479Y1554D01*
X1509Y1554D02*
X1579Y1554D01*
X1609Y1554D02*
X1679Y1554D01*
X89Y1553D02*
X202Y1553D01*
X1086Y1553D02*
X1200Y1553D01*
X1409Y1553D02*
X1479Y1553D01*
X1509Y1553D02*
X1579Y1553D01*
X1609Y1553D02*
X1679Y1553D01*
X88Y1552D02*
X203Y1552D01*
X1086Y1552D02*
X1200Y1552D01*
X1408Y1552D02*
X1480Y1552D01*
X1508Y1552D02*
X1580Y1552D01*
X1608Y1552D02*
X1680Y1552D01*
X88Y1551D02*
X203Y1551D01*
X1085Y1551D02*
X1201Y1551D01*
X1408Y1551D02*
X1480Y1551D01*
X1508Y1551D02*
X1580Y1551D01*
X1608Y1551D02*
X1680Y1551D01*
X87Y1550D02*
X204Y1550D01*
X1085Y1550D02*
X1201Y1550D01*
X1407Y1550D02*
X1481Y1550D01*
X1507Y1550D02*
X1581Y1550D01*
X1607Y1550D02*
X1681Y1550D01*
X87Y1549D02*
X204Y1549D01*
X1084Y1549D02*
X1202Y1549D01*
X1407Y1549D02*
X1481Y1549D01*
X1507Y1549D02*
X1581Y1549D01*
X1607Y1549D02*
X1681Y1549D01*
X86Y1548D02*
X204Y1548D01*
X1084Y1548D02*
X1202Y1548D01*
X1406Y1548D02*
X1481Y1548D01*
X1506Y1548D02*
X1581Y1548D01*
X1606Y1548D02*
X1681Y1548D01*
X86Y1547D02*
X205Y1547D01*
X1084Y1547D02*
X1202Y1547D01*
X1406Y1547D02*
X1482Y1547D01*
X1506Y1547D02*
X1582Y1547D01*
X1606Y1547D02*
X1682Y1547D01*
X86Y1546D02*
X205Y1546D01*
X1083Y1546D02*
X1203Y1546D01*
X1406Y1546D02*
X1482Y1546D01*
X1506Y1546D02*
X1582Y1546D01*
X1606Y1546D02*
X1682Y1546D01*
X85Y1545D02*
X205Y1545D01*
X1083Y1545D02*
X1203Y1545D01*
X1406Y1545D02*
X1482Y1545D01*
X1506Y1545D02*
X1582Y1545D01*
X1606Y1545D02*
X1682Y1545D01*
X85Y1544D02*
X206Y1544D01*
X1083Y1544D02*
X1203Y1544D01*
X1405Y1544D02*
X1482Y1544D01*
X1505Y1544D02*
X1582Y1544D01*
X1605Y1544D02*
X1682Y1544D01*
X85Y1543D02*
X206Y1543D01*
X1082Y1543D02*
X1203Y1543D01*
X1405Y1543D02*
X1483Y1543D01*
X1505Y1543D02*
X1583Y1543D01*
X1605Y1543D02*
X1683Y1543D01*
X85Y1542D02*
X206Y1542D01*
X1082Y1542D02*
X1204Y1542D01*
X1405Y1542D02*
X1483Y1542D01*
X1505Y1542D02*
X1583Y1542D01*
X1605Y1542D02*
X1683Y1542D01*
X84Y1541D02*
X142Y1541D01*
X148Y1541D02*
X206Y1541D01*
X1082Y1541D02*
X1139Y1541D01*
X1145Y1541D02*
X1204Y1541D01*
X1405Y1541D02*
X1483Y1541D01*
X1505Y1541D02*
X1583Y1541D01*
X1605Y1541D02*
X1683Y1541D01*
X84Y1540D02*
X141Y1540D01*
X150Y1540D02*
X206Y1540D01*
X1082Y1540D02*
X1138Y1540D01*
X1146Y1540D02*
X1204Y1540D01*
X1405Y1540D02*
X1483Y1540D01*
X1505Y1540D02*
X1583Y1540D01*
X1605Y1540D02*
X1683Y1540D01*
X84Y1539D02*
X140Y1539D01*
X151Y1539D02*
X207Y1539D01*
X1082Y1539D02*
X1137Y1539D01*
X1147Y1539D02*
X1204Y1539D01*
X1405Y1539D02*
X1483Y1539D01*
X1505Y1539D02*
X1583Y1539D01*
X1605Y1539D02*
X1683Y1539D01*
X84Y1538D02*
X139Y1538D01*
X151Y1538D02*
X207Y1538D01*
X1082Y1538D02*
X1136Y1538D01*
X1148Y1538D02*
X1204Y1538D01*
X1405Y1538D02*
X1483Y1538D01*
X1505Y1538D02*
X1583Y1538D01*
X1605Y1538D02*
X1683Y1538D01*
X84Y1537D02*
X139Y1537D01*
X152Y1537D02*
X207Y1537D01*
X1082Y1537D02*
X1136Y1537D01*
X1149Y1537D02*
X1204Y1537D01*
X1404Y1537D02*
X1483Y1537D01*
X1504Y1537D02*
X1583Y1537D01*
X1604Y1537D02*
X1683Y1537D01*
X84Y1536D02*
X139Y1536D01*
X152Y1536D02*
X207Y1536D01*
X1081Y1536D02*
X1136Y1536D01*
X1149Y1536D02*
X1204Y1536D01*
X1404Y1536D02*
X1483Y1536D01*
X1504Y1536D02*
X1583Y1536D01*
X1604Y1536D02*
X1683Y1536D01*
X84Y1535D02*
X139Y1535D01*
X152Y1535D02*
X207Y1535D01*
X1081Y1535D02*
X1136Y1535D01*
X1149Y1535D02*
X1204Y1535D01*
X1404Y1535D02*
X1483Y1535D01*
X1504Y1535D02*
X1583Y1535D01*
X1604Y1535D02*
X1683Y1535D01*
X84Y1534D02*
X139Y1534D01*
X152Y1534D02*
X207Y1534D01*
X1082Y1534D02*
X1136Y1534D01*
X1149Y1534D02*
X1204Y1534D01*
X1404Y1534D02*
X1483Y1534D01*
X1504Y1534D02*
X1583Y1534D01*
X1604Y1534D02*
X1683Y1534D01*
X84Y1533D02*
X139Y1533D01*
X152Y1533D02*
X207Y1533D01*
X1082Y1533D02*
X1136Y1533D01*
X1148Y1533D02*
X1204Y1533D01*
X1405Y1533D02*
X1483Y1533D01*
X1505Y1533D02*
X1583Y1533D01*
X1605Y1533D02*
X1683Y1533D01*
X84Y1532D02*
X140Y1532D01*
X151Y1532D02*
X207Y1532D01*
X1082Y1532D02*
X1137Y1532D01*
X1148Y1532D02*
X1204Y1532D01*
X1405Y1532D02*
X1483Y1532D01*
X1505Y1532D02*
X1583Y1532D01*
X1605Y1532D02*
X1683Y1532D01*
X84Y1531D02*
X141Y1531D01*
X150Y1531D02*
X206Y1531D01*
X1082Y1531D02*
X1138Y1531D01*
X1147Y1531D02*
X1204Y1531D01*
X1405Y1531D02*
X1483Y1531D01*
X1505Y1531D02*
X1583Y1531D01*
X1605Y1531D02*
X1683Y1531D01*
X84Y1530D02*
X142Y1530D01*
X149Y1530D02*
X206Y1530D01*
X1082Y1530D02*
X1139Y1530D01*
X1145Y1530D02*
X1204Y1530D01*
X1405Y1530D02*
X1483Y1530D01*
X1505Y1530D02*
X1583Y1530D01*
X1605Y1530D02*
X1683Y1530D01*
X85Y1529D02*
X206Y1529D01*
X1082Y1529D02*
X1204Y1529D01*
X1405Y1529D02*
X1483Y1529D01*
X1505Y1529D02*
X1583Y1529D01*
X1605Y1529D02*
X1683Y1529D01*
X85Y1528D02*
X206Y1528D01*
X1082Y1528D02*
X1203Y1528D01*
X1405Y1528D02*
X1483Y1528D01*
X1505Y1528D02*
X1583Y1528D01*
X1605Y1528D02*
X1683Y1528D01*
X85Y1527D02*
X206Y1527D01*
X1083Y1527D02*
X1203Y1527D01*
X1405Y1527D02*
X1482Y1527D01*
X1505Y1527D02*
X1582Y1527D01*
X1605Y1527D02*
X1682Y1527D01*
X85Y1526D02*
X205Y1526D01*
X1083Y1526D02*
X1203Y1526D01*
X1406Y1526D02*
X1482Y1526D01*
X1506Y1526D02*
X1582Y1526D01*
X1606Y1526D02*
X1682Y1526D01*
X86Y1525D02*
X205Y1525D01*
X1083Y1525D02*
X1203Y1525D01*
X1406Y1525D02*
X1482Y1525D01*
X1506Y1525D02*
X1582Y1525D01*
X1606Y1525D02*
X1682Y1525D01*
X86Y1524D02*
X205Y1524D01*
X1084Y1524D02*
X1202Y1524D01*
X1406Y1524D02*
X1482Y1524D01*
X1506Y1524D02*
X1582Y1524D01*
X1606Y1524D02*
X1682Y1524D01*
X86Y1523D02*
X204Y1523D01*
X1084Y1523D02*
X1202Y1523D01*
X1406Y1523D02*
X1481Y1523D01*
X1506Y1523D02*
X1581Y1523D01*
X1606Y1523D02*
X1681Y1523D01*
X87Y1522D02*
X204Y1522D01*
X1084Y1522D02*
X1202Y1522D01*
X1407Y1522D02*
X1481Y1522D01*
X1507Y1522D02*
X1581Y1522D01*
X1607Y1522D02*
X1681Y1522D01*
X87Y1521D02*
X204Y1521D01*
X1085Y1521D02*
X1201Y1521D01*
X1407Y1521D02*
X1481Y1521D01*
X1507Y1521D02*
X1581Y1521D01*
X1607Y1521D02*
X1681Y1521D01*
X88Y1520D02*
X203Y1520D01*
X1085Y1520D02*
X1201Y1520D01*
X1408Y1520D02*
X1480Y1520D01*
X1508Y1520D02*
X1580Y1520D01*
X1608Y1520D02*
X1680Y1520D01*
X88Y1519D02*
X203Y1519D01*
X1086Y1519D02*
X1200Y1519D01*
X1408Y1519D02*
X1480Y1519D01*
X1508Y1519D02*
X1580Y1519D01*
X1608Y1519D02*
X1680Y1519D01*
X1892Y1519D02*
X1900Y1519D01*
X2140Y1519D02*
X2148Y1519D01*
X89Y1518D02*
X202Y1518D01*
X1086Y1518D02*
X1200Y1518D01*
X1408Y1518D02*
X1479Y1518D01*
X1508Y1518D02*
X1579Y1518D01*
X1608Y1518D02*
X1679Y1518D01*
X1886Y1518D02*
X1905Y1518D01*
X2134Y1518D02*
X2153Y1518D01*
X89Y1517D02*
X202Y1517D01*
X1087Y1517D02*
X1199Y1517D01*
X1409Y1517D02*
X1479Y1517D01*
X1509Y1517D02*
X1579Y1517D01*
X1609Y1517D02*
X1679Y1517D01*
X1883Y1517D02*
X1909Y1517D01*
X2131Y1517D02*
X2157Y1517D01*
X90Y1516D02*
X201Y1516D01*
X1087Y1516D02*
X1198Y1516D01*
X1410Y1516D02*
X1478Y1516D01*
X1510Y1516D02*
X1578Y1516D01*
X1610Y1516D02*
X1678Y1516D01*
X1880Y1516D02*
X1912Y1516D01*
X2128Y1516D02*
X2160Y1516D01*
X90Y1515D02*
X200Y1515D01*
X1088Y1515D02*
X1198Y1515D01*
X1410Y1515D02*
X1478Y1515D01*
X1510Y1515D02*
X1578Y1515D01*
X1610Y1515D02*
X1678Y1515D01*
X1878Y1515D02*
X1914Y1515D01*
X2126Y1515D02*
X2162Y1515D01*
X91Y1514D02*
X200Y1514D01*
X1089Y1514D02*
X1197Y1514D01*
X1411Y1514D02*
X1477Y1514D01*
X1511Y1514D02*
X1577Y1514D01*
X1611Y1514D02*
X1677Y1514D01*
X1876Y1514D02*
X1916Y1514D01*
X2124Y1514D02*
X2164Y1514D01*
X92Y1513D02*
X199Y1513D01*
X1089Y1513D02*
X1196Y1513D01*
X1411Y1513D02*
X1476Y1513D01*
X1511Y1513D02*
X1576Y1513D01*
X1611Y1513D02*
X1676Y1513D01*
X1874Y1513D02*
X1918Y1513D01*
X2122Y1513D02*
X2166Y1513D01*
X93Y1512D02*
X198Y1512D01*
X1090Y1512D02*
X1196Y1512D01*
X1412Y1512D02*
X1476Y1512D01*
X1512Y1512D02*
X1576Y1512D01*
X1612Y1512D02*
X1676Y1512D01*
X1872Y1512D02*
X1919Y1512D01*
X2120Y1512D02*
X2168Y1512D01*
X94Y1511D02*
X197Y1511D01*
X1091Y1511D02*
X1195Y1511D01*
X1413Y1511D02*
X1475Y1511D01*
X1513Y1511D02*
X1575Y1511D01*
X1613Y1511D02*
X1675Y1511D01*
X1871Y1511D02*
X1921Y1511D01*
X2119Y1511D02*
X2169Y1511D01*
X95Y1510D02*
X196Y1510D01*
X1092Y1510D02*
X1194Y1510D01*
X1414Y1510D02*
X1474Y1510D01*
X1514Y1510D02*
X1574Y1510D01*
X1614Y1510D02*
X1674Y1510D01*
X1869Y1510D02*
X1922Y1510D01*
X2117Y1510D02*
X2170Y1510D01*
X96Y1509D02*
X195Y1509D01*
X1093Y1509D02*
X1193Y1509D01*
X1415Y1509D02*
X1473Y1509D01*
X1515Y1509D02*
X1573Y1509D01*
X1615Y1509D02*
X1673Y1509D01*
X1868Y1509D02*
X1924Y1509D01*
X2116Y1509D02*
X2172Y1509D01*
X97Y1508D02*
X194Y1508D01*
X1094Y1508D02*
X1192Y1508D01*
X1415Y1508D02*
X1472Y1508D01*
X1515Y1508D02*
X1572Y1508D01*
X1615Y1508D02*
X1672Y1508D01*
X1867Y1508D02*
X1925Y1508D01*
X2115Y1508D02*
X2173Y1508D01*
X98Y1507D02*
X193Y1507D01*
X1096Y1507D02*
X1190Y1507D01*
X1416Y1507D02*
X1471Y1507D01*
X1516Y1507D02*
X1571Y1507D01*
X1616Y1507D02*
X1671Y1507D01*
X1866Y1507D02*
X1926Y1507D01*
X2114Y1507D02*
X2174Y1507D01*
X99Y1506D02*
X191Y1506D01*
X1097Y1506D02*
X1189Y1506D01*
X1417Y1506D02*
X1470Y1506D01*
X1517Y1506D02*
X1570Y1506D01*
X1617Y1506D02*
X1670Y1506D01*
X1865Y1506D02*
X1927Y1506D01*
X2113Y1506D02*
X2175Y1506D01*
X101Y1505D02*
X190Y1505D01*
X1099Y1505D02*
X1187Y1505D01*
X1419Y1505D02*
X1469Y1505D01*
X1519Y1505D02*
X1569Y1505D01*
X1619Y1505D02*
X1669Y1505D01*
X1864Y1505D02*
X1928Y1505D01*
X2112Y1505D02*
X2176Y1505D01*
X103Y1504D02*
X188Y1504D01*
X1100Y1504D02*
X1185Y1504D01*
X1420Y1504D02*
X1468Y1504D01*
X1520Y1504D02*
X1568Y1504D01*
X1620Y1504D02*
X1668Y1504D01*
X1863Y1504D02*
X1929Y1504D01*
X2111Y1504D02*
X2177Y1504D01*
X105Y1503D02*
X186Y1503D01*
X1102Y1503D02*
X1183Y1503D01*
X1421Y1503D02*
X1467Y1503D01*
X1521Y1503D02*
X1567Y1503D01*
X1621Y1503D02*
X1667Y1503D01*
X1862Y1503D02*
X1930Y1503D01*
X2110Y1503D02*
X2178Y1503D01*
X107Y1502D02*
X183Y1502D01*
X1105Y1502D02*
X1181Y1502D01*
X1423Y1502D02*
X1465Y1502D01*
X1523Y1502D02*
X1565Y1502D01*
X1623Y1502D02*
X1665Y1502D01*
X1861Y1502D02*
X1930Y1502D01*
X2109Y1502D02*
X2178Y1502D01*
X110Y1501D02*
X181Y1501D01*
X1108Y1501D02*
X1178Y1501D01*
X1424Y1501D02*
X1463Y1501D01*
X1524Y1501D02*
X1563Y1501D01*
X1624Y1501D02*
X1663Y1501D01*
X1861Y1501D02*
X1931Y1501D01*
X2109Y1501D02*
X2179Y1501D01*
X115Y1500D02*
X176Y1500D01*
X1112Y1500D02*
X1174Y1500D01*
X1426Y1500D02*
X1462Y1500D01*
X1526Y1500D02*
X1562Y1500D01*
X1626Y1500D02*
X1662Y1500D01*
X1860Y1500D02*
X1932Y1500D01*
X2108Y1500D02*
X2180Y1500D01*
X1428Y1499D02*
X1460Y1499D01*
X1528Y1499D02*
X1560Y1499D01*
X1628Y1499D02*
X1660Y1499D01*
X1859Y1499D02*
X1932Y1499D01*
X2107Y1499D02*
X2181Y1499D01*
X1431Y1498D02*
X1457Y1498D01*
X1531Y1498D02*
X1557Y1498D01*
X1631Y1498D02*
X1657Y1498D01*
X1859Y1498D02*
X1933Y1498D01*
X2107Y1498D02*
X2181Y1498D01*
X1434Y1497D02*
X1454Y1497D01*
X1534Y1497D02*
X1554Y1497D01*
X1634Y1497D02*
X1654Y1497D01*
X1858Y1497D02*
X1934Y1497D01*
X2106Y1497D02*
X2182Y1497D01*
X1439Y1496D02*
X1449Y1496D01*
X1539Y1496D02*
X1549Y1496D01*
X1639Y1496D02*
X1649Y1496D01*
X1857Y1496D02*
X1934Y1496D01*
X2105Y1496D02*
X2182Y1496D01*
X1857Y1495D02*
X1935Y1495D01*
X2105Y1495D02*
X2183Y1495D01*
X1856Y1494D02*
X1935Y1494D01*
X2105Y1494D02*
X2183Y1494D01*
X1856Y1493D02*
X1936Y1493D01*
X2104Y1493D02*
X2184Y1493D01*
X1856Y1492D02*
X1936Y1492D01*
X2104Y1492D02*
X2184Y1492D01*
X1855Y1491D02*
X1937Y1491D01*
X2103Y1491D02*
X2185Y1491D01*
X1855Y1490D02*
X1937Y1490D01*
X2103Y1490D02*
X2185Y1490D01*
X1854Y1489D02*
X1937Y1489D01*
X2102Y1489D02*
X2185Y1489D01*
X1854Y1488D02*
X1938Y1488D01*
X2102Y1488D02*
X2186Y1488D01*
X1854Y1487D02*
X1938Y1487D01*
X2102Y1487D02*
X2186Y1487D01*
X1854Y1486D02*
X1938Y1486D01*
X2102Y1486D02*
X2186Y1486D01*
X1853Y1485D02*
X1938Y1485D01*
X2101Y1485D02*
X2186Y1485D01*
X1853Y1484D02*
X1939Y1484D01*
X2101Y1484D02*
X2187Y1484D01*
X1853Y1483D02*
X1939Y1483D01*
X2101Y1483D02*
X2187Y1483D01*
X1853Y1482D02*
X1939Y1482D01*
X2101Y1482D02*
X2187Y1482D01*
X1852Y1481D02*
X1939Y1481D01*
X2101Y1481D02*
X2187Y1481D01*
X1852Y1480D02*
X1939Y1480D01*
X2100Y1480D02*
X2187Y1480D01*
X1852Y1479D02*
X1940Y1479D01*
X2100Y1479D02*
X2188Y1479D01*
X1852Y1478D02*
X1940Y1478D01*
X2100Y1478D02*
X2188Y1478D01*
X1852Y1477D02*
X1940Y1477D01*
X2100Y1477D02*
X2188Y1477D01*
X1852Y1476D02*
X1940Y1476D01*
X2100Y1476D02*
X2188Y1476D01*
X1852Y1475D02*
X1940Y1475D01*
X2100Y1475D02*
X2188Y1475D01*
X1852Y1474D02*
X1940Y1474D01*
X2100Y1474D02*
X2188Y1474D01*
X1852Y1473D02*
X1940Y1473D01*
X2100Y1473D02*
X2188Y1473D01*
X1852Y1472D02*
X1940Y1472D01*
X2100Y1472D02*
X2188Y1472D01*
X115Y1471D02*
X176Y1471D01*
X1112Y1471D02*
X1173Y1471D01*
X1852Y1471D02*
X1940Y1471D01*
X2100Y1471D02*
X2188Y1471D01*
X110Y1470D02*
X180Y1470D01*
X1108Y1470D02*
X1178Y1470D01*
X1852Y1470D02*
X1940Y1470D01*
X2100Y1470D02*
X2188Y1470D01*
X107Y1469D02*
X183Y1469D01*
X1105Y1469D02*
X1181Y1469D01*
X1852Y1469D02*
X1940Y1469D01*
X2100Y1469D02*
X2188Y1469D01*
X105Y1468D02*
X186Y1468D01*
X1103Y1468D02*
X1183Y1468D01*
X1852Y1468D02*
X1940Y1468D01*
X2100Y1468D02*
X2188Y1468D01*
X103Y1467D02*
X188Y1467D01*
X1100Y1467D02*
X1185Y1467D01*
X1852Y1467D02*
X1940Y1467D01*
X2100Y1467D02*
X2188Y1467D01*
X101Y1466D02*
X190Y1466D01*
X1099Y1466D02*
X1187Y1466D01*
X1852Y1466D02*
X1940Y1466D01*
X2100Y1466D02*
X2188Y1466D01*
X100Y1465D02*
X191Y1465D01*
X1097Y1465D02*
X1189Y1465D01*
X1852Y1465D02*
X1940Y1465D01*
X2100Y1465D02*
X2188Y1465D01*
X98Y1464D02*
X193Y1464D01*
X1096Y1464D02*
X1190Y1464D01*
X1852Y1464D02*
X1940Y1464D01*
X2100Y1464D02*
X2188Y1464D01*
X97Y1463D02*
X194Y1463D01*
X1094Y1463D02*
X1192Y1463D01*
X1852Y1463D02*
X1940Y1463D01*
X2100Y1463D02*
X2188Y1463D01*
X96Y1462D02*
X195Y1462D01*
X1093Y1462D02*
X1193Y1462D01*
X1852Y1462D02*
X1940Y1462D01*
X2100Y1462D02*
X2188Y1462D01*
X95Y1461D02*
X196Y1461D01*
X1092Y1461D02*
X1194Y1461D01*
X1852Y1461D02*
X1940Y1461D01*
X2100Y1461D02*
X2188Y1461D01*
X94Y1460D02*
X197Y1460D01*
X1091Y1460D02*
X1195Y1460D01*
X1852Y1460D02*
X1940Y1460D01*
X2100Y1460D02*
X2188Y1460D01*
X93Y1459D02*
X198Y1459D01*
X1090Y1459D02*
X1196Y1459D01*
X1852Y1459D02*
X1940Y1459D01*
X2100Y1459D02*
X2188Y1459D01*
X92Y1458D02*
X199Y1458D01*
X1089Y1458D02*
X1196Y1458D01*
X1852Y1458D02*
X1940Y1458D01*
X2100Y1458D02*
X2188Y1458D01*
X91Y1457D02*
X200Y1457D01*
X1089Y1457D02*
X1197Y1457D01*
X1852Y1457D02*
X1940Y1457D01*
X2100Y1457D02*
X2188Y1457D01*
X90Y1456D02*
X200Y1456D01*
X1088Y1456D02*
X1198Y1456D01*
X1852Y1456D02*
X1940Y1456D01*
X2100Y1456D02*
X2188Y1456D01*
X90Y1455D02*
X201Y1455D01*
X1087Y1455D02*
X1198Y1455D01*
X1852Y1455D02*
X1940Y1455D01*
X2100Y1455D02*
X2188Y1455D01*
X89Y1454D02*
X202Y1454D01*
X1087Y1454D02*
X1199Y1454D01*
X1852Y1454D02*
X1940Y1454D01*
X2100Y1454D02*
X2188Y1454D01*
X89Y1453D02*
X202Y1453D01*
X1086Y1453D02*
X1200Y1453D01*
X1852Y1453D02*
X1940Y1453D01*
X2100Y1453D02*
X2188Y1453D01*
X88Y1452D02*
X203Y1452D01*
X1086Y1452D02*
X1200Y1452D01*
X1852Y1452D02*
X1940Y1452D01*
X2100Y1452D02*
X2188Y1452D01*
X88Y1451D02*
X203Y1451D01*
X1085Y1451D02*
X1201Y1451D01*
X1852Y1451D02*
X1940Y1451D01*
X2100Y1451D02*
X2188Y1451D01*
X87Y1450D02*
X204Y1450D01*
X1085Y1450D02*
X1201Y1450D01*
X1852Y1450D02*
X1893Y1450D01*
X1898Y1450D02*
X1940Y1450D01*
X2100Y1450D02*
X2141Y1450D01*
X2146Y1450D02*
X2188Y1450D01*
X87Y1449D02*
X204Y1449D01*
X1084Y1449D02*
X1202Y1449D01*
X1852Y1449D02*
X1889Y1449D01*
X1902Y1449D02*
X1940Y1449D01*
X2100Y1449D02*
X2137Y1449D01*
X2150Y1449D02*
X2188Y1449D01*
X86Y1448D02*
X204Y1448D01*
X1084Y1448D02*
X1202Y1448D01*
X1852Y1448D02*
X1888Y1448D01*
X1904Y1448D02*
X1940Y1448D01*
X2100Y1448D02*
X2136Y1448D01*
X2152Y1448D02*
X2188Y1448D01*
X86Y1447D02*
X205Y1447D01*
X1084Y1447D02*
X1202Y1447D01*
X1852Y1447D02*
X1886Y1447D01*
X1905Y1447D02*
X1940Y1447D01*
X2100Y1447D02*
X2134Y1447D01*
X2153Y1447D02*
X2188Y1447D01*
X86Y1446D02*
X205Y1446D01*
X1083Y1446D02*
X1203Y1446D01*
X1852Y1446D02*
X1885Y1446D01*
X1907Y1446D02*
X1940Y1446D01*
X2100Y1446D02*
X2133Y1446D01*
X2155Y1446D02*
X2188Y1446D01*
X85Y1445D02*
X205Y1445D01*
X1083Y1445D02*
X1203Y1445D01*
X1852Y1445D02*
X1884Y1445D01*
X1907Y1445D02*
X1940Y1445D01*
X2100Y1445D02*
X2132Y1445D01*
X2156Y1445D02*
X2188Y1445D01*
X85Y1444D02*
X206Y1444D01*
X1083Y1444D02*
X1203Y1444D01*
X1852Y1444D02*
X1883Y1444D01*
X1908Y1444D02*
X1940Y1444D01*
X2100Y1444D02*
X2131Y1444D01*
X2156Y1444D02*
X2188Y1444D01*
X85Y1443D02*
X206Y1443D01*
X1082Y1443D02*
X1204Y1443D01*
X1852Y1443D02*
X1883Y1443D01*
X1909Y1443D02*
X1940Y1443D01*
X2100Y1443D02*
X2131Y1443D01*
X2157Y1443D02*
X2188Y1443D01*
X85Y1442D02*
X206Y1442D01*
X1082Y1442D02*
X1204Y1442D01*
X1852Y1442D02*
X1882Y1442D01*
X1910Y1442D02*
X1940Y1442D01*
X2100Y1442D02*
X2130Y1442D01*
X2158Y1442D02*
X2188Y1442D01*
X84Y1441D02*
X143Y1441D01*
X148Y1441D02*
X206Y1441D01*
X1082Y1441D02*
X1139Y1441D01*
X1145Y1441D02*
X1204Y1441D01*
X1852Y1441D02*
X1882Y1441D01*
X1910Y1441D02*
X1940Y1441D01*
X2100Y1441D02*
X2130Y1441D01*
X2158Y1441D02*
X2188Y1441D01*
X84Y1440D02*
X141Y1440D01*
X150Y1440D02*
X206Y1440D01*
X1082Y1440D02*
X1138Y1440D01*
X1147Y1440D02*
X1204Y1440D01*
X1852Y1440D02*
X1881Y1440D01*
X1910Y1440D02*
X1940Y1440D01*
X2100Y1440D02*
X2129Y1440D01*
X2158Y1440D02*
X2188Y1440D01*
X84Y1439D02*
X140Y1439D01*
X151Y1439D02*
X207Y1439D01*
X1082Y1439D02*
X1137Y1439D01*
X1148Y1439D02*
X1204Y1439D01*
X1852Y1439D02*
X1881Y1439D01*
X1911Y1439D02*
X1940Y1439D01*
X2100Y1439D02*
X2129Y1439D01*
X2159Y1439D02*
X2188Y1439D01*
X84Y1438D02*
X139Y1438D01*
X151Y1438D02*
X207Y1438D01*
X1082Y1438D02*
X1136Y1438D01*
X1148Y1438D02*
X1204Y1438D01*
X1852Y1438D02*
X1881Y1438D01*
X1911Y1438D02*
X1940Y1438D01*
X2100Y1438D02*
X2129Y1438D01*
X2159Y1438D02*
X2188Y1438D01*
X84Y1437D02*
X139Y1437D01*
X152Y1437D02*
X207Y1437D01*
X1082Y1437D02*
X1136Y1437D01*
X1149Y1437D02*
X1204Y1437D01*
X1852Y1437D02*
X1881Y1437D01*
X1911Y1437D02*
X1940Y1437D01*
X2100Y1437D02*
X2129Y1437D01*
X2159Y1437D02*
X2188Y1437D01*
X84Y1436D02*
X139Y1436D01*
X152Y1436D02*
X207Y1436D01*
X1081Y1436D02*
X1136Y1436D01*
X1149Y1436D02*
X1204Y1436D01*
X1852Y1436D02*
X1881Y1436D01*
X1911Y1436D02*
X1940Y1436D01*
X2100Y1436D02*
X2129Y1436D01*
X2159Y1436D02*
X2188Y1436D01*
X84Y1435D02*
X139Y1435D01*
X152Y1435D02*
X207Y1435D01*
X1081Y1435D02*
X1136Y1435D01*
X1149Y1435D02*
X1204Y1435D01*
X1852Y1435D02*
X1881Y1435D01*
X1911Y1435D02*
X1940Y1435D01*
X2100Y1435D02*
X2129Y1435D01*
X2159Y1435D02*
X2188Y1435D01*
X84Y1434D02*
X139Y1434D01*
X152Y1434D02*
X207Y1434D01*
X1082Y1434D02*
X1136Y1434D01*
X1149Y1434D02*
X1204Y1434D01*
X1852Y1434D02*
X1881Y1434D01*
X1911Y1434D02*
X1940Y1434D01*
X2100Y1434D02*
X2129Y1434D01*
X2159Y1434D02*
X2188Y1434D01*
X84Y1433D02*
X139Y1433D01*
X151Y1433D02*
X207Y1433D01*
X1082Y1433D02*
X1136Y1433D01*
X1148Y1433D02*
X1204Y1433D01*
X1852Y1433D02*
X1881Y1433D01*
X1911Y1433D02*
X1940Y1433D01*
X2100Y1433D02*
X2129Y1433D01*
X2159Y1433D02*
X2188Y1433D01*
X84Y1432D02*
X140Y1432D01*
X151Y1432D02*
X207Y1432D01*
X1082Y1432D02*
X1137Y1432D01*
X1148Y1432D02*
X1204Y1432D01*
X1852Y1432D02*
X1881Y1432D01*
X1911Y1432D02*
X1940Y1432D01*
X2100Y1432D02*
X2129Y1432D01*
X2159Y1432D02*
X2188Y1432D01*
X84Y1431D02*
X141Y1431D01*
X150Y1431D02*
X206Y1431D01*
X1082Y1431D02*
X1138Y1431D01*
X1147Y1431D02*
X1204Y1431D01*
X1852Y1431D02*
X1881Y1431D01*
X1910Y1431D02*
X1940Y1431D01*
X2100Y1431D02*
X2129Y1431D01*
X2158Y1431D02*
X2188Y1431D01*
X84Y1430D02*
X142Y1430D01*
X148Y1430D02*
X206Y1430D01*
X1082Y1430D02*
X1139Y1430D01*
X1145Y1430D02*
X1204Y1430D01*
X1852Y1430D02*
X1882Y1430D01*
X1910Y1430D02*
X1940Y1430D01*
X2100Y1430D02*
X2130Y1430D01*
X2158Y1430D02*
X2188Y1430D01*
X85Y1429D02*
X206Y1429D01*
X1082Y1429D02*
X1204Y1429D01*
X1852Y1429D02*
X1882Y1429D01*
X1910Y1429D02*
X1940Y1429D01*
X2100Y1429D02*
X2130Y1429D01*
X2158Y1429D02*
X2188Y1429D01*
X85Y1428D02*
X206Y1428D01*
X1082Y1428D02*
X1204Y1428D01*
X1852Y1428D02*
X1883Y1428D01*
X1909Y1428D02*
X1940Y1428D01*
X2100Y1428D02*
X2131Y1428D01*
X2157Y1428D02*
X2188Y1428D01*
X85Y1427D02*
X206Y1427D01*
X1083Y1427D02*
X1203Y1427D01*
X1852Y1427D02*
X1883Y1427D01*
X1908Y1427D02*
X1940Y1427D01*
X2100Y1427D02*
X2131Y1427D01*
X2156Y1427D02*
X2188Y1427D01*
X85Y1426D02*
X205Y1426D01*
X1083Y1426D02*
X1203Y1426D01*
X1852Y1426D02*
X1884Y1426D01*
X1908Y1426D02*
X1940Y1426D01*
X2100Y1426D02*
X2132Y1426D01*
X2156Y1426D02*
X2188Y1426D01*
X86Y1425D02*
X205Y1425D01*
X1083Y1425D02*
X1203Y1425D01*
X1852Y1425D02*
X1885Y1425D01*
X1907Y1425D02*
X1940Y1425D01*
X2100Y1425D02*
X2133Y1425D01*
X2155Y1425D02*
X2188Y1425D01*
X86Y1424D02*
X205Y1424D01*
X1084Y1424D02*
X1202Y1424D01*
X1852Y1424D02*
X1886Y1424D01*
X1905Y1424D02*
X1940Y1424D01*
X2100Y1424D02*
X2134Y1424D01*
X2153Y1424D02*
X2188Y1424D01*
X86Y1423D02*
X204Y1423D01*
X1084Y1423D02*
X1202Y1423D01*
X1852Y1423D02*
X1888Y1423D01*
X1904Y1423D02*
X1940Y1423D01*
X2100Y1423D02*
X2136Y1423D01*
X2152Y1423D02*
X2188Y1423D01*
X87Y1422D02*
X204Y1422D01*
X1084Y1422D02*
X1202Y1422D01*
X1852Y1422D02*
X1889Y1422D01*
X1902Y1422D02*
X1940Y1422D01*
X2100Y1422D02*
X2137Y1422D01*
X2150Y1422D02*
X2188Y1422D01*
X87Y1421D02*
X204Y1421D01*
X1085Y1421D02*
X1201Y1421D01*
X1852Y1421D02*
X1893Y1421D01*
X1899Y1421D02*
X1940Y1421D01*
X2100Y1421D02*
X2141Y1421D01*
X2147Y1421D02*
X2188Y1421D01*
X88Y1420D02*
X203Y1420D01*
X1085Y1420D02*
X1201Y1420D01*
X1852Y1420D02*
X1940Y1420D01*
X2100Y1420D02*
X2188Y1420D01*
X88Y1419D02*
X203Y1419D01*
X1086Y1419D02*
X1200Y1419D01*
X1852Y1419D02*
X1940Y1419D01*
X2100Y1419D02*
X2188Y1419D01*
X89Y1418D02*
X202Y1418D01*
X1086Y1418D02*
X1200Y1418D01*
X1852Y1418D02*
X1940Y1418D01*
X2100Y1418D02*
X2188Y1418D01*
X89Y1417D02*
X202Y1417D01*
X1087Y1417D02*
X1199Y1417D01*
X1852Y1417D02*
X1940Y1417D01*
X2100Y1417D02*
X2188Y1417D01*
X90Y1416D02*
X201Y1416D01*
X1087Y1416D02*
X1199Y1416D01*
X1852Y1416D02*
X1940Y1416D01*
X2100Y1416D02*
X2188Y1416D01*
X90Y1415D02*
X200Y1415D01*
X1088Y1415D02*
X1198Y1415D01*
X1852Y1415D02*
X1940Y1415D01*
X2100Y1415D02*
X2188Y1415D01*
X91Y1414D02*
X200Y1414D01*
X1089Y1414D02*
X1197Y1414D01*
X1852Y1414D02*
X1940Y1414D01*
X2100Y1414D02*
X2188Y1414D01*
X92Y1413D02*
X199Y1413D01*
X1089Y1413D02*
X1196Y1413D01*
X1852Y1413D02*
X1940Y1413D01*
X2100Y1413D02*
X2188Y1413D01*
X93Y1412D02*
X198Y1412D01*
X1090Y1412D02*
X1196Y1412D01*
X1852Y1412D02*
X1940Y1412D01*
X2100Y1412D02*
X2188Y1412D01*
X94Y1411D02*
X197Y1411D01*
X1091Y1411D02*
X1195Y1411D01*
X1852Y1411D02*
X1940Y1411D01*
X2100Y1411D02*
X2188Y1411D01*
X94Y1410D02*
X196Y1410D01*
X1092Y1410D02*
X1194Y1410D01*
X1852Y1410D02*
X1940Y1410D01*
X2100Y1410D02*
X2188Y1410D01*
X96Y1409D02*
X195Y1409D01*
X1093Y1409D02*
X1193Y1409D01*
X1852Y1409D02*
X1940Y1409D01*
X2100Y1409D02*
X2188Y1409D01*
X97Y1408D02*
X194Y1408D01*
X1094Y1408D02*
X1192Y1408D01*
X1852Y1408D02*
X1940Y1408D01*
X2100Y1408D02*
X2188Y1408D01*
X98Y1407D02*
X193Y1407D01*
X1096Y1407D02*
X1190Y1407D01*
X1852Y1407D02*
X1940Y1407D01*
X2100Y1407D02*
X2188Y1407D01*
X99Y1406D02*
X191Y1406D01*
X1097Y1406D02*
X1189Y1406D01*
X1852Y1406D02*
X1940Y1406D01*
X2100Y1406D02*
X2188Y1406D01*
X101Y1405D02*
X190Y1405D01*
X1099Y1405D02*
X1187Y1405D01*
X1852Y1405D02*
X1940Y1405D01*
X2100Y1405D02*
X2188Y1405D01*
X103Y1404D02*
X188Y1404D01*
X1100Y1404D02*
X1186Y1404D01*
X1852Y1404D02*
X1940Y1404D01*
X2100Y1404D02*
X2188Y1404D01*
X105Y1403D02*
X186Y1403D01*
X1102Y1403D02*
X1183Y1403D01*
X1852Y1403D02*
X1940Y1403D01*
X2100Y1403D02*
X2188Y1403D01*
X107Y1402D02*
X183Y1402D01*
X1105Y1402D02*
X1181Y1402D01*
X1852Y1402D02*
X1940Y1402D01*
X2100Y1402D02*
X2188Y1402D01*
X110Y1401D02*
X181Y1401D01*
X1108Y1401D02*
X1178Y1401D01*
X1852Y1401D02*
X1940Y1401D01*
X2100Y1401D02*
X2188Y1401D01*
X115Y1400D02*
X176Y1400D01*
X1112Y1400D02*
X1174Y1400D01*
X1852Y1400D02*
X1940Y1400D01*
X2100Y1400D02*
X2188Y1400D01*
X1852Y1399D02*
X1940Y1399D01*
X2100Y1399D02*
X2188Y1399D01*
X1852Y1398D02*
X1940Y1398D01*
X2100Y1398D02*
X2188Y1398D01*
X1852Y1397D02*
X1940Y1397D01*
X2100Y1397D02*
X2188Y1397D01*
X1852Y1396D02*
X1940Y1396D01*
X2100Y1396D02*
X2188Y1396D01*
X1852Y1395D02*
X1940Y1395D01*
X2100Y1395D02*
X2188Y1395D01*
X1852Y1394D02*
X1940Y1394D01*
X2100Y1394D02*
X2188Y1394D01*
X1852Y1393D02*
X1940Y1393D01*
X2100Y1393D02*
X2188Y1393D01*
X1852Y1392D02*
X1940Y1392D01*
X2100Y1392D02*
X2188Y1392D01*
X1852Y1391D02*
X1939Y1391D01*
X2100Y1391D02*
X2187Y1391D01*
X1852Y1390D02*
X1939Y1390D01*
X2101Y1390D02*
X2187Y1390D01*
X1853Y1389D02*
X1939Y1389D01*
X2101Y1389D02*
X2187Y1389D01*
X1853Y1388D02*
X1939Y1388D01*
X2101Y1388D02*
X2187Y1388D01*
X1853Y1387D02*
X1939Y1387D01*
X2101Y1387D02*
X2187Y1387D01*
X1853Y1386D02*
X1938Y1386D01*
X2101Y1386D02*
X2186Y1386D01*
X1854Y1385D02*
X1938Y1385D01*
X2102Y1385D02*
X2186Y1385D01*
X1854Y1384D02*
X1938Y1384D01*
X2102Y1384D02*
X2186Y1384D01*
X1854Y1383D02*
X1938Y1383D01*
X2102Y1383D02*
X2186Y1383D01*
X1854Y1382D02*
X1937Y1382D01*
X2102Y1382D02*
X2185Y1382D01*
X1855Y1381D02*
X1937Y1381D01*
X2103Y1381D02*
X2185Y1381D01*
X1855Y1380D02*
X1937Y1380D01*
X2103Y1380D02*
X2185Y1380D01*
X1856Y1379D02*
X1936Y1379D01*
X2104Y1379D02*
X2184Y1379D01*
X1856Y1378D02*
X1936Y1378D01*
X2104Y1378D02*
X2184Y1378D01*
X1856Y1377D02*
X1935Y1377D01*
X2105Y1377D02*
X2183Y1377D01*
X1857Y1376D02*
X1935Y1376D01*
X2105Y1376D02*
X2183Y1376D01*
X1857Y1375D02*
X1934Y1375D01*
X2105Y1375D02*
X2182Y1375D01*
X1858Y1374D02*
X1934Y1374D01*
X2106Y1374D02*
X2182Y1374D01*
X1859Y1373D02*
X1933Y1373D01*
X2107Y1373D02*
X2181Y1373D01*
X1859Y1372D02*
X1932Y1372D01*
X2107Y1372D02*
X2181Y1372D01*
X115Y1371D02*
X176Y1371D01*
X1112Y1371D02*
X1173Y1371D01*
X1860Y1371D02*
X1932Y1371D01*
X2108Y1371D02*
X2180Y1371D01*
X110Y1370D02*
X180Y1370D01*
X1108Y1370D02*
X1178Y1370D01*
X1861Y1370D02*
X1931Y1370D01*
X2109Y1370D02*
X2179Y1370D01*
X107Y1369D02*
X183Y1369D01*
X1105Y1369D02*
X1181Y1369D01*
X1861Y1369D02*
X1930Y1369D01*
X2109Y1369D02*
X2178Y1369D01*
X105Y1368D02*
X186Y1368D01*
X1103Y1368D02*
X1183Y1368D01*
X1862Y1368D02*
X1930Y1368D01*
X2110Y1368D02*
X2178Y1368D01*
X103Y1367D02*
X188Y1367D01*
X1100Y1367D02*
X1185Y1367D01*
X1863Y1367D02*
X1929Y1367D01*
X2111Y1367D02*
X2177Y1367D01*
X101Y1366D02*
X190Y1366D01*
X1099Y1366D02*
X1187Y1366D01*
X1864Y1366D02*
X1928Y1366D01*
X2112Y1366D02*
X2176Y1366D01*
X100Y1365D02*
X191Y1365D01*
X1097Y1365D02*
X1189Y1365D01*
X1865Y1365D02*
X1927Y1365D01*
X2113Y1365D02*
X2175Y1365D01*
X98Y1364D02*
X193Y1364D01*
X1096Y1364D02*
X1190Y1364D01*
X1866Y1364D02*
X1926Y1364D01*
X2114Y1364D02*
X2174Y1364D01*
X97Y1363D02*
X194Y1363D01*
X1094Y1363D02*
X1192Y1363D01*
X1867Y1363D02*
X1925Y1363D01*
X2115Y1363D02*
X2173Y1363D01*
X96Y1362D02*
X195Y1362D01*
X1093Y1362D02*
X1193Y1362D01*
X1868Y1362D02*
X1924Y1362D01*
X2116Y1362D02*
X2172Y1362D01*
X95Y1361D02*
X196Y1361D01*
X1092Y1361D02*
X1194Y1361D01*
X1869Y1361D02*
X1922Y1361D01*
X2117Y1361D02*
X2170Y1361D01*
X94Y1360D02*
X197Y1360D01*
X1091Y1360D02*
X1195Y1360D01*
X1871Y1360D02*
X1921Y1360D01*
X2119Y1360D02*
X2169Y1360D01*
X93Y1359D02*
X198Y1359D01*
X1090Y1359D02*
X1196Y1359D01*
X1872Y1359D02*
X1920Y1359D01*
X2120Y1359D02*
X2168Y1359D01*
X92Y1358D02*
X199Y1358D01*
X1089Y1358D02*
X1196Y1358D01*
X1874Y1358D02*
X1918Y1358D01*
X2122Y1358D02*
X2166Y1358D01*
X91Y1357D02*
X200Y1357D01*
X1089Y1357D02*
X1197Y1357D01*
X1876Y1357D02*
X1916Y1357D01*
X2124Y1357D02*
X2164Y1357D01*
X90Y1356D02*
X200Y1356D01*
X1088Y1356D02*
X1198Y1356D01*
X1878Y1356D02*
X1914Y1356D01*
X2126Y1356D02*
X2162Y1356D01*
X90Y1355D02*
X201Y1355D01*
X1087Y1355D02*
X1198Y1355D01*
X1880Y1355D02*
X1912Y1355D01*
X2128Y1355D02*
X2160Y1355D01*
X89Y1354D02*
X202Y1354D01*
X1087Y1354D02*
X1199Y1354D01*
X1883Y1354D02*
X1909Y1354D01*
X2131Y1354D02*
X2157Y1354D01*
X89Y1353D02*
X202Y1353D01*
X1086Y1353D02*
X1200Y1353D01*
X1886Y1353D02*
X1905Y1353D01*
X2134Y1353D02*
X2153Y1353D01*
X88Y1352D02*
X203Y1352D01*
X1086Y1352D02*
X1200Y1352D01*
X1892Y1352D02*
X1900Y1352D01*
X2140Y1352D02*
X2148Y1352D01*
X88Y1351D02*
X203Y1351D01*
X1085Y1351D02*
X1201Y1351D01*
X87Y1350D02*
X204Y1350D01*
X1085Y1350D02*
X1201Y1350D01*
X87Y1349D02*
X204Y1349D01*
X1084Y1349D02*
X1202Y1349D01*
X86Y1348D02*
X204Y1348D01*
X1084Y1348D02*
X1202Y1348D01*
X86Y1347D02*
X205Y1347D01*
X1084Y1347D02*
X1202Y1347D01*
X86Y1346D02*
X205Y1346D01*
X1083Y1346D02*
X1203Y1346D01*
X85Y1345D02*
X205Y1345D01*
X1083Y1345D02*
X1203Y1345D01*
X85Y1344D02*
X206Y1344D01*
X1083Y1344D02*
X1203Y1344D01*
X85Y1343D02*
X206Y1343D01*
X1082Y1343D02*
X1203Y1343D01*
X85Y1342D02*
X206Y1342D01*
X1082Y1342D02*
X1204Y1342D01*
X84Y1341D02*
X143Y1341D01*
X148Y1341D02*
X206Y1341D01*
X1082Y1341D02*
X1139Y1341D01*
X1145Y1341D02*
X1204Y1341D01*
X84Y1340D02*
X141Y1340D01*
X150Y1340D02*
X206Y1340D01*
X1082Y1340D02*
X1138Y1340D01*
X1146Y1340D02*
X1204Y1340D01*
X84Y1339D02*
X140Y1339D01*
X151Y1339D02*
X207Y1339D01*
X1082Y1339D02*
X1137Y1339D01*
X1147Y1339D02*
X1204Y1339D01*
X84Y1338D02*
X139Y1338D01*
X152Y1338D02*
X207Y1338D01*
X1082Y1338D02*
X1136Y1338D01*
X1148Y1338D02*
X1204Y1338D01*
X84Y1337D02*
X139Y1337D01*
X152Y1337D02*
X207Y1337D01*
X1082Y1337D02*
X1136Y1337D01*
X1149Y1337D02*
X1204Y1337D01*
X84Y1336D02*
X139Y1336D01*
X152Y1336D02*
X207Y1336D01*
X1081Y1336D02*
X1136Y1336D01*
X1149Y1336D02*
X1204Y1336D01*
X84Y1335D02*
X139Y1335D01*
X152Y1335D02*
X207Y1335D01*
X1081Y1335D02*
X1136Y1335D01*
X1149Y1335D02*
X1204Y1335D01*
X84Y1334D02*
X139Y1334D01*
X152Y1334D02*
X207Y1334D01*
X1082Y1334D02*
X1136Y1334D01*
X1149Y1334D02*
X1204Y1334D01*
X84Y1333D02*
X139Y1333D01*
X152Y1333D02*
X207Y1333D01*
X1082Y1333D02*
X1136Y1333D01*
X1148Y1333D02*
X1204Y1333D01*
X84Y1332D02*
X140Y1332D01*
X151Y1332D02*
X207Y1332D01*
X1082Y1332D02*
X1137Y1332D01*
X1148Y1332D02*
X1204Y1332D01*
X84Y1331D02*
X141Y1331D01*
X150Y1331D02*
X206Y1331D01*
X1082Y1331D02*
X1138Y1331D01*
X1147Y1331D02*
X1204Y1331D01*
X84Y1330D02*
X142Y1330D01*
X149Y1330D02*
X206Y1330D01*
X1082Y1330D02*
X1139Y1330D01*
X1145Y1330D02*
X1204Y1330D01*
X85Y1329D02*
X206Y1329D01*
X1082Y1329D02*
X1204Y1329D01*
X85Y1328D02*
X206Y1328D01*
X1082Y1328D02*
X1203Y1328D01*
X85Y1327D02*
X206Y1327D01*
X1083Y1327D02*
X1203Y1327D01*
X85Y1326D02*
X205Y1326D01*
X1083Y1326D02*
X1203Y1326D01*
X86Y1325D02*
X205Y1325D01*
X1083Y1325D02*
X1203Y1325D01*
X86Y1324D02*
X205Y1324D01*
X1084Y1324D02*
X1202Y1324D01*
X86Y1323D02*
X204Y1323D01*
X1084Y1323D02*
X1202Y1323D01*
X87Y1322D02*
X204Y1322D01*
X1084Y1322D02*
X1202Y1322D01*
X87Y1321D02*
X204Y1321D01*
X1085Y1321D02*
X1201Y1321D01*
X88Y1320D02*
X203Y1320D01*
X1085Y1320D02*
X1201Y1320D01*
X88Y1319D02*
X203Y1319D01*
X1086Y1319D02*
X1200Y1319D01*
X89Y1318D02*
X202Y1318D01*
X1086Y1318D02*
X1200Y1318D01*
X89Y1317D02*
X202Y1317D01*
X1087Y1317D02*
X1199Y1317D01*
X90Y1316D02*
X201Y1316D01*
X1087Y1316D02*
X1198Y1316D01*
X90Y1315D02*
X200Y1315D01*
X1088Y1315D02*
X1198Y1315D01*
X91Y1314D02*
X200Y1314D01*
X1089Y1314D02*
X1197Y1314D01*
X92Y1313D02*
X199Y1313D01*
X1089Y1313D02*
X1196Y1313D01*
X93Y1312D02*
X198Y1312D01*
X1090Y1312D02*
X1196Y1312D01*
X94Y1311D02*
X197Y1311D01*
X1091Y1311D02*
X1195Y1311D01*
X94Y1310D02*
X196Y1310D01*
X1092Y1310D02*
X1194Y1310D01*
X96Y1309D02*
X195Y1309D01*
X1093Y1309D02*
X1193Y1309D01*
X97Y1308D02*
X194Y1308D01*
X1094Y1308D02*
X1192Y1308D01*
X98Y1307D02*
X193Y1307D01*
X1096Y1307D02*
X1190Y1307D01*
X99Y1306D02*
X191Y1306D01*
X1097Y1306D02*
X1189Y1306D01*
X101Y1305D02*
X190Y1305D01*
X1099Y1305D02*
X1187Y1305D01*
X103Y1304D02*
X188Y1304D01*
X1100Y1304D02*
X1185Y1304D01*
X105Y1303D02*
X186Y1303D01*
X1102Y1303D02*
X1183Y1303D01*
X107Y1302D02*
X183Y1302D01*
X1105Y1302D02*
X1181Y1302D01*
X110Y1301D02*
X181Y1301D01*
X1108Y1301D02*
X1178Y1301D01*
X114Y1300D02*
X176Y1300D01*
X1112Y1300D02*
X1174Y1300D01*
X115Y1271D02*
X176Y1271D01*
X1112Y1271D02*
X1173Y1271D01*
X110Y1270D02*
X180Y1270D01*
X1108Y1270D02*
X1178Y1270D01*
X107Y1269D02*
X183Y1269D01*
X1105Y1269D02*
X1181Y1269D01*
X105Y1268D02*
X186Y1268D01*
X1103Y1268D02*
X1183Y1268D01*
X103Y1267D02*
X188Y1267D01*
X1100Y1267D02*
X1185Y1267D01*
X101Y1266D02*
X190Y1266D01*
X1099Y1266D02*
X1187Y1266D01*
X100Y1265D02*
X191Y1265D01*
X1097Y1265D02*
X1189Y1265D01*
X98Y1264D02*
X193Y1264D01*
X1096Y1264D02*
X1190Y1264D01*
X97Y1263D02*
X194Y1263D01*
X1094Y1263D02*
X1192Y1263D01*
X96Y1262D02*
X195Y1262D01*
X1093Y1262D02*
X1193Y1262D01*
X95Y1261D02*
X196Y1261D01*
X1092Y1261D02*
X1194Y1261D01*
X94Y1260D02*
X197Y1260D01*
X1091Y1260D02*
X1195Y1260D01*
X93Y1259D02*
X198Y1259D01*
X1090Y1259D02*
X1196Y1259D01*
X92Y1258D02*
X199Y1258D01*
X1089Y1258D02*
X1196Y1258D01*
X91Y1257D02*
X200Y1257D01*
X1089Y1257D02*
X1197Y1257D01*
X90Y1256D02*
X200Y1256D01*
X1088Y1256D02*
X1198Y1256D01*
X90Y1255D02*
X201Y1255D01*
X1087Y1255D02*
X1198Y1255D01*
X89Y1254D02*
X202Y1254D01*
X1087Y1254D02*
X1199Y1254D01*
X89Y1253D02*
X202Y1253D01*
X1086Y1253D02*
X1200Y1253D01*
X88Y1252D02*
X203Y1252D01*
X1086Y1252D02*
X1200Y1252D01*
X88Y1251D02*
X203Y1251D01*
X1085Y1251D02*
X1201Y1251D01*
X87Y1250D02*
X204Y1250D01*
X1085Y1250D02*
X1201Y1250D01*
X87Y1249D02*
X204Y1249D01*
X1084Y1249D02*
X1202Y1249D01*
X86Y1248D02*
X204Y1248D01*
X1084Y1248D02*
X1202Y1248D01*
X86Y1247D02*
X205Y1247D01*
X1084Y1247D02*
X1202Y1247D01*
X86Y1246D02*
X205Y1246D01*
X1083Y1246D02*
X1203Y1246D01*
X85Y1245D02*
X205Y1245D01*
X1083Y1245D02*
X1203Y1245D01*
X85Y1244D02*
X206Y1244D01*
X1083Y1244D02*
X1203Y1244D01*
X85Y1243D02*
X206Y1243D01*
X1082Y1243D02*
X1203Y1243D01*
X85Y1242D02*
X206Y1242D01*
X1082Y1242D02*
X1204Y1242D01*
X84Y1241D02*
X142Y1241D01*
X148Y1241D02*
X206Y1241D01*
X1082Y1241D02*
X1139Y1241D01*
X1145Y1241D02*
X1204Y1241D01*
X84Y1240D02*
X141Y1240D01*
X150Y1240D02*
X206Y1240D01*
X1082Y1240D02*
X1138Y1240D01*
X1146Y1240D02*
X1204Y1240D01*
X84Y1239D02*
X140Y1239D01*
X151Y1239D02*
X207Y1239D01*
X1082Y1239D02*
X1137Y1239D01*
X1147Y1239D02*
X1204Y1239D01*
X84Y1238D02*
X139Y1238D01*
X151Y1238D02*
X207Y1238D01*
X1082Y1238D02*
X1136Y1238D01*
X1148Y1238D02*
X1204Y1238D01*
X84Y1237D02*
X139Y1237D01*
X152Y1237D02*
X207Y1237D01*
X1082Y1237D02*
X1136Y1237D01*
X1149Y1237D02*
X1204Y1237D01*
X84Y1236D02*
X139Y1236D01*
X152Y1236D02*
X207Y1236D01*
X1081Y1236D02*
X1136Y1236D01*
X1149Y1236D02*
X1204Y1236D01*
X84Y1235D02*
X139Y1235D01*
X152Y1235D02*
X207Y1235D01*
X1081Y1235D02*
X1136Y1235D01*
X1149Y1235D02*
X1204Y1235D01*
X84Y1234D02*
X139Y1234D01*
X152Y1234D02*
X207Y1234D01*
X1082Y1234D02*
X1136Y1234D01*
X1149Y1234D02*
X1204Y1234D01*
X84Y1233D02*
X139Y1233D01*
X152Y1233D02*
X207Y1233D01*
X1082Y1233D02*
X1136Y1233D01*
X1148Y1233D02*
X1204Y1233D01*
X84Y1232D02*
X140Y1232D01*
X151Y1232D02*
X207Y1232D01*
X1082Y1232D02*
X1137Y1232D01*
X1148Y1232D02*
X1204Y1232D01*
X84Y1231D02*
X141Y1231D01*
X150Y1231D02*
X207Y1231D01*
X1082Y1231D02*
X1138Y1231D01*
X1147Y1231D02*
X1204Y1231D01*
X84Y1230D02*
X142Y1230D01*
X149Y1230D02*
X207Y1230D01*
X1082Y1230D02*
X1139Y1230D01*
X1145Y1230D02*
X1204Y1230D01*
X85Y1229D02*
X207Y1229D01*
X1082Y1229D02*
X1204Y1229D01*
X85Y1228D02*
X207Y1228D01*
X1082Y1228D02*
X1203Y1228D01*
X85Y1227D02*
X207Y1227D01*
X1083Y1227D02*
X1203Y1227D01*
X85Y1226D02*
X207Y1226D01*
X1083Y1226D02*
X1203Y1226D01*
X86Y1225D02*
X205Y1225D01*
X1083Y1225D02*
X1203Y1225D01*
X86Y1224D02*
X205Y1224D01*
X1084Y1224D02*
X1202Y1224D01*
X86Y1223D02*
X204Y1223D01*
X1084Y1223D02*
X1202Y1223D01*
X87Y1222D02*
X204Y1222D01*
X1084Y1222D02*
X1202Y1222D01*
X87Y1221D02*
X204Y1221D01*
X1085Y1221D02*
X1201Y1221D01*
X88Y1220D02*
X203Y1220D01*
X1085Y1220D02*
X1201Y1220D01*
X88Y1219D02*
X203Y1219D01*
X1086Y1219D02*
X1200Y1219D01*
X89Y1218D02*
X202Y1218D01*
X1086Y1218D02*
X1200Y1218D01*
X89Y1217D02*
X202Y1217D01*
X1087Y1217D02*
X1199Y1217D01*
X90Y1216D02*
X201Y1216D01*
X1087Y1216D02*
X1198Y1216D01*
X90Y1215D02*
X200Y1215D01*
X1088Y1215D02*
X1198Y1215D01*
X91Y1214D02*
X200Y1214D01*
X1089Y1214D02*
X1197Y1214D01*
X92Y1213D02*
X199Y1213D01*
X1089Y1213D02*
X1196Y1213D01*
X93Y1212D02*
X198Y1212D01*
X1090Y1212D02*
X1196Y1212D01*
X94Y1211D02*
X197Y1211D01*
X1091Y1211D02*
X1195Y1211D01*
X94Y1210D02*
X196Y1210D01*
X1092Y1210D02*
X1194Y1210D01*
X96Y1209D02*
X195Y1209D01*
X1093Y1209D02*
X1193Y1209D01*
X97Y1208D02*
X194Y1208D01*
X1094Y1208D02*
X1192Y1208D01*
X98Y1207D02*
X193Y1207D01*
X1096Y1207D02*
X1190Y1207D01*
X99Y1206D02*
X191Y1206D01*
X1097Y1206D02*
X1189Y1206D01*
X101Y1205D02*
X190Y1205D01*
X1099Y1205D02*
X1187Y1205D01*
X103Y1204D02*
X188Y1204D01*
X1100Y1204D02*
X1185Y1204D01*
X105Y1203D02*
X186Y1203D01*
X1102Y1203D02*
X1183Y1203D01*
X107Y1202D02*
X183Y1202D01*
X1105Y1202D02*
X1181Y1202D01*
X110Y1201D02*
X181Y1201D01*
X1108Y1201D02*
X1178Y1201D01*
X114Y1200D02*
X176Y1200D01*
X1112Y1200D02*
X1174Y1200D01*
X1968Y1176D02*
X2060Y1176D01*
X1963Y1175D02*
X2065Y1175D01*
X1960Y1174D02*
X2068Y1174D01*
X1958Y1173D02*
X2070Y1173D01*
X1956Y1172D02*
X2072Y1172D01*
X115Y1171D02*
X176Y1171D01*
X1112Y1171D02*
X1173Y1171D01*
X1954Y1171D02*
X2074Y1171D01*
X110Y1170D02*
X180Y1170D01*
X1108Y1170D02*
X1178Y1170D01*
X1952Y1170D02*
X2076Y1170D01*
X107Y1169D02*
X183Y1169D01*
X1105Y1169D02*
X1181Y1169D01*
X1950Y1169D02*
X2078Y1169D01*
X105Y1168D02*
X186Y1168D01*
X1103Y1168D02*
X1183Y1168D01*
X1949Y1168D02*
X2079Y1168D01*
X103Y1167D02*
X188Y1167D01*
X1100Y1167D02*
X1185Y1167D01*
X1947Y1167D02*
X2080Y1167D01*
X101Y1166D02*
X190Y1166D01*
X1099Y1166D02*
X1187Y1166D01*
X1946Y1166D02*
X2082Y1166D01*
X100Y1165D02*
X191Y1165D01*
X1097Y1165D02*
X1189Y1165D01*
X1945Y1165D02*
X2083Y1165D01*
X98Y1164D02*
X193Y1164D01*
X1096Y1164D02*
X1190Y1164D01*
X1944Y1164D02*
X2084Y1164D01*
X97Y1163D02*
X194Y1163D01*
X1094Y1163D02*
X1192Y1163D01*
X1943Y1163D02*
X2085Y1163D01*
X96Y1162D02*
X195Y1162D01*
X1093Y1162D02*
X1193Y1162D01*
X1942Y1162D02*
X2086Y1162D01*
X95Y1161D02*
X196Y1161D01*
X1092Y1161D02*
X1194Y1161D01*
X1941Y1161D02*
X2087Y1161D01*
X94Y1160D02*
X197Y1160D01*
X1091Y1160D02*
X1195Y1160D01*
X1940Y1160D02*
X2087Y1160D01*
X93Y1159D02*
X198Y1159D01*
X1090Y1159D02*
X1196Y1159D01*
X1940Y1159D02*
X2088Y1159D01*
X92Y1158D02*
X199Y1158D01*
X1089Y1158D02*
X1196Y1158D01*
X1939Y1158D02*
X2089Y1158D01*
X91Y1157D02*
X200Y1157D01*
X1089Y1157D02*
X1197Y1157D01*
X1938Y1157D02*
X2090Y1157D01*
X90Y1156D02*
X200Y1156D01*
X1088Y1156D02*
X1198Y1156D01*
X1938Y1156D02*
X2090Y1156D01*
X90Y1155D02*
X201Y1155D01*
X1087Y1155D02*
X1199Y1155D01*
X1937Y1155D02*
X2091Y1155D01*
X89Y1154D02*
X202Y1154D01*
X1087Y1154D02*
X1199Y1154D01*
X1936Y1154D02*
X2091Y1154D01*
X89Y1153D02*
X202Y1153D01*
X1086Y1153D02*
X1200Y1153D01*
X1936Y1153D02*
X2092Y1153D01*
X88Y1152D02*
X203Y1152D01*
X1086Y1152D02*
X1200Y1152D01*
X1935Y1152D02*
X2092Y1152D01*
X88Y1151D02*
X203Y1151D01*
X1085Y1151D02*
X1201Y1151D01*
X1935Y1151D02*
X2093Y1151D01*
X87Y1150D02*
X204Y1150D01*
X1085Y1150D02*
X1201Y1150D01*
X1935Y1150D02*
X2093Y1150D01*
X87Y1149D02*
X204Y1149D01*
X1084Y1149D02*
X1202Y1149D01*
X1934Y1149D02*
X2094Y1149D01*
X86Y1148D02*
X204Y1148D01*
X1084Y1148D02*
X1202Y1148D01*
X1934Y1148D02*
X2094Y1148D01*
X86Y1147D02*
X205Y1147D01*
X1084Y1147D02*
X1202Y1147D01*
X1933Y1147D02*
X2095Y1147D01*
X86Y1146D02*
X205Y1146D01*
X1083Y1146D02*
X1203Y1146D01*
X1933Y1146D02*
X2008Y1146D01*
X2020Y1146D02*
X2095Y1146D01*
X85Y1145D02*
X205Y1145D01*
X1083Y1145D02*
X1203Y1145D01*
X1933Y1145D02*
X2006Y1145D01*
X2022Y1145D02*
X2095Y1145D01*
X85Y1144D02*
X206Y1144D01*
X1083Y1144D02*
X1203Y1144D01*
X1932Y1144D02*
X2005Y1144D01*
X2023Y1144D02*
X2096Y1144D01*
X85Y1143D02*
X206Y1143D01*
X1082Y1143D02*
X1204Y1143D01*
X1932Y1143D02*
X2003Y1143D01*
X2025Y1143D02*
X2096Y1143D01*
X85Y1142D02*
X206Y1142D01*
X1082Y1142D02*
X1204Y1142D01*
X1932Y1142D02*
X2002Y1142D01*
X2025Y1142D02*
X2096Y1142D01*
X84Y1141D02*
X142Y1141D01*
X148Y1141D02*
X206Y1141D01*
X1082Y1141D02*
X1139Y1141D01*
X1145Y1141D02*
X1204Y1141D01*
X1932Y1141D02*
X2002Y1141D01*
X2026Y1141D02*
X2096Y1141D01*
X84Y1140D02*
X141Y1140D01*
X150Y1140D02*
X206Y1140D01*
X1082Y1140D02*
X1138Y1140D01*
X1146Y1140D02*
X1204Y1140D01*
X1931Y1140D02*
X2001Y1140D01*
X2027Y1140D02*
X2096Y1140D01*
X84Y1139D02*
X140Y1139D01*
X151Y1139D02*
X207Y1139D01*
X1082Y1139D02*
X1137Y1139D01*
X1147Y1139D02*
X1204Y1139D01*
X1931Y1139D02*
X2000Y1139D01*
X2028Y1139D02*
X2097Y1139D01*
X84Y1138D02*
X139Y1138D01*
X151Y1138D02*
X207Y1138D01*
X1082Y1138D02*
X1136Y1138D01*
X1148Y1138D02*
X1204Y1138D01*
X1931Y1138D02*
X2000Y1138D01*
X2028Y1138D02*
X2097Y1138D01*
X84Y1137D02*
X139Y1137D01*
X152Y1137D02*
X207Y1137D01*
X1082Y1137D02*
X1136Y1137D01*
X1149Y1137D02*
X1204Y1137D01*
X1931Y1137D02*
X2000Y1137D01*
X2028Y1137D02*
X2097Y1137D01*
X84Y1136D02*
X139Y1136D01*
X152Y1136D02*
X207Y1136D01*
X1081Y1136D02*
X1136Y1136D01*
X1149Y1136D02*
X1204Y1136D01*
X1931Y1136D02*
X1999Y1136D01*
X2029Y1136D02*
X2097Y1136D01*
X84Y1135D02*
X139Y1135D01*
X152Y1135D02*
X207Y1135D01*
X1081Y1135D02*
X1136Y1135D01*
X1149Y1135D02*
X1204Y1135D01*
X1931Y1135D02*
X1999Y1135D01*
X2029Y1135D02*
X2097Y1135D01*
X84Y1134D02*
X139Y1134D01*
X152Y1134D02*
X207Y1134D01*
X1082Y1134D02*
X1136Y1134D01*
X1149Y1134D02*
X1204Y1134D01*
X1931Y1134D02*
X1999Y1134D01*
X2029Y1134D02*
X2097Y1134D01*
X84Y1133D02*
X139Y1133D01*
X152Y1133D02*
X207Y1133D01*
X1082Y1133D02*
X1136Y1133D01*
X1148Y1133D02*
X1204Y1133D01*
X1931Y1133D02*
X1999Y1133D01*
X2029Y1133D02*
X2097Y1133D01*
X84Y1132D02*
X140Y1132D01*
X151Y1132D02*
X207Y1132D01*
X1082Y1132D02*
X1137Y1132D01*
X1148Y1132D02*
X1204Y1132D01*
X1931Y1132D02*
X1999Y1132D01*
X2029Y1132D02*
X2097Y1132D01*
X84Y1131D02*
X141Y1131D01*
X150Y1131D02*
X207Y1131D01*
X1082Y1131D02*
X1138Y1131D01*
X1147Y1131D02*
X1204Y1131D01*
X1931Y1131D02*
X1999Y1131D01*
X2029Y1131D02*
X2097Y1131D01*
X84Y1130D02*
X142Y1130D01*
X149Y1130D02*
X207Y1130D01*
X1082Y1130D02*
X1139Y1130D01*
X1145Y1130D02*
X1204Y1130D01*
X1931Y1130D02*
X1999Y1130D01*
X2029Y1130D02*
X2097Y1130D01*
X85Y1129D02*
X207Y1129D01*
X1082Y1129D02*
X1204Y1129D01*
X1931Y1129D02*
X1999Y1129D01*
X2029Y1129D02*
X2097Y1129D01*
X85Y1128D02*
X207Y1128D01*
X1082Y1128D02*
X1204Y1128D01*
X1931Y1128D02*
X1999Y1128D01*
X2029Y1128D02*
X2097Y1128D01*
X85Y1127D02*
X207Y1127D01*
X1083Y1127D02*
X1203Y1127D01*
X1931Y1127D02*
X2000Y1127D01*
X2028Y1127D02*
X2097Y1127D01*
X85Y1126D02*
X207Y1126D01*
X1083Y1126D02*
X1203Y1126D01*
X1931Y1126D02*
X2000Y1126D01*
X2028Y1126D02*
X2097Y1126D01*
X86Y1125D02*
X205Y1125D01*
X1083Y1125D02*
X1203Y1125D01*
X1931Y1125D02*
X2001Y1125D01*
X2027Y1125D02*
X2097Y1125D01*
X86Y1124D02*
X205Y1124D01*
X1084Y1124D02*
X1202Y1124D01*
X1932Y1124D02*
X2001Y1124D01*
X2027Y1124D02*
X2096Y1124D01*
X86Y1123D02*
X204Y1123D01*
X1084Y1123D02*
X1202Y1123D01*
X1932Y1123D02*
X2002Y1123D01*
X2026Y1123D02*
X2096Y1123D01*
X87Y1122D02*
X204Y1122D01*
X1084Y1122D02*
X1202Y1122D01*
X1932Y1122D02*
X2003Y1122D01*
X2025Y1122D02*
X2096Y1122D01*
X87Y1121D02*
X204Y1121D01*
X1085Y1121D02*
X1201Y1121D01*
X1932Y1121D02*
X2004Y1121D01*
X2024Y1121D02*
X2096Y1121D01*
X88Y1120D02*
X203Y1120D01*
X1085Y1120D02*
X1201Y1120D01*
X1933Y1120D02*
X2005Y1120D01*
X2022Y1120D02*
X2095Y1120D01*
X88Y1119D02*
X203Y1119D01*
X1086Y1119D02*
X1200Y1119D01*
X1933Y1119D02*
X2007Y1119D01*
X2021Y1119D02*
X2095Y1119D01*
X89Y1118D02*
X202Y1118D01*
X1086Y1118D02*
X1200Y1118D01*
X1933Y1118D02*
X2010Y1118D01*
X2018Y1118D02*
X2095Y1118D01*
X89Y1117D02*
X202Y1117D01*
X1087Y1117D02*
X1199Y1117D01*
X1934Y1117D02*
X2094Y1117D01*
X90Y1116D02*
X201Y1116D01*
X1087Y1116D02*
X1199Y1116D01*
X1934Y1116D02*
X2094Y1116D01*
X90Y1115D02*
X200Y1115D01*
X1088Y1115D02*
X1198Y1115D01*
X1934Y1115D02*
X2094Y1115D01*
X91Y1114D02*
X200Y1114D01*
X1089Y1114D02*
X1197Y1114D01*
X1935Y1114D02*
X2093Y1114D01*
X92Y1113D02*
X199Y1113D01*
X1089Y1113D02*
X1196Y1113D01*
X1935Y1113D02*
X2093Y1113D01*
X93Y1112D02*
X198Y1112D01*
X1090Y1112D02*
X1196Y1112D01*
X1936Y1112D02*
X2092Y1112D01*
X94Y1111D02*
X197Y1111D01*
X1091Y1111D02*
X1195Y1111D01*
X1936Y1111D02*
X2092Y1111D01*
X94Y1110D02*
X196Y1110D01*
X1092Y1110D02*
X1194Y1110D01*
X1937Y1110D02*
X2091Y1110D01*
X96Y1109D02*
X195Y1109D01*
X1093Y1109D02*
X1193Y1109D01*
X1937Y1109D02*
X2090Y1109D01*
X97Y1108D02*
X194Y1108D01*
X1094Y1108D02*
X1192Y1108D01*
X1938Y1108D02*
X2090Y1108D01*
X98Y1107D02*
X193Y1107D01*
X1096Y1107D02*
X1190Y1107D01*
X1939Y1107D02*
X2089Y1107D01*
X99Y1106D02*
X191Y1106D01*
X1097Y1106D02*
X1189Y1106D01*
X1939Y1106D02*
X2088Y1106D01*
X101Y1105D02*
X190Y1105D01*
X1099Y1105D02*
X1187Y1105D01*
X1940Y1105D02*
X2088Y1105D01*
X103Y1104D02*
X188Y1104D01*
X1100Y1104D02*
X1186Y1104D01*
X1941Y1104D02*
X2087Y1104D01*
X105Y1103D02*
X186Y1103D01*
X1102Y1103D02*
X1183Y1103D01*
X1942Y1103D02*
X2086Y1103D01*
X107Y1102D02*
X183Y1102D01*
X1105Y1102D02*
X1181Y1102D01*
X1943Y1102D02*
X2085Y1102D01*
X110Y1101D02*
X181Y1101D01*
X1108Y1101D02*
X1178Y1101D01*
X1944Y1101D02*
X2084Y1101D01*
X114Y1100D02*
X176Y1100D01*
X1112Y1100D02*
X1174Y1100D01*
X1945Y1100D02*
X2083Y1100D01*
X1946Y1099D02*
X2082Y1099D01*
X1947Y1098D02*
X2081Y1098D01*
X1948Y1097D02*
X2080Y1097D01*
X1950Y1096D02*
X2078Y1096D01*
X1951Y1095D02*
X2077Y1095D01*
X1953Y1094D02*
X2075Y1094D01*
X1955Y1093D02*
X2073Y1093D01*
X1957Y1092D02*
X2071Y1092D01*
X1959Y1091D02*
X2069Y1091D01*
X1962Y1090D02*
X2066Y1090D01*
X1966Y1089D02*
X2062Y1089D01*
X1974Y1088D02*
X2053Y1088D01*
X1439Y1075D02*
X1449Y1075D01*
X1539Y1075D02*
X1549Y1075D01*
X1639Y1075D02*
X1649Y1075D01*
X1434Y1074D02*
X1454Y1074D01*
X1534Y1074D02*
X1554Y1074D01*
X1634Y1074D02*
X1654Y1074D01*
X1431Y1073D02*
X1457Y1073D01*
X1531Y1073D02*
X1557Y1073D01*
X1631Y1073D02*
X1657Y1073D01*
X1428Y1072D02*
X1460Y1072D01*
X1528Y1072D02*
X1560Y1072D01*
X1628Y1072D02*
X1660Y1072D01*
X115Y1071D02*
X176Y1071D01*
X1112Y1071D02*
X1173Y1071D01*
X1426Y1071D02*
X1462Y1071D01*
X1526Y1071D02*
X1562Y1071D01*
X1626Y1071D02*
X1662Y1071D01*
X110Y1070D02*
X180Y1070D01*
X1108Y1070D02*
X1178Y1070D01*
X1424Y1070D02*
X1463Y1070D01*
X1524Y1070D02*
X1563Y1070D01*
X1624Y1070D02*
X1663Y1070D01*
X107Y1069D02*
X183Y1069D01*
X1105Y1069D02*
X1181Y1069D01*
X1423Y1069D02*
X1465Y1069D01*
X1523Y1069D02*
X1565Y1069D01*
X1623Y1069D02*
X1665Y1069D01*
X105Y1068D02*
X186Y1068D01*
X1103Y1068D02*
X1183Y1068D01*
X1421Y1068D02*
X1467Y1068D01*
X1521Y1068D02*
X1567Y1068D01*
X1621Y1068D02*
X1667Y1068D01*
X103Y1067D02*
X188Y1067D01*
X1100Y1067D02*
X1185Y1067D01*
X1420Y1067D02*
X1468Y1067D01*
X1520Y1067D02*
X1568Y1067D01*
X1620Y1067D02*
X1668Y1067D01*
X101Y1066D02*
X190Y1066D01*
X1099Y1066D02*
X1187Y1066D01*
X1419Y1066D02*
X1469Y1066D01*
X1519Y1066D02*
X1569Y1066D01*
X1619Y1066D02*
X1669Y1066D01*
X100Y1065D02*
X191Y1065D01*
X1097Y1065D02*
X1189Y1065D01*
X1417Y1065D02*
X1470Y1065D01*
X1517Y1065D02*
X1570Y1065D01*
X1617Y1065D02*
X1670Y1065D01*
X98Y1064D02*
X193Y1064D01*
X1096Y1064D02*
X1190Y1064D01*
X1416Y1064D02*
X1471Y1064D01*
X1516Y1064D02*
X1571Y1064D01*
X1616Y1064D02*
X1671Y1064D01*
X97Y1063D02*
X194Y1063D01*
X1094Y1063D02*
X1192Y1063D01*
X1415Y1063D02*
X1472Y1063D01*
X1515Y1063D02*
X1572Y1063D01*
X1615Y1063D02*
X1672Y1063D01*
X96Y1062D02*
X195Y1062D01*
X1093Y1062D02*
X1193Y1062D01*
X1415Y1062D02*
X1473Y1062D01*
X1515Y1062D02*
X1573Y1062D01*
X1615Y1062D02*
X1673Y1062D01*
X95Y1061D02*
X196Y1061D01*
X1092Y1061D02*
X1194Y1061D01*
X1414Y1061D02*
X1474Y1061D01*
X1514Y1061D02*
X1574Y1061D01*
X1614Y1061D02*
X1674Y1061D01*
X94Y1060D02*
X197Y1060D01*
X1091Y1060D02*
X1195Y1060D01*
X1413Y1060D02*
X1475Y1060D01*
X1513Y1060D02*
X1575Y1060D01*
X1613Y1060D02*
X1675Y1060D01*
X93Y1059D02*
X198Y1059D01*
X1090Y1059D02*
X1196Y1059D01*
X1412Y1059D02*
X1476Y1059D01*
X1512Y1059D02*
X1576Y1059D01*
X1612Y1059D02*
X1676Y1059D01*
X92Y1058D02*
X199Y1058D01*
X1089Y1058D02*
X1196Y1058D01*
X1411Y1058D02*
X1476Y1058D01*
X1511Y1058D02*
X1576Y1058D01*
X1611Y1058D02*
X1676Y1058D01*
X91Y1057D02*
X200Y1057D01*
X1089Y1057D02*
X1197Y1057D01*
X1411Y1057D02*
X1477Y1057D01*
X1511Y1057D02*
X1577Y1057D01*
X1611Y1057D02*
X1677Y1057D01*
X90Y1056D02*
X200Y1056D01*
X1088Y1056D02*
X1198Y1056D01*
X1410Y1056D02*
X1478Y1056D01*
X1510Y1056D02*
X1578Y1056D01*
X1610Y1056D02*
X1678Y1056D01*
X90Y1055D02*
X201Y1055D01*
X1087Y1055D02*
X1198Y1055D01*
X1410Y1055D02*
X1478Y1055D01*
X1510Y1055D02*
X1578Y1055D01*
X1610Y1055D02*
X1678Y1055D01*
X89Y1054D02*
X202Y1054D01*
X1087Y1054D02*
X1199Y1054D01*
X1409Y1054D02*
X1479Y1054D01*
X1509Y1054D02*
X1579Y1054D01*
X1609Y1054D02*
X1679Y1054D01*
X89Y1053D02*
X202Y1053D01*
X1086Y1053D02*
X1200Y1053D01*
X1409Y1053D02*
X1479Y1053D01*
X1509Y1053D02*
X1579Y1053D01*
X1609Y1053D02*
X1679Y1053D01*
X88Y1052D02*
X203Y1052D01*
X1086Y1052D02*
X1200Y1052D01*
X1408Y1052D02*
X1480Y1052D01*
X1508Y1052D02*
X1580Y1052D01*
X1608Y1052D02*
X1680Y1052D01*
X88Y1051D02*
X203Y1051D01*
X1085Y1051D02*
X1201Y1051D01*
X1408Y1051D02*
X1480Y1051D01*
X1508Y1051D02*
X1580Y1051D01*
X1608Y1051D02*
X1680Y1051D01*
X87Y1050D02*
X204Y1050D01*
X1085Y1050D02*
X1201Y1050D01*
X1407Y1050D02*
X1481Y1050D01*
X1507Y1050D02*
X1581Y1050D01*
X1607Y1050D02*
X1681Y1050D01*
X87Y1049D02*
X204Y1049D01*
X1084Y1049D02*
X1202Y1049D01*
X1407Y1049D02*
X1481Y1049D01*
X1507Y1049D02*
X1581Y1049D01*
X1607Y1049D02*
X1681Y1049D01*
X86Y1048D02*
X204Y1048D01*
X1084Y1048D02*
X1202Y1048D01*
X1406Y1048D02*
X1481Y1048D01*
X1506Y1048D02*
X1581Y1048D01*
X1606Y1048D02*
X1681Y1048D01*
X86Y1047D02*
X205Y1047D01*
X1084Y1047D02*
X1202Y1047D01*
X1406Y1047D02*
X1482Y1047D01*
X1506Y1047D02*
X1582Y1047D01*
X1606Y1047D02*
X1682Y1047D01*
X86Y1046D02*
X205Y1046D01*
X1083Y1046D02*
X1203Y1046D01*
X1406Y1046D02*
X1482Y1046D01*
X1506Y1046D02*
X1582Y1046D01*
X1606Y1046D02*
X1682Y1046D01*
X85Y1045D02*
X205Y1045D01*
X1083Y1045D02*
X1203Y1045D01*
X1406Y1045D02*
X1482Y1045D01*
X1506Y1045D02*
X1582Y1045D01*
X1606Y1045D02*
X1682Y1045D01*
X85Y1044D02*
X206Y1044D01*
X1083Y1044D02*
X1203Y1044D01*
X1405Y1044D02*
X1482Y1044D01*
X1505Y1044D02*
X1582Y1044D01*
X1605Y1044D02*
X1682Y1044D01*
X85Y1043D02*
X206Y1043D01*
X1082Y1043D02*
X1203Y1043D01*
X1405Y1043D02*
X1483Y1043D01*
X1505Y1043D02*
X1583Y1043D01*
X1605Y1043D02*
X1683Y1043D01*
X85Y1042D02*
X206Y1042D01*
X1082Y1042D02*
X1204Y1042D01*
X1405Y1042D02*
X1483Y1042D01*
X1505Y1042D02*
X1583Y1042D01*
X1605Y1042D02*
X1683Y1042D01*
X84Y1041D02*
X143Y1041D01*
X148Y1041D02*
X206Y1041D01*
X1082Y1041D02*
X1139Y1041D01*
X1145Y1041D02*
X1204Y1041D01*
X1405Y1041D02*
X1483Y1041D01*
X1505Y1041D02*
X1583Y1041D01*
X1605Y1041D02*
X1683Y1041D01*
X84Y1040D02*
X141Y1040D01*
X150Y1040D02*
X206Y1040D01*
X1082Y1040D02*
X1138Y1040D01*
X1147Y1040D02*
X1204Y1040D01*
X1405Y1040D02*
X1483Y1040D01*
X1505Y1040D02*
X1583Y1040D01*
X1605Y1040D02*
X1683Y1040D01*
X84Y1039D02*
X140Y1039D01*
X151Y1039D02*
X207Y1039D01*
X1082Y1039D02*
X1137Y1039D01*
X1148Y1039D02*
X1204Y1039D01*
X1405Y1039D02*
X1483Y1039D01*
X1505Y1039D02*
X1583Y1039D01*
X1605Y1039D02*
X1683Y1039D01*
X84Y1038D02*
X139Y1038D01*
X151Y1038D02*
X207Y1038D01*
X1082Y1038D02*
X1136Y1038D01*
X1148Y1038D02*
X1204Y1038D01*
X1405Y1038D02*
X1483Y1038D01*
X1505Y1038D02*
X1583Y1038D01*
X1605Y1038D02*
X1683Y1038D01*
X84Y1037D02*
X139Y1037D01*
X152Y1037D02*
X207Y1037D01*
X1082Y1037D02*
X1136Y1037D01*
X1149Y1037D02*
X1204Y1037D01*
X1404Y1037D02*
X1483Y1037D01*
X1504Y1037D02*
X1583Y1037D01*
X1604Y1037D02*
X1683Y1037D01*
X84Y1036D02*
X139Y1036D01*
X152Y1036D02*
X207Y1036D01*
X1081Y1036D02*
X1136Y1036D01*
X1149Y1036D02*
X1204Y1036D01*
X1404Y1036D02*
X1483Y1036D01*
X1504Y1036D02*
X1583Y1036D01*
X1604Y1036D02*
X1683Y1036D01*
X84Y1035D02*
X139Y1035D01*
X152Y1035D02*
X207Y1035D01*
X1081Y1035D02*
X1136Y1035D01*
X1149Y1035D02*
X1204Y1035D01*
X1404Y1035D02*
X1483Y1035D01*
X1504Y1035D02*
X1583Y1035D01*
X1604Y1035D02*
X1683Y1035D01*
X84Y1034D02*
X139Y1034D01*
X152Y1034D02*
X207Y1034D01*
X1082Y1034D02*
X1136Y1034D01*
X1149Y1034D02*
X1204Y1034D01*
X1404Y1034D02*
X1483Y1034D01*
X1504Y1034D02*
X1583Y1034D01*
X1604Y1034D02*
X1683Y1034D01*
X84Y1033D02*
X139Y1033D01*
X152Y1033D02*
X207Y1033D01*
X1082Y1033D02*
X1136Y1033D01*
X1148Y1033D02*
X1204Y1033D01*
X1405Y1033D02*
X1483Y1033D01*
X1505Y1033D02*
X1583Y1033D01*
X1605Y1033D02*
X1683Y1033D01*
X84Y1032D02*
X140Y1032D01*
X151Y1032D02*
X207Y1032D01*
X1082Y1032D02*
X1137Y1032D01*
X1148Y1032D02*
X1204Y1032D01*
X1405Y1032D02*
X1483Y1032D01*
X1505Y1032D02*
X1583Y1032D01*
X1605Y1032D02*
X1683Y1032D01*
X84Y1031D02*
X141Y1031D01*
X150Y1031D02*
X207Y1031D01*
X1082Y1031D02*
X1137Y1031D01*
X1147Y1031D02*
X1204Y1031D01*
X1405Y1031D02*
X1483Y1031D01*
X1505Y1031D02*
X1583Y1031D01*
X1605Y1031D02*
X1683Y1031D01*
X84Y1030D02*
X142Y1030D01*
X149Y1030D02*
X207Y1030D01*
X1082Y1030D02*
X1139Y1030D01*
X1145Y1030D02*
X1204Y1030D01*
X1405Y1030D02*
X1483Y1030D01*
X1505Y1030D02*
X1583Y1030D01*
X1605Y1030D02*
X1683Y1030D01*
X85Y1029D02*
X207Y1029D01*
X1082Y1029D02*
X1204Y1029D01*
X1405Y1029D02*
X1483Y1029D01*
X1505Y1029D02*
X1583Y1029D01*
X1605Y1029D02*
X1683Y1029D01*
X85Y1028D02*
X207Y1028D01*
X1082Y1028D02*
X1203Y1028D01*
X1405Y1028D02*
X1483Y1028D01*
X1505Y1028D02*
X1583Y1028D01*
X1605Y1028D02*
X1683Y1028D01*
X85Y1027D02*
X207Y1027D01*
X1083Y1027D02*
X1203Y1027D01*
X1405Y1027D02*
X1482Y1027D01*
X1505Y1027D02*
X1582Y1027D01*
X1605Y1027D02*
X1682Y1027D01*
X85Y1026D02*
X207Y1026D01*
X1083Y1026D02*
X1203Y1026D01*
X1406Y1026D02*
X1482Y1026D01*
X1506Y1026D02*
X1582Y1026D01*
X1606Y1026D02*
X1682Y1026D01*
X86Y1025D02*
X205Y1025D01*
X1083Y1025D02*
X1203Y1025D01*
X1406Y1025D02*
X1482Y1025D01*
X1506Y1025D02*
X1582Y1025D01*
X1606Y1025D02*
X1682Y1025D01*
X86Y1024D02*
X205Y1024D01*
X1084Y1024D02*
X1202Y1024D01*
X1406Y1024D02*
X1482Y1024D01*
X1506Y1024D02*
X1582Y1024D01*
X1606Y1024D02*
X1682Y1024D01*
X86Y1023D02*
X204Y1023D01*
X1084Y1023D02*
X1202Y1023D01*
X1406Y1023D02*
X1481Y1023D01*
X1506Y1023D02*
X1581Y1023D01*
X1606Y1023D02*
X1681Y1023D01*
X87Y1022D02*
X204Y1022D01*
X1084Y1022D02*
X1202Y1022D01*
X1407Y1022D02*
X1481Y1022D01*
X1507Y1022D02*
X1581Y1022D01*
X1607Y1022D02*
X1681Y1022D01*
X87Y1021D02*
X204Y1021D01*
X1085Y1021D02*
X1201Y1021D01*
X1407Y1021D02*
X1481Y1021D01*
X1507Y1021D02*
X1581Y1021D01*
X1607Y1021D02*
X1681Y1021D01*
X88Y1020D02*
X203Y1020D01*
X1085Y1020D02*
X1201Y1020D01*
X1408Y1020D02*
X1480Y1020D01*
X1508Y1020D02*
X1580Y1020D01*
X1608Y1020D02*
X1680Y1020D01*
X88Y1019D02*
X203Y1019D01*
X1086Y1019D02*
X1200Y1019D01*
X1408Y1019D02*
X1480Y1019D01*
X1508Y1019D02*
X1580Y1019D01*
X1608Y1019D02*
X1680Y1019D01*
X1892Y1019D02*
X1900Y1019D01*
X2140Y1019D02*
X2148Y1019D01*
X89Y1018D02*
X202Y1018D01*
X1086Y1018D02*
X1200Y1018D01*
X1408Y1018D02*
X1479Y1018D01*
X1508Y1018D02*
X1579Y1018D01*
X1608Y1018D02*
X1679Y1018D01*
X1886Y1018D02*
X1905Y1018D01*
X2134Y1018D02*
X2153Y1018D01*
X89Y1017D02*
X202Y1017D01*
X1087Y1017D02*
X1199Y1017D01*
X1409Y1017D02*
X1479Y1017D01*
X1509Y1017D02*
X1579Y1017D01*
X1609Y1017D02*
X1679Y1017D01*
X1883Y1017D02*
X1909Y1017D01*
X2131Y1017D02*
X2157Y1017D01*
X90Y1016D02*
X201Y1016D01*
X1087Y1016D02*
X1198Y1016D01*
X1410Y1016D02*
X1478Y1016D01*
X1510Y1016D02*
X1578Y1016D01*
X1610Y1016D02*
X1678Y1016D01*
X1880Y1016D02*
X1912Y1016D01*
X2128Y1016D02*
X2160Y1016D01*
X90Y1015D02*
X200Y1015D01*
X1088Y1015D02*
X1198Y1015D01*
X1410Y1015D02*
X1478Y1015D01*
X1510Y1015D02*
X1578Y1015D01*
X1610Y1015D02*
X1678Y1015D01*
X1878Y1015D02*
X1914Y1015D01*
X2126Y1015D02*
X2162Y1015D01*
X91Y1014D02*
X200Y1014D01*
X1089Y1014D02*
X1197Y1014D01*
X1411Y1014D02*
X1477Y1014D01*
X1511Y1014D02*
X1577Y1014D01*
X1611Y1014D02*
X1677Y1014D01*
X1876Y1014D02*
X1916Y1014D01*
X2124Y1014D02*
X2164Y1014D01*
X92Y1013D02*
X199Y1013D01*
X1089Y1013D02*
X1196Y1013D01*
X1411Y1013D02*
X1476Y1013D01*
X1511Y1013D02*
X1576Y1013D01*
X1611Y1013D02*
X1676Y1013D01*
X1874Y1013D02*
X1918Y1013D01*
X2122Y1013D02*
X2166Y1013D01*
X93Y1012D02*
X198Y1012D01*
X1090Y1012D02*
X1196Y1012D01*
X1412Y1012D02*
X1476Y1012D01*
X1512Y1012D02*
X1576Y1012D01*
X1612Y1012D02*
X1676Y1012D01*
X1872Y1012D02*
X1919Y1012D01*
X2120Y1012D02*
X2168Y1012D01*
X94Y1011D02*
X197Y1011D01*
X1091Y1011D02*
X1195Y1011D01*
X1413Y1011D02*
X1475Y1011D01*
X1513Y1011D02*
X1575Y1011D01*
X1613Y1011D02*
X1675Y1011D01*
X1871Y1011D02*
X1921Y1011D01*
X2119Y1011D02*
X2169Y1011D01*
X94Y1010D02*
X196Y1010D01*
X1092Y1010D02*
X1194Y1010D01*
X1414Y1010D02*
X1474Y1010D01*
X1514Y1010D02*
X1574Y1010D01*
X1614Y1010D02*
X1674Y1010D01*
X1869Y1010D02*
X1922Y1010D01*
X2117Y1010D02*
X2170Y1010D01*
X96Y1009D02*
X195Y1009D01*
X1093Y1009D02*
X1193Y1009D01*
X1415Y1009D02*
X1473Y1009D01*
X1515Y1009D02*
X1573Y1009D01*
X1615Y1009D02*
X1673Y1009D01*
X1868Y1009D02*
X1924Y1009D01*
X2116Y1009D02*
X2172Y1009D01*
X97Y1008D02*
X194Y1008D01*
X1094Y1008D02*
X1192Y1008D01*
X1415Y1008D02*
X1472Y1008D01*
X1515Y1008D02*
X1572Y1008D01*
X1615Y1008D02*
X1672Y1008D01*
X1867Y1008D02*
X1925Y1008D01*
X2115Y1008D02*
X2173Y1008D01*
X98Y1007D02*
X193Y1007D01*
X1096Y1007D02*
X1190Y1007D01*
X1416Y1007D02*
X1471Y1007D01*
X1516Y1007D02*
X1571Y1007D01*
X1616Y1007D02*
X1671Y1007D01*
X1866Y1007D02*
X1926Y1007D01*
X2114Y1007D02*
X2174Y1007D01*
X99Y1006D02*
X191Y1006D01*
X1097Y1006D02*
X1189Y1006D01*
X1417Y1006D02*
X1470Y1006D01*
X1517Y1006D02*
X1570Y1006D01*
X1617Y1006D02*
X1670Y1006D01*
X1865Y1006D02*
X1927Y1006D01*
X2113Y1006D02*
X2175Y1006D01*
X101Y1005D02*
X190Y1005D01*
X1099Y1005D02*
X1187Y1005D01*
X1419Y1005D02*
X1469Y1005D01*
X1519Y1005D02*
X1569Y1005D01*
X1619Y1005D02*
X1669Y1005D01*
X1864Y1005D02*
X1928Y1005D01*
X2112Y1005D02*
X2176Y1005D01*
X103Y1004D02*
X188Y1004D01*
X1100Y1004D02*
X1185Y1004D01*
X1420Y1004D02*
X1468Y1004D01*
X1520Y1004D02*
X1568Y1004D01*
X1620Y1004D02*
X1668Y1004D01*
X1863Y1004D02*
X1929Y1004D01*
X2111Y1004D02*
X2177Y1004D01*
X105Y1003D02*
X186Y1003D01*
X1102Y1003D02*
X1183Y1003D01*
X1421Y1003D02*
X1467Y1003D01*
X1521Y1003D02*
X1567Y1003D01*
X1621Y1003D02*
X1667Y1003D01*
X1862Y1003D02*
X1930Y1003D01*
X2110Y1003D02*
X2178Y1003D01*
X107Y1002D02*
X183Y1002D01*
X1105Y1002D02*
X1181Y1002D01*
X1423Y1002D02*
X1465Y1002D01*
X1523Y1002D02*
X1565Y1002D01*
X1623Y1002D02*
X1665Y1002D01*
X1861Y1002D02*
X1930Y1002D01*
X2109Y1002D02*
X2178Y1002D01*
X110Y1001D02*
X181Y1001D01*
X1108Y1001D02*
X1178Y1001D01*
X1424Y1001D02*
X1463Y1001D01*
X1524Y1001D02*
X1563Y1001D01*
X1624Y1001D02*
X1663Y1001D01*
X1861Y1001D02*
X1931Y1001D01*
X2109Y1001D02*
X2179Y1001D01*
X114Y1000D02*
X176Y1000D01*
X1112Y1000D02*
X1174Y1000D01*
X1426Y1000D02*
X1462Y1000D01*
X1526Y1000D02*
X1562Y1000D01*
X1626Y1000D02*
X1662Y1000D01*
X1860Y1000D02*
X1932Y1000D01*
X2108Y1000D02*
X2180Y1000D01*
X1428Y999D02*
X1460Y999D01*
X1528Y999D02*
X1560Y999D01*
X1628Y999D02*
X1660Y999D01*
X1859Y999D02*
X1932Y999D01*
X2107Y999D02*
X2181Y999D01*
X1431Y998D02*
X1457Y998D01*
X1531Y998D02*
X1557Y998D01*
X1631Y998D02*
X1657Y998D01*
X1859Y998D02*
X1933Y998D01*
X2107Y998D02*
X2181Y998D01*
X1434Y997D02*
X1454Y997D01*
X1534Y997D02*
X1554Y997D01*
X1634Y997D02*
X1654Y997D01*
X1858Y997D02*
X1934Y997D01*
X2106Y997D02*
X2182Y997D01*
X1439Y996D02*
X1449Y996D01*
X1539Y996D02*
X1549Y996D01*
X1639Y996D02*
X1649Y996D01*
X1857Y996D02*
X1934Y996D01*
X2105Y996D02*
X2182Y996D01*
X1857Y995D02*
X1935Y995D01*
X2105Y995D02*
X2183Y995D01*
X1856Y994D02*
X1935Y994D01*
X2105Y994D02*
X2183Y994D01*
X1856Y993D02*
X1936Y993D01*
X2104Y993D02*
X2184Y993D01*
X1856Y992D02*
X1936Y992D01*
X2104Y992D02*
X2184Y992D01*
X1855Y991D02*
X1937Y991D01*
X2103Y991D02*
X2185Y991D01*
X1855Y990D02*
X1937Y990D01*
X2103Y990D02*
X2185Y990D01*
X1854Y989D02*
X1937Y989D01*
X2102Y989D02*
X2185Y989D01*
X1854Y988D02*
X1938Y988D01*
X2102Y988D02*
X2186Y988D01*
X1854Y987D02*
X1938Y987D01*
X2102Y987D02*
X2186Y987D01*
X1854Y986D02*
X1938Y986D01*
X2102Y986D02*
X2186Y986D01*
X1853Y985D02*
X1938Y985D01*
X2101Y985D02*
X2186Y985D01*
X1853Y984D02*
X1939Y984D01*
X2101Y984D02*
X2187Y984D01*
X1853Y983D02*
X1939Y983D01*
X2101Y983D02*
X2187Y983D01*
X1853Y982D02*
X1939Y982D01*
X2101Y982D02*
X2187Y982D01*
X1852Y981D02*
X1939Y981D01*
X2101Y981D02*
X2187Y981D01*
X1852Y980D02*
X1939Y980D01*
X2100Y980D02*
X2187Y980D01*
X1852Y979D02*
X1940Y979D01*
X2100Y979D02*
X2188Y979D01*
X1852Y978D02*
X1940Y978D01*
X2100Y978D02*
X2188Y978D01*
X1852Y977D02*
X1940Y977D01*
X2100Y977D02*
X2188Y977D01*
X1852Y976D02*
X1940Y976D01*
X2100Y976D02*
X2188Y976D01*
X1852Y975D02*
X1940Y975D01*
X2100Y975D02*
X2188Y975D01*
X1852Y974D02*
X1940Y974D01*
X2100Y974D02*
X2188Y974D01*
X1852Y973D02*
X1940Y973D01*
X2100Y973D02*
X2188Y973D01*
X1852Y972D02*
X1940Y972D01*
X2100Y972D02*
X2188Y972D01*
X115Y971D02*
X176Y971D01*
X1112Y971D02*
X1173Y971D01*
X1852Y971D02*
X1940Y971D01*
X2100Y971D02*
X2188Y971D01*
X110Y970D02*
X180Y970D01*
X1108Y970D02*
X1178Y970D01*
X1852Y970D02*
X1940Y970D01*
X2100Y970D02*
X2188Y970D01*
X107Y969D02*
X183Y969D01*
X1105Y969D02*
X1181Y969D01*
X1852Y969D02*
X1940Y969D01*
X2100Y969D02*
X2188Y969D01*
X105Y968D02*
X186Y968D01*
X1103Y968D02*
X1183Y968D01*
X1852Y968D02*
X1940Y968D01*
X2100Y968D02*
X2188Y968D01*
X103Y967D02*
X188Y967D01*
X1100Y967D02*
X1185Y967D01*
X1852Y967D02*
X1940Y967D01*
X2100Y967D02*
X2188Y967D01*
X101Y966D02*
X190Y966D01*
X1099Y966D02*
X1187Y966D01*
X1852Y966D02*
X1940Y966D01*
X2100Y966D02*
X2188Y966D01*
X100Y965D02*
X191Y965D01*
X1097Y965D02*
X1189Y965D01*
X1852Y965D02*
X1940Y965D01*
X2100Y965D02*
X2188Y965D01*
X98Y964D02*
X193Y964D01*
X1096Y964D02*
X1190Y964D01*
X1852Y964D02*
X1940Y964D01*
X2100Y964D02*
X2188Y964D01*
X97Y963D02*
X194Y963D01*
X1094Y963D02*
X1192Y963D01*
X1852Y963D02*
X1940Y963D01*
X2100Y963D02*
X2188Y963D01*
X96Y962D02*
X195Y962D01*
X1093Y962D02*
X1193Y962D01*
X1852Y962D02*
X1940Y962D01*
X2100Y962D02*
X2188Y962D01*
X95Y961D02*
X196Y961D01*
X1092Y961D02*
X1194Y961D01*
X1852Y961D02*
X1940Y961D01*
X2100Y961D02*
X2188Y961D01*
X94Y960D02*
X197Y960D01*
X1091Y960D02*
X1195Y960D01*
X1852Y960D02*
X1940Y960D01*
X2100Y960D02*
X2188Y960D01*
X93Y959D02*
X198Y959D01*
X1090Y959D02*
X1196Y959D01*
X1852Y959D02*
X1940Y959D01*
X2100Y959D02*
X2188Y959D01*
X92Y958D02*
X199Y958D01*
X1089Y958D02*
X1196Y958D01*
X1852Y958D02*
X1940Y958D01*
X2100Y958D02*
X2188Y958D01*
X91Y957D02*
X200Y957D01*
X1089Y957D02*
X1197Y957D01*
X1852Y957D02*
X1940Y957D01*
X2100Y957D02*
X2188Y957D01*
X90Y956D02*
X200Y956D01*
X1088Y956D02*
X1198Y956D01*
X1852Y956D02*
X1940Y956D01*
X2100Y956D02*
X2188Y956D01*
X90Y955D02*
X201Y955D01*
X1087Y955D02*
X1199Y955D01*
X1852Y955D02*
X1940Y955D01*
X2100Y955D02*
X2188Y955D01*
X89Y954D02*
X202Y954D01*
X1087Y954D02*
X1199Y954D01*
X1852Y954D02*
X1940Y954D01*
X2100Y954D02*
X2188Y954D01*
X89Y953D02*
X202Y953D01*
X1086Y953D02*
X1200Y953D01*
X1852Y953D02*
X1940Y953D01*
X2100Y953D02*
X2188Y953D01*
X88Y952D02*
X203Y952D01*
X1086Y952D02*
X1200Y952D01*
X1852Y952D02*
X1940Y952D01*
X2100Y952D02*
X2188Y952D01*
X88Y951D02*
X203Y951D01*
X1085Y951D02*
X1201Y951D01*
X1852Y951D02*
X1940Y951D01*
X2100Y951D02*
X2188Y951D01*
X87Y950D02*
X204Y950D01*
X1085Y950D02*
X1201Y950D01*
X1852Y950D02*
X1893Y950D01*
X1898Y950D02*
X1940Y950D01*
X2100Y950D02*
X2141Y950D01*
X2146Y950D02*
X2188Y950D01*
X87Y949D02*
X204Y949D01*
X1084Y949D02*
X1202Y949D01*
X1852Y949D02*
X1889Y949D01*
X1902Y949D02*
X1940Y949D01*
X2100Y949D02*
X2137Y949D01*
X2150Y949D02*
X2188Y949D01*
X86Y948D02*
X204Y948D01*
X1084Y948D02*
X1202Y948D01*
X1852Y948D02*
X1888Y948D01*
X1904Y948D02*
X1940Y948D01*
X2100Y948D02*
X2136Y948D01*
X2152Y948D02*
X2188Y948D01*
X86Y947D02*
X205Y947D01*
X1084Y947D02*
X1202Y947D01*
X1852Y947D02*
X1886Y947D01*
X1905Y947D02*
X1940Y947D01*
X2100Y947D02*
X2134Y947D01*
X2153Y947D02*
X2188Y947D01*
X86Y946D02*
X205Y946D01*
X1083Y946D02*
X1203Y946D01*
X1852Y946D02*
X1885Y946D01*
X1907Y946D02*
X1940Y946D01*
X2100Y946D02*
X2133Y946D01*
X2155Y946D02*
X2188Y946D01*
X85Y945D02*
X205Y945D01*
X1083Y945D02*
X1203Y945D01*
X1852Y945D02*
X1884Y945D01*
X1907Y945D02*
X1940Y945D01*
X2100Y945D02*
X2132Y945D01*
X2156Y945D02*
X2188Y945D01*
X85Y944D02*
X206Y944D01*
X1083Y944D02*
X1203Y944D01*
X1852Y944D02*
X1883Y944D01*
X1908Y944D02*
X1940Y944D01*
X2100Y944D02*
X2131Y944D01*
X2156Y944D02*
X2188Y944D01*
X85Y943D02*
X206Y943D01*
X1082Y943D02*
X1204Y943D01*
X1852Y943D02*
X1883Y943D01*
X1909Y943D02*
X1940Y943D01*
X2100Y943D02*
X2131Y943D01*
X2157Y943D02*
X2188Y943D01*
X85Y942D02*
X206Y942D01*
X1082Y942D02*
X1204Y942D01*
X1852Y942D02*
X1882Y942D01*
X1910Y942D02*
X1940Y942D01*
X2100Y942D02*
X2130Y942D01*
X2158Y942D02*
X2188Y942D01*
X84Y941D02*
X143Y941D01*
X148Y941D02*
X206Y941D01*
X1082Y941D02*
X1139Y941D01*
X1145Y941D02*
X1204Y941D01*
X1852Y941D02*
X1882Y941D01*
X1910Y941D02*
X1940Y941D01*
X2100Y941D02*
X2130Y941D01*
X2158Y941D02*
X2188Y941D01*
X84Y940D02*
X141Y940D01*
X150Y940D02*
X206Y940D01*
X1082Y940D02*
X1138Y940D01*
X1147Y940D02*
X1204Y940D01*
X1852Y940D02*
X1881Y940D01*
X1910Y940D02*
X1940Y940D01*
X2100Y940D02*
X2129Y940D01*
X2158Y940D02*
X2188Y940D01*
X84Y939D02*
X140Y939D01*
X151Y939D02*
X207Y939D01*
X1082Y939D02*
X1137Y939D01*
X1148Y939D02*
X1204Y939D01*
X1852Y939D02*
X1881Y939D01*
X1911Y939D02*
X1940Y939D01*
X2100Y939D02*
X2129Y939D01*
X2159Y939D02*
X2188Y939D01*
X84Y938D02*
X139Y938D01*
X151Y938D02*
X207Y938D01*
X1082Y938D02*
X1136Y938D01*
X1148Y938D02*
X1204Y938D01*
X1852Y938D02*
X1881Y938D01*
X1911Y938D02*
X1940Y938D01*
X2100Y938D02*
X2129Y938D01*
X2159Y938D02*
X2188Y938D01*
X84Y937D02*
X139Y937D01*
X152Y937D02*
X207Y937D01*
X1082Y937D02*
X1136Y937D01*
X1149Y937D02*
X1204Y937D01*
X1852Y937D02*
X1881Y937D01*
X1911Y937D02*
X1940Y937D01*
X2100Y937D02*
X2129Y937D01*
X2159Y937D02*
X2188Y937D01*
X84Y936D02*
X139Y936D01*
X152Y936D02*
X207Y936D01*
X1081Y936D02*
X1136Y936D01*
X1149Y936D02*
X1204Y936D01*
X1852Y936D02*
X1881Y936D01*
X1911Y936D02*
X1940Y936D01*
X2100Y936D02*
X2129Y936D01*
X2159Y936D02*
X2188Y936D01*
X84Y935D02*
X139Y935D01*
X152Y935D02*
X207Y935D01*
X1081Y935D02*
X1136Y935D01*
X1149Y935D02*
X1204Y935D01*
X1852Y935D02*
X1881Y935D01*
X1911Y935D02*
X1940Y935D01*
X2100Y935D02*
X2129Y935D01*
X2159Y935D02*
X2188Y935D01*
X84Y934D02*
X139Y934D01*
X152Y934D02*
X207Y934D01*
X1082Y934D02*
X1136Y934D01*
X1149Y934D02*
X1204Y934D01*
X1852Y934D02*
X1881Y934D01*
X1911Y934D02*
X1940Y934D01*
X2100Y934D02*
X2129Y934D01*
X2159Y934D02*
X2188Y934D01*
X84Y933D02*
X139Y933D01*
X152Y933D02*
X207Y933D01*
X1082Y933D02*
X1136Y933D01*
X1148Y933D02*
X1204Y933D01*
X1852Y933D02*
X1881Y933D01*
X1911Y933D02*
X1940Y933D01*
X2100Y933D02*
X2129Y933D01*
X2159Y933D02*
X2188Y933D01*
X84Y932D02*
X140Y932D01*
X151Y932D02*
X207Y932D01*
X1082Y932D02*
X1137Y932D01*
X1148Y932D02*
X1204Y932D01*
X1852Y932D02*
X1881Y932D01*
X1911Y932D02*
X1940Y932D01*
X2100Y932D02*
X2129Y932D01*
X2159Y932D02*
X2188Y932D01*
X84Y931D02*
X141Y931D01*
X150Y931D02*
X207Y931D01*
X1082Y931D02*
X1137Y931D01*
X1147Y931D02*
X1204Y931D01*
X1852Y931D02*
X1881Y931D01*
X1910Y931D02*
X1940Y931D01*
X2100Y931D02*
X2129Y931D01*
X2158Y931D02*
X2188Y931D01*
X84Y930D02*
X142Y930D01*
X149Y930D02*
X207Y930D01*
X1082Y930D02*
X1139Y930D01*
X1145Y930D02*
X1204Y930D01*
X1852Y930D02*
X1882Y930D01*
X1910Y930D02*
X1940Y930D01*
X2100Y930D02*
X2130Y930D01*
X2158Y930D02*
X2188Y930D01*
X85Y929D02*
X207Y929D01*
X1082Y929D02*
X1204Y929D01*
X1852Y929D02*
X1882Y929D01*
X1910Y929D02*
X1940Y929D01*
X2100Y929D02*
X2130Y929D01*
X2158Y929D02*
X2188Y929D01*
X85Y928D02*
X207Y928D01*
X1082Y928D02*
X1204Y928D01*
X1852Y928D02*
X1883Y928D01*
X1909Y928D02*
X1940Y928D01*
X2100Y928D02*
X2131Y928D01*
X2157Y928D02*
X2188Y928D01*
X85Y927D02*
X207Y927D01*
X1083Y927D02*
X1203Y927D01*
X1852Y927D02*
X1883Y927D01*
X1908Y927D02*
X1940Y927D01*
X2100Y927D02*
X2131Y927D01*
X2156Y927D02*
X2188Y927D01*
X85Y926D02*
X207Y926D01*
X1083Y926D02*
X1203Y926D01*
X1852Y926D02*
X1884Y926D01*
X1908Y926D02*
X1940Y926D01*
X2100Y926D02*
X2132Y926D01*
X2156Y926D02*
X2188Y926D01*
X86Y925D02*
X205Y925D01*
X1083Y925D02*
X1203Y925D01*
X1852Y925D02*
X1885Y925D01*
X1907Y925D02*
X1940Y925D01*
X2100Y925D02*
X2133Y925D01*
X2155Y925D02*
X2188Y925D01*
X86Y924D02*
X205Y924D01*
X1084Y924D02*
X1202Y924D01*
X1852Y924D02*
X1886Y924D01*
X1905Y924D02*
X1940Y924D01*
X2100Y924D02*
X2134Y924D01*
X2153Y924D02*
X2188Y924D01*
X86Y923D02*
X204Y923D01*
X1084Y923D02*
X1202Y923D01*
X1852Y923D02*
X1888Y923D01*
X1904Y923D02*
X1940Y923D01*
X2100Y923D02*
X2136Y923D01*
X2152Y923D02*
X2188Y923D01*
X87Y922D02*
X204Y922D01*
X1084Y922D02*
X1202Y922D01*
X1852Y922D02*
X1889Y922D01*
X1902Y922D02*
X1940Y922D01*
X2100Y922D02*
X2137Y922D01*
X2150Y922D02*
X2188Y922D01*
X87Y921D02*
X204Y921D01*
X1085Y921D02*
X1201Y921D01*
X1852Y921D02*
X1893Y921D01*
X1899Y921D02*
X1940Y921D01*
X2100Y921D02*
X2141Y921D01*
X2147Y921D02*
X2188Y921D01*
X88Y920D02*
X203Y920D01*
X1085Y920D02*
X1201Y920D01*
X1852Y920D02*
X1940Y920D01*
X2100Y920D02*
X2188Y920D01*
X88Y919D02*
X203Y919D01*
X1086Y919D02*
X1200Y919D01*
X1852Y919D02*
X1940Y919D01*
X2100Y919D02*
X2188Y919D01*
X89Y918D02*
X202Y918D01*
X1086Y918D02*
X1200Y918D01*
X1852Y918D02*
X1940Y918D01*
X2100Y918D02*
X2188Y918D01*
X89Y917D02*
X202Y917D01*
X1087Y917D02*
X1199Y917D01*
X1852Y917D02*
X1940Y917D01*
X2100Y917D02*
X2188Y917D01*
X90Y916D02*
X201Y916D01*
X1087Y916D02*
X1199Y916D01*
X1852Y916D02*
X1940Y916D01*
X2100Y916D02*
X2188Y916D01*
X90Y915D02*
X200Y915D01*
X1088Y915D02*
X1198Y915D01*
X1852Y915D02*
X1940Y915D01*
X2100Y915D02*
X2188Y915D01*
X91Y914D02*
X200Y914D01*
X1089Y914D02*
X1197Y914D01*
X1852Y914D02*
X1940Y914D01*
X2100Y914D02*
X2188Y914D01*
X92Y913D02*
X199Y913D01*
X1089Y913D02*
X1196Y913D01*
X1852Y913D02*
X1940Y913D01*
X2100Y913D02*
X2188Y913D01*
X93Y912D02*
X198Y912D01*
X1090Y912D02*
X1196Y912D01*
X1852Y912D02*
X1940Y912D01*
X2100Y912D02*
X2188Y912D01*
X94Y911D02*
X197Y911D01*
X1091Y911D02*
X1195Y911D01*
X1852Y911D02*
X1940Y911D01*
X2100Y911D02*
X2188Y911D01*
X94Y910D02*
X196Y910D01*
X1092Y910D02*
X1194Y910D01*
X1852Y910D02*
X1940Y910D01*
X2100Y910D02*
X2188Y910D01*
X96Y909D02*
X195Y909D01*
X1093Y909D02*
X1193Y909D01*
X1852Y909D02*
X1940Y909D01*
X2100Y909D02*
X2188Y909D01*
X97Y908D02*
X194Y908D01*
X1094Y908D02*
X1192Y908D01*
X1852Y908D02*
X1940Y908D01*
X2100Y908D02*
X2188Y908D01*
X98Y907D02*
X193Y907D01*
X1096Y907D02*
X1190Y907D01*
X1852Y907D02*
X1940Y907D01*
X2100Y907D02*
X2188Y907D01*
X99Y906D02*
X191Y906D01*
X1097Y906D02*
X1189Y906D01*
X1852Y906D02*
X1940Y906D01*
X2100Y906D02*
X2188Y906D01*
X101Y905D02*
X190Y905D01*
X1099Y905D02*
X1187Y905D01*
X1852Y905D02*
X1940Y905D01*
X2100Y905D02*
X2188Y905D01*
X103Y904D02*
X188Y904D01*
X1100Y904D02*
X1186Y904D01*
X1852Y904D02*
X1940Y904D01*
X2100Y904D02*
X2188Y904D01*
X105Y903D02*
X186Y903D01*
X1102Y903D02*
X1183Y903D01*
X1852Y903D02*
X1940Y903D01*
X2100Y903D02*
X2188Y903D01*
X107Y902D02*
X183Y902D01*
X1105Y902D02*
X1181Y902D01*
X1852Y902D02*
X1940Y902D01*
X2100Y902D02*
X2188Y902D01*
X110Y901D02*
X181Y901D01*
X1108Y901D02*
X1178Y901D01*
X1852Y901D02*
X1940Y901D01*
X2100Y901D02*
X2188Y901D01*
X114Y900D02*
X176Y900D01*
X1112Y900D02*
X1174Y900D01*
X1852Y900D02*
X1940Y900D01*
X2100Y900D02*
X2188Y900D01*
X1852Y899D02*
X1940Y899D01*
X2100Y899D02*
X2188Y899D01*
X1852Y898D02*
X1940Y898D01*
X2100Y898D02*
X2188Y898D01*
X1852Y897D02*
X1940Y897D01*
X2100Y897D02*
X2188Y897D01*
X1852Y896D02*
X1940Y896D01*
X2100Y896D02*
X2188Y896D01*
X1852Y895D02*
X1940Y895D01*
X2100Y895D02*
X2188Y895D01*
X1852Y894D02*
X1940Y894D01*
X2100Y894D02*
X2188Y894D01*
X1852Y893D02*
X1940Y893D01*
X2100Y893D02*
X2188Y893D01*
X1852Y892D02*
X1940Y892D01*
X2100Y892D02*
X2188Y892D01*
X1852Y891D02*
X1939Y891D01*
X2100Y891D02*
X2187Y891D01*
X1852Y890D02*
X1939Y890D01*
X2101Y890D02*
X2187Y890D01*
X1853Y889D02*
X1939Y889D01*
X2101Y889D02*
X2187Y889D01*
X1853Y888D02*
X1939Y888D01*
X2101Y888D02*
X2187Y888D01*
X1853Y887D02*
X1939Y887D01*
X2101Y887D02*
X2187Y887D01*
X1853Y886D02*
X1938Y886D01*
X2101Y886D02*
X2186Y886D01*
X1854Y885D02*
X1938Y885D01*
X2102Y885D02*
X2186Y885D01*
X1854Y884D02*
X1938Y884D01*
X2102Y884D02*
X2186Y884D01*
X1854Y883D02*
X1938Y883D01*
X2102Y883D02*
X2186Y883D01*
X1854Y882D02*
X1937Y882D01*
X2102Y882D02*
X2185Y882D01*
X1855Y881D02*
X1937Y881D01*
X2103Y881D02*
X2185Y881D01*
X1855Y880D02*
X1937Y880D01*
X2103Y880D02*
X2185Y880D01*
X1856Y879D02*
X1936Y879D01*
X2104Y879D02*
X2184Y879D01*
X1856Y878D02*
X1936Y878D01*
X2104Y878D02*
X2184Y878D01*
X1856Y877D02*
X1935Y877D01*
X2105Y877D02*
X2183Y877D01*
X1857Y876D02*
X1935Y876D01*
X2105Y876D02*
X2183Y876D01*
X1857Y875D02*
X1934Y875D01*
X2105Y875D02*
X2182Y875D01*
X1858Y874D02*
X1934Y874D01*
X2106Y874D02*
X2182Y874D01*
X1859Y873D02*
X1933Y873D01*
X2107Y873D02*
X2181Y873D01*
X1859Y872D02*
X1932Y872D01*
X2107Y872D02*
X2181Y872D01*
X115Y871D02*
X176Y871D01*
X1112Y871D02*
X1173Y871D01*
X1860Y871D02*
X1932Y871D01*
X2108Y871D02*
X2180Y871D01*
X110Y870D02*
X180Y870D01*
X1108Y870D02*
X1178Y870D01*
X1861Y870D02*
X1931Y870D01*
X2109Y870D02*
X2179Y870D01*
X107Y869D02*
X183Y869D01*
X1105Y869D02*
X1181Y869D01*
X1861Y869D02*
X1930Y869D01*
X2109Y869D02*
X2178Y869D01*
X105Y868D02*
X186Y868D01*
X1103Y868D02*
X1183Y868D01*
X1862Y868D02*
X1930Y868D01*
X2110Y868D02*
X2178Y868D01*
X103Y867D02*
X188Y867D01*
X1100Y867D02*
X1185Y867D01*
X1863Y867D02*
X1929Y867D01*
X2111Y867D02*
X2177Y867D01*
X101Y866D02*
X190Y866D01*
X1099Y866D02*
X1187Y866D01*
X1864Y866D02*
X1928Y866D01*
X2112Y866D02*
X2176Y866D01*
X100Y865D02*
X191Y865D01*
X1097Y865D02*
X1189Y865D01*
X1865Y865D02*
X1927Y865D01*
X2113Y865D02*
X2175Y865D01*
X98Y864D02*
X193Y864D01*
X1096Y864D02*
X1190Y864D01*
X1866Y864D02*
X1926Y864D01*
X2114Y864D02*
X2174Y864D01*
X97Y863D02*
X194Y863D01*
X1094Y863D02*
X1192Y863D01*
X1867Y863D02*
X1925Y863D01*
X2115Y863D02*
X2173Y863D01*
X96Y862D02*
X195Y862D01*
X1093Y862D02*
X1193Y862D01*
X1868Y862D02*
X1924Y862D01*
X2116Y862D02*
X2172Y862D01*
X95Y861D02*
X196Y861D01*
X1092Y861D02*
X1194Y861D01*
X1869Y861D02*
X1922Y861D01*
X2117Y861D02*
X2170Y861D01*
X94Y860D02*
X197Y860D01*
X1091Y860D02*
X1195Y860D01*
X1871Y860D02*
X1921Y860D01*
X2119Y860D02*
X2169Y860D01*
X93Y859D02*
X198Y859D01*
X1090Y859D02*
X1196Y859D01*
X1872Y859D02*
X1920Y859D01*
X2120Y859D02*
X2168Y859D01*
X92Y858D02*
X199Y858D01*
X1089Y858D02*
X1196Y858D01*
X1874Y858D02*
X1918Y858D01*
X2122Y858D02*
X2166Y858D01*
X91Y857D02*
X200Y857D01*
X1089Y857D02*
X1197Y857D01*
X1876Y857D02*
X1916Y857D01*
X2124Y857D02*
X2164Y857D01*
X90Y856D02*
X200Y856D01*
X1088Y856D02*
X1198Y856D01*
X1878Y856D02*
X1914Y856D01*
X2126Y856D02*
X2162Y856D01*
X90Y855D02*
X201Y855D01*
X1087Y855D02*
X1198Y855D01*
X1880Y855D02*
X1912Y855D01*
X2128Y855D02*
X2160Y855D01*
X89Y854D02*
X202Y854D01*
X1087Y854D02*
X1199Y854D01*
X1883Y854D02*
X1909Y854D01*
X2131Y854D02*
X2157Y854D01*
X89Y853D02*
X202Y853D01*
X1086Y853D02*
X1200Y853D01*
X1886Y853D02*
X1905Y853D01*
X2134Y853D02*
X2153Y853D01*
X88Y852D02*
X203Y852D01*
X1086Y852D02*
X1200Y852D01*
X1892Y852D02*
X1900Y852D01*
X2140Y852D02*
X2148Y852D01*
X88Y851D02*
X203Y851D01*
X1085Y851D02*
X1201Y851D01*
X87Y850D02*
X204Y850D01*
X1085Y850D02*
X1201Y850D01*
X87Y849D02*
X204Y849D01*
X1084Y849D02*
X1202Y849D01*
X86Y848D02*
X204Y848D01*
X1084Y848D02*
X1202Y848D01*
X86Y847D02*
X205Y847D01*
X1084Y847D02*
X1202Y847D01*
X86Y846D02*
X205Y846D01*
X1083Y846D02*
X1203Y846D01*
X85Y845D02*
X205Y845D01*
X1083Y845D02*
X1203Y845D01*
X85Y844D02*
X206Y844D01*
X1083Y844D02*
X1203Y844D01*
X85Y843D02*
X206Y843D01*
X1082Y843D02*
X1203Y843D01*
X85Y842D02*
X206Y842D01*
X1082Y842D02*
X1204Y842D01*
X84Y841D02*
X143Y841D01*
X148Y841D02*
X206Y841D01*
X1082Y841D02*
X1139Y841D01*
X1145Y841D02*
X1204Y841D01*
X84Y840D02*
X141Y840D01*
X150Y840D02*
X206Y840D01*
X1082Y840D02*
X1138Y840D01*
X1147Y840D02*
X1204Y840D01*
X84Y839D02*
X140Y839D01*
X151Y839D02*
X207Y839D01*
X1082Y839D02*
X1137Y839D01*
X1148Y839D02*
X1204Y839D01*
X84Y838D02*
X139Y838D01*
X151Y838D02*
X207Y838D01*
X1082Y838D02*
X1136Y838D01*
X1148Y838D02*
X1204Y838D01*
X84Y837D02*
X139Y837D01*
X152Y837D02*
X207Y837D01*
X1082Y837D02*
X1136Y837D01*
X1149Y837D02*
X1204Y837D01*
X84Y836D02*
X139Y836D01*
X152Y836D02*
X207Y836D01*
X1081Y836D02*
X1135Y836D01*
X1149Y836D02*
X1204Y836D01*
X84Y835D02*
X139Y835D01*
X152Y835D02*
X207Y835D01*
X1081Y835D02*
X1135Y835D01*
X1149Y835D02*
X1204Y835D01*
X84Y834D02*
X139Y834D01*
X152Y834D02*
X207Y834D01*
X1082Y834D02*
X1136Y834D01*
X1149Y834D02*
X1204Y834D01*
X84Y833D02*
X139Y833D01*
X152Y833D02*
X207Y833D01*
X1082Y833D02*
X1136Y833D01*
X1148Y833D02*
X1204Y833D01*
X84Y832D02*
X140Y832D01*
X151Y832D02*
X207Y832D01*
X1082Y832D02*
X1137Y832D01*
X1148Y832D02*
X1204Y832D01*
X84Y831D02*
X141Y831D01*
X150Y831D02*
X207Y831D01*
X1082Y831D02*
X1137Y831D01*
X1147Y831D02*
X1204Y831D01*
X84Y830D02*
X142Y830D01*
X149Y830D02*
X207Y830D01*
X1082Y830D02*
X1139Y830D01*
X1145Y830D02*
X1204Y830D01*
X85Y829D02*
X207Y829D01*
X1082Y829D02*
X1204Y829D01*
X85Y828D02*
X207Y828D01*
X1082Y828D02*
X1203Y828D01*
X85Y827D02*
X207Y827D01*
X1083Y827D02*
X1203Y827D01*
X85Y826D02*
X207Y826D01*
X1083Y826D02*
X1203Y826D01*
X86Y825D02*
X205Y825D01*
X1083Y825D02*
X1203Y825D01*
X86Y824D02*
X205Y824D01*
X1084Y824D02*
X1202Y824D01*
X86Y823D02*
X204Y823D01*
X1084Y823D02*
X1202Y823D01*
X87Y822D02*
X204Y822D01*
X1084Y822D02*
X1202Y822D01*
X87Y821D02*
X204Y821D01*
X1085Y821D02*
X1201Y821D01*
X88Y820D02*
X203Y820D01*
X1085Y820D02*
X1201Y820D01*
X88Y819D02*
X203Y819D01*
X1086Y819D02*
X1200Y819D01*
X89Y818D02*
X202Y818D01*
X1086Y818D02*
X1200Y818D01*
X89Y817D02*
X202Y817D01*
X1087Y817D02*
X1199Y817D01*
X90Y816D02*
X201Y816D01*
X1087Y816D02*
X1198Y816D01*
X90Y815D02*
X200Y815D01*
X1088Y815D02*
X1198Y815D01*
X91Y814D02*
X200Y814D01*
X1089Y814D02*
X1197Y814D01*
X92Y813D02*
X199Y813D01*
X1089Y813D02*
X1196Y813D01*
X93Y812D02*
X198Y812D01*
X1090Y812D02*
X1196Y812D01*
X94Y811D02*
X197Y811D01*
X1091Y811D02*
X1195Y811D01*
X94Y810D02*
X196Y810D01*
X1092Y810D02*
X1194Y810D01*
X96Y809D02*
X195Y809D01*
X1093Y809D02*
X1193Y809D01*
X97Y808D02*
X194Y808D01*
X1094Y808D02*
X1192Y808D01*
X98Y807D02*
X193Y807D01*
X1096Y807D02*
X1190Y807D01*
X99Y806D02*
X191Y806D01*
X1097Y806D02*
X1189Y806D01*
X101Y805D02*
X190Y805D01*
X1099Y805D02*
X1187Y805D01*
X103Y804D02*
X188Y804D01*
X1100Y804D02*
X1185Y804D01*
X105Y803D02*
X186Y803D01*
X1102Y803D02*
X1183Y803D01*
X107Y802D02*
X183Y802D01*
X1105Y802D02*
X1181Y802D01*
X110Y801D02*
X181Y801D01*
X1108Y801D02*
X1178Y801D01*
X115Y800D02*
X176Y800D01*
X1112Y800D02*
X1174Y800D01*
X115Y771D02*
X176Y771D01*
X1112Y771D02*
X1173Y771D01*
X110Y770D02*
X180Y770D01*
X1108Y770D02*
X1178Y770D01*
X107Y769D02*
X183Y769D01*
X1105Y769D02*
X1181Y769D01*
X105Y768D02*
X186Y768D01*
X1102Y768D02*
X1183Y768D01*
X103Y767D02*
X188Y767D01*
X1100Y767D02*
X1185Y767D01*
X101Y766D02*
X190Y766D01*
X1099Y766D02*
X1187Y766D01*
X100Y765D02*
X191Y765D01*
X1097Y765D02*
X1189Y765D01*
X98Y764D02*
X193Y764D01*
X1096Y764D02*
X1190Y764D01*
X97Y763D02*
X194Y763D01*
X1094Y763D02*
X1191Y763D01*
X96Y762D02*
X195Y762D01*
X1093Y762D02*
X1193Y762D01*
X95Y761D02*
X196Y761D01*
X1092Y761D02*
X1194Y761D01*
X94Y760D02*
X197Y760D01*
X1091Y760D02*
X1195Y760D01*
X93Y759D02*
X198Y759D01*
X1090Y759D02*
X1195Y759D01*
X92Y758D02*
X199Y758D01*
X1089Y758D02*
X1196Y758D01*
X91Y757D02*
X200Y757D01*
X1089Y757D02*
X1197Y757D01*
X90Y756D02*
X200Y756D01*
X1088Y756D02*
X1198Y756D01*
X90Y755D02*
X201Y755D01*
X1087Y755D02*
X1198Y755D01*
X89Y754D02*
X202Y754D01*
X1087Y754D02*
X1199Y754D01*
X89Y753D02*
X202Y753D01*
X1086Y753D02*
X1200Y753D01*
X88Y752D02*
X203Y752D01*
X1086Y752D02*
X1200Y752D01*
X88Y751D02*
X203Y751D01*
X1085Y751D02*
X1201Y751D01*
X87Y750D02*
X204Y750D01*
X1085Y750D02*
X1201Y750D01*
X87Y749D02*
X204Y749D01*
X1084Y749D02*
X1201Y749D01*
X86Y748D02*
X204Y748D01*
X1084Y748D02*
X1202Y748D01*
X86Y747D02*
X205Y747D01*
X1083Y747D02*
X1202Y747D01*
X86Y746D02*
X205Y746D01*
X1083Y746D02*
X1203Y746D01*
X85Y745D02*
X205Y745D01*
X1083Y745D02*
X1203Y745D01*
X85Y744D02*
X206Y744D01*
X1083Y744D02*
X1203Y744D01*
X85Y743D02*
X206Y743D01*
X1082Y743D02*
X1203Y743D01*
X85Y742D02*
X206Y742D01*
X1082Y742D02*
X1204Y742D01*
X84Y741D02*
X142Y741D01*
X148Y741D02*
X206Y741D01*
X1082Y741D02*
X1139Y741D01*
X1145Y741D02*
X1204Y741D01*
X84Y740D02*
X141Y740D01*
X150Y740D02*
X206Y740D01*
X1082Y740D02*
X1138Y740D01*
X1146Y740D02*
X1204Y740D01*
X84Y739D02*
X140Y739D01*
X151Y739D02*
X207Y739D01*
X1082Y739D02*
X1137Y739D01*
X1147Y739D02*
X1204Y739D01*
X84Y738D02*
X139Y738D01*
X151Y738D02*
X207Y738D01*
X1081Y738D02*
X1136Y738D01*
X1148Y738D02*
X1204Y738D01*
X84Y737D02*
X139Y737D01*
X152Y737D02*
X207Y737D01*
X1081Y737D02*
X1136Y737D01*
X1148Y737D02*
X1204Y737D01*
X84Y736D02*
X139Y736D01*
X152Y736D02*
X207Y736D01*
X1081Y736D02*
X1136Y736D01*
X1149Y736D02*
X1204Y736D01*
X84Y735D02*
X139Y735D01*
X152Y735D02*
X207Y735D01*
X1081Y735D02*
X1136Y735D01*
X1149Y735D02*
X1204Y735D01*
X84Y734D02*
X139Y734D01*
X152Y734D02*
X207Y734D01*
X1081Y734D02*
X1136Y734D01*
X1148Y734D02*
X1204Y734D01*
X84Y733D02*
X139Y733D01*
X152Y733D02*
X207Y733D01*
X1081Y733D02*
X1136Y733D01*
X1148Y733D02*
X1204Y733D01*
X84Y732D02*
X140Y732D01*
X151Y732D02*
X207Y732D01*
X1082Y732D02*
X1137Y732D01*
X1147Y732D02*
X1204Y732D01*
X84Y731D02*
X141Y731D01*
X150Y731D02*
X207Y731D01*
X1082Y731D02*
X1138Y731D01*
X1147Y731D02*
X1204Y731D01*
X84Y730D02*
X142Y730D01*
X149Y730D02*
X207Y730D01*
X1082Y730D02*
X1139Y730D01*
X1145Y730D02*
X1204Y730D01*
X85Y729D02*
X207Y729D01*
X1082Y729D02*
X1204Y729D01*
X85Y728D02*
X207Y728D01*
X1082Y728D02*
X1203Y728D01*
X85Y727D02*
X207Y727D01*
X1083Y727D02*
X1203Y727D01*
X85Y726D02*
X207Y726D01*
X1083Y726D02*
X1203Y726D01*
X86Y725D02*
X205Y725D01*
X1083Y725D02*
X1203Y725D01*
X86Y724D02*
X205Y724D01*
X1083Y724D02*
X1202Y724D01*
X86Y723D02*
X204Y723D01*
X1084Y723D02*
X1202Y723D01*
X87Y722D02*
X204Y722D01*
X1084Y722D02*
X1201Y722D01*
X87Y721D02*
X204Y721D01*
X1085Y721D02*
X1201Y721D01*
X88Y720D02*
X203Y720D01*
X1085Y720D02*
X1201Y720D01*
X88Y719D02*
X203Y719D01*
X1086Y719D02*
X1200Y719D01*
X89Y718D02*
X202Y718D01*
X1086Y718D02*
X1200Y718D01*
X89Y717D02*
X202Y717D01*
X1087Y717D02*
X1199Y717D01*
X90Y716D02*
X201Y716D01*
X1087Y716D02*
X1198Y716D01*
X90Y715D02*
X200Y715D01*
X1088Y715D02*
X1198Y715D01*
X91Y714D02*
X200Y714D01*
X1089Y714D02*
X1197Y714D01*
X92Y713D02*
X199Y713D01*
X1089Y713D02*
X1196Y713D01*
X93Y712D02*
X198Y712D01*
X1090Y712D02*
X1196Y712D01*
X94Y711D02*
X197Y711D01*
X1091Y711D02*
X1195Y711D01*
X94Y710D02*
X196Y710D01*
X1092Y710D02*
X1194Y710D01*
X96Y709D02*
X195Y709D01*
X1093Y709D02*
X1193Y709D01*
X97Y708D02*
X194Y708D01*
X1094Y708D02*
X1191Y708D01*
X98Y707D02*
X193Y707D01*
X1096Y707D02*
X1190Y707D01*
X99Y706D02*
X191Y706D01*
X1097Y706D02*
X1189Y706D01*
X101Y705D02*
X190Y705D01*
X1099Y705D02*
X1187Y705D01*
X103Y704D02*
X188Y704D01*
X1100Y704D02*
X1185Y704D01*
X105Y703D02*
X186Y703D01*
X1102Y703D02*
X1183Y703D01*
X107Y702D02*
X183Y702D01*
X1105Y702D02*
X1181Y702D01*
X110Y701D02*
X181Y701D01*
X1108Y701D02*
X1178Y701D01*
X115Y700D02*
X176Y700D01*
X1112Y700D02*
X1174Y700D01*
X1968Y676D02*
X2060Y676D01*
X1439Y675D02*
X1449Y675D01*
X1539Y675D02*
X1549Y675D01*
X1639Y675D02*
X1649Y675D01*
X1963Y675D02*
X2065Y675D01*
X1434Y674D02*
X1454Y674D01*
X1534Y674D02*
X1554Y674D01*
X1634Y674D02*
X1654Y674D01*
X1960Y674D02*
X2068Y674D01*
X1431Y673D02*
X1457Y673D01*
X1531Y673D02*
X1557Y673D01*
X1631Y673D02*
X1657Y673D01*
X1958Y673D02*
X2070Y673D01*
X1428Y672D02*
X1460Y672D01*
X1528Y672D02*
X1560Y672D01*
X1628Y672D02*
X1660Y672D01*
X1956Y672D02*
X2072Y672D01*
X1426Y671D02*
X1462Y671D01*
X1526Y671D02*
X1562Y671D01*
X1626Y671D02*
X1662Y671D01*
X1954Y671D02*
X2074Y671D01*
X1424Y670D02*
X1463Y670D01*
X1524Y670D02*
X1563Y670D01*
X1624Y670D02*
X1663Y670D01*
X1952Y670D02*
X2076Y670D01*
X1423Y669D02*
X1465Y669D01*
X1523Y669D02*
X1565Y669D01*
X1623Y669D02*
X1665Y669D01*
X1950Y669D02*
X2078Y669D01*
X1421Y668D02*
X1467Y668D01*
X1521Y668D02*
X1567Y668D01*
X1621Y668D02*
X1667Y668D01*
X1949Y668D02*
X2079Y668D01*
X1420Y667D02*
X1468Y667D01*
X1520Y667D02*
X1568Y667D01*
X1620Y667D02*
X1668Y667D01*
X1947Y667D02*
X2080Y667D01*
X1419Y666D02*
X1469Y666D01*
X1519Y666D02*
X1569Y666D01*
X1619Y666D02*
X1669Y666D01*
X1946Y666D02*
X2082Y666D01*
X1417Y665D02*
X1470Y665D01*
X1517Y665D02*
X1570Y665D01*
X1617Y665D02*
X1670Y665D01*
X1945Y665D02*
X2083Y665D01*
X1416Y664D02*
X1471Y664D01*
X1516Y664D02*
X1571Y664D01*
X1616Y664D02*
X1671Y664D01*
X1944Y664D02*
X2084Y664D01*
X1415Y663D02*
X1472Y663D01*
X1515Y663D02*
X1572Y663D01*
X1615Y663D02*
X1672Y663D01*
X1943Y663D02*
X2085Y663D01*
X1415Y662D02*
X1473Y662D01*
X1515Y662D02*
X1573Y662D01*
X1615Y662D02*
X1673Y662D01*
X1942Y662D02*
X2086Y662D01*
X1414Y661D02*
X1474Y661D01*
X1514Y661D02*
X1574Y661D01*
X1614Y661D02*
X1674Y661D01*
X1941Y661D02*
X2087Y661D01*
X1413Y660D02*
X1475Y660D01*
X1513Y660D02*
X1575Y660D01*
X1613Y660D02*
X1675Y660D01*
X1940Y660D02*
X2087Y660D01*
X1412Y659D02*
X1476Y659D01*
X1512Y659D02*
X1576Y659D01*
X1612Y659D02*
X1676Y659D01*
X1940Y659D02*
X2088Y659D01*
X1411Y658D02*
X1476Y658D01*
X1511Y658D02*
X1576Y658D01*
X1611Y658D02*
X1676Y658D01*
X1939Y658D02*
X2089Y658D01*
X1411Y657D02*
X1477Y657D01*
X1511Y657D02*
X1577Y657D01*
X1611Y657D02*
X1677Y657D01*
X1938Y657D02*
X2090Y657D01*
X1410Y656D02*
X1478Y656D01*
X1510Y656D02*
X1578Y656D01*
X1610Y656D02*
X1678Y656D01*
X1938Y656D02*
X2090Y656D01*
X1410Y655D02*
X1478Y655D01*
X1510Y655D02*
X1578Y655D01*
X1610Y655D02*
X1678Y655D01*
X1937Y655D02*
X2091Y655D01*
X1409Y654D02*
X1479Y654D01*
X1509Y654D02*
X1579Y654D01*
X1609Y654D02*
X1679Y654D01*
X1936Y654D02*
X2091Y654D01*
X1409Y653D02*
X1479Y653D01*
X1509Y653D02*
X1579Y653D01*
X1609Y653D02*
X1679Y653D01*
X1936Y653D02*
X2092Y653D01*
X1408Y652D02*
X1480Y652D01*
X1508Y652D02*
X1580Y652D01*
X1608Y652D02*
X1680Y652D01*
X1935Y652D02*
X2092Y652D01*
X1408Y651D02*
X1480Y651D01*
X1508Y651D02*
X1580Y651D01*
X1608Y651D02*
X1680Y651D01*
X1935Y651D02*
X2093Y651D01*
X1407Y650D02*
X1481Y650D01*
X1507Y650D02*
X1581Y650D01*
X1607Y650D02*
X1681Y650D01*
X1935Y650D02*
X2093Y650D01*
X1407Y649D02*
X1481Y649D01*
X1507Y649D02*
X1581Y649D01*
X1607Y649D02*
X1681Y649D01*
X1934Y649D02*
X2094Y649D01*
X1406Y648D02*
X1481Y648D01*
X1506Y648D02*
X1581Y648D01*
X1606Y648D02*
X1681Y648D01*
X1934Y648D02*
X2094Y648D01*
X1406Y647D02*
X1482Y647D01*
X1506Y647D02*
X1582Y647D01*
X1606Y647D02*
X1682Y647D01*
X1933Y647D02*
X2095Y647D01*
X1406Y646D02*
X1482Y646D01*
X1506Y646D02*
X1582Y646D01*
X1606Y646D02*
X1682Y646D01*
X1933Y646D02*
X2008Y646D01*
X2020Y646D02*
X2095Y646D01*
X1406Y645D02*
X1482Y645D01*
X1506Y645D02*
X1582Y645D01*
X1606Y645D02*
X1682Y645D01*
X1933Y645D02*
X2006Y645D01*
X2022Y645D02*
X2095Y645D01*
X1405Y644D02*
X1482Y644D01*
X1505Y644D02*
X1582Y644D01*
X1605Y644D02*
X1682Y644D01*
X1932Y644D02*
X2005Y644D01*
X2023Y644D02*
X2096Y644D01*
X1405Y643D02*
X1483Y643D01*
X1505Y643D02*
X1583Y643D01*
X1605Y643D02*
X1683Y643D01*
X1932Y643D02*
X2003Y643D01*
X2025Y643D02*
X2096Y643D01*
X1405Y642D02*
X1483Y642D01*
X1505Y642D02*
X1583Y642D01*
X1605Y642D02*
X1683Y642D01*
X1932Y642D02*
X2002Y642D01*
X2025Y642D02*
X2096Y642D01*
X1405Y641D02*
X1483Y641D01*
X1505Y641D02*
X1583Y641D01*
X1605Y641D02*
X1683Y641D01*
X1932Y641D02*
X2002Y641D01*
X2026Y641D02*
X2096Y641D01*
X1405Y640D02*
X1483Y640D01*
X1505Y640D02*
X1583Y640D01*
X1605Y640D02*
X1683Y640D01*
X1931Y640D02*
X2001Y640D01*
X2027Y640D02*
X2096Y640D01*
X1405Y639D02*
X1483Y639D01*
X1505Y639D02*
X1583Y639D01*
X1605Y639D02*
X1683Y639D01*
X1931Y639D02*
X2000Y639D01*
X2028Y639D02*
X2097Y639D01*
X1405Y638D02*
X1483Y638D01*
X1505Y638D02*
X1583Y638D01*
X1605Y638D02*
X1683Y638D01*
X1931Y638D02*
X2000Y638D01*
X2028Y638D02*
X2097Y638D01*
X1404Y637D02*
X1483Y637D01*
X1504Y637D02*
X1583Y637D01*
X1604Y637D02*
X1683Y637D01*
X1931Y637D02*
X2000Y637D01*
X2028Y637D02*
X2097Y637D01*
X1404Y636D02*
X1483Y636D01*
X1504Y636D02*
X1583Y636D01*
X1604Y636D02*
X1683Y636D01*
X1931Y636D02*
X1999Y636D01*
X2029Y636D02*
X2097Y636D01*
X1404Y635D02*
X1483Y635D01*
X1504Y635D02*
X1583Y635D01*
X1604Y635D02*
X1683Y635D01*
X1931Y635D02*
X1999Y635D01*
X2029Y635D02*
X2097Y635D01*
X1404Y634D02*
X1483Y634D01*
X1504Y634D02*
X1583Y634D01*
X1604Y634D02*
X1683Y634D01*
X1931Y634D02*
X1999Y634D01*
X2029Y634D02*
X2097Y634D01*
X1405Y633D02*
X1483Y633D01*
X1505Y633D02*
X1583Y633D01*
X1605Y633D02*
X1683Y633D01*
X1931Y633D02*
X1999Y633D01*
X2029Y633D02*
X2097Y633D01*
X1405Y632D02*
X1483Y632D01*
X1505Y632D02*
X1583Y632D01*
X1605Y632D02*
X1683Y632D01*
X1931Y632D02*
X1999Y632D01*
X2029Y632D02*
X2097Y632D01*
X1405Y631D02*
X1483Y631D01*
X1505Y631D02*
X1583Y631D01*
X1605Y631D02*
X1683Y631D01*
X1931Y631D02*
X1999Y631D01*
X2029Y631D02*
X2097Y631D01*
X1405Y630D02*
X1483Y630D01*
X1505Y630D02*
X1583Y630D01*
X1605Y630D02*
X1683Y630D01*
X1931Y630D02*
X1999Y630D01*
X2029Y630D02*
X2097Y630D01*
X1405Y629D02*
X1483Y629D01*
X1505Y629D02*
X1583Y629D01*
X1605Y629D02*
X1683Y629D01*
X1931Y629D02*
X1999Y629D01*
X2029Y629D02*
X2097Y629D01*
X1405Y628D02*
X1483Y628D01*
X1505Y628D02*
X1583Y628D01*
X1605Y628D02*
X1683Y628D01*
X1931Y628D02*
X1999Y628D01*
X2029Y628D02*
X2097Y628D01*
X1405Y627D02*
X1482Y627D01*
X1505Y627D02*
X1582Y627D01*
X1605Y627D02*
X1682Y627D01*
X1931Y627D02*
X2000Y627D01*
X2028Y627D02*
X2097Y627D01*
X1406Y626D02*
X1482Y626D01*
X1506Y626D02*
X1582Y626D01*
X1606Y626D02*
X1682Y626D01*
X1931Y626D02*
X2000Y626D01*
X2028Y626D02*
X2097Y626D01*
X1406Y625D02*
X1482Y625D01*
X1506Y625D02*
X1582Y625D01*
X1606Y625D02*
X1682Y625D01*
X1931Y625D02*
X2001Y625D01*
X2027Y625D02*
X2097Y625D01*
X1406Y624D02*
X1482Y624D01*
X1506Y624D02*
X1582Y624D01*
X1606Y624D02*
X1682Y624D01*
X1932Y624D02*
X2001Y624D01*
X2027Y624D02*
X2096Y624D01*
X1406Y623D02*
X1481Y623D01*
X1506Y623D02*
X1581Y623D01*
X1606Y623D02*
X1681Y623D01*
X1932Y623D02*
X2002Y623D01*
X2026Y623D02*
X2096Y623D01*
X1407Y622D02*
X1481Y622D01*
X1507Y622D02*
X1581Y622D01*
X1607Y622D02*
X1681Y622D01*
X1932Y622D02*
X2003Y622D01*
X2025Y622D02*
X2096Y622D01*
X1407Y621D02*
X1481Y621D01*
X1507Y621D02*
X1581Y621D01*
X1607Y621D02*
X1681Y621D01*
X1932Y621D02*
X2004Y621D01*
X2024Y621D02*
X2096Y621D01*
X1408Y620D02*
X1480Y620D01*
X1508Y620D02*
X1580Y620D01*
X1608Y620D02*
X1680Y620D01*
X1933Y620D02*
X2005Y620D01*
X2022Y620D02*
X2095Y620D01*
X1408Y619D02*
X1480Y619D01*
X1508Y619D02*
X1580Y619D01*
X1608Y619D02*
X1680Y619D01*
X1933Y619D02*
X2007Y619D01*
X2021Y619D02*
X2095Y619D01*
X1408Y618D02*
X1479Y618D01*
X1508Y618D02*
X1579Y618D01*
X1608Y618D02*
X1679Y618D01*
X1933Y618D02*
X2010Y618D01*
X2018Y618D02*
X2095Y618D01*
X1409Y617D02*
X1479Y617D01*
X1509Y617D02*
X1579Y617D01*
X1609Y617D02*
X1679Y617D01*
X1934Y617D02*
X2094Y617D01*
X1410Y616D02*
X1478Y616D01*
X1510Y616D02*
X1578Y616D01*
X1610Y616D02*
X1678Y616D01*
X1934Y616D02*
X2094Y616D01*
X1410Y615D02*
X1478Y615D01*
X1510Y615D02*
X1578Y615D01*
X1610Y615D02*
X1678Y615D01*
X1934Y615D02*
X2094Y615D01*
X1411Y614D02*
X1477Y614D01*
X1511Y614D02*
X1577Y614D01*
X1611Y614D02*
X1677Y614D01*
X1935Y614D02*
X2093Y614D01*
X1411Y613D02*
X1476Y613D01*
X1511Y613D02*
X1576Y613D01*
X1611Y613D02*
X1676Y613D01*
X1935Y613D02*
X2093Y613D01*
X1412Y612D02*
X1476Y612D01*
X1512Y612D02*
X1576Y612D01*
X1612Y612D02*
X1676Y612D01*
X1936Y612D02*
X2092Y612D01*
X1413Y611D02*
X1475Y611D01*
X1513Y611D02*
X1575Y611D01*
X1613Y611D02*
X1675Y611D01*
X1936Y611D02*
X2092Y611D01*
X1414Y610D02*
X1474Y610D01*
X1514Y610D02*
X1574Y610D01*
X1614Y610D02*
X1674Y610D01*
X1937Y610D02*
X2091Y610D01*
X1415Y609D02*
X1473Y609D01*
X1515Y609D02*
X1573Y609D01*
X1615Y609D02*
X1673Y609D01*
X1937Y609D02*
X2090Y609D01*
X1415Y608D02*
X1472Y608D01*
X1515Y608D02*
X1572Y608D01*
X1615Y608D02*
X1672Y608D01*
X1938Y608D02*
X2090Y608D01*
X1416Y607D02*
X1471Y607D01*
X1516Y607D02*
X1571Y607D01*
X1616Y607D02*
X1671Y607D01*
X1939Y607D02*
X2089Y607D01*
X1417Y606D02*
X1470Y606D01*
X1517Y606D02*
X1570Y606D01*
X1617Y606D02*
X1670Y606D01*
X1939Y606D02*
X2088Y606D01*
X1419Y605D02*
X1469Y605D01*
X1519Y605D02*
X1569Y605D01*
X1619Y605D02*
X1669Y605D01*
X1940Y605D02*
X2088Y605D01*
X1420Y604D02*
X1468Y604D01*
X1520Y604D02*
X1568Y604D01*
X1620Y604D02*
X1668Y604D01*
X1941Y604D02*
X2087Y604D01*
X1421Y603D02*
X1467Y603D01*
X1521Y603D02*
X1567Y603D01*
X1621Y603D02*
X1667Y603D01*
X1942Y603D02*
X2086Y603D01*
X1423Y602D02*
X1465Y602D01*
X1523Y602D02*
X1565Y602D01*
X1623Y602D02*
X1665Y602D01*
X1943Y602D02*
X2085Y602D01*
X1424Y601D02*
X1463Y601D01*
X1524Y601D02*
X1563Y601D01*
X1624Y601D02*
X1663Y601D01*
X1944Y601D02*
X2084Y601D01*
X1426Y600D02*
X1462Y600D01*
X1526Y600D02*
X1562Y600D01*
X1626Y600D02*
X1662Y600D01*
X1945Y600D02*
X2083Y600D01*
X1428Y599D02*
X1460Y599D01*
X1528Y599D02*
X1560Y599D01*
X1628Y599D02*
X1660Y599D01*
X1946Y599D02*
X2082Y599D01*
X1431Y598D02*
X1457Y598D01*
X1531Y598D02*
X1557Y598D01*
X1631Y598D02*
X1657Y598D01*
X1947Y598D02*
X2081Y598D01*
X1434Y597D02*
X1454Y597D01*
X1534Y597D02*
X1554Y597D01*
X1634Y597D02*
X1654Y597D01*
X1948Y597D02*
X2080Y597D01*
X1439Y596D02*
X1449Y596D01*
X1539Y596D02*
X1549Y596D01*
X1639Y596D02*
X1649Y596D01*
X1950Y596D02*
X2078Y596D01*
X1951Y595D02*
X2077Y595D01*
X1953Y594D02*
X2075Y594D01*
X1955Y593D02*
X2073Y593D01*
X1957Y592D02*
X2071Y592D01*
X1959Y591D02*
X2069Y591D01*
X1962Y590D02*
X2066Y590D01*
X1966Y589D02*
X2062Y589D01*
X1974Y588D02*
X2053Y588D01*
X1892Y519D02*
X1900Y519D01*
X2140Y519D02*
X2148Y519D01*
X1886Y518D02*
X1905Y518D01*
X2134Y518D02*
X2153Y518D01*
X1883Y517D02*
X1909Y517D01*
X2131Y517D02*
X2157Y517D01*
X1880Y516D02*
X1912Y516D01*
X2128Y516D02*
X2160Y516D01*
X1878Y515D02*
X1914Y515D01*
X2126Y515D02*
X2162Y515D01*
X1876Y514D02*
X1916Y514D01*
X2124Y514D02*
X2164Y514D01*
X1874Y513D02*
X1918Y513D01*
X2122Y513D02*
X2166Y513D01*
X1872Y512D02*
X1919Y512D01*
X2120Y512D02*
X2168Y512D01*
X1871Y511D02*
X1921Y511D01*
X2119Y511D02*
X2169Y511D01*
X1869Y510D02*
X1922Y510D01*
X2117Y510D02*
X2170Y510D01*
X1868Y509D02*
X1924Y509D01*
X2116Y509D02*
X2172Y509D01*
X1867Y508D02*
X1925Y508D01*
X2115Y508D02*
X2173Y508D01*
X1866Y507D02*
X1926Y507D01*
X2114Y507D02*
X2174Y507D01*
X1865Y506D02*
X1927Y506D01*
X2113Y506D02*
X2175Y506D01*
X1864Y505D02*
X1928Y505D01*
X2112Y505D02*
X2176Y505D01*
X1863Y504D02*
X1929Y504D01*
X2111Y504D02*
X2177Y504D01*
X1862Y503D02*
X1930Y503D01*
X2110Y503D02*
X2178Y503D01*
X1861Y502D02*
X1930Y502D01*
X2109Y502D02*
X2178Y502D01*
X1861Y501D02*
X1931Y501D01*
X2109Y501D02*
X2179Y501D01*
X1860Y500D02*
X1932Y500D01*
X2108Y500D02*
X2180Y500D01*
X1859Y499D02*
X1932Y499D01*
X2107Y499D02*
X2181Y499D01*
X1859Y498D02*
X1933Y498D01*
X2107Y498D02*
X2181Y498D01*
X1858Y497D02*
X1934Y497D01*
X2106Y497D02*
X2182Y497D01*
X1857Y496D02*
X1934Y496D01*
X2105Y496D02*
X2182Y496D01*
X1857Y495D02*
X1935Y495D01*
X2105Y495D02*
X2183Y495D01*
X1856Y494D02*
X1935Y494D01*
X2105Y494D02*
X2183Y494D01*
X1856Y493D02*
X1936Y493D01*
X2104Y493D02*
X2184Y493D01*
X1856Y492D02*
X1936Y492D01*
X2104Y492D02*
X2184Y492D01*
X1855Y491D02*
X1937Y491D01*
X2103Y491D02*
X2185Y491D01*
X1855Y490D02*
X1937Y490D01*
X2103Y490D02*
X2185Y490D01*
X1854Y489D02*
X1937Y489D01*
X2102Y489D02*
X2185Y489D01*
X1854Y488D02*
X1938Y488D01*
X2102Y488D02*
X2186Y488D01*
X1854Y487D02*
X1938Y487D01*
X2102Y487D02*
X2186Y487D01*
X1854Y486D02*
X1938Y486D01*
X2102Y486D02*
X2186Y486D01*
X1853Y485D02*
X1938Y485D01*
X2101Y485D02*
X2186Y485D01*
X1853Y484D02*
X1939Y484D01*
X2101Y484D02*
X2187Y484D01*
X1853Y483D02*
X1939Y483D01*
X2101Y483D02*
X2187Y483D01*
X1853Y482D02*
X1939Y482D01*
X2101Y482D02*
X2187Y482D01*
X1852Y481D02*
X1939Y481D01*
X2101Y481D02*
X2187Y481D01*
X1852Y480D02*
X1939Y480D01*
X2100Y480D02*
X2187Y480D01*
X1852Y479D02*
X1940Y479D01*
X2100Y479D02*
X2188Y479D01*
X1852Y478D02*
X1940Y478D01*
X2100Y478D02*
X2188Y478D01*
X1852Y477D02*
X1940Y477D01*
X2100Y477D02*
X2188Y477D01*
X1852Y476D02*
X1940Y476D01*
X2100Y476D02*
X2188Y476D01*
X1852Y475D02*
X1940Y475D01*
X2100Y475D02*
X2188Y475D01*
X1852Y474D02*
X1940Y474D01*
X2100Y474D02*
X2188Y474D01*
X1852Y473D02*
X1940Y473D01*
X2100Y473D02*
X2188Y473D01*
X1852Y472D02*
X1940Y472D01*
X2100Y472D02*
X2188Y472D01*
X1852Y471D02*
X1940Y471D01*
X2100Y471D02*
X2188Y471D01*
X1852Y470D02*
X1940Y470D01*
X2100Y470D02*
X2188Y470D01*
X1852Y469D02*
X1940Y469D01*
X2100Y469D02*
X2188Y469D01*
X1852Y468D02*
X1940Y468D01*
X2100Y468D02*
X2188Y468D01*
X1852Y467D02*
X1940Y467D01*
X2100Y467D02*
X2188Y467D01*
X1852Y466D02*
X1940Y466D01*
X2100Y466D02*
X2188Y466D01*
X1852Y465D02*
X1940Y465D01*
X2100Y465D02*
X2188Y465D01*
X1852Y464D02*
X1940Y464D01*
X2100Y464D02*
X2188Y464D01*
X1852Y463D02*
X1940Y463D01*
X2100Y463D02*
X2188Y463D01*
X1852Y462D02*
X1940Y462D01*
X2100Y462D02*
X2188Y462D01*
X1852Y461D02*
X1940Y461D01*
X2100Y461D02*
X2188Y461D01*
X1852Y460D02*
X1940Y460D01*
X2100Y460D02*
X2188Y460D01*
X1852Y459D02*
X1940Y459D01*
X2100Y459D02*
X2188Y459D01*
X1852Y458D02*
X1940Y458D01*
X2100Y458D02*
X2188Y458D01*
X1852Y457D02*
X1940Y457D01*
X2100Y457D02*
X2188Y457D01*
X1852Y456D02*
X1940Y456D01*
X2100Y456D02*
X2188Y456D01*
X1852Y455D02*
X1940Y455D01*
X2100Y455D02*
X2188Y455D01*
X1852Y454D02*
X1940Y454D01*
X2100Y454D02*
X2188Y454D01*
X1852Y453D02*
X1940Y453D01*
X2100Y453D02*
X2188Y453D01*
X1852Y452D02*
X1940Y452D01*
X2100Y452D02*
X2188Y452D01*
X1852Y451D02*
X1940Y451D01*
X2100Y451D02*
X2188Y451D01*
X1852Y450D02*
X1893Y450D01*
X1898Y450D02*
X1940Y450D01*
X2100Y450D02*
X2141Y450D01*
X2146Y450D02*
X2188Y450D01*
X1852Y449D02*
X1889Y449D01*
X1902Y449D02*
X1940Y449D01*
X2100Y449D02*
X2137Y449D01*
X2150Y449D02*
X2188Y449D01*
X1852Y448D02*
X1888Y448D01*
X1904Y448D02*
X1940Y448D01*
X2100Y448D02*
X2136Y448D01*
X2152Y448D02*
X2188Y448D01*
X1852Y447D02*
X1886Y447D01*
X1905Y447D02*
X1940Y447D01*
X2100Y447D02*
X2134Y447D01*
X2153Y447D02*
X2188Y447D01*
X1852Y446D02*
X1885Y446D01*
X1907Y446D02*
X1940Y446D01*
X2100Y446D02*
X2133Y446D01*
X2155Y446D02*
X2188Y446D01*
X1852Y445D02*
X1884Y445D01*
X1907Y445D02*
X1940Y445D01*
X2100Y445D02*
X2132Y445D01*
X2156Y445D02*
X2188Y445D01*
X1852Y444D02*
X1883Y444D01*
X1908Y444D02*
X1940Y444D01*
X2100Y444D02*
X2131Y444D01*
X2156Y444D02*
X2188Y444D01*
X1852Y443D02*
X1883Y443D01*
X1909Y443D02*
X1940Y443D01*
X2100Y443D02*
X2131Y443D01*
X2157Y443D02*
X2188Y443D01*
X1852Y442D02*
X1882Y442D01*
X1910Y442D02*
X1940Y442D01*
X2100Y442D02*
X2130Y442D01*
X2158Y442D02*
X2188Y442D01*
X1852Y441D02*
X1882Y441D01*
X1910Y441D02*
X1940Y441D01*
X2100Y441D02*
X2130Y441D01*
X2158Y441D02*
X2188Y441D01*
X1852Y440D02*
X1881Y440D01*
X1910Y440D02*
X1940Y440D01*
X2100Y440D02*
X2129Y440D01*
X2158Y440D02*
X2188Y440D01*
X1852Y439D02*
X1881Y439D01*
X1911Y439D02*
X1940Y439D01*
X2100Y439D02*
X2129Y439D01*
X2159Y439D02*
X2188Y439D01*
X1852Y438D02*
X1881Y438D01*
X1911Y438D02*
X1940Y438D01*
X2100Y438D02*
X2129Y438D01*
X2159Y438D02*
X2188Y438D01*
X1852Y437D02*
X1881Y437D01*
X1911Y437D02*
X1940Y437D01*
X2100Y437D02*
X2129Y437D01*
X2159Y437D02*
X2188Y437D01*
X1852Y436D02*
X1881Y436D01*
X1911Y436D02*
X1940Y436D01*
X2100Y436D02*
X2129Y436D01*
X2159Y436D02*
X2188Y436D01*
X1852Y435D02*
X1881Y435D01*
X1911Y435D02*
X1940Y435D01*
X2100Y435D02*
X2129Y435D01*
X2159Y435D02*
X2188Y435D01*
X1852Y434D02*
X1881Y434D01*
X1911Y434D02*
X1940Y434D01*
X2100Y434D02*
X2129Y434D01*
X2159Y434D02*
X2188Y434D01*
X1852Y433D02*
X1881Y433D01*
X1911Y433D02*
X1940Y433D01*
X2100Y433D02*
X2129Y433D01*
X2159Y433D02*
X2188Y433D01*
X1852Y432D02*
X1881Y432D01*
X1911Y432D02*
X1940Y432D01*
X2100Y432D02*
X2129Y432D01*
X2159Y432D02*
X2188Y432D01*
X1852Y431D02*
X1881Y431D01*
X1910Y431D02*
X1940Y431D01*
X2100Y431D02*
X2129Y431D01*
X2158Y431D02*
X2188Y431D01*
X1852Y430D02*
X1882Y430D01*
X1910Y430D02*
X1940Y430D01*
X2100Y430D02*
X2130Y430D01*
X2158Y430D02*
X2188Y430D01*
X1852Y429D02*
X1882Y429D01*
X1910Y429D02*
X1940Y429D01*
X2100Y429D02*
X2130Y429D01*
X2158Y429D02*
X2188Y429D01*
X1852Y428D02*
X1883Y428D01*
X1909Y428D02*
X1940Y428D01*
X2100Y428D02*
X2131Y428D01*
X2157Y428D02*
X2188Y428D01*
X1852Y427D02*
X1883Y427D01*
X1908Y427D02*
X1940Y427D01*
X2100Y427D02*
X2131Y427D01*
X2156Y427D02*
X2188Y427D01*
X1852Y426D02*
X1884Y426D01*
X1908Y426D02*
X1940Y426D01*
X2100Y426D02*
X2132Y426D01*
X2156Y426D02*
X2188Y426D01*
X1852Y425D02*
X1885Y425D01*
X1907Y425D02*
X1940Y425D01*
X2100Y425D02*
X2133Y425D01*
X2155Y425D02*
X2188Y425D01*
X1852Y424D02*
X1886Y424D01*
X1905Y424D02*
X1940Y424D01*
X2100Y424D02*
X2134Y424D01*
X2153Y424D02*
X2188Y424D01*
X1852Y423D02*
X1888Y423D01*
X1904Y423D02*
X1940Y423D01*
X2100Y423D02*
X2136Y423D01*
X2152Y423D02*
X2188Y423D01*
X1852Y422D02*
X1889Y422D01*
X1902Y422D02*
X1940Y422D01*
X2100Y422D02*
X2137Y422D01*
X2150Y422D02*
X2188Y422D01*
X1852Y421D02*
X1893Y421D01*
X1899Y421D02*
X1940Y421D01*
X2100Y421D02*
X2141Y421D01*
X2147Y421D02*
X2188Y421D01*
X1852Y420D02*
X1940Y420D01*
X2100Y420D02*
X2188Y420D01*
X1852Y419D02*
X1940Y419D01*
X2100Y419D02*
X2188Y419D01*
X1852Y418D02*
X1940Y418D01*
X2100Y418D02*
X2188Y418D01*
X1852Y417D02*
X1940Y417D01*
X2100Y417D02*
X2188Y417D01*
X1852Y416D02*
X1940Y416D01*
X2100Y416D02*
X2188Y416D01*
X1852Y415D02*
X1940Y415D01*
X2100Y415D02*
X2188Y415D01*
X1852Y414D02*
X1940Y414D01*
X2100Y414D02*
X2188Y414D01*
X1852Y413D02*
X1940Y413D01*
X2100Y413D02*
X2188Y413D01*
X1852Y412D02*
X1940Y412D01*
X2100Y412D02*
X2188Y412D01*
X1852Y411D02*
X1940Y411D01*
X2100Y411D02*
X2188Y411D01*
X1852Y410D02*
X1940Y410D01*
X2100Y410D02*
X2188Y410D01*
X1852Y409D02*
X1940Y409D01*
X2100Y409D02*
X2188Y409D01*
X1852Y408D02*
X1940Y408D01*
X2100Y408D02*
X2188Y408D01*
X1852Y407D02*
X1940Y407D01*
X2100Y407D02*
X2188Y407D01*
X1852Y406D02*
X1940Y406D01*
X2100Y406D02*
X2188Y406D01*
X1852Y405D02*
X1940Y405D01*
X2100Y405D02*
X2188Y405D01*
X1852Y404D02*
X1940Y404D01*
X2100Y404D02*
X2188Y404D01*
X1852Y403D02*
X1940Y403D01*
X2100Y403D02*
X2188Y403D01*
X1852Y402D02*
X1940Y402D01*
X2100Y402D02*
X2188Y402D01*
X1852Y401D02*
X1940Y401D01*
X2100Y401D02*
X2188Y401D01*
X1852Y400D02*
X1940Y400D01*
X2100Y400D02*
X2188Y400D01*
X1852Y399D02*
X1940Y399D01*
X2100Y399D02*
X2188Y399D01*
X1852Y398D02*
X1940Y398D01*
X2100Y398D02*
X2188Y398D01*
X1852Y397D02*
X1940Y397D01*
X2100Y397D02*
X2188Y397D01*
X1852Y396D02*
X1940Y396D01*
X2100Y396D02*
X2188Y396D01*
X1852Y395D02*
X1940Y395D01*
X2100Y395D02*
X2188Y395D01*
X1852Y394D02*
X1940Y394D01*
X2100Y394D02*
X2188Y394D01*
X1852Y393D02*
X1940Y393D01*
X2100Y393D02*
X2188Y393D01*
X1852Y392D02*
X1940Y392D01*
X2100Y392D02*
X2188Y392D01*
X1852Y391D02*
X1939Y391D01*
X2100Y391D02*
X2187Y391D01*
X1852Y390D02*
X1939Y390D01*
X2101Y390D02*
X2187Y390D01*
X1853Y389D02*
X1939Y389D01*
X2101Y389D02*
X2187Y389D01*
X1853Y388D02*
X1939Y388D01*
X2101Y388D02*
X2187Y388D01*
X1853Y387D02*
X1939Y387D01*
X2101Y387D02*
X2187Y387D01*
X1853Y386D02*
X1938Y386D01*
X2101Y386D02*
X2186Y386D01*
X1854Y385D02*
X1938Y385D01*
X2102Y385D02*
X2186Y385D01*
X1854Y384D02*
X1938Y384D01*
X2102Y384D02*
X2186Y384D01*
X1854Y383D02*
X1938Y383D01*
X2102Y383D02*
X2186Y383D01*
X1854Y382D02*
X1937Y382D01*
X2102Y382D02*
X2185Y382D01*
X1855Y381D02*
X1937Y381D01*
X2103Y381D02*
X2185Y381D01*
X1855Y380D02*
X1937Y380D01*
X2103Y380D02*
X2185Y380D01*
X1856Y379D02*
X1936Y379D01*
X2104Y379D02*
X2184Y379D01*
X1856Y378D02*
X1936Y378D01*
X2104Y378D02*
X2184Y378D01*
X1856Y377D02*
X1935Y377D01*
X2105Y377D02*
X2183Y377D01*
X1857Y376D02*
X1935Y376D01*
X2105Y376D02*
X2183Y376D01*
X1857Y375D02*
X1934Y375D01*
X2105Y375D02*
X2182Y375D01*
X1858Y374D02*
X1934Y374D01*
X2106Y374D02*
X2182Y374D01*
X1859Y373D02*
X1933Y373D01*
X2107Y373D02*
X2181Y373D01*
X1859Y372D02*
X1932Y372D01*
X2107Y372D02*
X2181Y372D01*
X1860Y371D02*
X1932Y371D01*
X2108Y371D02*
X2180Y371D01*
X1861Y370D02*
X1931Y370D01*
X2109Y370D02*
X2179Y370D01*
X1861Y369D02*
X1930Y369D01*
X2109Y369D02*
X2178Y369D01*
X1862Y368D02*
X1930Y368D01*
X2110Y368D02*
X2178Y368D01*
X1863Y367D02*
X1929Y367D01*
X2111Y367D02*
X2177Y367D01*
X1864Y366D02*
X1928Y366D01*
X2112Y366D02*
X2176Y366D01*
X1865Y365D02*
X1927Y365D01*
X2113Y365D02*
X2175Y365D01*
X1866Y364D02*
X1926Y364D01*
X2114Y364D02*
X2174Y364D01*
X1867Y363D02*
X1925Y363D01*
X2115Y363D02*
X2173Y363D01*
X1868Y362D02*
X1924Y362D01*
X2116Y362D02*
X2172Y362D01*
X1869Y361D02*
X1922Y361D01*
X2117Y361D02*
X2170Y361D01*
X1871Y360D02*
X1921Y360D01*
X2119Y360D02*
X2169Y360D01*
X1872Y359D02*
X1920Y359D01*
X2120Y359D02*
X2168Y359D01*
X1874Y358D02*
X1918Y358D01*
X2122Y358D02*
X2166Y358D01*
X1876Y357D02*
X1916Y357D01*
X2124Y357D02*
X2164Y357D01*
X1878Y356D02*
X1914Y356D01*
X2126Y356D02*
X2162Y356D01*
X1880Y355D02*
X1912Y355D01*
X2128Y355D02*
X2160Y355D01*
X1883Y354D02*
X1909Y354D01*
X2131Y354D02*
X2157Y354D01*
X1886Y353D02*
X1905Y353D01*
X2134Y353D02*
X2153Y353D01*
X1892Y352D02*
X1900Y352D01*
X2140Y352D02*
X2148Y352D01*
D02*
G04 End of Mask0*
M02*